<svg xmlns="http://www.w3.org/2000/svg" width="113.724" height="32.432" viewBox="0 0 30.089 8.581"><g style="line-height:125%" aria-label="Music" font-weight="400" font-size="14.817" font-family="3 The Hard Way Overrun" letter-spacing="0" word-spacing="0" stroke-width=".265" fill="#a41c31"><path style="-inkscape-font-specification:'3 The Hard Way Overrun, Normal';font-variant-ligatures:normal;font-variant-caps:normal;font-variant-numeric:normal;font-feature-settings:normal;text-align:start" d="M6.179 8.535c.074.015.118.03.163.015h.148c.43.014.918.03 1.467.03h.251c.075 0 .134-.016.149-.03.014-.52.03-1.245.03-2.208-.016-.045-.03-.074-.03-.119.03-.192.044-.34.044-.444l.015-.534V3.304s-.089-.074-.089-.148c-.015-.133.104-.118.104-.163 0-.059-.045-.207-.045-.266 0-.119.06-.386.06-.445.059-.637-.682-1.393-1.008-1.126-.074.044-.119.074-.133.074a.45.45 0 0 1-.119-.118 6.86 6.86 0 0 0-.756-.045c0 .015.015.06.03.104.015.06-.015.089-.104.089-.089.015-.133 0-.133-.03 0-.015 0-.03.015-.074a.045.045 0 0 0 0-.06c-.015-.014-.03-.014-.074-.014h-.385c-.03.074-.09.118-.193.118-.074-.074-.104-.118-.074-.163.044-.044.104-.044.192-.014l-.77-.8C4.756.119 4.667.104 4.549.045h-.593c0 .015.045.03.119.074.014 0 .014.015.014.044 0 .015-.014.03-.03.03-.118.044-.207-.148-.207-.148a.685.685 0 0 0-.34-.03c-.045 0-.178.163-.237.119-.015-.015-.06-.119-.119-.119h-.445a1.497 1.497 0 0 1-.237.119c-.014-.015 0-.119-.044-.119h-.904c0 .03.03.06.074.089a.135.135 0 0 1-.118.06c-.045 0-.074-.03-.09-.104C1.349.015 1.32 0 1.29.015.95 0 .696.06.55.208l-.06.089C.37.34.296.386.282.43a.875.875 0 0 0-.193.533c-.015.667-.03 1.23-.03 1.72.148.073.223.118.208.147-.074.03-.134.03-.178 0-.015.015-.03.09-.03.223v.251c.045 0 .074 0 .119.015.104.045-.119.074-.119.134v.281c.074.074.074.133 0 .178-.015.267-.03.622-.03 1.067V6.06c.03.03.045.06.03.09a.722.722 0 0 0-.03.221c0 .134 0 .208.015.238.03.044.03.088 0 .133-.014.044-.014.089-.014.104l-.015.326C0 7.335 0 7.557 0 7.824c.044.03.089.044.119.03l.103.103C.207 8 .178 8.03.133 8.03.12 8.03.044 7.97 0 7.97v.475c.074 0 .296.074.37.074h1.438c0-.015-.015-.045-.03-.089v-.015c0-.044.015-.06.06-.06.044 0 .073.016.088.03l.045.134h.192c.045 0 .045-.045.03-.148-.015-.134-.03-.178-.03-.163.015-.074.03-.119.03-.119v-.489l.03-.059V6.49c0-.03-.045-.044-.119-.044-.06 0-.148-.149-.133-.163.014-.015.03-.015.074 0 .103.014.163.014.178.014v-.326c0-.059-.193-.089-.178-.163.015-.074.059-.088.148-.044h.03v-.296c-.075-.09-.119-.149-.119-.178 0 .03.03-.015.104-.148.044-.09.059-.163.044-.223-.044-.074-.074-.133-.06-.163.045-.118.06-.148.06-.088V3.616c-.089.014-.163-.045-.237-.149.015-.044.045-.044.104-.03.104.016.148.03.133.03v-.34c-.104-.06-.133-.119-.104-.163 0-.015.03-.03.104-.03v-.34c-.06-.06-.074-.12-.03-.164.045-.044.06-.074.06-.089a.458.458 0 0 1 .118-.03 2.45 2.45 0 0 1 .4-.029c.193.015.312.045.326.06v.429c0 .044.045.044.149.015.162-.104.281-.178.355-.252.089-.015.163-.015.208.03.074.118-.134.207-.208.222-.074.015-.237.192-.355.192-.045 0-.104-.103-.149-.103v.385c.104.03.163.074.178.118.015.075-.044.104-.178.104v.282l.119.148c0 .015-.045.044-.119.104v.296c.045.044.06.074.06.104 0 .044-.015.074-.06.103v.43l-.03.06v.577c.179.045.253.09.238.163 0 .045-.03.06-.104.045-.104-.015-.148-.03-.133-.03v.296c0 .015.044.06.148.134.06.059.03.103-.074.133-.045.015-.074.03-.074.06v.251c0 .06.133.104.148.119-.06.059-.104.103-.148.133-.03.133 0 .222.074.296.074.045.074.09 0 .134-.045.015-.074.059-.09.103-.014.149-.014.238-.014.282l.03.089v.03a1.16 1.16 0 0 0-.03.31v.327c0 .044.074.059.222.059h.919c0-.015-.015-.045-.03-.089.03-.044.06-.06.104-.06.074.045.119.104.119.164 0 .015.03.015.088.015h.267c.074-.134.193-.149.326-.06.133.09.208.074.208-.03 0-.044-.075-.103-.09-.148 0-.014.015-.044.045-.103a.729.729 0 0 0 .074-.297c0-.044-.06-.118-.06-.133 0-.06.075-.281.06-.385-.03-.074-.044-.134-.03-.178a.67.67 0 0 0 .045-.193c.06 0 0 .015-.163.045-.074.015-.104-.015-.118-.089-.015-.074.014-.104.074-.104.044 0 .148.074.192.074v-.34c-.118 0-.296-.09-.237-.208.03-.044.119-.074.282-.074 0-.178-.074-.296-.208-.37-.074-.045-.059-.09.06-.134.074-.015.118-.059.133-.118.015-.074 0-.134-.045-.178-.074-.074-.089-.133-.059-.163a.674.674 0 0 1 .104-.133.356.356 0 0 0 0-.178c-.045-.104-.06-.163-.06-.163.045-.074.06-.119.06-.104v-.593c-.015 0-.045.015-.119.03H5.2l-.118-.118c-.015-.015 0-.045.06-.09.014-.014.059 0 .133.045.03.03.059.03.074.015v-.311c0-.045-.208-.074-.208-.178 0-.015.06-.045.178-.089.119-.104.163-.163.237-.178-.044.015.06.015.282.03.074 0 .104 0 .118-.015.015 0 0-.03-.044-.089a.113.113 0 0 1-.03-.074c0-.074.06-.104.163-.104.045 0 .178.09.134.134l-.074.118.03.03c.014 0 .177.089.132.148-.03.06-.044.089-.044.104v.252c.133 0 .207.044.207.148 0 .044-.074.089-.207.133v.237c0 .045.119.074.119.119 0 .03-.03.074-.104.133-.045.133-.045.252-.045.296l.09.09c.014.044-.09.103-.09.147v.608c.119.044.193.06.208.06l.06-.03h.029c.015.014.03.014.03.03 0 .044-.045.073-.134.103-.044.015-.089.03-.119.015-.044-.015-.059-.03-.074-.03v.34c0 .016.193.075.267.075.015.044-.252.163-.267.178v.281c0 .03.03.045.074.045.06-.015.09-.015.104 0 0 .015-.03.03-.089.074-.074.074-.118.192-.118.355 0 .045.015.06.03.075 0 0 .029 0 .073-.015.03 0 .06.015.075.03.014.014-.163.148-.178.162v.297c.089 0 .133.03.118.089 0 .044-.044.088-.118.133.133.163.222.207.281.222.03.03.015.06-.03.074-.044.015-.073.015-.103 0a.6.6 0 0 0-.163-.089c0 .015.03.074.074.149.015.014 0 .03-.044.074-.015.03-.015.059 0 .074zM.149 2.267v-.015c.162 0 .221.03.177.104-.03.03-.06.03-.104 0-.044-.015-.059-.044-.074-.089zm0 3.304c.044 0 .118.045.073.09-.044.044-.059.029-.074-.03zm.014 1.364c-.044-.075-.03-.119.044-.119.104 0 .163.044.163.133 0 .045-.03.06-.088.045-.06 0-.104-.015-.119-.06zm.03.459c.03 0 .059.015.074.03.03.014.03.044 0 .059-.045.044-.074.044-.119-.03zM.178 5.186c-.03 0-.03-.015 0-.06.03-.029.06-.029.104-.014.044.015.044.045.014.06-.014.014-.059.029-.118.014zm.044-3.363a.214.214 0 0 1-.03-.104c.164 0 .238.03.193.104-.059.089-.118.089-.163 0zm.06 2.845c-.045-.045-.015-.06.088-.06 0 .09-.03.104-.088.06zm.044-4C.43.667.474.696.445.77.43.815.415.815.37.8.34.785.326.755.326.71zm0 3.496c.044-.045.074-.06.119-.06.014.015 0 .045-.03.075-.045.014-.074.014-.089-.015zm.03 1.733C.34 5.883.34 5.867.34 5.853c.059 0 .237.06.192.104-.044.044-.074.059-.118.03-.03-.016-.045-.045-.06-.09zm.014.578c-.044.104-.044-.074 0 0zM.385 1.32c-.015-.015-.03-.03-.03-.06H.43c0 .03-.015.045-.045.06zM.4 8.298c-.015-.045-.03-.074-.03-.104.163 0 .237.03.193.104-.06.089-.118.089-.163 0zm0-4.623C.385 3.66.385 3.63.4 3.6c.03-.03.06-.03.089-.015.03.03.03.06 0 .074-.015.03-.044.03-.089.015zm.06 1.778c-.015-.045-.015-.09 0-.119.044 0 .103.03.147.104-.014.044-.074.06-.148.015zM.414 7.735c.015-.03.044-.045.06-.06a.35.35 0 0 1 .132.09c-.044.059-.074.073-.103.044zm.133-5.083C.445 2.638.43 2.55.43 2.475c.133 0 .207.044.207.133 0 .044-.03.06-.089.044zm-.103.475c.044-.03.074-.045.118-.045.015.015.015.045-.03.074-.044.015-.074.015-.088-.03zm.222 1.837C.563 5.038.34 4.89.474 4.83a.299.299 0 0 1 .163 0c.074.044.089.088.03.133zM.459 7.23C.4 7.157.415 7.127.504 7.127c.103 0 .192.119.178.133-.015.015-.03.03-.06.015-.089-.015-.148-.03-.163-.044zm.208-5.097C.593 2.178.445 2.074.519 2c.03-.03.074-.03.133 0 .074.044.089.088.015.133zm-.03 4.534c.06.015.104.03.119.06-.045.044-.074.058-.119.058a.116.116 0 0 1-.06-.059zm.089-5.571C.607 1.082.593 1.023.593.978c.148 0 .222.03.222.09 0 .044-.03.044-.089.029zm.06 5.186c-.12 0-.164-.06-.164-.075 0-.044.03-.074.104-.088.119-.015.148.059.163.103 0 .03-.03.045-.104.06zM.651 1.615c-.074-.014-.06-.044.015-.059.015-.015.044-.015.089-.015 0 .074-.03.09-.104.074zm0 2.83c.015-.03.044-.044.089-.059-.015.03-.045.044-.089.06zm.06-.503c-.045-.015-.045-.045-.016-.06.045-.03.074-.03.104-.015s.03.045 0 .06c-.03.03-.06.03-.089.015zM.725.563C.682.533.682.52.726.504S.8.49.83.504C.845.52.845.534.8.578.785.593.756.593.726.563zM.77 2.904c-.074-.059-.074-.103 0-.148.119-.074.223.104.149.178-.045.044-.09.03-.149-.03zm-.014 2.86c-.074-.074-.074-.133 0-.148.014-.015.059 0 .103.03.09.044.104.088.045.133a.114.114 0 0 1-.148-.015zm.03 2.311c-.09-.03-.104-.059-.045-.074.074.015.104.045.118.074-.014.015-.03.015-.074 0zM.74 3.453c0-.074.074-.09.133-.09 0 .06-.044.09-.133.09zM.8 5.216C.695 5.17.695 5.112.77 5.068c.074-.045.31.133.192.177-.06.015-.118.015-.163-.03zm.014 2.356c-.045-.015-.06-.06-.03-.104.015-.03.074-.03.148 0 .104.044.119.074.045.104a.299.299 0 0 1-.163 0zm.044-.549c-.03-.044-.03-.074 0-.088.03-.015.06-.03.104-.015.104.074.148.118.104.163-.074.059-.134.044-.208-.06zm0-2.415c.149 0 .208.03.193.104-.074.104-.148.089-.193-.06zm.074-2.163c-.044 0-.059-.03-.059-.074s.015-.06.06-.06c.044 0 .074.016.088.06-.014.044-.044.074-.089.074zM.92 1.926c-.045-.059-.045-.103 0-.118.118-.045.177-.03.177.044 0 .045-.03.074-.074.09-.044.029-.074.029-.103-.016zM.904 6.46c-.015-.044 0-.059.044-.059.074-.015.193.045.193.119 0 .059-.045.074-.119.059C.963 6.534.92 6.505.904 6.46zm.044-2.252c-.044-.044-.03-.059.045-.074.059-.015.103-.015.118.015s0 .06-.059.104c-.044.015-.074 0-.104-.045zm.015-2.815c-.06-.044-.06-.089 0-.104a.206.206 0 0 1 .133 0c.015.015.015.03.015.06s0 .044-.015.044a.111.111 0 0 1-.133 0zM.993.8c-.015-.03 0-.044.03-.059.059 0 .148.03.148.089 0 .06-.03.074-.09.06A.252.252 0 0 1 .994.8zm.133 2.934c-.06.015-.148-.015-.133-.074.015-.03.03-.044.059-.044l.119.03c.014.044 0 .073-.045.088zm.06 2.326c-.104.06-.253-.089-.178-.163.074-.074.281.119.177.163zm-.149-2.904c0-.044.015-.074.045-.089.103.045.163.09.148.134-.015.074-.074.059-.193-.045zm0 5.171c-.015-.015-.015-.044 0-.074.015-.015.03 0 .045.015l.118.06c.015.044 0 .059-.044.073-.045-.014-.09-.03-.119-.074zM1.052.223c.133 0 .193.03.178.103-.015.06-.06.074-.119.06-.03-.015-.044-.06-.059-.104zm.06 5.29c-.03-.016-.045-.045-.045-.09.118 0 .192.03.222.074-.044.09-.104.09-.178.015zm.014-2.846c-.044-.074-.03-.118.045-.118.044 0 .088.03.133.074.03.044.015.074-.045.118-.044.015-.088-.014-.133-.074zm.119 4.727c-.074 0-.134-.06-.134-.119 0-.103.074-.163.208-.163.089 0 .133.045.133.119 0 .104-.074.163-.207.163zm-.09-2.43l.03-.045c.149 0 .208.03.163.104-.03.045-.074.045-.148 0zm.193-2.77c-.118.014-.266-.03-.163-.134.03-.045.09-.03.163.03.09.059.09.088 0 .103zm-.133 2.251l.03-.044c.148 0 .207.03.163.104-.03.044-.074.044-.149 0zM1.2 7.824c.104 0 .148.014.148.03 0 .029-.044.044-.148.044zm.03-6.209c.03-.044.06-.059.089-.059.044.015.074.045.118.089a.111.111 0 0 1-.103.074c-.045-.044-.09-.074-.104-.104zm.267 2.415c-.104.075-.341-.103-.223-.163.104-.044.297.09.223.163zm-.163-2.86c-.06-.058-.075-.103-.03-.147.03-.03.074-.015.148.059.045.044.06.06.045.074l-.045.044a.115.115 0 0 1-.118-.03zm0 5.157c-.075-.044-.075-.089-.03-.133.044-.03.089-.015.163.03.089.073.089.103 0 .118-.06 0-.104 0-.133-.015zm0 .548c-.06-.044-.06-.074 0-.103a.164.164 0 0 1 .118 0c.06.03.06.059 0 .103a.164.164 0 0 1-.118 0zm.177-1.022c-.118 0-.177-.089-.177-.208.177 0 .266.045.266.149 0 .044-.03.074-.089.059zM1.348.593c.015-.03.045-.044.06-.06.103.03.148.06.148.104 0 .015-.015.015-.03.03-.044.045-.104.015-.178-.074zm.03 2.89a.157.157 0 0 1-.015-.12c.015-.059.03-.073.074-.029l.134.133c-.06.104-.119.104-.193.015zm.074-.52a.135.135 0 0 1-.044-.103c.014-.015.03-.03.044-.03.06 0 .193.104.178.148-.045.09-.104.09-.178-.014zm.193 2.371c-.119.06-.267-.089-.193-.163.074-.074.296.119.193.163zm-.149 2.83c0-.044 0-.074.015-.103.09 0 .134.03.119.088-.015.06-.06.06-.133.015zm.03-5.674c-.044-.075-.044-.134 0-.149a.62.62 0 0 1 .133.045c.045.03.06.06.045.074l-.045.044c-.044.06-.088.06-.133-.014zm.03 2.31c-.03-.014-.045-.029-.06-.073l.045-.045c.074 0 .133.045.207.119-.014.06-.089.06-.192 0zm-.03 2.297c-.06-.074-.03-.118.089-.133h.148l.163-.178h.015c.104 0 .163.03.207.074.015.015.015.045 0 .075-.014.03-.03.044-.044.044h-.207c-.015 0-.09.163-.163.207-.075.03-.149 0-.208-.089zm0-5.2c0-.045.015-.06.06-.06.073-.014.192.045.192.104 0 .074-.044.104-.133.074zm.193 5.778c-.193 0-.223-.03-.178-.089a.081.081 0 0 1 .074-.044c.074.015.104.06.104.133zm0-3.363c-.104-.015-.148-.089-.148-.163.163 0 .237.044.237.119 0 .044-.03.059-.09.044zM1.6 1.378c-.015-.03 0-.044.045-.059.059-.015.177.03.192.089a.23.23 0 0 1-.118.089c-.06-.045-.104-.074-.119-.119zm.163 5.29c-.133-.015-.207-.119-.163-.163.015-.015.045-.03.074-.015a.275.275 0 0 1 .178.104c-.015.044-.044.059-.089.074zm.074-2.86c-.103 0-.192-.015-.207-.089-.015-.03.015-.044.06-.044.058 0 .103.015.147.03.074.059.074.088 0 .103zM1.66.904C1.615.83 1.645.8 1.734.8c.074 0 .133.03.163.09.014.059-.015.088-.104.103-.045 0-.09-.03-.134-.089zm.163 5.23c-.118-.014-.148-.059-.148-.177.193 0 .282.044.252.148-.015.03-.044.044-.104.03zM1.748.43c-.074-.074-.074-.119 0-.133.119-.045.178 0 .178.103 0 .045-.015.06-.06.074-.044.015-.088 0-.118-.044zm0 2.845c-.074-.074-.074-.119-.014-.134.148-.044.222-.014.222.09 0 .044-.03.059-.074.073-.045.015-.09 0-.134-.03zm.06 2.326c-.06-.074-.06-.104 0-.119.103 0 .163.03.163.09 0 .044-.015.059-.06.073-.044.015-.074 0-.103-.044zm.074-.504c-.104-.059-.104-.103-.03-.118.119-.015.296.089.178.148a.141.141 0 0 1-.148-.03zm.133 2.37c-.104 0-.163-.073-.163-.177.163 0 .252.03.252.089 0 .06-.03.089-.089.089zm-.148-5.274c-.015-.044.015-.06.06-.06.073 0 .192.06.177.12-.015.059-.06.074-.119.059a.45.45 0 0 1-.118-.119zm.03 5.764c-.015-.015-.03-.03-.03-.045 0-.014.015-.03.06-.03.029-.014.058 0 .073.016.03.014.03.044 0 .059-.044.015-.074.015-.103 0zm.059-3.378c-.06-.074-.074-.104-.03-.119.119-.015.237.074.193.119-.015.014-.015.03-.03.03-.06.014-.104.014-.133-.03zm.06-1.793c-.016 0-.09 0-.09-.045 0-.014.015-.03.045-.03s.044.03.044.075zM2 4.075c-.074-.06-.089-.104-.03-.148.06-.03.12-.03.193.015.074.044.074.088 0 .133-.059.044-.118.044-.163 0zM1.985 1.2c-.014-.044 0-.074.015-.088.045-.015.163.014.178.059.045.06.03.104-.06.118-.044.015-.088-.014-.133-.089zm.06-.518c-.015-.03.015-.045.059-.06.074-.014.222.03.178.09-.015.044-.074.074-.148.059a.252.252 0 0 1-.09-.09zm0 1.096c-.015-.03-.015-.059.015-.074.014-.03.044-.03.074 0 .014.03.014.06-.015.09-.03.014-.06.014-.074-.016zM2.193.104c.06.015.089.044.089.089 0 .06-.03.089-.09.074a.473.473 0 0 1-.088-.104zm-.03 1.97c-.015-.073.03-.133.148-.148.06-.014.193.075.149.134-.03.03-.119.044-.267.044-.015 0-.015-.015-.03-.03zm.4-1.022c-.103.104-.326-.103-.207-.178.074-.059.326.06.207.178zm-.192.504c0-.074 0-.133.014-.148.015-.015.06.015.119.074l.03.03c0 .044-.03.059-.074.074-.045.015-.074 0-.09-.03zM2.445.52C2.37.445 2.355.4 2.43.386a.225.225 0 0 1 .193.044c.059.06.044.104-.03.133-.045.015-.104 0-.148-.044zm.133 1.393c-.074-.045-.06-.119.03-.208.044-.03.089-.03.148 0 .074.03.104.06.104.104s-.045.089-.119.104c-.074.03-.118.03-.163 0zm.163-1.17c-.015-.03 0-.045.045-.06.059-.015.163.03.163.089 0 .118-.03.148-.104.089A.34.34 0 0 1 2.74.74zm0 .577c-.044-.06-.03-.104.03-.119.074.015.118.03.118.075 0 .044-.015.059-.059.074-.044.014-.074.014-.089-.03zM2.815.252C2.771.208 2.8.192 2.89.192c.074 0 .104.016.119.06.015.074-.015.104-.074.104-.015 0-.045-.03-.119-.104zm.119 1.837c-.045-.059-.03-.088.044-.103.074 0 .119.015.163.059.074.074.045.119-.074.119a.156.156 0 0 1-.133-.075zm.103-.474c-.088-.059-.103-.103-.044-.133.044-.015.089-.015.163.015.104.06.118.104.044.148a.173.173 0 0 1-.163-.03zm.223-.489c-.06.06-.252-.059-.193-.118.06-.074.267.06.193.118zm0-.474c-.074 0-.104-.059-.119-.074 0-.044.06-.06.163-.044.045 0 .045.015.03.059s-.045.06-.074.06zM3.2 8.105c-.03-.015-.044-.044-.044-.089l.06-.044c.118 0 .177.03.177.103 0 .074-.06.09-.193.03zm.178-2.83c-.118.015-.163-.015-.207-.089-.015-.03 0-.06.03-.074.044-.03.103-.015.177.045.074.074.074.103 0 .118zM3.274 2.43c-.059-.059-.059-.103 0-.133.045-.015.09-.015.149.03.014.014.03.044.03.059 0 .044-.016.06-.06.074-.044.015-.074 0-.119-.03zm.045 5.216c-.045-.015-.06-.06-.074-.104 0-.104.074-.104.207-.03l.045.045c0 .06-.06.089-.178.089zm-.03-2.949c-.015-.044 0-.06.06-.044l.133.03c.015.044-.015.088-.06.103-.044.015-.088-.015-.133-.089zm.06 2.37c-.03-.014-.045-.058-.045-.103.104 0 .193.03.237.089-.044.03-.118.03-.192.015zm.177-5.126c-.192 0-.237-.074-.222-.133.015-.03.045-.045.089-.045.089.015.133.075.133.178zM3.32 4.208a.094.094 0 0 1 0-.089c.015-.044.044-.059.074-.059.06 0 .119.03.163.104.044.044.03.074-.06.089-.088.015-.147 0-.177-.045zm.089 2.386c-.074-.074-.09-.119-.03-.134.148-.014.222.015.222.09 0 .029-.03.044-.074.059a.157.157 0 0 1-.118-.015zm-.045-5.245a.2.2 0 0 1 .104-.09c.089.03.133.075.119.134-.015.06-.06.074-.134.045a.252.252 0 0 1-.089-.09zm.074 2.385c-.074-.06-.088-.104-.03-.133a.251.251 0 0 1 .149 0c.06.015.089.044.089.089 0 .03-.03.059-.074.074-.045.015-.09 0-.134-.03zm0 2.326c-.103-.074-.103-.118-.014-.148a.225.225 0 0 1 .192.045c.104.059.104.103.015.133-.074.015-.133.015-.193-.03zM3.497.92a.249.249 0 0 1-.09-.163c.149 0 .223.03.223.104 0 .014 0 .03-.015.044-.044.045-.074.045-.118.015zm-.03 7.423c-.015-.015-.015-.03-.015-.044.074 0 .119 0 .148.014.075.045.104.075.09.104-.075.074-.149.06-.223-.074zm.045-2.8c-.104-.074-.104-.119-.03-.134a.295.295 0 0 1 .193.015c.088.06.088.104.014.148-.059.03-.118.015-.177-.03zm.148-2.297c-.119.045-.297-.104-.178-.148.044-.015.104 0 .163.015.104.044.118.089.015.133zM3.54.385c-.074-.059-.074-.103 0-.118.045-.015.09 0 .134.06.03.029.014.059-.03.103-.015.015-.06 0-.104-.044zm-.03 7.409c.193 0 .282.015.282.044-.015.045-.03.09-.163.074-.074-.014-.118-.044-.118-.088zm.03-2.845c0-.06.074-.06.237.015.074.044.134.104.148.207.06.06.119.09.178.09.045.044.045.073 0 .088a.186.186 0 0 1-.133.015zm.237 2.474c-.103 0-.222-.103-.178-.148a.113.113 0 0 1 .075-.03c.088-.014.148 0 .163.045.044.089.03.133-.06.133zm.045-5.052c-.134-.163-.267-.207-.208-.311.03-.045.09-.045.178 0 .06.074.104.148.119.192a.56.56 0 0 0 .192.134c.09.06.09.104 0 .148a.21.21 0 0 1-.207.015c-.045-.074-.074-.134-.074-.178zM3.63 4.445c0-.044.045-.059.148-.044.104.03.134.074.09.118-.045.06-.105.074-.149.06-.03-.015-.06-.045-.089-.119zm.193 2.475c-.104.015-.193-.119-.178-.134.03-.044.044-.059.06-.059.133 0 .207.03.207.104 0 .044-.03.074-.09.089zm-.119-5.26c-.015-.045 0-.074.074-.074s.119.015.134.044c.014.06 0 .104-.074.119-.045.014-.09-.015-.134-.09zm.074 2.356c-.103-.06-.103-.09-.03-.104.045 0 .075 0 .12.015.103.015.118.044.058.103-.044.03-.088.03-.148-.014zM3.72 6.297c.015-.044.044-.059.104-.044.074.015.133.03.163.074.044.044-.015.074-.148.074-.015 0-.045-.03-.119-.104zm.06-5.126a.135.135 0 0 1-.045-.104c.192 0 .267.045.222.119-.044.089-.104.089-.178-.015zm.236 4.697c-.133.074-.355-.074-.222-.178.074-.03.148.015.252.118.015.015.015.045-.03.06zm-.222-2.949c-.015-.074 0-.104.015-.118.03-.015.074 0 .133.03.119.044.178.088.178.133 0 .03-.03.059-.089.089-.044.014-.089.014-.118-.015zm.03.593c-.074-.045-.09-.089-.015-.133.044-.03.104-.03.163.014.074.06.074.104 0 .134-.045.014-.104 0-.148-.015zm0-2.89c-.015-.029.015-.059.059-.088.044-.015.148.118.133.133-.03.03-.044.045-.059.045-.06 0-.104-.03-.133-.09zm.074 7.572c-.104-.06-.104-.089-.03-.104a.299.299 0 0 1 .163 0c.089.015.104.06.045.104-.045.044-.104.044-.178 0zm.266-3.349c-.103.074-.31-.059-.207-.177.119-.104.282.103.207.177zm-.03 2.86c-.103.015-.192-.015-.192-.074-.015-.045 0-.06.015-.074.06-.03.119-.015.178.03.074.059.074.103 0 .118zm-.044-.489c-.118-.06-.133-.133-.133-.178.193 0 .282.045.252.119-.015.059-.06.074-.119.059zm-.088-.667c.059-.103.148-.103.266-.015.03.015.045.045.045.075 0 .074-.06.103-.163.088zm.074-2.237c-.074-.06-.09-.104-.03-.133.104-.06.296.103.178.163a.141.141 0 0 1-.148-.03zm0-2.311c-.045-.015-.045-.045-.015-.104.015-.045.044-.045.103-.015.045.03.06.074.045.119-.015.03-.06.03-.133 0zm.03 4.089c-.06-.06-.03-.089.073-.089.045 0 .104.03.163.104.045.059.015.089-.103.089-.015 0-.06-.03-.134-.104zm.044-4.578c-.06-.06-.06-.104 0-.134.044-.015.148.015.148.074 0 .03-.015.06-.06.074-.044.015-.074.015-.088-.014zm.133 2.311c-.104.044-.252-.089-.148-.133.044-.03.089-.015.148.03.06.044.06.088 0 .103zM4.178.978c-.059-.06-.059-.104 0-.133.06-.045.208.104.148.163-.044.03-.103.015-.148-.03zm0 2.267c-.059-.06-.03-.089.074-.089.074 0 .119.03.134.09.015.044-.015.088-.09.103-.014 0-.058-.03-.118-.104zm.193 2.415a.128.128 0 0 1-.193-.103c0-.06.03-.09.09-.09.044 0 .073.015.103.045.044.074.044.119 0 .148zM4.267 2.8c-.104-.073-.104-.133-.03-.148.12-.044.312.119.193.178a.173.173 0 0 1-.163-.03zm-.03 5.053c.134 0 .223.03.238.074.044.06-.06.104-.134.104-.03 0-.059-.045-.103-.119zm0-7.408c-.014-.03.015-.06.06-.09.03-.014.06.016.089.06.015.03-.015.06-.06.09-.03.014-.059-.016-.088-.06zm.075 4.697c-.06-.06-.074-.104-.045-.134a.21.21 0 0 1 .09-.03c.118 0 .162.045.147.12-.015.044-.044.059-.089.073-.044 0-.089-.014-.103-.03zm.163 2.37c-.104.045-.208-.118-.208-.118 0-.045.045-.074.119-.06.074 0 .118.03.118.09.015.044 0 .074-.03.088zm-.149-5.23c-.074-.06-.074-.104 0-.148.104-.045.297.118.178.193-.044.03-.103.014-.178-.045zm-.014 4.653c-.045-.06-.03-.104.03-.119.133-.06.325.104.222.163a.214.214 0 0 1-.104.03c-.06 0-.104-.03-.148-.074zm.044-2.327c-.06-.059-.06-.103 0-.133.045-.03.089-.015.163.03.03.014.045.044.045.059 0 .044-.03.06-.075.074-.044.015-.088.015-.133-.03zm.03-2.963c.148 0 .222.03.222.089 0 .074-.03.104-.089.104-.074 0-.118-.045-.133-.134zm.237 2.474c-.074.06-.311-.03-.208-.148.074-.06.282.074.208.148zM4.43 6.446c-.104-.104-.104-.149 0-.163.163-.03.237 0 .237.103 0 .074-.044.104-.133.104a.135.135 0 0 1-.104-.044zm.252-.475c-.118.045-.237-.088-.222-.133l.044-.044c.104-.015.178-.015.223.03.059.059.044.103-.045.147zM4.578 1.29c-.118 0-.118-.03-.118-.133.163 0 .222.03.207.104-.015.015-.044.03-.089.03zM4.52 3.586c-.074-.074-.074-.119-.015-.148.06-.015.223.118.148.163-.044.03-.088.03-.133-.015zm0-2.845c-.044-.06-.044-.089.015-.089.074 0 .118.015.163.06.044.044.03.059-.045.059A.296.296 0 0 1 4.52.74zm.045 7.557c-.09-.045-.09-.09-.015-.134.044-.03.103-.015.178.03.074.044.074.089 0 .104a.303.303 0 0 1-.163 0zm-.03-2.964c.044-.044.074-.074.118-.089.09.03.149.074.163.119.015.074-.03.104-.133.104-.03 0-.074-.045-.148-.134zm.06-5.097a.113.113 0 0 1-.03-.074c.133 0 .192.015.192.045 0 .103-.06.103-.163.03zm.251 2.415c-.237.015-.326-.118-.267-.192.015-.03.06-.045.104-.06.104-.014.178.03.207.104.045.09.03.134-.044.148zm-.267 5.083c-.014-.03-.014-.06 0-.074a.113.113 0 0 1 .074-.03l.223.074c.059.06-.045.089-.119.089s-.133-.015-.178-.06zm.03-2.86c-.044-.074-.03-.104.06-.119.088 0 .162.015.207.06.059.059.03.089-.09.103-.073.015-.133 0-.177-.044zm.015-1.808c-.045-.044-.045-.074 0-.103.044-.045.207.074.133.133-.044.03-.089.015-.133-.03zm0 4.12c.044-.06.089-.09.148-.09.074.015.118.06.163.119-.045.06-.089.089-.133.089-.074 0-.134-.045-.178-.119zm.237-5.068c-.045.045-.282-.133-.148-.193.074-.03.148-.014.207.06.015.03 0 .074-.06.133zm-.163 2.193c-.015-.044 0-.074.044-.089.104-.015.223.06.223.133 0 .074-.045.09-.149.074-.059-.044-.103-.074-.118-.118zm.044 2.445c-.089-.06-.089-.119-.014-.178.044-.045.118-.045.192 0 .074.044.089.104.045.163-.06.074-.134.074-.223.015zm.015-5.26c-.015-.045 0-.06.045-.074.103 0 .222.074.177.118-.044.06-.088.09-.103.074a.45.45 0 0 1-.119-.118zm.06 2.4c-.075-.074-.09-.133-.03-.148a.251.251 0 0 1 .148 0c.06.015.089.044.089.089 0 .044-.03.06-.074.074a.144.144 0 0 1-.134-.015zm-.06 2.282c-.015-.015-.015-.03-.015-.045 0-.044.045-.059.119-.074.133 0 .237.045.178.148-.03.045-.074.075-.119.075-.06 0-.118-.03-.163-.104zm.119-5.112c-.06-.044-.06-.089-.015-.133.06-.06.326.133.163.148-.074 0-.119 0-.148-.015zM4.86 3.334c-.03-.03-.03-.06-.015-.089a.113.113 0 0 1 .074-.03c.074.015.148.06.193.134-.045.06-.09.089-.104.089-.06 0-.104-.03-.148-.104zm-.015 2.311c.03-.059.074-.088.119-.088.044 0 .103.03.163.103.044.045-.075.104-.119.104-.074 0-.119-.044-.163-.119zM5.067.563C4.993.608 4.815.49 4.92.415c.015-.015.045 0 .089.03.06.074.074.104.06.118zm.015 2.356c-.118.015-.193-.074-.193-.118 0-.045.03-.074.09-.09.059-.014.118 0 .162.045.015.03.03.06.03.074 0 .045-.03.074-.089.09zM4.92 5.157c-.044-.075-.03-.104.045-.119.163-.015.251.104.207.163-.015.03-.044.044-.089.044a.205.205 0 0 1-.163-.088zm0 2.874a.045.045 0 0 1 0-.06c.03-.044.06-.059.074-.059.06-.014.119.015.163.074.074.075.045.119-.089.134-.03.015-.074-.015-.148-.09zm.06-5.66c-.015-.015-.03-.03-.03-.044 0-.09.059-.134.178-.134.044 0 .074.015.088.06.045.088.03.148-.044.177a.194.194 0 0 1-.193-.059zm0 5.141c.014-.044.029-.074.073-.089.119 0 .178.03.178.075 0 .059-.103.118-.148.103zm.029-2.874c-.015-.015-.015-.015-.015-.03 0-.044.045-.059.148-.059.03 0 .074.03.119.089.015.074-.015.104-.119.104-.014 0-.059-.03-.133-.104zm.311-2.741c-.104 0-.252-.03-.252-.163.163 0 .267.03.282.104.015.03 0 .044-.03.059zm-.178-.608a.135.135 0 0 1 .119-.059c.03.015.06.045.089.089-.015.044-.06.074-.104.06-.044-.03-.089-.06-.104-.09zm.104-.415C5.171.815 5.156.771 5.201.726c.103-.074.31.09.192.163-.059.03-.103.03-.148-.015zm0 2.238c-.044-.045.03-.104.089-.104.104 0 .163.045.163.133 0 .015-.015.03-.044.045-.045.015-.119 0-.208-.074zm.045-.519c-.015-.044 0-.074.044-.089.074-.014.207.015.207.119 0 .089-.044.118-.133.089a.45.45 0 0 1-.118-.119zm.266-.415c-.118.06-.178-.03-.178-.089 0-.074.03-.103.09-.103.029 0 .059.015.088.044.06.074.06.119 0 .148zm-.074-.518c-.06-.03-.06-.074-.015-.134.06-.059.208.045.208.104 0 .074-.06.089-.193.03zm.074 1.23c.06-.06.119-.09.178-.09.148.015.193.06.119.134-.074.074-.119.089-.163.06-.045-.045-.09-.075-.134-.104zm.104-.49c-.044-.073 0-.103.104-.118.103 0 .163.03.163.104s-.045.118-.119.118c-.044 0-.104-.03-.148-.103zm.118-.444c-.074-.06-.074-.118 0-.178.075-.059.267.104.193.178-.06.045-.118.045-.193 0zm.208-.46c-.06.06-.178-.088-.178-.147.178-.06.267-.045.267.044 0 .015-.03.06-.09.104zm0 1.186c-.015-.044 0-.074.044-.089.104-.015.223.03.223.104s-.045.104-.134.104c-.044 0-.089-.045-.133-.119zm.06-.518c-.016-.045.014-.075.058-.09.075-.014.208.03.208.104s-.045.104-.119.104c-.044 0-.089-.044-.148-.118zm.118-.43c-.074-.074-.074-.119 0-.133.148-.045.222-.03.222.074 0 .044-.03.074-.089.088-.044.015-.089.015-.133-.03zm.163 6.386c0-.015.03-.074.103-.178.015-.015 0-.044-.03-.074l-.147-.163c-.015-.074.044-.074.207.015.045.015.06.044.06.089v.281c0 .074-.06.074-.193.03zm.133-2.697c-.193.045-.193-.089-.193-.148.075 0 .252.044.326.044 0 .045-.044.09-.133.104zm-.178-2.46c0-.073.045-.103.134-.103.118 0 .163.044.133.133-.015.06-.06.09-.133.104-.074.015-.119-.015-.134-.119zm.03.593c0-.015.015-.059.044-.118.015-.015.03-.03.045-.03.044.03.074.06.074.089 0 .03-.03.06-.074.074-.045.015-.074.015-.09-.015zm0 3.6c.015-.029.03-.044.06-.044.133 0 .207.045.207.148 0 .045-.045.06-.119.045zm.222-4.578a.149.149 0 0 1-.207-.133c.074 0 .133 0 .148-.015.06-.03.118-.03.163.015.044.045.015.089-.104.133zm-.192 2.253c-.015-.045.014-.06.059-.06a.206.206 0 0 1 .133 0c.06.015.09.03.104.045.044.044 0 .089-.148.103-.045 0-.104-.03-.148-.088zm.059 2.8c-.06-.015-.06-.045 0-.104.044-.044.089-.06.148-.044.06.015.06.044 0 .103-.044.045-.089.06-.148.045zm.03-3.26a.214.214 0 0 1-.03-.103c.015-.045.044-.06.089-.045.118.03.178.045.163.06.044-.03.059-.03.074-.015.015.014-.015.044-.06.074-.103.074-.177.088-.237.03zm-.015 2.326a.045.045 0 0 1 0-.059c.014-.03.03-.044.059-.03l.074.06c.074.015.104.03.104.044 0 .03-.015.045-.06.045a.19.19 0 0 1-.177-.06zm.059-4.667c-.03-.044-.045-.074-.03-.089.074-.074.134-.089.178-.059.089.06.104.104.045.148-.09.06-.149.06-.193 0zm0 4.149c-.06-.074.207-.208.252-.208a.21.21 0 0 0-.03.09c.074.073.089.147.045.192-.074.074-.163.06-.267-.074zm.03-4.638c-.03-.015-.045-.044-.045-.059 0-.104.06-.148.178-.133.104.059.133.103.118.148-.044.089-.118.104-.251.044zm.148 2.356c-.134.06-.223-.06-.178-.133.015-.045.06-.074.104-.06.192.06.266.09.222.09 0 .029-.045.059-.148.103zm.133-.504c-.193.06-.311-.089-.252-.163.015-.014.06-.014.119.03a.616.616 0 0 0 .237 0c.015 0 .015.015.015.03 0 .03-.045.059-.119.103zm-.267 2.223l.03-.03.03.03-.03.03zM6.58 2.8c-.015-.03.059-.045.192-.03h.104a.624.624 0 0 0 .074-.03c.015.015.015.015.015.03 0 .044-.06.089-.178.133-.074.03-.133 0-.207-.103zm.044 2.311c-.104-.044.104-.044 0 0zm.015.548c.133 0 .163.03.118.09-.044.058-.088.058-.118-.016zm.104-3.304c-.015-.015-.03-.03-.03-.074-.015-.044-.015-.06.015-.06 0 0 .03.016.074.03.015.015.044.015.089 0 .118-.014.163-.059.118-.118-.03-.074 0-.104.074-.119.074-.014.134.015.178.09.015.044-.03.073-.133.103-.045.015-.06.044-.074.06-.104.133-.208.162-.311.088zM6.697 4.55l.03.03-.03.03zm.06-.415c-.015-.015-.03-.044-.015-.074.014-.044.044-.06.074-.06.014 0 .044.045.118.134.03.045.045.06.03.074-.015.015-.03.03-.06.015a.307.307 0 0 1-.148-.089zm0-2.34c.014-.045.029-.06.073-.075l.09.06h.014c.045 0 .148-.045.193-.045 0 .104-.09.163-.267.163-.044-.045-.089-.074-.104-.104zm-.015 2.148c-.104-.06.103-.06 0 0zm0 1.289c.014-.015.03-.03.074-.03-.015.015-.03.03-.074.03zm.088-.578l.06.059-.045.03c-.015 0-.03-.015-.044-.03zm0-3.364a.116.116 0 0 1 .06-.059l.059.03h.03l.118-.03c.074 0 .104.015.074.045a.23.23 0 0 1-.118.088c-.074.03-.119.03-.163 0zm0 2.267l.03-.03.03.03-.03.03zm.06-.489c-.015-.03 0-.044.03-.059.014-.015.044 0 .059.03 0 .03-.015.044-.03.059-.03.015-.044 0-.06-.03zm.059.608l.03-.03.03.03-.03.03zm.015-1.082c0-.044.015-.059.044-.059.015 0 .03.015.03.06zm.06.623c0-.03.014-.06.044-.075.044.03.059.06.044.075-.015.014-.044.014-.089 0zm.132-1.72c.104.016.134.045.149.149.014.044 0 .074-.045.074-.015 0-.044-.03-.089-.089l-.074-.074zm.015 1.2c-.044.12-.044-.103 0 0zm.074-.8l.03.03h-.03zm.074-.473c-.044.118-.044-.074 0 0zM9.333 7.246c.045.222-.044.177 0 .4.074.459.534.918.993.933.03 0 .06-.03.089-.104.015-.03.044-.03.118 0 .134.075.193.104.178.104h.356c.03-.03.059-.044.089-.03.074.015.118.03.103.03h.963c0-.044-.059-.104-.059-.148.163 0 .208.148.208.148h.474c.014-.03.044-.044.089-.03.133.015.222.03.266.03.415.015.741-.06.963-.207.311-.193.474-.49.49-.89a.627.627 0 0 0-.03-.236c-.045.044-.09.059-.119.059-.03 0-.044-.03-.044-.089 0-.06.03-.089.074-.089.015 0 .074.03.118.03v-.341c0-.015-.03-.015-.103-.03-.045-.014-.03-.03.044-.074.044-.015.06-.044.06-.089v-.281c-.075-.015-.104-.045-.104-.074 0-.015.03-.045.074-.09.014-.014.03-.044.03-.088v-.267c-.03-.015-.045-.044-.03-.089.014-.044.03-.059.03-.074V3.467l-.164-.148c.06-.044.104-.074.148-.074.015-.015.015-.074.015-.148s-.089-.282-.089-.356h.09V.563c0 .015-.045-.014-.12-.074-.029-.015-.044-.059-.044-.103.015 0 .045.014.104.059.044.015.06-.045.06-.163V.045h-.905c-.044 0-.074.104-.088.118-.06.045-.208-.118-.267-.118h-.34c-.075.074-.134.074-.208 0h-.356c-.03 0-.044.015-.044.044l.044.06.163.044c.06.044.044.089-.044.104-.045 0-.134-.045-.149-.045v.341c.104.119.134.193.06.222-.045.015-.06.045-.06.09V1.2c.075 0 .075.03.03.104-.015.045-.03.06-.03.06v.444c-.03.015-.044.089-.03.207l.016.712c0 .163.014.251.03.281.059.045.103.06.147.074.015.03.015.045-.03.045h-.133c-.014.014-.014.03-.014.044l-.03.296.163.149-.119.103v.297c.06.044.09.089.09.118-.06.06-.09.104-.09.134 0 .133 0 .192-.014.177a.905.905 0 0 1 .044.193c-.015.089-.03.133-.03.118v1.186c.045.044.06.089.06.118-.074.163-.09.237-.208.237h-.37c0 .075-.03.134-.074.163-.015 0-.445-.266-.445-.459v-.074c.03-.015.06-.015.074-.015.06-.015.09-.104.09-.237 0-.015-.06-.074-.06-.089 0-.044.06-.089.06-.089V2.83c-.045-.014-.06-.044-.06-.089 0-.044.015-.074.06-.088v-.297c0-.044 0-.089-.016-.104-.03-.074-.044-.103-.044-.118s.06-.089.06-.104V.474c-.03-.059-.09-.03-.09-.133 0-.044.134.015.074-.222-.014-.045-.03-.074-.074-.074h-.118c-.06.06-.163.133-.237.089-.015-.015-.06-.09-.104-.09h-.415c-.044.045-.089.045-.133.03l-.06-.03h-.933c0 .016.03.045.074.09-.104.103-.237.015-.237.089v.281c0 .06.119.104.133.119.045.059.015.103-.103.118V.92c.015.03.059.044.163.044 0-.088.044-.133.133-.133.133 0 .193.222.237.222.311 0 .548-.177.741-.518.044-.163.06-.4.193-.4.163 0 .222.074.207.237-.015.074-.015.089-.03.074.074.06.149.089.208.104.044.044-.03.103-.074.103-.03 0-.074-.03-.148-.074-.015-.015-.045 0-.09.074-.147.311-.503.578-1.051.8-.163.06-.252.074-.297.045a.433.433 0 0 0-.148-.09.158.158 0 0 0-.074.045c.045.149.06.223.06.223-.045.089-.06.133-.06.133v.533c0 .074.222.045.237.104.015.045 0 .06-.03.074-.059.015-.162-.06-.177-.044-.03.044-.045.074-.045.118v.104a.334.334 0 0 1 .015.104c.104-.015.282.103.222.222-.014.044-.059.06-.118.06-.074-.016-.104-.016-.09-.03-.029.014-.044.088-.029.207 0 .044.015.089.06.133.088.104.133.149.118.163 0 .09-.207-.074-.178.237.015.045.134.149.134.223a.504.504 0 0 0-.119.148v1.244c0 .015.193.149.474.149.03.014.045.044.06.059-.104.074-.178.104-.252.104-.045.118-.178.266-.282.237v.207c0 .06.148.089.163.104.104.104-.178.178-.178.281 0 .09.015.148.045.193.044.074.059.133.03.163l-.075.148c0 .104 0 .163.015.193zm.089-1.927c-.015-.074.03-.251.03-.296.103 0 .148.03.148.09 0 .014-.119.088-.074.132.044.06.044.104.015.134-.06.059-.104.044-.119-.06zm0-.548c-.03-.059 0-.118.104-.178.074-.044.118 0 .133.149 0 .118-.06.163-.118.148-.045-.015-.075-.06-.119-.119zm.074-.43c-.074-.059-.089-.118-.03-.162.104-.06.341.089.238.163-.06.059-.134.059-.208 0zm-.044 3.305c.014-.045.044-.06.074-.074a.274.274 0 0 1 .133.103c-.03.045-.074.074-.118.06zm.089-.46c-.06-.074-.075-.118-.03-.118.118-.015.207.06.193.104l-.045.044c-.044.015-.089.015-.118-.03zM9.51 2.03c-.03-.06-.03-.104.015-.148.044-.044.089-.044.133 0 .015.015.03.044.03.06 0 .073-.045.118-.119.118a.112.112 0 0 1-.06-.03zm.252 1.808c-.134.074-.356-.074-.222-.178.044-.03.088-.03.163 0 .059.03.103.06.133.104a.179.179 0 0 1-.074.074zm-.193 2.8c-.015-.044.03-.06.104-.06s.118.016.133.06c-.044.074-.074.104-.118.104-.03 0-.074-.03-.119-.104zm.045-.518a.112.112 0 0 1-.03-.06c0-.044.03-.059.104-.044.074 0 .118.015.148.06.044.073.015.118-.089.118a.156.156 0 0 1-.133-.074zM9.807.504C9.704.52 9.644.444 9.6.386L9.66.31a.111.111 0 0 1 .132 0c.045.03.075.06.075.104 0 .045-.015.074-.06.09zm.015 2.83c-.104.045-.252-.03-.148-.133.03-.03.074-.03.118.015.09.044.104.088.03.118zm-.074-1.067c-.089-.103-.06-.163.104-.163.089 0 .148.03.178.09.074.147.044.221-.075.221-.059 0-.133-.044-.207-.148zm.044 3.186c-.044-.03-.044-.06-.03-.074.016-.015.03-.015.045-.015.03.015.045.044.045.104-.03 0-.045 0-.06-.015zM9.778 2.8c.03-.045.059-.06.103-.045.015.015.015.045-.03.06-.029.03-.059.03-.073-.015zm.014 1.763c-.044-.06-.014-.09.06-.104.074-.015.118-.015.133.03.015.059 0 .103-.074.148-.044.03-.074 0-.119-.074zm.015.578c-.044-.03-.044-.06 0-.09.045-.029.074-.029.119 0 .044.03.044.06 0 .09-.045.03-.074.03-.119 0zm-.03 2.77c.015-.03.06-.03.134 0 .06.03.074.06.06.074-.045.06-.09.09-.104.075-.045-.015-.075-.06-.09-.119zm.075-6.134a.158.158 0 0 1-.045-.074c-.015-.044 0-.059.015-.074.133-.044.356.06.237.163-.074.045-.133.03-.207-.015zm-.03 3.156c0-.044.015-.059.045-.074.044.03.074.06.074.104-.06 0-.104-.015-.119-.03zm-.015 2.46l.03-.03c.06-.044.222.06.207.134 0 .014-.03.03-.089.03-.044 0-.074-.016-.088-.045zm.045-3.304c-.06-.09-.03-.148.074-.163.074-.015.148.015.207.089.074.103.03.163-.103.177-.075.015-.134-.03-.178-.103zm.03 2.874c-.09-.06-.104-.104-.03-.133a.238.238 0 0 1 .222.015l.044.074c0 .044-.014.059-.044.074-.074.015-.133.015-.193-.03zm.073-.504c-.014-.014-.044-.03-.059-.074s-.015-.059.03-.074c.118-.044.37.134.207.178-.06.015-.118.015-.178-.03zM9.925.712c-.014-.015-.014-.045-.014-.06.089 0 .148 0 .193.015.088.03.118.06.074.089-.09.104-.178.089-.252-.044zm.06 2.904c-.044-.075-.06-.119-.015-.119.134-.015.193.015.193.089 0 .03-.03.044-.074.06-.045.014-.074 0-.104-.03zm.163-.475c-.118-.014-.163-.074-.163-.177.163 0 .252.03.252.103 0 .045-.03.074-.089.074zm-.015 2.83c-.074 0-.133-.088-.133-.148.133 0 .207.03.207.09 0 .044-.03.073-.074.058zM10.09.252c-.06-.074-.074-.104-.045-.104.015-.014.03-.014.06-.014.118 0 .163.03.148.089-.015.044-.03.059-.074.074-.045 0-.074-.015-.09-.045zm.222 2.356c-.222 0-.252-.06-.237-.133.015-.045.044-.045.074-.03.104.045.163.089.163.163zm.104 3.008c.074-.015.103.015.103.104-.103 0-.31.059-.414.059 0-.06.044-.09.148-.09.059-.014.118-.029.163-.073zm-.148-3.512c-.104-.015-.149-.074-.149-.178.163 0 .237.045.237.134 0 .044-.03.06-.088.044zm.103 2.326c-.118.045-.207-.03-.222-.088-.015-.045 0-.06.044-.06.075 0 .119.015.163.03.09.06.09.104.015.118zm-.237.934c.045 0 .06.015.06.044 0 .015-.015.03-.06.03zm.03-.563c0-.074.015-.119.044-.133.119-.015.134.148.119.207-.015.044-.045.074-.09.074-.044 0-.058-.044-.073-.148zm.044 2.49a.158.158 0 0 1-.044-.075c-.015-.044 0-.06.03-.074.044-.03.088-.03.162 0 .134.044.149.104.06.163-.045.03-.119.03-.208-.015zm-.015 1.036c-.059-.03-.059-.059-.014-.103.03-.015.074-.015.118.03.045.029.045.058 0 .073-.044.015-.074.015-.104 0zm-.03-3.14c.045 0 .075.014.075.058h-.074zm.045-3.66a.094.094 0 0 1 0-.09c.015-.03.03-.044.06-.03.059.016.103.045.148.09.059.074.044.104-.045.104a.212.212 0 0 1-.163-.075zm.267 5.245c-.119.074-.282-.075-.207-.149.044-.03.103-.03.177 0 .104.045.104.09.03.149zm.06-.52c-.104.105-.356-.088-.238-.147.119-.06.341.074.237.148zM10.34.505c-.015-.015-.015-.03-.015-.044 0-.03.044-.03.133-.015.09.015.119.044.09.06-.045.058-.075.088-.09.088s-.044-.03-.118-.089zm-.015 2.845c-.015-.074.015-.104.089-.104a.23.23 0 0 1 .118.09c.045.058.015.088-.074.103-.06.015-.104-.015-.133-.09zm.03-.963c-.015-.015-.015-.03-.015-.06 0-.088.074-.133.222-.133.089 0 .133.03.148.104.015.118-.044.178-.193.178-.074 0-.118-.03-.163-.09zm-.015 1.496c.044-.03.074-.044.118-.044.015.015.015.044-.03.074-.044.015-.074.015-.088-.03zm.163-.992c-.074 0-.104-.075-.104-.134.089 0 .148.03.193.104-.015.03-.045.044-.09.03zm-.074 2.637a.113.113 0 0 1-.03-.074c.118 0 .178.03.163.104-.015.044-.06.03-.133-.03zm.074-.326c-.045-.015-.045-.089 0-.222.014-.03.044-.03.089-.015.044.015.059.044.059.074-.015.044-.03.06-.03.074.015.044.03.06.03.06 0 .073-.045.073-.148.029zm0-3.423c-.015-.044 0-.059.03-.059.059-.015.147.044.147.104 0 .044-.014.074-.03.074-.044 0-.103-.045-.147-.119zm.059 5.794c-.045-.06-.06-.104-.045-.119.03-.015.06-.03.104-.03.06.045.163.09.104.149-.045.074-.104.074-.163 0zm0-2.845c-.045-.015-.06-.06-.015-.134.03-.044.074-.044.119 0 .044.045.059.075.03.119-.016.044-.06.044-.134.015zm.03-3.438c-.045-.014-.045-.044-.03-.074.015-.015.044-.03.089-.015.089.045.133.09.133.163a.312.312 0 0 1-.192-.074zm-.03 2.845a.252.252 0 0 1 .089-.089c.074.015.118.06.118.119 0 .03-.014.06-.03.074-.029.015-.059.015-.073 0-.06-.045-.09-.089-.104-.104zm.015 2.89c-.074-.075-.045-.12.059-.12.044 0 .104.03.163.09.03.044.03.074 0 .089-.015.014-.03.014-.074.014-.06 0-.104-.03-.148-.074zm0 1.096c-.03-.015-.03-.045 0-.09.03-.044.059-.044.089-.029.03.03.03.06 0 .09-.015.044-.045.044-.09.029zm.015-4.504c-.015-.045 0-.075.044-.09.074-.014.207.045.222.12.015.058-.03.088-.118.088-.045 0-.09-.044-.148-.118zm.296-.415c-.119.074-.326-.06-.222-.163.118-.104.34.089.222.163zm-.208 3.348c-.059-.074-.059-.118-.014-.148.059-.015.192.045.192.104 0 .044-.03.06-.074.074-.044.015-.074 0-.104-.03zm0-.592c0-.134.015-.193.06-.193h.326c.074 0 .103-.03.089-.074a.624.624 0 0 0-.03-.074c.015-.015.03-.03.044-.03.06 0 .09.03.104.09.015.058.015.103-.03.132-.133.06-.251.09-.325.104.014.06-.045.163-.104.163-.045 0-.09-.03-.134-.104zm.208-3.275c-.104 0-.163-.06-.163-.133.133 0 .207.015.222.059zm.015 4.667c-.06 0-.104 0-.134.015-.059-.015.06-.118.134-.163.133-.06.266.104.222.178-.015.015-.045.015-.089.015a.341.341 0 0 1-.133-.045zm-.06-2.37a.081.081 0 0 1-.044-.074c0-.074.03-.119.104-.119.044 0 .089.03.103.074a.144.144 0 0 1-.014.134c-.015.044-.075.03-.149-.015zm0 .296c.09-.015.134.044.134.163 0 .06-.015.089-.045.104-.044.015-.074.015-.089 0-.014 0-.014-.03-.014-.104v-.133c0-.015 0-.015.014-.03zm.03 2.593a.081.081 0 0 1-.044-.074c.014-.03.03-.045.059-.03.074.015.133.045.148.09-.015.058-.06.058-.163.014zm.074.548c-.06.045-.104-.044-.118-.06 0-.029.03-.044.088-.058.045-.015.075 0 .09.03.014.044-.015.073-.06.088zm.133-3.911c-.118.074-.325-.09-.192-.163.074-.045.311.103.192.163zm-.192-2.92c-.045-.044-.015-.059.06-.059.073 0 .132.03.177.09a.156.156 0 0 1-.133.073c-.045-.044-.09-.074-.104-.103zm.163 2.43c-.104-.014-.148-.103-.148-.177.148 0 .222.044.222.133 0 .045-.03.06-.074.045zm-.045-2.903a.081.081 0 0 1-.044-.075c.178 0 .237.03.193.09-.045.044-.09.029-.149-.015zm0 5.748c-.074-.059-.074-.103-.014-.148.044-.03.088-.015.163.03.014.015.03.044.03.06 0 .044-.016.058-.06.073-.045.015-.074 0-.119-.015zm.178-3.348c-.133.074-.207-.104-.192-.119l.074-.044a.115.115 0 0 1 .118.03c.045.074.045.118 0 .133zm.015 2.845c-.104.059-.282-.09-.178-.163.06-.06.297.118.178.163zm-.015-3.379c-.133-.044-.148-.074-.148-.133.163 0 .252.03.252.089 0 .044-.03.06-.104.044zm.015 1.823c-.089-.074-.089-.133-.015-.148.104-.045.311.089.193.163-.06.044-.119.03-.178-.015zm.044-2.297c-.074 0-.088-.03-.044-.103.015-.015.06-.03.148-.03 0 .089-.03.133-.104.133zM11.2 7.601c-.015-.044-.015-.059.03-.074.03-.015.074-.015.118 0a.152.152 0 0 1 .09.074c.014.06-.016.09-.075.104-.074.015-.133-.03-.163-.104zm.03.608c-.03-.015-.03-.045 0-.06.03-.03.059-.03.089-.014.044.014.044.044.014.059-.044.015-.074.03-.103.015zm.103-6.223a.117.117 0 0 1-.118-.119c.015-.015.03-.03.044-.03.119 0 .163.03.134.09-.015.044-.03.059-.06.059zm-.089 3.319c-.074-.015-.074-.045 0-.06h.075c.074.015.074.045 0 .06-.03.014-.06.014-.075 0zm0-1.156c.149 0 .223.03.223.104 0 .015 0 .03-.015.044-.089.104-.163.074-.208-.089zm.075 2.46c-.015-.015-.045-.015-.075-.015 0-.074.045-.104.134-.104.104 0 .163.03.178.089.014.06-.03.089-.104.104-.015 0-.06-.03-.133-.074zm-.015.548c-.104-.074-.104-.134-.03-.148.133-.045.311.118.208.177-.06.015-.119.015-.178-.03zm.103-3.364a.16.16 0 0 1-.118-.148c.133 0 .222.03.237.09.015.029 0 .044-.03.058-.014.015-.044.015-.089 0zm-.074-2.489c.074 0 .208.074.149.178-.015.044-.06.044-.104 0a.168.168 0 0 1-.045-.119zm.06 1.912c-.045-.045-.045-.09 0-.104.044-.03.074-.015.089.03.014.044.014.074 0 .103-.03.03-.06.015-.09-.03zm.014-2.282c-.014-.03-.014-.06.015-.09.03-.029.06-.029.09 0 .014.03.014.06-.03.09-.03.03-.06.03-.075 0zm.03 1.718h.03v.03h-.03zm.222 5.823c-.074.06-.252-.059-.148-.133.015-.015.045 0 .09.015.073.044.103.089.058.118zm-.089-.533c-.059-.044-.059-.089 0-.118.045-.015.09 0 .134.044.03.044.03.074-.015.118-.015.015-.06 0-.119-.044zm.06-.504c-.06-.044-.06-.089 0-.133.044-.015.089 0 .133.044.03.045.03.09-.015.134-.015.015-.059 0-.118-.045zm.163-.459c-.104 0-.134-.074-.134-.178.148 0 .223.045.223.119 0 .044-.03.059-.09.059zm.133.622c.133 0 .207.03.207.104 0 .03-.014.06-.044.074-.044.015-.074.015-.104 0l-.059-.118zm.03.563c.014-.03.044-.03.089.015.044.045.03.074-.015.089-.074.03-.104.03-.104 0 0-.044.015-.089.03-.104zm.074-.933c-.074-.074-.074-.104-.015-.104.118-.015.178 0 .178.045 0 .059-.03.088-.104.088-.03 0-.044-.014-.06-.03zM12 6.638c-.015-.044.015-.06.06-.06.103 0 .222.06.177.12-.015.059-.06.074-.118.059A.45.45 0 0 1 12 6.638zm.282.845c-.045-.045-.03-.06.044-.074.06-.015.104 0 .133.044.03.045.015.074-.044.074-.06 0-.104-.015-.133-.044zm.044.548c-.015-.015-.015-.03 0-.06.015-.014.03-.029.045-.029.044 0 .059.03.059.104-.045 0-.09 0-.104-.015zm.045-1.037c-.03-.015-.045-.045-.045-.09.133 0 .222.03.252.075-.044.104-.119.104-.207.015zm.177-4.371c-.074-.074-.074-.119-.014-.148a.144.144 0 0 1 .133.015c.06.059.06.103.015.148-.045.03-.09.03-.134-.015zm.015 3.852c-.044.104-.044-.074 0 0zm.015-4.43c-.015-.03 0-.044.03-.06.059-.014.148.03.148.09 0 .044-.03.074-.09.059a.252.252 0 0 1-.088-.089zm.015 6.297c-.015-.044-.015-.074-.015-.104l.119.045c.03.015.03.03-.015.06-.045.029-.074.029-.09 0zm0-2.356c-.015-.015 0-.03.044-.074.03.015.03.045.015.074-.015.03-.044.03-.06 0zm.06-4.474c-.045.118-.045-.074 0 0zm.073 6.341a.101.101 0 0 1-.104-.104c.104 0 .163.015.163.06 0 .03-.014.044-.059.044zm.104-.533c-.074.074-.267-.03-.163-.134.06-.059.207.09.163.134zm-.163-2.89l.03-.03.03.03-.03.03zm0 1.008c0-.015.015-.03.03-.03.014 0 .014.015.014.03s0 .03-.014.03a.032.032 0 0 1-.03-.03zm.044-4.386c-.014-.044-.014-.074 0-.089.074 0 .119.015.148.045.06.03.06.06-.014.089-.03.015-.074 0-.134-.045zm-.014 5.675c-.015-.03 0-.044.044-.06.074-.014.193.03.193.09 0 .074-.045.118-.119.103-.06-.044-.104-.088-.118-.133zm0-2.874l.03-.03.118.104c.014.015 0 .044-.03.059zM12.8.445c.119 0 .178.03.178.104 0 .014-.015.03-.044.03-.06.029-.119 0-.178-.075zm-.015 1.111l.03-.03.03.03-.03.03zm.045 4.741c-.03-.089-.03-.148 0-.163.015-.014.03-.014.074 0h.207c.015 0 .03.015.03.045-.015.044-.06.06-.133.104-.104.074-.163.074-.178.014zm.133-3.393c-.06 0-.133-.014-.148-.074l.03-.03.118.06zm-.118.563c-.074-.014-.074-.044 0-.059a.045.045 0 0 1 .059 0c.015 0 .03.015.03.03s-.015.015-.03.03zm0-1.155l.03-.03.029.03-.03.03zm.044 3.348c.074 0 .089.03.074.104-.015.06-.044.06-.06.015-.014-.03-.014-.06-.014-.09zm.178-3.793c-.06.015-.178-.03-.163-.104a.081.081 0 0 1 .074-.044c.015 0 .03.015.044.03.06.059.075.103.045.118zm-.163 3.349l.03-.03.03.03-.03.03zm.03 2.815c.148 0 .192.03.118.089-.044.06-.089.044-.118-.06zm.03-.489c-.016-.03 0-.044.029-.06.06 0 .148.03.148.09 0 .059-.03.089-.089.074a.473.473 0 0 1-.089-.104zm.058-.504c-.014-.03 0-.044.045-.059.03-.015.06-.015.104 0s.059.044.059.074c0 .06-.03.089-.104.074-.044-.03-.089-.06-.104-.089zm0-4.667l.03-.03.03.03-.03.03zm.03-1.57c.015-.03.045-.045.06-.06l.118.06c.044.029.03.059-.03.088-.044.015-.089-.015-.148-.089zm.03 2.859v-.015c.118 0 .178.015.178.06 0 .014-.015.03-.045.044-.03.015-.06.015-.074 0-.044-.045-.06-.074-.06-.089zm.089 2.8c.074.015.103.045.103.09 0 .059-.03.073-.103.059a.252.252 0 0 1-.09-.09zm-.074-5.097c-.015-.014-.015-.03.014-.044.015-.015.03 0 .045.015-.015.015-.03.03-.06.03zM13.14.282c-.015-.015-.015-.03 0-.06.015-.014.03-.03.044-.03.045 0 .075.016.119.06.044.045.044.09 0 .119-.03.03-.089 0-.163-.09zm.222 2.415c-.074.06-.222-.06-.163-.104.045-.044.267.06.163.104zm-.178.489c.015 0 .015 0 .015.015s0 .015-.015.015c-.044-.015-.044-.03 0-.03zm.015 2.267c0-.06.045-.074.119-.045.074.03.104.074.089.119-.015.06-.06.074-.119.06-.044-.016-.074-.045-.089-.12zm.06-.445c-.015-.044 0-.059.044-.059s.06.03.074.074c-.015.03-.03.045-.06.045zm.03 3.393c0-.03.014-.044.029-.059.03-.015.044 0 .06.03.014.015 0 .03-.03.044-.015.015-.045 0-.06-.015zm.044-1.052c-.045-.074-.03-.103.044-.103.104 0 .207.103.163.148a.112.112 0 0 1-.06.03c-.058.014-.103-.015-.147-.075zm-.015-5.215l.03.03h-.03zm.104-.978c-.03-.015-.045-.044-.045-.06.015-.029.03-.044.06-.044.073-.015.192.03.192.045s-.015.044-.06.059a.252.252 0 0 1-.147 0zm.088 5.764c-.074-.015-.103-.104-.103-.178.103 0 .252.074.192.148-.015.03-.044.045-.089.03zm-.074-2.89c-.059-.014-.059-.044 0-.074.03 0 .045.03.045.09-.015 0-.03 0-.045-.016zm.134-.489c-.074 0-.104-.044-.104-.118.074 0 .104.044.104.118zm-.045 2.742h.222c0 .044-.03.074-.088.103-.075.03-.119.015-.134-.03zm.015-5.616c.03-.03.06-.044.104-.06-.015.03-.06.045-.104.06zm.06 5.216c-.075 0-.075-.015 0-.06.044-.03.088-.03.103-.015.06.06-.044.075-.104.075zm.059-2.934l.03.03c-.016.014-.045.03-.09.03zm.014-2.92c-.044-.103-.044.105 0 0zm.178 7.69c-.178 0-.237-.073-.192-.133a.081.081 0 0 1 .074-.044c.074.015.118.074.118.178zm-.163-.592c-.015-.06 0-.089.074-.089.06 0 .09.03.104.09.015.044 0 .073-.03.073-.044.015-.133-.03-.148-.074zm0-4.652l.03-.03.03.03-.03.03zm.208-1.526c-.09.044-.208-.075-.178-.119.015-.015.015-.03.03-.03l.044.03.133.06c.015.044 0 .059-.03.059zm-.149 2.815c-.014-.03.015-.06.06-.09.044.016.059.045.059.075l-.044.074c-.03 0-.06-.015-.075-.06zm.045 2.919c-.074-.045-.089-.09-.03-.134.119-.059.311.074.193.134-.06.03-.119.03-.163 0zm.015-2.312c-.03-.015-.045-.03-.045-.059.03 0 .06.015.074.03zm-.03-4.015l.03-.03.03.03-.03.03zm0 4.475c.015-.03.03-.045.06-.045 0 .03-.015.06-.03.074zm.045-3.408c-.045.118-.045-.074 0 0zm.074 1.896c-.03-.015-.03-.03 0-.059l.059.06h-.06zm.044-.637c.06 0 .104.015.119.045.014.014.014.044-.03.088-.03.03-.074 0-.133-.074zm-.044 3.482c-.015-.044 0-.06.03-.06.029-.014.044 0 .059.03.014.045 0 .074-.03.09zm.03-5.72c-.016-.044 0-.073.029-.088.03-.015.06-.015.089.015.015.03 0 .059-.045.089-.044.03-.059.03-.074-.015zm.029 5.201l.03-.03.03.03-.03.03zm.118-1.007C14.03 4.623 14 4.593 14 4.549c.03 0 .06.015.09.044.014.015 0 .03-.016.045zm.134 2.845c-.104.044-.267-.045-.163-.148.074-.075.281.088.163.148zm-.193-2.386h.03v.03h-.03zm.045 2.89c-.015-.015-.015-.045.014-.09.045-.029.075-.029.09.015a.171.171 0 0 1-.104.074zm.014-1.067c-.014-.045 0-.074.045-.09.03-.014.06-.014.104 0 .044.016.059.045.059.09 0 .074-.03.103-.104.089zM14.297.74c-.104.045-.252-.089-.178-.163.06-.074.311.09.178.163zm-.193.37l.03.03h-.03zm0 2.994l.03-.03.03.03-.03.03zm.193 2.355c-.074.015-.163-.014-.163-.074 0-.03.015-.044.03-.044a.263.263 0 0 1 .162.015c.074.044.06.089-.03.103zM14.37.223c-.074.059-.297-.075-.178-.119h.163c.089.015.089.06.015.119zm-.148 3.393c-.015-.015-.03-.03-.03-.06.03 0 .044.015.06.03zm.03-.534c-.075-.074-.075-.104-.016-.104.119 0 .178.015.134.075-.015.044-.03.059-.06.059s-.044-.015-.059-.03zm0 2.875c-.016-.015-.03-.03-.03-.045 0-.03.014-.044.059-.06.044-.014.074 0 .089.03.03.045.03.06-.015.075-.044.014-.074.014-.104 0zm.044-3.364c-.03-.015-.045-.03-.03-.059 0-.015.015-.03.045-.044.014 0 .044 0 .118.014.015 0 .03.015.044.03 0 .044-.044.074-.177.06zm.03 2.86c-.016-.045 0-.074.014-.09.074.016.104.03.119.045-.03.074-.074.09-.134.045zM14.4 4.4c-.03-.015-.044-.045-.03-.074.016-.03.03-.045.06-.045.074-.014.133.015.148.074.015.045 0 .09-.074.104-.015.015-.06-.015-.104-.06zm0-2.356l.03-.03.03.03-.03.03zM17.337 8.49c.015-.03.133-.015.34.06.03.014.15.014.371 0 .237 0 .83.03 1.023.03.044 0 .133-.03.148-.03.06 0 .118 0 .178.014.103.015.207.015.34 0 .43-.074.682-.252.756-.533-.015-.045-.178-.06-.178-.133-.015-.045 0-.074.03-.074.015 0 .074.03.178.088.103.03.148-.266.148-.903 0-.015-.193-.104-.208-.119.119-.074.238.015.223-.281l-.104-.193c0-.06.089-.104.089-.148.015-.015 0-.045-.015-.09-.015-.029 0-.058.015-.103.015-.03.015-.074 0-.133-.015-.03-.03-.06-.015-.104.015-.03.015-.044.015-.06 0-.073-.267-.073-.267-.147 0-.045.045-.074.119-.074.044 0 .103.03.148.03v-.4s-.045 0-.119.014c-.044 0-.074-.015-.089-.044-.059-.178.238.059.238-.356-.119-.163-.223-.163-.163-.237.059-.015.192-.015.133-.148-.03-.074-.015-.119.03-.163l-.178-.208c0-.044.089-.103.103-.148.015-.074-.044-.163-.177-.281-.06-.06-.149-.119-.252-.193-.208-.133-.356-.193-.46-.193h-1.644c-.104.09-.222.074-.356-.044-.074-.06-.104-.163-.104-.296l.03-.504.03-.03h3.037V.148l-.03-.03-4.178-.044c-.607.015-.978.415-1.052 1.141-.015.163-.03.386-.03.682v.252c0 .015.015.03.045.059.015.03.015.119-.03.267a.251.251 0 0 0 0 .148c.03.089.045.148.045.163.015.06-.06.207-.06.281 0 .074.075.208.06.252l-.089.282c.015.133.044.207.06.252-.045.207-.06.31-.06.31.044.134.06.179.06.134 0-.015-.016.03-.03.134-.015.133.03.281.148.474.074.133.163.118.207.192.045.074.06.119.06.119h.281c-.015 0 0 .044.074.118.045.045.148.074.34.074l-.088-.118c-.015-.045 0-.06.06-.074.044 0 .073.015.103.03.104.044.163.044.207-.03.03.015.03.074 0 .178-.014.03.03.044.104.044s.133-.015.178-.06c.118-.073.163-.118.148-.118 0 .045-.044.134-.044.178l.103-.06c.045-.014.104.06.208.06.518.015.815.03.86.044.058.015.088.03.088.075v.459c.089.089.044.193-.119.311-.044.044-.103.06-.177.044a.224.224 0 0 1-.134-.059c-.252-.015-.474-.03-.666-.03-.134 0-.134.134-.149.252-.266.326-.503.415-.533.415-.015-.014 0-.059.06-.133.029-.044.044-.074.044-.089l-.03-.06v-.014c0-.044.045-.074.148-.074v.089c.074-.015.208-.06.208-.134v-.103c.044-.06.059-.09.059-.104-.06-.089-.148-.104-.282-.03l-.296.193c0-.089.045-.148.133-.178l-.044-.03h-.504c-.044 0-.074.164-.178.149-.074-.015-.074-.045-.014-.074.059-.045.089-.06.089-.074h-.623c-.044 0-.059.059-.059.177.015.045.015.09.03.104 0 .015.03 0 .103-.015.09-.03.163-.015.208.03.044.074.059.148.044.222-.015.06-.074.06-.178-.015-.103-.074-.177-.118-.207-.103-.044.014-.044.059 0 .133.044.06.044.148-.03.282v.03c.015.014.045 0 .104-.045.03-.03.06-.045.104-.045l.178.03a.544.544 0 0 0 .148-.208c.044-.059.103-.059.192 0-.044.075-.148.149-.281.252a.414.414 0 0 1-.119.074c-.044 0-.133-.03-.148-.03a.517.517 0 0 0-.133.09s0 .03.015.074c.014.074-.074.237-.074.296.059 0 .251-.104.325-.104.075 0 .119.03.119.104 0 .06-.074.104-.207.133-.045.015-.074.015-.09.03l-.133.222c0 .104.03.178.09.223a.687.687 0 0 0 .029-.208c-.015 0 .03.03.148.104.015.015.044 0 .104-.03h.03c.059.045.029.09-.075.134-.03.014-.059.014-.089.014 0 .119-.237.193-.237.297.252 0 .563-.208.697-.282l-.09-.104c.016-.014.03-.03.06-.03l.06.03c.014.015.073-.014.148-.088.03-.03.074-.03.148-.015.133.015.207.059.207.118 0 .015-.015.03-.044.045-.06.015-.119.015-.163.015-.074.014-.119.03-.134.074-.014.074-.044.133-.074.148-.059.044-.089.06-.089.074h.637c0-.074-.192-.119-.207-.133-.044-.045.03-.09.222-.104.074-.015.134.03.178.118.045.104-.06.104-.06.149h.43zm-1.896-.726a.032.032 0 0 0-.03-.03c-.015 0-.015.015-.015.03s0 .03.015.03.03-.015.03-.03zm.148-3.111a.112.112 0 0 1-.03-.06c0-.044.119-.163.119-.222.044 0 .089.03.118.074a.251.251 0 0 1 0 .148c-.06.119-.133.134-.207.06zm.015-1.141c-.045.118-.045-.074 0 0zm0-.963c-.03-.074 0-.104.074-.104s.118.03.148.074c.044.06.015.104-.09.133-.058.015-.103-.03-.132-.103zm0 .533c-.015-.015-.015-.044-.015-.074a.112.112 0 0 1 .059-.03c.044.03.089.03.133.015.015-.015.045-.015.06-.015.014.015.03.03.03.045 0 .074-.045.118-.12.133-.059.015-.103 0-.147-.074zm.03 1.082c-.03-.015-.03-.09 0-.208.044-.118.073-.163.088-.148l.148.148c.015.104-.133.267-.237.208zm.058-.637c-.044-.074.075-.163.075-.208h.133c0-.089.044-.163.148-.222.06-.03.133 0 .222.089.045.044.045.074.03.089a.359.359 0 0 1-.163.118c-.074.03-.133.03-.178-.014v.088l-.148.149c-.044.014-.089-.015-.119-.09zm.03-1.897c-.044-.104 0-.148.133-.148 0 .074-.014.119-.044.148-.044.045-.074.045-.089 0zm0 .474c-.015-.089.03-.133.133-.133 0 .044-.03.089-.074.133-.044.045-.059.045-.059 0zm.045 2.845c-.06-.015.118-.118.163-.163.103-.06.177-.074.192-.03.074.134-.222.208-.355.193zm.044 2.504c-.015-.015.03-.089.148-.207.119 0 .208.074.193.118-.119.134-.237.163-.341.09zm.044.489c-.044-.03-.014-.074.06-.148.044-.03.118-.015.222.044.089.045.074.09-.06.134a.23.23 0 0 1-.222-.03zm.06-3.526c-.045-.03-.06-.06-.045-.104a.112.112 0 0 0 .03-.06l-.03-.059V4.18c0-.03.015-.06.06-.074.044-.015.074 0 .103.014.104.074.148.119.134.134 0 .074-.03.118-.074.163-.06.044-.119.044-.178 0zM15.87 8.49l.03.03v-.03zm.03-4.667c0-.089.03-.163.104-.222.044-.03.074-.03.118 0l.134.133a.676.676 0 0 1-.193.178c-.06.03-.119 0-.163-.074zm.148-.904c-.074-.044-.133-.133-.118-.178.014-.014.03-.03.074-.03s.103.03.148.03c0 0 .148-.03.192-.03.03.016.03.03.015.075-.044.015-.074.015-.103 0l-.104.074c-.06.044-.09.074-.104.06zm-.015-.592c-.074-.045-.059-.075.015-.09.074-.014.119-.014.133 0 .015.015-.014.045-.059.104-.015.015-.044.015-.089-.014zm.074-.43c-.044 0-.074-.03-.059-.074 0-.06.015-.09.06-.104.044-.015.073 0 .088.074s-.015.104-.089.104zm-.059-.608l.03-.03.03.03-.03.03zm.148 3.2c-.015-.044.015-.059.09-.073.029-.015.073 0 .118.03.103.059.118.118.03.177-.045.03-.09.015-.134-.03zm.015.579c-.03-.045-.03-.074.015-.119.015-.015.044-.015.074 0l.178.119c.103.059.074.089-.06.103-.103 0-.163-.03-.207-.103zm.03 2.533c-.015-.015 0-.03.014-.044h.267c0 .074-.044.118-.133.148-.015.015-.074-.03-.148-.104zm.044-4.06c-.015-.014-.03-.03-.03-.044 0-.044.045-.074.134-.089.104-.015.163.015.192.06.06.088.03.133-.074.148-.103.014-.177-.015-.222-.075zm.015-.963c.015-.044.03-.088.044-.103a.164.164 0 0 0 .119 0c.044-.015.074.015.074.059 0 .03-.03.074-.104.118-.044.015-.089-.014-.133-.074zm.03.386c.044.014.074.014.088-.015.045-.045.134-.03.238.03.074.03.074.074.03.118-.12.044-.223.044-.297.06-.045-.045-.09-.09-.104-.12zm-.015 1.126c-.06-.09-.06-.148 0-.163.133-.045.326.074.207.148a.181.181 0 0 1-.133.06c-.045 0-.06-.016-.074-.045zM16.3 7.2c-.015-.015-.015-.015-.015-.03 0-.074.06-.103.193-.103 0 .074-.104.192-.178.133zm0-.518c0-.074.044-.134.118-.134.045-.015.075 0 .075.03a.216.216 0 0 1-.193.104zm.03-4.638c-.015-.044.03-.074.133-.089.044 0 .074.03.074.089 0 .074-.03.104-.089.119-.044.014-.089-.03-.118-.119zm.059 5.304c-.045.119-.045-.074 0 0zm.074-5.748c0-.06 0-.104.015-.119.03-.044.044-.03.044.015.015.06.015.089 0 .104-.03.044-.044.044-.06 0zm.06 3.2c.044-.045.073-.074.118-.089.178.044.252.074.207.074 0 .089-.06.133-.178.133-.03 0-.074-.044-.148-.118zm.073 2.46c-.044.118-.044-.075 0 0zm0 .681a.215.215 0 0 0-.015-.148c.015-.045.06-.03.134.015.044 0 .089 0 .118-.015.06.06.104.104.148.118 0 .045-.03.06-.074.06-.103-.015-.163-.015-.163-.015a.531.531 0 0 1-.163.06c0-.016 0-.045.015-.075zm.148-3.526c-.118 0-.133-.09-.133-.163.193 0 .267.03.252.103-.015.03-.06.045-.119.06zm-.133-2.46a.113.113 0 0 1 .074-.03c0 .03-.015.045-.044.06zm0 1.304l.03-.03.03.03-.03.03zm.03-.504v-.015c.015 0 .059.015.103.03h.03c.045-.044.089-.06.119-.03.044.045.074.074.118.09l-.03.029h-.237c-.044 0-.088-.03-.103-.104zm.222 1.141c-.133.015-.222-.03-.222-.104 0-.03.015-.059.044-.074.06-.015.119-.015.178.03.03.015.044.044.06.074 0 .044-.016.06-.06.074zm-.06 3.334a.341.341 0 0 1-.133-.045c0-.044.015-.059.06-.059.103.015.192.015.251.03l.119-.06c.089.045.06.09-.074.134a.289.289 0 0 1-.222 0zm-.059-4.845a.23.23 0 0 1 .03-.178c.045-.044.089-.03.104.015.044.06-.134.222-.134.163zm.03.978c-.074-.045-.089-.09-.015-.134.06-.03.119-.014.193.03.074.044.074.089-.015.119a.294.294 0 0 1-.163-.015zm-.03 4c.03-.044.06-.06.09-.06 0 .03-.015.06-.06.09zm.045-5.541c-.03-.015-.03-.03 0-.074.03-.045.06-.045.089-.03.03.03.03.06 0 .089-.03.03-.06.03-.09.015zm.044 3.245c-.014-.104 0-.134.104-.119.089.015.148.06.163.148 0 .045-.089.163-.133.163-.06 0-.104-.059-.134-.192zm.074-.46c-.059-.044.03-.089.104-.089.089.015.148.03.163.074.045.075.015.104-.118.119-.03 0-.075-.03-.149-.104zm.237-1.496s-.133.03-.192.03c-.03 0-.045-.015-.03-.045.015-.074.104-.089.252-.06a.5.5 0 0 1 .178.06c.06.03.06.044-.015.06-.074.014-.133 0-.178-.045zm-.192 5.082c-.074-.074-.074-.104.015-.104.074 0 .148.015.222.06.03.014.044.044.06.074l-.045.059a.349.349 0 0 1-.252-.09zm.015-5.556c-.104-.134.192-.208.252-.163.044.015.014.059-.075.133-.088.074-.148.074-.177.03zm.014-.549c-.03-.014-.044-.044-.03-.074.016-.014.03-.03.06-.03l.06.03h.029l.119-.044c.014-.015.044 0 .059.015-.104.133-.193.178-.296.103zm-.014 1.615c-.045-.014.044-.148.089-.163.074-.03.133-.014.207.03.044.03.044.06.03.074-.074.09-.193.104-.326.06zm.03.475c-.045-.015-.06-.06-.045-.104.015-.015.104-.03.267-.03.014 0 .014.03.03.074 0 .104-.09.134-.253.06zm-.016 3.274c.06-.06.09-.06.09 0-.015.03-.045.045-.104.045 0-.015 0-.03.014-.045zm.09-5.793c-.06 0-.075-.03-.06-.09.015-.044.074-.073.148-.073 0 .104-.03.163-.089.163zm-.03 5.349c-.015-.03 0-.06.03-.074.014-.015.044-.015.059.014.014.015 0 .045-.03.074-.03.015-.044.015-.06-.014zm.148.755c-.045-.044-.06-.059-.045-.074.015-.03.045-.044.06-.044.133 0 .178.03.163.103-.015.09-.074.09-.178.015zm0-2.904l.03-.03.03.03-.03.03zm.074-2.074c-.104-.045.074-.045 0 0zm.044 1.6c-.014-.015-.014-.03-.014-.044.163 0 .252.03.252.088 0 .015-.015.015-.03.03-.104.089-.163.06-.208-.074zm.015.608c-.015-.015-.015-.03 0-.075.015-.044.015-.059.03-.059.104-.015.148 0 .148.074 0 .06-.06.09-.163.074l-.015-.014zm.074 1.778a.113.113 0 0 1-.03-.075c.075 0 .134.03.149.075-.015.059-.06.059-.119 0zm.163-2.8c-.059.058-.281-.105-.148-.12.074 0 .104 0 .119.015.074.015.074.06.03.104zm-.148 1.303c-.03-.015-.044-.06-.044-.118.015-.03.089-.045.222-.03.104.015.178.044.193.104.014.059.014.103 0 .118-.015.015-.06.03-.119.03-.118-.015-.207-.045-.252-.104zm.208-1.808c-.104.015-.163-.014-.178-.074-.015-.03-.015-.044.03-.044.133-.015.207.03.192.074 0 .03-.015.044-.044.044zm-.163 4.475l.03.03h-.03zm.133-.4c-.03-.015-.044-.044-.044-.089.103 0 .163.03.207.074-.044.045-.089.045-.163.015zm.044-2.83c-.014-.03-.014-.06-.014-.074.03 0 .103.03.237.074 0 .089-.03.133-.104.119a.185.185 0 0 1-.119-.119zm0 3.319h.03l-.03.03zm.074-3.823c-.014-.015-.014-.044-.014-.059.059 0 .089.015.103.044-.044.075-.074.075-.089.015zm.03 2.86c-.015-.015-.015-.045-.015-.074.134 0 .163.03.119.089-.045.044-.074.044-.104-.015zm.06-3.32c-.09-.058-.104-.088-.03-.103.059 0 .296.074.178.119a.175.175 0 0 1-.149-.015zm-.03 2.786c-.015-.014-.03-.03-.03-.044l.045-.03c.103 0 .133.03.088.104-.014.03-.059.015-.103-.03zm.118-2.266c-.03 0-.044-.015-.059-.045 0-.015.015-.03.06-.03zm.134 3.63c-.074 0-.134-.015-.134-.134 0 .015.134.074.134.134zm-.134.444h.06v.03h-.06zm.252-3.245c-.118.06-.296-.103-.192-.163.103-.074.296.104.192.163zm-.133-.592c-.015-.015-.015-.03-.015-.045-.03 0 .044.03.222.074-.074.09-.133.074-.207-.03zm.044 2.86c0-.045.06-.06.104-.06v.06zm.178-3.305c-.06.06-.148-.03-.163-.074l.045-.06c.044-.044.088-.014.163.09zm.133-.489c-.163 0-.192-.06-.192-.104.044 0 .118.015.192.03zm-.177 3.26h.03v.03h-.03zm.044 1.333a.113.113 0 0 1-.03-.074c.09 0 .149.015.163.06-.014.074-.059.074-.133.014zm.222-2.77c-.118.044-.192-.06-.237-.104.015-.03.045-.045.06-.06.103-.044.296.12.177.164zm-.118 2.252c.015-.015.015-.03.03-.03.014 0 .014.015.03.03 0 .015-.016.015-.03.03-.015 0-.015-.015-.03-.03zm.133-.46a.117.117 0 0 1-.118-.118c.148 0 .222.03.207.074-.015.044-.044.06-.089.044zm-.074-.607c.015-.074.074-.074.178 0 .015.06-.015.104-.06.118zm.06-2.223a.113.113 0 0 1-.03-.074c.148 0 .207.03.178.074-.03.045-.075.045-.149 0zm0 .475c.014-.03.029-.045.073-.03.03 0 .045.015.045.044 0 .045-.045.06-.119.06zm.088-.993c-.03-.015-.059-.03-.074-.06l.03-.044c.104 0 .163.03.192.104-.014.044-.059.044-.148 0zm-.059 4.49c.148 0 .207.044.193.118-.015.03-.045.044-.104.044-.045 0-.074-.03-.089-.103zm.222-2.653c-.059 0-.133-.06-.133-.133.104 0 .178.03.207.074.045.044.015.06-.074.06zm-.118.504c-.045-.03-.045-.06.015-.074.014-.015.059-.015.103-.015 0 .104-.044.133-.118.089zm.03-2.845c-.016-.015-.016-.03-.016-.06.09 0 .134.016.134.06 0 .074-.045.074-.119 0zm.103 1.852c-.044 0-.044-.03.015-.074.015-.015.06-.03.118-.03 0 .09-.044.119-.133.104zm-.03 1.704l.03-.03.03.03-.03.03zm.09-2.785c0-.03.014-.045.029-.06.074.015.133.045.178.06.044.014.044.03 0 .074-.045.044-.119.014-.208-.074zm0 3.363c0-.03.014-.06.044-.074l.03.03a.081.081 0 0 1-.075.044zm.044-2.786c-.06-.014-.06-.03-.015-.059.015-.015.044-.015.104 0 .044 0 .059.015.014.045-.014.014-.059.014-.103.014zm.118 1.793c-.103.045-.148-.044-.163-.104.119 0 .193.015.208.045.015.03 0 .044-.045.06zm-.103.504c-.03-.015-.03-.03 0-.074.03-.03.059-.03.088 0-.014.044-.044.06-.088.074zm.03-3.349a.21.21 0 0 1-.03-.089c.133 0 .207.03.222.075-.045.103-.119.103-.193.014zm.014 4.623c.015-.03.03-.044.06-.044 0 .03-.016.059-.03.074zm.06-2.904l.029.03h-.03zm.28-.37c-.118.044-.325-.104-.207-.178.074-.045.326.118.208.178zm-.221.933h.059v.03h-.06zm.088 1.348c-.044 0-.074-.03-.074-.074.045 0 .074.03.074.074zm-.044-1.763c-.015-.015-.015-.03 0-.059.015-.044.03-.06.06-.06.014 0 .029 0 .044.016.03.044.03.074 0 .088-.03.015-.06.015-.104.015zm.044 1.17c0-.044.06-.044.163.016.104.044.09.074-.044.118zm.06-2.8c.015-.014.015-.03.03-.03.014-.029.059-.029.118 0 .044.03.074.06.089.09-.045.103-.104.103-.178.015zm.089.638c-.045 0-.074-.03-.06-.075 0-.044.03-.059.074-.059.06 0 .09.015.075.06-.015.044-.045.074-.09.074zm-.015 2.726c-.045.118-.045-.074 0 0zm.015-.963c-.015-.015-.03-.03-.03-.045 0-.03.044-.044.133-.03.074 0 .09.03.015.075-.044.03-.074.03-.118 0zm0 1.748c-.015-.03-.03-.044-.015-.06.044-.058.148.075.148.149-.044 0-.089-.03-.133-.089zm.222-.444c-.06 0-.119-.03-.119-.074-.014-.03 0-.045.03-.045.06 0 .089.045.089.119zm-.104-4.164c.074 0 .119.015.119.03-.015.03-.045.044-.119.044zm.015 1.823c-.06-.045-.044-.074.06-.074.073 0 .118.014.133.059.014.044-.015.089-.09.103-.014 0-.059-.03-.103-.088zm.074 1.822c-.06-.044-.074-.074-.044-.089.014-.015.03-.03.044-.015.119.045.163.074.148.104-.03.044-.074.044-.148 0zm-.03-1.274c0-.03.015-.06.03-.074l.03.03c-.015.029-.03.044-.06.044zm.149-1.008c-.104.015-.119-.03-.119-.089-.015-.014 0-.014.03-.014.103-.015.163.014.163.059 0 .015-.03.03-.074.044zm-.06-.533a.135.135 0 0 1-.044-.104c.133 0 .222.03.252.09-.045.103-.104.118-.208.014zm-.03 2.252c.03-.044.06-.06.09-.06.044.016.074.045.118.09-.015.044-.06.074-.104.059-.044-.03-.088-.06-.103-.089zm.164-.533c.074.014.103.03.118.059.015.06-.015.089-.089.089-.015 0-.044-.03-.089-.104zm0-2.208a.25.25 0 0 1-.03-.074c.133 0 .178.015.163.06-.06.103-.104.103-.133.014zm-.015 4.623c0-.03.015-.045.03-.06.03-.014.044 0 .059.03l-.06.06zm.06-2.875c-.016-.015-.03-.03-.06-.03.03-.059.074-.073.133-.044l.148.104c.015.06-.014.089-.118.089-.015 0-.045-.045-.104-.119zm0-.548c.058-.074.132-.074.236.015.045.044.06.074.03.104-.015.014-.06.03-.119.03zm.073 2.4c-.03-.014-.044-.044-.044-.089.015-.044.03-.059.059-.044.104 0 .163.03.163.104 0 .089-.06.103-.178.03zm-.03.519c-.014-.015 0-.03.045-.074.044.015.044.044.03.074-.015.03-.045.03-.074 0zm.208-3.275c-.104 0-.163-.133-.148-.148.015-.015.03-.015.044-.015.134 0 .208.03.193.104-.015.03-.045.045-.089.06zm-.133-.637c0-.044.014-.059.059-.059.104-.015.222.06.222.133 0 .104-.044.119-.133.06a.602.602 0 0 1-.148-.134zm.074 2.904c-.015-.03 0-.059.03-.088.044-.015.073-.015.088.03 0 .029-.015.058-.044.073-.045.015-.06.015-.074-.015zm.237-.977c-.074.044-.237-.09-.134-.163.06-.06.193.088.178.133-.015.015-.03.03-.044.03zm-.09.488c-.044 0-.058-.014-.073-.059 0-.044.015-.06.06-.06.029 0 .058.016.073.06.015.045-.015.06-.06.06zm-.014-2.8c-.06-.074-.06-.118.015-.133 0 0 .03.015.104.03.014.014.03.044.014.073-.014.045-.044.06-.074.06zm-.015 1.674c.03-.044.074-.059.119-.03h.148c-.015 0 .044.045.207.134-.014.045-.118.06-.326.06zm.03 2.312c.015-.015.03-.03.044-.03.03 0 .06.015.104.06.03.03.03.059 0 .088-.074.074-.133.045-.148-.089zm.104-2.712c-.074-.059-.074-.103-.03-.148.015-.03.074-.015.148.03.045.015.074.03.119.015.044-.015.059-.03.074-.015.074.074.103.118.103.118l-.222.045c-.089.015-.148 0-.192-.045zm-.03 2.238c-.119-.045.074-.045 0 0zm.089-2.741c-.074-.045-.074-.104 0-.163.06-.06.311.177.178.192a.23.23 0 0 1-.178-.03zm.015 2.296c-.03 0-.045-.015-.03-.06 0-.029.015-.044.03-.058.015 0 .059.014.118.044l.06.045c-.015.044-.075.044-.178.03zm0 .519c-.045-.015-.045-.03 0-.06.03-.044.059-.044.074-.014-.015.044-.03.059-.074.074zm.252-3.275c-.104.045-.252-.059-.193-.118.044-.045.089-.045.163 0 .074.044.089.089.03.118zm-.074 2.282c-.075-.015-.075-.044 0-.06a.045.045 0 0 1 .059 0c.015 0 .03.016.03.03 0 .015-.015.015-.03.03zm.148 1.334c-.104 0-.119-.104-.119-.163.119 0 .178.03.178.074s-.015.074-.06.089zM21.503 8.475c-.015-.014-.045-.014-.06-.014 0 .074.015.103.06.103.06 0 .06-.03 0-.089zm.015-.4c.118.37.163.282.31.4.12.104.179.119.194.045.014-.03-.045-.104-.149-.208v-.03c.03-.073.074-.118.134-.118.089.015.148.045.177.09.075.118-.133.162-.133.325.104 0 .282-.192.385-.192 0 .133.06.192.163.192 0 0-.014-.044-.03-.118-.014-.06-.014-.104.03-.119.104-.044.193-.074.267-.089-.03-.104-.015-.148.045-.148.014 0 .03.015.059.044l.133.134c-.015.133 0 .207.06.237.029.015.103.015.222.015l.207-.09v-.221c0-.06 0-.09.015-.075-.015-.014-.03-.044-.015-.059.045-.03.06-.06.06-.074v-.489c-.06-.074-.075-.148-.06-.222 0-.015.074-.089.06-.133l-.06-.119c-.015-.06.089-.178.089-.281V5.394h-.06c-.044-.06-.088-.119-.118-.193h.03l.118.03c.015 0 .015 0 .03.014 0-.103-.015-.414-.06-.459-.044-.074-.059-.104-.044-.118 0 0 .015 0 .06.014l.044-.03c0-.133-.044-.207-.119-.207-.014 0-.03.015-.044.045-.03.074-.06.089-.104.074-.044-.045-.074-.074-.089-.119-.014-.015.045-.044.149-.059.103-.03.163-.118.148-.267.059-.03.089-.059.089-.089h-.237c-.045 0-.134-.148-.134-.163 0-.074.178-.059.178-.074.089-.044.119-.103.089-.177-.015-.074-.074-.119-.163-.119a.336.336 0 0 1-.045.193c-.059.044-.118.059-.177.03-.045-.03-.074-.09-.09-.164 0-.059.267-.074.208-.207-.015-.045-.06-.074-.163-.074.015 0-.074.118-.133.133-.06.03-.104.015-.148-.044l-.06.059v.207c.163.045.237.119.237.193 0 .044-.03.074-.103.089h-.104l-.207-.222c.014-.015-.06-.074-.193-.193-.044-.044-.06-.089-.044-.133 0-.015.03-.09.03-.104 0 0-.03.015-.105.06-.059.029-.088.029-.103 0-.03-.045-.09-.075-.193-.075 0-.015.015.03.03.148.015.06 0 .09-.06.09-.118.014-.296-.134-.37-.134 0 .06.045.118.045.133l-.03.178v.03c.118.03.237.118.355.252-.014.044-.074.059-.162.059-.134-.074-.238-.163-.282-.252l-.06.148c-.014.104.06.148.06.222l-.06.06v.489s.238.118.238.222c0 .074-.03.089-.104.074-.015 0-.089-.06-.133-.06v.327c0 .044.148.103.148.163 0 .074-.06.103-.163.103 0 .045.03.074.074.104-.074.06-.089.133-.03.237.015.089.015.148 0 .178.104-.045.208-.015.297.089.03.044.044.074.03.118-.015.045-.06.06-.12.045-.014 0-.118-.134-.162-.134-.03 0-.06.045-.104.149 0 .014 0 .044.015.088-.015-.044-.015 0-.015.134v.46l.03.029c.074.074.133.118.178.148 0 0 .148.06.148.118l-.03.06v.015c0 .059.148.088.148.163 0 .103-.06.133-.163.088-.133-.222-.103-.355-.163-.31-.118.014-.163.014-.163.059.045.163.09.281.119.34.015.015 0 .06-.03.104-.044.089-.06.193-.044.296zm.207-6.134c.074-.015.148.03.222.148.075.119.134.193.149.208l.177.089c.06.074.119.104.178.104.119-.045.163-.09.134-.134-.015-.06-.208-.06-.223-.133-.015-.045 0-.09.045-.119a.111.111 0 0 1 .133 0c.045.045.06.09.074.119.178.163.297.252.341.267.104-.06.163-.341.207-.341.104 0 .163.34.282.34.163-.118.237-.207.237-.266-.104 0-.178-.015-.222-.045-.045-.044-.03-.089.03-.133.133-.104.192-.178.192-.237 0-.03 0-.045-.015-.06-.104-.073-.267-.162-.207-.236.059-.06.103-.104.148-.134.06-.118-.119-.237-.045-.34 0-.015.09-.045.09-.09a2.192 2.192 0 0 0-.104-.385c-.03-.089-.045-.133-.06-.133-.044 0-.044.089-.103.044a.265.265 0 0 1-.149-.133c-.014-.015-.014-.03-.03-.03h-.044l-.148.149a1.112 1.112 0 0 0-.207-.119c-.119-.074-.163-.118-.134-.133l-.222.089a.58.58 0 0 1-.192.044l-.149-.06h-.014c.059 0 0 .03-.178.075-.045 0-.09 0-.104-.015l-.03.03c-.074.133-.118.192-.118.207.015.045.015.074 0 .089-.045.015-.074.074-.074.178l.044.074V1.2c.06 0 .148-.074.163-.059.104.09-.281.193-.281.326.044 0 .074-.015.089-.044v.474c-.045 0-.06.015-.06.03-.014.044 0 .059.03.074.044.014.104-.015.148-.06zm-.06.163c-.058 0-.162-.015-.118.148.015.075.03.134.06.149.103.103.192.103.296.014.044-.03.06-.074.03-.133a.23.23 0 0 0-.119-.089h-.148zm-.073 4.623c-.074-.074-.09-.118-.03-.148a.251.251 0 0 1 .148 0c.045.03.074.06.074.104 0 .059-.03.089-.103.089-.045 0-.074-.015-.09-.045zm-.015-2.4c-.015-.045.015-.06.089-.06.118-.014.193 0 .178.104 0 .045-.015.09-.06.104-.03.015-.103-.045-.207-.148zm.015-.89c.104-.044-.104-.044 0 0zm.044 4.52c-.03-.104-.015-.148.06-.148.088 0 .148.044.177.133.03.089 0 .133-.074.133-.074.015-.133-.03-.163-.118zm.119-6.386c-.015-.045-.015-.074 0-.104.015-.015.044-.03.089-.015a.674.674 0 0 1 .133.104c.06.06.03.104-.089.119-.06.014-.104-.03-.133-.104zm.015 4.163c-.015-.014-.015-.044-.015-.074 0-.059.03-.089.089-.089.044 0 .074.015.103.06.045.074.045.118-.014.133-.074.03-.134.015-.163-.03zm.177 1.349c-.074 0-.088-.074-.133-.148.015-.03.045-.045.089-.045.133 0 .193.03.193.089 0 .074-.045.104-.149.104zm-.074-1.852c-.074-.074-.074-.134 0-.149.134-.03.193 0 .193.104 0 .045-.03.06-.074.074-.045.015-.089.015-.119-.03zm.015 1.23c0-.045.015-.09.03-.104.192 0 .281.059.252.163-.015.074-.06.103-.134.059-.059-.015-.103-.06-.148-.119zm.03-3.201c-.045-.119-.045.074 0 0zm0 1.422c-.045-.044-.045-.089 0-.133.015-.015.06-.015.133 0 .074.03.104.104.104.222-.104 0-.193-.03-.237-.089zm.06-.548c-.12-.044.103-.044 0 0zm.029 1.837c-.015-.044-.015-.088.03-.103.073-.015.236.015.251.089.03.089-.015.133-.133.133-.06 0-.104-.044-.148-.119zm.03-3.496c-.045-.119-.045.074 0 0zM22.021.4c.014-.044.03-.059.074-.03.014.016.03.045.03.09h-.105zm.044 7.483c-.044-.074-.044-.119 0-.163a.356.356 0 0 1 .178 0c.074.03.074.074 0 .148s-.134.074-.178.015zm.03-3.63c-.045-.015-.06-.045-.045-.09.015-.058.03-.088.06-.103.073-.015.148.089.148.163 0 .06-.06.074-.163.03zm-.03-2.371c-.015-.015-.015-.044-.015-.06.045-.059.074-.073.119-.044l.133.09c0 .058-.03.088-.104.103-.059.015-.103-.015-.133-.089zm-.015 1.763c0-.06.015-.089.045-.104.103-.014.281.03.266.149-.015.089-.089.133-.207.148-.06.015-.089-.06-.104-.193zm.178 1.926c-.104-.014-.148-.089-.148-.192.192 0 .266.044.237.133-.015.045-.045.074-.09.06zm-.045 1.778c-.044-.059-.074-.103-.059-.118l.045-.09c.074-.044.207.045.207.12 0 .074-.044.118-.118.118a.113.113 0 0 1-.075-.03zm0-5.926c-.074-.074-.088-.134-.014-.148.148-.045.222-.015.222.088 0 .045-.03.075-.089.09a.115.115 0 0 1-.119-.03zm-.014 5.274v-.014c.163 0 .34.059.237.177-.045.045-.09.045-.134 0-.044-.044-.089-.088-.103-.163zm.014-1.733c-.014-.03-.014-.06-.014-.104.014-.015.044-.015.089 0 .103.015.163.06.177.104.045.074 0 .118-.103.118-.06 0-.104-.044-.149-.118zm.06-4.771c-.045-.104-.045.104 0 0zm0 4.237c-.045-.103.015-.103.118-.103.104 0 .163.059.178.163.015.103-.03.148-.163.148-.03 0-.074-.074-.133-.208zm.178 3.794c-.075-.06-.134-.075-.134-.149.015-.044.03-.059.06-.059.103-.015.177 0 .207.045.104.163-.133.163-.133.163zm-.09-1.882c-.073-.074-.088-.134-.014-.163.118-.06.311.148.192.192-.074.03-.133.015-.177-.03zm.015-2.386c-.059-.103.06-.148.104-.148l.163.134c.09.088.06.133-.074.148-.074 0-.148-.045-.193-.134zm.045 3.705l.03-.03v.06zm.03-1.867a.158.158 0 0 1 .044-.074c.133 0 .178.03.163.103-.015.045-.06.06-.104.045s-.089-.03-.103-.074zm.088-4.03c-.044-.03-.044-.075 0-.119.045-.044.075-.044.119-.03.044.015.06.045.06.074 0 .06-.045.09-.12.09-.029 0-.044 0-.059-.016zM22.48.46h.03v.03zm.045 4.86c-.089-.075-.089-.134-.015-.149.045-.014.104 0 .163.045.104.074.104.118.015.133-.059.015-.118.015-.163-.03zm-.015 2.34h.03v.03h-.03zm.09-.651c.029-.045.073-.045.118 0 .044.03.044.074.015.118-.015.045-.074.06-.178.06 0-.09.015-.149.044-.178zm0-2.208a.158.158 0 0 1-.045-.074c0-.045.015-.06.044-.06.09-.014.149-.014.178.03.045.074.045.119-.015.148-.044.03-.089.015-.163-.044zm.029-.548c-.06-.119.044-.148.119-.134.163.104.237.193.192.237-.015.03-.06.045-.118.06-.074.014-.134-.045-.193-.163zm.015 3.363c-.119-.06.074-.06 0 0zm.178-1.082c.044.03.044.06 0 .104a.135.135 0 0 1-.104.045l-.03-.03zM22.718.4c0 .03-.015.045-.03.06zm.015 7.572a.135.135 0 0 1-.045-.104c.074-.015.148-.03.223-.03.044 0 .059.03.044.074 0 .045-.015.074-.044.09-.075.044-.134.029-.178-.03zm0-4.371c0-.015 0-.03-.015-.03s-.015.015-.03.03c0 .015.015.03.03.03s.015-.015.015-.03zm.015-1.57c-.06-.06-.06-.12 0-.164.074-.044.207.045.207.119 0 .044-.03.059-.074.074-.06.015-.104 0-.133-.03zm-.015 1.288c.103-.044-.074-.044 0 0zm.059 4.149c-.104-.104-.104-.148-.015-.148h.237c.03 0 .045.03.045.074l-.045.089c-.089.044-.163.044-.222-.015zm-.044-1.319a.275.275 0 0 1 .177-.103c.074.044.06.088-.044.148-.045.014-.089 0-.133-.045zm.03-4.697c-.016-.044.014-.074.058-.089.104-.014.252.045.208.149-.015.089-.06.103-.133.044-.09-.06-.134-.089-.134-.104zm.058 5.527c-.059-.074-.059-.133-.014-.163.059-.03.118-.015.177.03l.045.089c.015.044 0 .074-.03.088-.103.015-.163 0-.178-.044zm0 1.54v.045c.03 0 .045-.014.06-.044zm.045-.207c0 .06.015.09.06.09.044 0 .058-.03.058-.09zm.015-2.637c0-.133.044-.237.103-.178.03.03.045.06.045.104s-.045.074-.148.074zm.015-1.082c-.015-.014-.015-.044 0-.088.014-.045.03-.045.059-.015l.104.074c.014.015.044-.015.088-.06.045.03.06.06.06.104 0 .045-.03.06-.074.074-.104.03-.178 0-.237-.089zm.014 1.808c0-.015 0-.044-.014-.06.059 0 .177.045.222.045l.059-.03h.015c.074 0 .089.03.044.104a.284.284 0 0 1-.118.06c-.09.03-.163-.015-.208-.119zm.045-1.23c-.06-.044-.045-.089.03-.148a.094.094 0 0 1 .088 0c.03.03.045.06.045.09 0 .029-.015.044-.06.058-.044.015-.074.015-.103 0zm.074-4.83a.032.032 0 0 0-.03-.03C23 .311 23 .326 23 .341s0 .03.015.03.03-.015.03-.03zm.015 3.749c-.03 0-.045-.015-.03-.03 0-.03.015-.044.03-.044.044 0 .059.03.059.074zm-.015 1.748c.148 0 .237.03.267.089l-.045.06c-.104.088-.178.059-.222-.09zm.192 1.511c-.118.074-.207-.163-.148-.222.104-.104.223.163.148.222zm-.133-.489h.074c0 .045-.015.075-.03.09-.014.014-.029.014-.044-.03zm.222-5.022c-.133.059-.222-.015-.222-.119 0-.044.045-.03.148.044.03-.03.06-.044.09-.03.073.045.073.075-.016.105zm-.192 3.57c-.015-.014-.015-.044-.015-.074.118 0 .178.06.178.193-.074 0-.134-.045-.163-.119zm0 2.341c.044 0 .074.015.089.06.014.044-.015.059-.09.059zm.044-3.585c0-.045.015-.09.045-.119.014-.015.044-.015.074 0 .015.015.03.045.03.06 0 .044-.045.059-.149.059zm.03 2.519c0-.015 0-.015.015-.03.014 0 .03.015.03.03 0 .014-.016.03-.03.03-.015 0-.015-.016-.015-.03zm.044-1.704c-.074-.104-.074-.163 0-.163a.52.52 0 0 1 .237.044c.06.03.045.074-.059.134-.089.044-.148.044-.178-.015zm0 1.718c.104 0 .148.045.134.134-.015.044-.03.044-.074.03-.03-.015-.045-.045-.06-.12zm.03-.489l.03-.03.03.03-.03.03zm.104-.785c-.015-.044-.015-.074 0-.089.014-.015.044 0 .074.045.015.015.015.044-.015.059s-.045.015-.06-.015zm.03.845c.014 0 .044.015.073.044.03.03 0 .045-.074.045zm.073-.474c.015-.045.03-.045.06-.03.014.015.014.03.014.074h-.074zM27.897 8.58l.177-.075c0-.118.045-.163.119-.148.044.015.03.074-.03.178v.03c.045 0 .074 0 .104-.015.015-.015.03 0 .074.014.044.015.104.015.193-.03-.045.016.014.03.177.03h1.378v-.296c0-.06-.03-.074-.074-.03v.134c-.118 0-.177-.03-.192-.09-.015-.073.044-.177.118-.177.104.015.148 0 .148-.015V6.327l-.03-.03h-.207c-.014 0-.059.03-.103.03-.09-.015-.119-.03-.074-.03h-.845c0 .045-.03.119-.074.208-.015.03-.03.044-.06.03-.044 0-.059-.015-.044-.06l.03-.118v-.03c-.03-.06-.119-.06-.252-.015a.303.303 0 0 1-.163 0c-.104-.015-.163-.015-.178-.015-.148 0-.222.015-.207.06v.059c0 .104-.074.133-.208.118-.059-.014-.089-.03-.089-.074.015-.118.015-.163.015-.133-.015-.03-.089-.015-.237.03-.074.03-.133.03-.163.014-.163-.103-.252-.163-.267-.163-.014 0-.059.03-.074.03-.103 0-.103-.06 0-.178a.216.216 0 0 1 .193-.103v-.563c-.06-.015-.06-.134 0-.326.015-.045.015-.104.015-.193-.015-.074-.193-.148-.178-.163l.163-.178v-.34h-.089l.089-.104v-.756a.21.21 0 0 1-.03-.089.722.722 0 0 0 .03-.222 2.35 2.35 0 0 1 .03-.578c.014-.074.044-.118.103-.133.015-.015.09-.015.223 0h.815c.385 0 .903-.015 1.54-.03h.223c.044 0 .089-.015.103-.044V.03h-2.192a.135.135 0 0 0-.104.044c.015-.014.03 0 .03.074a.558.558 0 0 1-.208-.059 1.746 1.746 0 0 0-.622-.06c-.297.016-.356.194-.519.15-.074-.03-.133-.06-.163-.105-.03 0-.104 0-.207-.014h-.208c-.177.014-.266.03-.281.044-.09.074-.134.119-.148.119a.586.586 0 0 0-.193.044c-.074.03-.089.074-.044.119.044.044.074.103.074.148-.223 0-.326.044-.326.133 0 .044.103.148.148.163h.118c.104.015.193.03.267.03a.723.723 0 0 0-.06-.163c-.029-.074-.029-.119 0-.148.045-.045.09-.075.12-.06.073.03.118.06.133.09.014.058-.06.251-.134.325-.089.119-.177.148-.252.074-.044.134-.103.148-.163.045-.044-.09-.103-.134-.177-.149-.09 0-.134.06-.149.163v.282c.06 0 .134-.148.193-.133.178.03.237.089.163.163a.341.341 0 0 1-.133.044h-.104c-.03 0-.06 0-.074-.015l-.045.03c0-.045.03.03.09.237.014.044.014.089 0 .104l-.06.044v.208c.133.03.193.088.193.192 0 .045-.03.06-.09.074-.088.015-.133.06-.133.104v.474c.075.074.104.133.09.178-.045.089-.06.118-.06.104v.296c.089 0 .148.03.178.074s.015.074-.03.074c-.015 0-.044 0-.059-.015-.074-.03-.119.015-.119.148v.445c.03.03.045.06.03.089a1.72 1.72 0 0 0-.03.4c0 .015.134.044.09.089l-.06.089c-.015.044-.03.148-.03.34v.326c.045.075.06.119.06.134-.015.104-.045.163-.06.207-.014.09-.014.148.015.193.015 0 .134.044.134.104 0 .059-.134.059-.149.103v.386c.045 0 .149-.104.223-.06.03.015.044.06.059.104 0 .193-.207.074-.282.148v.548c.104.074.149.119.119.163l-.089.119v.015c0 .074.015.118.03.148.148.104.163.267.222.4.06 0 .104-.089.296-.089.045.015.045.044.03.104-.015.059-.044.089-.089.089l-.06-.03c-.014-.015-.014-.015-.029-.015v.074s.178.119.282.163c.148.06.266.074.355.03l.148-.104c.045-.015.09 0 .134.03.074.074.104.118.089.118h.666c.06 0 .149-.03.208-.03zM25.08 2.755c-.177.045-.192-.044-.192-.089 0-.044.044-.074.118-.089.074-.014.119 0 .148.045.03.06 0 .104-.074.133zm-.163 2.563c-.074-.014-.059-.044.045-.118.044-.03.074-.03.118 0 .045.06.045.104 0 .118a.303.303 0 0 1-.163 0zm0-1.259a.837.837 0 0 1 .134-.207c0 .089 0 .148-.015.177-.045.104-.074.104-.119.03zm.104 3.008c.074-.045.148-.015.222.06.015.014 0 .029-.03.058-.059.074-.147.119-.266.163-.044-.118-.015-.207.074-.281zm-.03-2.297c-.044.119-.044-.103 0 0zm.193 1.126c-.133.045-.178-.014-.178-.059 0-.104.06-.163.178-.163.074 0 .104.03.104.104 0 .044-.03.089-.104.118zm-.133-4.015c-.03-.104-.015-.163.059-.178.089-.03.163-.015.207.06.06.074.03.133-.074.148-.118.014-.177.014-.192-.03zm-.015 1.334c-.015-.06.03-.09.118-.104.09 0 .149.03.163.074-.03.044-.118.074-.251.06zm.118 4.37c.045-.014.075-.03.119-.014.044.014.074.044.074.089 0 .059-.104.088-.296.088 0-.074.03-.118.103-.163zm-.088-3.17c.03-.045.074-.06.133-.06l-.089.09zm.044 1.94c-.015-.014.044-.073.148-.177.074 0 .134.015.148.06.015.073 0 .103-.044.118a.356.356 0 0 1-.178 0c-.044.014-.06.014-.074 0zm.06-2.666c-.03-.015 0-.074.073-.149.03-.014.045-.014.06 0l.133.119c.015.044-.074.06-.237.06zm0 .192l.029.03h-.03zm0 1.067c-.045-.044-.016-.074.103-.074.104 0 .148.015.148.06h-.133c-.06.029-.104.029-.119.014zm.222-2.519c-.178 0-.208-.059-.193-.163l.044-.089c.074-.03.134 0 .178.09.045.103.03.162-.03.162zm-.163 4.46c-.015-.015-.015-.03-.015-.044 0-.09.059-.134.192-.134.03 0 .06.015.074.045.045.074.015.118-.059.133-.089.03-.148.03-.192 0zm.03-1.363a.316.316 0 0 1 .147-.163l.119.03c.03.014.03.059 0 .103-.015.03-.089.045-.237.045-.015 0-.015 0-.03-.015zm.058-4c-.014-.104 0-.178.045-.193.089-.045.148-.015.178.06.044.103.03.162-.045.177-.103.044-.163.03-.178-.045zm.03 1.348c-.074 0-.074-.045.03-.148.015-.045.192.118.148.133a.365.365 0 0 1-.178.015zm.06 4.385c.014-.03.044-.03.073-.014.015.014.03.044.015.074-.03.074-.089.103-.163.103 0-.059.03-.118.074-.163zm-.03-1.274c.044-.044.089-.103.148-.148.133.045.178.104.133.148-.015.03-.103.045-.252.045zm.089-2.607c-.045-.015-.015-.075.074-.208.03-.044.059-.044.103 0 .015.015 0 .045-.044.06-.03.014 0 .044.074.073.044.015.044.06.03.104-.03.045-.104.045-.237-.03zm-.03-1.423c0-.074.044-.089.133-.074.134.015.178.06.134.119a.205.205 0 0 1-.163.088c-.06 0-.09-.044-.104-.118zm.015 5.956c-.045-.044-.03-.088.074-.148.104-.059.163-.044.178.045.015.074-.015.118-.119.118-.074.015-.118 0-.133-.015zm.074-3.407h.03c-.03.074-.06.103-.104.103 0-.03.03-.059.074-.103zm-.045 2.074c0-.104.06-.163.134-.222.015.059.044.074.104.03.03.014.044.044.044.073-.044.074-.148.119-.282.119zm.045.77c.015-.014.044-.03.089-.03l-.06.06c-.014 0-.014-.015-.03-.03zm.06 1.082c-.06-.015-.075-.03-.06-.06.074-.088.148-.118.207-.103.119.044.134.089.045.148a.282.282 0 0 1-.193.015zm.014-7.216c-.044-.103-.044-.178.015-.207.074-.045.148-.03.192.044.06.09.06.148-.014.178-.104.045-.163.045-.193-.015zm.015 1.334c-.015 0-.03-.015-.03-.06-.015-.03 0-.044.03-.059.104-.059.296.06.178.119-.015.015-.074.015-.178 0zm0 4.504c-.074-.06.133-.178.133-.178.074 0 .119.015.133.06.015.074-.03.177-.133.177-.044-.015-.089-.03-.133-.059zm.03-3.17c-.06-.016-.06-.03-.015-.06.014-.015.059-.015.103 0 .06 0 .06.015.015.044-.015.015-.06.015-.104.015zm-.03 1.17c.015-.045.044-.045.118-.03.03.015.045.045.045.104-.015 0-.03 0-.045-.015zm.148.622a.214.214 0 0 0-.104-.03c0-.088.045-.133.119-.133s.118.015.133.03c.03.044.03.089 0 .133-.03.045-.074.045-.148 0zm-.06-2.045c.016 0 .016.015.03.03 0 .015-.014.03-.03.03a.032.032 0 0 1-.029-.03zm.016 4.727c0-.015 0-.03-.015-.03s-.015.015-.015.03 0 .03.015.03c.015-.015.015-.015.015-.03zM25.704.282c-.015-.074.089-.134.148-.119.044.015.089.06.133.134.015.014 0 .03-.015.044h-.237zm.03 1.422c-.06-.044-.045-.118.029-.192.06-.074.281.133.178.192-.104.045-.163.045-.208 0zm-.015 1.363c0-.059-.015-.177.148-.118.089.044.118.074.103.089 0 0-.03 0-.103-.015-.045 0-.104.044-.148.044zm.059 1.2c-.074 0-.074-.03 0-.103.03-.03.074-.015.118.03.045.044.045.059 0 .074-.015.014-.059.014-.118 0zm-.045 3.305c-.044-.134.015-.208.163-.208a.212.212 0 0 1-.059.148c-.06.074-.089.104-.104.06zm.045-1.393c0-.104.044-.148.133-.163.104 0 .133.015.119.133 0 .015-.09.03-.252.03zm.044 1.867c-.015-.03.015-.06.074-.104.03.015.06.015.074.03 0 .074-.044.118-.118.103-.015 0-.015-.014-.03-.03zm.06-7.35c.03-.044.088-.044.177 0 .045.03.074.075.06.12-.015.014-.119.029-.282.029 0-.074.015-.119.044-.148zm-.015 1.512c-.045-.044-.03-.089.044-.133.03-.015.089 0 .163.074-.015.044-.03.059-.074.074-.074-.015-.119-.015-.133-.015zm.014 1.333c0-.103.045-.103.149-.103 0 .074-.045.103-.149.103zm.03 1.23a.112.112 0 0 1-.03-.059c0-.015.015-.03.06-.044.074-.015.118.014.118.059 0 .015-.015.03-.059.044a.094.094 0 0 1-.089 0zm-.03 1.897c0-.074.045-.119.119-.134.104-.014.148 0 .163.045.015.06-.03.104-.104.133-.103.015-.163.015-.178-.03zm.06-1.349c0-.133.074-.222.148-.162.015.03 0 .088-.06.162-.044.06-.073.06-.088 0zm0-2.015h.089v.03h-.09zm.03-1.97c-.015-.104.014-.163.059-.178.059-.015.222.074.222.133 0 .045-.045.06-.133.074-.09.015-.134 0-.149-.03zm.044 1.378c-.015-.015-.015-.03 0-.06s.044-.044.06-.044c.058 0 .103 0 .132.015.06.044.075.074.03.089a.202.202 0 0 1-.222 0zm0 4.474c-.06-.059-.03-.103.089-.133.118-.03.178 0 .178.074 0 .045-.045.074-.149.074-.074 0-.103 0-.118-.015zm.03-1.363c-.03-.015-.015-.059.059-.133.044-.045.103-.045.163-.015.044.03.059.074.03.133-.03.045-.06.075-.104.06zM26.088.46c0-.06.089-.163.148-.149.104.03.163.09.163.178-.015.03-.044.045-.06.03-.118 0-.162 0-.133-.015-.044.015-.088 0-.118-.044zm.03 2.77c-.03-.014-.03-.059 0-.118.044-.074.059-.104.059-.119.089 0 .133.09.133.252 0 .074-.06.06-.192-.015zm.059-1.378c-.015-.014-.045-.014-.074-.014 0-.104.03-.149.103-.149.075 0 .282.149.149.193 0 0-.06-.015-.178-.03zm-.015 5.912c-.03-.015-.044-.03-.044-.059 0-.074.103-.178.207-.133.074.044.074.103 0 .177-.03.03-.089.03-.163.015zm-.044-3.378c-.015-.06.03-.089.103-.089.074 0 .119.015.148.06l-.118.059c-.06.015-.104 0-.133-.03zm.044.919c-.015-.03 0-.06.03-.074v.103c-.015-.015-.03-.015-.03-.03zm0 1.037c0-.074.03-.134.089-.163.074-.03.133-.015.163.03.044.059.03.103-.045.148-.088.044-.163.044-.207 0zm.06 1.882c-.016-.015.014-.06.073-.134.06-.074.119-.074.178 0 .06.074.045.119-.044.148l-.09-.044c-.088 0-.133.015-.118.03zm.044-7.26c-.074-.104-.045-.149.103-.149.06 0 .104.03.119.09.015.088.015.132-.03.132a.256.256 0 0 1-.192-.074zm.207 1.437c-.178 0-.237-.06-.222-.163.015-.045.03-.06.074-.06.03 0 .074.045.148.119.06.044.06.089 0 .104zm-.207 1.333c0-.06.044-.104.103-.104 0 .074-.03.104-.103.104zm0 1.185c0-.059.044-.103.103-.103.045 0 .06.015.06.044 0 .045-.06.06-.163.06zm.015 1.941c0-.118.059-.177.163-.177.044 0 .074.014.088.059.06.133-.088.163-.222.163-.015-.015-.03-.015-.03-.03zm.03-3.348c-.016-.03 0-.045.029-.06.015-.014.044 0 .06.03-.016.03-.045.045-.06.06-.015-.015-.03-.015-.03-.03zm.044 1.985c-.015 0-.03-.015-.03-.044 0-.104.044-.163.133-.163.074 0 .119.044.119.118 0 .045-.03.074-.074.09a.252.252 0 0 1-.148 0zm.014-2.34v.029h-.03zm.015-.297c-.015-.015.015-.045.074-.104.045.015.045.045.015.09-.044.044-.074.044-.089.014zm.015-1.378c-.015-.044 0-.074.06-.089.059 0 .103.015.133.045a.212.212 0 0 1-.163.074c-.015 0-.015-.015-.03-.03zm0 5.882c0-.133.06-.192.163-.192.045 0 .074.014.089.044.044.06.03.119-.06.163a.457.457 0 0 1-.162.03c-.015 0-.015-.015-.03-.03zm.045-3.393c.118-.06.177-.044.177.06h-.207c0-.03.015-.045.03-.06zm.03 2.03c-.016-.015-.03-.03-.03-.044 0-.104.044-.149.148-.149.074 0 .103.045.103.119 0 .044-.03.089-.088.104-.045.015-.09.015-.134-.03zM26.488.55c.044-.06.074-.09.104-.09.133 0 .192.06.192.164 0 .044-.074.074-.222.074-.03 0-.06-.045-.074-.119zm.104 3.911c.044-.044.163.06.118.104.015-.015-.015-.015-.103-.015-.015 0-.06.03-.104.03 0-.015.03-.06.089-.119zm-.074 3.408c-.015-.044.014-.074.059-.104.06-.044.104-.03.118.015.03.045.015.089-.044.104-.06.015-.104.015-.133-.015zm.03-5.867s-.016-.06 0-.119c.014-.044.029-.044.059-.03.103.074.148.119.148.134 0 .044-.074.044-.208.015zm.014 4.563c-.044-.044-.03-.104.045-.193.059-.059.118-.059.177.015.03.015.045.06.03.119 0 .044-.015.074-.06.089-.059.03-.118.015-.192-.03zm.074-3.704c-.044 0-.06-.03-.06-.074.045 0 .06.03.06.074zm-.044.533c0-.044.015-.074.03-.089.073 0 .118.045.118.134a.25.25 0 0 1-.148-.045zm.03-.222c-.015-.015-.03-.044-.03-.089.163 0 .222.03.178.074-.045.074-.104.074-.149.015zm-.015 1.986c-.045-.134.014-.193.148-.193.044 0 .059.015.074.06.044.073.015.133-.074.147-.09.015-.134.015-.148-.014zm0 3.2c.044-.074.088-.104.133-.104 0 .03-.03.074-.104.134zm.044-5.838c0-.074.06-.133.193-.089.03.015.044.03.059.06l-.03.03zm.015-1.363c-.015-.06 0-.104.015-.119.044-.03.089-.03.103.015.015.045.015.074-.03.119-.044.03-.073.03-.088-.015zm0 5.897c0-.163.118-.193.222-.193.044.015.06.03.044.075-.03.074-.059.118-.103.118zm0-3.393l.03-.03v.06zm.06 1.97c0-.118.103-.207.162-.162.044.014.06.044.074.074.03.074 0 .118-.089.133-.104.03-.148.015-.148-.044zm.088-5.319c-.03-.014-.044-.044-.06-.088 0-.045.016-.075.045-.09.06-.029.133-.014.222.06.104.074.104.118 0 .148a.34.34 0 0 1-.207-.03zm-.044 1.29c0-.075.044-.06.133.014l-.089.09c-.03-.016-.044-.045-.044-.104zm.088 5.778c.03-.03.074-.03.119 0 .044.044.06.074.06.119 0 .044-.09.074-.253.074 0-.074.03-.149.074-.193zM26.8 3.038c-.015-.015-.015-.06 0-.119.015-.06.03-.104.03-.118-.015 0 .03.059.103.192a.239.239 0 0 1-.133.045zm0 1.155c-.015-.014.015-.044.074-.103.045.015.045.044.015.089-.044.044-.074.044-.089.014zm.074 3.838c0-.06.09-.163.148-.119.045.03.074.09.074.178-.133 0-.207-.015-.222-.044zm.03-5.853c-.015-.03 0-.059.044-.074.03-.015.06-.015.074.015.015.015.015.045-.03.074-.044.03-.073.03-.088-.015zM27.156.89c-.178 0-.237-.059-.223-.118.015-.03.03-.045.06-.045.222 0 .222.045.222.104-.015.044-.03.06-.06.06zm-.208 5.853c-.074-.06-.044-.133.074-.237.074-.06.134-.06.178.015.06.103.045.177-.044.222-.09.044-.163.044-.208 0zm.03-5.067c-.015-.015-.015-.03-.015-.045.06 0 .089.015.089.045-.03.059-.06.059-.074 0zm.089-.341c-.015-.074-.015-.104.03-.119.044-.015.103.015.148.06.03.03 0 .059-.074.088-.075.015-.104 0-.104-.03zm.06 5.882c-.045-.015-.075-.015-.075-.03.015-.133.06-.207.163-.207.03 0 .06.015.074.044.045.06.03.119-.03.193-.014.015-.03.015-.074.015-.014 0-.044 0-.059-.015zM27.184.46c-.014-.045 0-.09.03-.104.03-.015.06-.015.104 0s.074.044.118.089c.015.015 0 .03-.015.044h-.207a.032.032 0 0 1-.03-.03zm-.014 7.23c0-.03.03-.074.103-.118.045-.015.104.074.148.089-.014.044-.074.059-.207.059zm.044-5.852c-.015-.015.015-.03.06-.075.029.015.029.03.014.075-.015.03-.044.03-.074 0zm.311 6.237c0 .104-.074.163-.237.163 0-.103.045-.148.133-.163zm-.178-1.185c0-.222.06-.296.178-.252.045.015.074.045.074.09 0 .103-.089.162-.252.162zm.193-5.882c-.044 0-.104-.045-.104-.104.074 0 .104.03.104.104zm-.06 6.327c0-.09.03-.149.09-.163.074-.015.103 0 .118.059.015.104-.015.163-.06.178-.073.014-.118 0-.147-.06zm.104.518c.015-.044.03-.074.06-.089-.015.045-.03.074-.06.09zm.06-6.356c-.045.118-.045-.074 0 0zm.044 6.86c0-.06.045-.119.089-.163.074.104.044.163-.089.163zm.06-1.304c-.015 0-.015-.015-.015-.044 0-.134.059-.208.163-.208.014 0 .044.015.074.03.074.06.059.118-.045.192-.044.045-.104.045-.178.03zm.088.474c0-.104.045-.148.148-.148.045 0 .06.03.06.074v.089a.744.744 0 0 1-.178.03l-.03-.03zm.119.474c0-.089.044-.133.133-.133.045 0 .06.015.074.06.045.103-.059.118-.178.118l-.03-.03zM28 6.712c-.103-.103.148-.34.223-.222.074.133-.119.326-.223.222zm.104.46l.06-.119h.044c0 .074-.03.119-.074.148zm.133.459h.03v.06h-.03zm.03-.46c-.015-.044-.015-.074.015-.088.03-.015.06 0 .074.014 0 .015-.015.045-.045.075-.014.044-.03.044-.044 0zm.104 1.023c-.074-.015-.06-.06.044-.119a.457.457 0 0 1 .163-.03c0 .09-.015.134-.06.149a.252.252 0 0 1-.147 0zm.015-.519c-.015-.03 0-.059.014-.103.015-.03.045-.03.06.014.014.03.014.06-.015.09-.015.029-.045.029-.06 0zm0-.815c-.03-.03-.015-.074.044-.148.03-.044.06-.059.104-.059 0 .148-.03.222-.104.222-.015 0-.03 0-.044-.015zm.148.519c-.06 0-.06-.044-.015-.133.015-.045.06-.06.133-.045.074.015.09.06.045.134-.015.044-.074.059-.163.044zm.074.504c0-.163.074-.237.133-.193.03.015.045.045.03.09-.015.073-.074.103-.163.103zm.133.474c.015-.03.03-.045.06-.045 0 .03-.015.06-.03.075zm.03-1.348c0-.163.044-.237.133-.237l.045.044c0 .074-.134.281-.178.207zm.103-.578c-.118-.045.104-.045 0 0zm.06 1.081c-.015-.03-.015-.074 0-.118.03-.045.059-.074.103-.074.03 0 .045.015.06.059.015.074 0 .119-.045.148-.074.015-.103.015-.118-.015zm.089.49c-.015-.016.014-.075.089-.149.044-.03.059 0 .074.089-.045.044-.09.074-.149.074l-.014-.015zm.074-1.512c.015-.015.044-.015.059-.015.089 0 .133.045.133.148 0 .015-.014.03-.03.03.045-.015.016-.03-.103-.03-.015 0-.089.045-.133.045 0-.074.03-.134.074-.178zm.074.696c-.045-.03-.03-.089.044-.177.045-.074.104-.045.148.074.03.074.015.103-.044.118-.074.015-.133 0-.148-.015zm-.015 1.275c0-.074.044-.119.118-.119 0 .104-.03.163-.074.163-.014 0-.03-.015-.044-.03zm.34-.89c.016-.014.016-.014.03-.014 0 .104-.03.148-.089.133-.088-.044-.133-.074-.118-.089a.744.744 0 0 1 .178-.03zm.179.445c0 .104-.09.163-.252.163 0-.089.059-.148.177-.163zm-.252-1.185c0-.104.059-.163.133-.237.015.015.03.044.03.089 0 .103-.06.148-.163.148zm.133.474c0-.06 0-.104.015-.133.044-.075.06-.075.074 0 .015.118-.045.222-.089.148zm.148.533c-.015-.192.045-.222.148-.207l.09.044c.014.06-.223.237-.238.163zm.178-.089a.032.032 0 0 0-.03-.03c-.014 0-.014.016-.03.03.016.015.016.03.03.03.015 0 .015-.015.03-.03z"/></g></svg>