<svg xmlns="http://www.w3.org/2000/svg" width="69.668" height="32.242" viewBox="0 0 18.433 8.531"><g style="line-height:125%" aria-label="TLS" font-weight="400" font-size="14.817" font-family="3 The Hard Way Overrun" letter-spacing="0" word-spacing="0" stroke-width=".265" fill="#a41c31"><path style="-inkscape-font-specification:'3 The Hard Way Overrun, Normal';font-variant-ligatures:normal;font-variant-caps:normal;font-variant-numeric:normal;font-feature-settings:normal;text-align:start" d="M2.019 8.483l.03.03c.133-.06.222-.134.281-.149.104-.044.208 0 .311.119.015.014.06.03.148.03h.163c.03-.016.045-.03.03-.06a.912.912 0 0 0-.178-.178l-.118-.06c-.03-.058 0-.088.103-.103.119-.015.163.133.223.252.014.015.059.015.133.015.074 0 .148.133.207.133.045 0 .163-.074.223-.06.089.045.163.06.207.06l.356-.104v-.266c0-.045.103 0 .103-.104v-.533c-.103-.03-.118-.09-.03-.193.045-.044.045-.133 0-.267-.044-.148-.073-.252-.058-.31.014-.075.088-.134.088-.134v-.49l.03-.058v-.326c-.148 0-.222.044-.207.118 0 .015.03.074.03.09 0 .044-.016.058-.06.029-.06-.045-.104-.06-.133-.06-.237-.044-.282-.088-.223-.251.03-.075.09-.06.163.03.045.058.09.088.134.073.133-.059.178-.118.237-.178v-.222c.044-.015.074-.044.059-.118 0-.09-.03-.09-.089.014a.597.597 0 0 0-.06.178c0 .06-.029.06-.088 0-.104-.059-.445-.044-.326-.266.015-.045.06-.074.119-.074.014.014.03.044.03.118l.058.06c.075-.016.134-.03.149-.075.014-.015-.015-.059-.074-.118-.03-.03-.045-.06-.03-.104.015-.015.015-.044.015-.06a1.079 1.079 0 0 1-.267-.251c-.044-.06-.074-.09-.089-.074h-.118a.26.26 0 0 0-.06-.178.293.293 0 0 1 .09-.163l.207.178c.059.015.177-.03.222-.03.044 0 .074.015.074.03-.044.059-.089.015-.089.178 0 .014-.03.059-.03.103.015.015.03.03.045.03.044 0 .148-.074.311-.222h-.089c-.015 0-.015-.045-.03-.119 0-.044.03-.089.03-.104.015-.044 0-.088-.044-.118-.06-.074-.06-.119-.015-.133.015.03.044.044.089.044.044.015.059 0 .059-.044v-.312c-.044-.044-.06-.103-.044-.148l.074-.163c.014-.074-.119-.266-.119-.326 0-.015 0-.044.015-.059.074-.104.104-.133.104-.104v-.281c-.045.015-.06-.015-.06-.074 0-.163.045-.252.149-.267.148-.015.266-.03.34-.06h.015s.03.016.09.03c.044.015.073.015.088-.014.044-.163.044-.238.163-.223.044.015.06.06.06.163h-.104c-.045 0-.06.015-.03.03.044.044.089.074.118.074.06 0 .43-.06.445-.06.06-.059.104-.103.118-.147.119-.015.208.222.326.222.149 0 .223-.045.223-.148 0-.074-.237-.149-.252-.208-.015-.044 0-.074.015-.104.03-.044.03-.059-.015-.074-.09-.044-.104-.074-.06-.103.075-.045.149-.03.208.044 0 .015.015.045.03.104 0 .015.014.03.059.015.074-.015.104-.074.074-.163-.045-.178-.163-.267-.356-.282-.074.015-.133.015-.163.03-.014-.015-.03-.015-.03-.03 0-.03.06-.06.193-.104a.356.356 0 0 1 .178 0c.06.03.089.045.104.045.044 0 .074-.03.089-.104s0-.118-.045-.163C6.08.941 5.916.956 6.02.778c.045-.074.074-.09.119-.045l.089.06c.044 0 .074 0 .089-.015 0-.193-.045-.282-.148-.282A.42.42 0 0 0 5.87.63c-.044.044-.089.059-.163.044-.044-.015-.044-.06 0-.133.134-.193.237-.282.311-.237C6.02.23 5.99.2 5.945.23c-.044.014-.059.03-.074.014-.074 0-.207-.088-.266-.088 0 .044.044.237.044.222-.015.015-.044.03-.119.03h-.148l-.059-.06c.119-.074.133-.148.044-.222-.044-.03-.074-.03-.118 0-.193.133-.385.311-.696.311-.045-.044-.075-.06-.06-.074l.178-.252h.089C4.73.096 4.7.096 4.671.096c-.074 0-.326.134-.34.148-.193.06-.297 0-.312-.177 0-.015-.015-.03-.06-.03h-.34c-.044.044-.089.074-.118.06-.104-.045-.163-.06-.149-.06h-1.51c-.016-.015-.045-.03-.09-.03-.074 0-.296.06-.415.06-.059 0-.207-.06-.281-.06-.015 0-.119.06-.163.06A.919.919 0 0 1 .73.022c-.074-.03-.208-.03-.37 0C.195.037.092.096.047.2a.303.303 0 0 0 0 .163c.03.044.045.089.045.104l-.03.059c-.044.252-.074.43-.06.563v.548c0 .015.03.03.075.074.03.045.03.074 0 .104-.045.044-.074.074-.074.06v.088c0 .119.015.193.03.237.088.045.162.06.222.06.059 0 .237-.045.281-.045.074 0 .134.015.163.03h.06c.162 0 .503.03.607.044-.015-.015.06-.015.252-.015.044-.014.06-.03.044-.044-.074-.074-.118-.119-.118-.104 0-.044.133-.06.178-.06.103.045.133.105.088.179.208 0 .312.074.297.222-.015.074-.03.118-.03.133v.563c0 .015.015.03.06.015.044-.015.074-.015.059-.015.163 0 .237.06.192.104l-.044.06c-.015.014-.045.014-.089 0-.044-.015-.074-.015-.089-.015-.06 0-.104.044-.118.133a.417.417 0 0 0 0 .192c.044.06.251.045.251.163-.059 0-.192-.044-.251-.044v.4s.044.015.148.045c.059.014.089.044.089.088.014.045 0 .074-.03.074-.06 0-.193-.059-.207-.059v.37c.148 0 .222.06.222.164 0 .044-.074.059-.237.059 0 .03.044.074.133.133-.015.045-.118.045-.118.09 0 .029.03.058.103.088.03.015.045.06.06.104-.03.03-.06.059-.075.089-.044-.015-.059-.03-.059-.03-.015.074-.03.163-.03.267 0 .059.09.148.104.192 0 .06-.118.09-.133.134-.015.044-.015.074 0 .089.015.03.03.044.06.044.177-.044.266-.074.266-.074.03.015.06.044.089.089.015.015 0 .044-.074.06a.845.845 0 0 1-.326.058c0 .045.03.09.074.134h-.09v.46c0-.016.045 0 .134.073.104.104-.207.133-.103.193.03-.045.074-.06.133-.06.074 0 .118.03.163.075.044.059.044.088 0 .103a.299.299 0 0 1-.163 0c-.074-.015-.133-.03-.163-.03v.371c0 .015.015.03.06.015.058-.015.088-.015.088-.015.104.074.163.119.163.148 0 .074-.06.09-.163.045-.015-.015-.044-.03-.089-.015-.03.015-.044.03-.044.044-.015.074-.015.119-.015.134.015.089.044.133.06.118.133.045.192.104.177.178-.03.06-.06.074-.104.044a.62.62 0 0 0-.133-.044zM.049 2.185c0-.014 0-.014.014-.03.015 0 .03.016.03.03 0 .015-.015.03-.03.03S.048 2.2.048 2.185zm.177-.118a.116.116 0 0 1-.06-.06c-.014-.029 0-.044.045-.059.134-.014.282.06.178.119a.299.299 0 0 1-.163 0zM.182.17h.03V.2h-.03zm.074 1.364C.24 1.519.24 1.504.24 1.489c.06 0 .089.015.104.03-.045.074-.074.074-.09.015zM.448.274C.434.23.434.214.448.2c.03 0 .06.015.074.044 0 .015 0 .03-.014.045-.015 0-.045 0-.06-.015zm.119 1.541c-.03-.03-.015-.06.06-.074.044-.015.073 0 .103.015.074.044.089.074.074.089s-.03.015-.044.015c-.134-.015-.193-.03-.193-.045zm.267.296c0-.074.044-.103.118-.103s.133.03.163.074c.015.03.015.059 0 .074s-.03.015-.06 0a.266.266 0 0 0-.162-.045zM.922.244c.015-.014.03-.03.06-.03-.015.016-.03.03-.06.03zm.104 1.304c.074 0 .104.03.09.074-.016.015-.03.03-.045.03s-.03-.015-.045-.044zm.282.4c-.074-.059-.09-.103-.03-.148.074-.044.133-.03.178.03.06.06.06.104 0 .133a.114.114 0 0 1-.148-.015zm.37-.222c-.089-.074-.089-.118-.015-.133.06-.015.104 0 .148.044.06.06.06.104 0 .119-.044.03-.088.015-.133-.03zm.252.208c0-.06.03-.09.104-.09 0 .06 0 .104-.015.12-.03.044-.06.029-.089-.016zm.133 1.333c.119-.044-.074-.044 0 0zm.045-1.363c.044 0 .118.044.074.089-.045.044-.06.03-.074-.015zm.015 4.726a.045.045 0 0 1 0-.059.112.112 0 0 1 .059-.03c.044 0 .06.03.06.104-.06 0-.105 0-.12-.015zm-.015-.992h.03v.03h-.03zm.089-2.86a.112.112 0 0 1-.03-.06c0-.073.045-.103.148-.103.104.089.148.133.134.148-.074.074-.163.09-.252.015zm.03 2.904c-.075-.044-.06-.089.073-.148a.208.208 0 0 1 .208.03c.015.014.03.044.03.074-.015.044-.03.059-.06.059-.133 0-.222 0-.252-.015zm.118.711c.074.03.074.06.015.09-.03.014-.06.014-.104.014s-.06-.03-.06-.074l.12-.03zm-.06-5.23c-.059-.044-.073-.074-.029-.089a.094.094 0 0 1 .089 0c.03.015.044.03.06.074l-.045.045c-.015 0-.045-.015-.074-.03zM2.257 2.26c-.03-.03-.03-.06-.015-.104.015-.045.045-.06.074-.06.074 0 .148.045.193.12.074.088.044.132-.089.132a.205.205 0 0 1-.163-.088zm.133 2.46a.473.473 0 0 1-.089-.105c-.03-.03-.03-.059 0-.074a.405.405 0 0 1 .208-.059.444.444 0 0 1 .148.133c0 .074.044.134.119.149.118.03.192.059.207.088.044.104-.06.134-.133.119-.134-.015-.297-.104-.46-.252zm-.044.4c-.104-.075-.089-.105.074-.12.074 0 .207.12.207.134l-.059.074zm0-3.409a.113.113 0 0 1-.03-.074c.09 0 .148.03.193.074-.015.074-.074.074-.163 0zM2.33 6.675c-.015-.06 0-.119.074-.163.015 0 .163.252.163.222-.015.045-.044.06-.089.06a.144.144 0 0 1-.148-.12zm.267 1.348c-.09.03-.267-.074-.208-.133.015-.03.045-.045.09-.045.073 0 .133.03.147.09.015.044 0 .073-.03.088zm-.178-.592c-.03-.03-.03-.06-.015-.075.015-.014.06-.03.104-.03s.104.03.163.075c.03.03.044.06.03.089-.015.044-.03.06-.075.06-.044 0-.118-.045-.207-.12zm.044 1.066c0-.014 0-.014-.014-.014-.015 0-.03 0-.03.014 0 .045.015.045.044 0zm.208-4.385c-.074.074-.296-.06-.193-.134.074-.044.267.074.193.134zm-.178-.534c-.044-.044-.015-.089.089-.163.074-.044.118-.044.133 0 0 .09-.015.148-.044.178-.045.06-.104.06-.178-.015zm0 3.364c-.044-.015-.015-.06.06-.104.044-.015.073-.03.088-.015s.015.03.015.045c0 .074-.06.103-.163.074zm.163-.919c-.015-.015-.015-.044 0-.089h-.178c0-.044.045-.089.148-.118.163-.045.237.03.237.103 0 .074-.044.119-.133.119-.03 0-.06 0-.074-.015zm-.119-2.919c-.059-.03-.059-.089-.014-.178.014-.044.074-.059.148-.015.104.075.148.119.133.163-.015.045-.06.06-.133.06a.296.296 0 0 1-.134-.03zm.045-.578c-.015-.015-.015-.03-.015-.044 0-.03.045-.06.119-.09l.148-.073c.044-.015.148-.163.207-.163.045 0 .163.104.267.06.118-.045-.044-.223.118-.238.104 0 .326.119.193.178a2.058 2.058 0 0 0-.46.252c-.073 0-.118 0-.133-.015-.044-.03-.088-.03-.148 0-.059.03-.089.06-.074.074l.06.06c.014.059-.03.088-.12.088-.073 0-.118-.03-.162-.089zm.03-.533c0-.074.059-.09.163-.074.044.015.074.074.074.192-.09 0-.163-.014-.208-.059zm.03 3.467c-.06-.045-.03-.104.088-.163.119-.074.208.118.193.163-.03.044-.06.06-.074.06a.37.37 0 0 1-.208-.06zm0 .785c-.045-.015-.045-.03 0-.059.044-.03.118-.044.251-.044 0 .103-.089.133-.252.103zm.133-1.881c-.03-.015-.045-.045-.03-.06a.113.113 0 0 1 .074-.03c.104.015.163.03.178.06.044.089.03.133-.045.133-.044 0-.103-.03-.177-.103zM2.76 7.727c-.015-.03-.03-.06-.015-.089.015-.03.044-.044.089-.044.06 0 .118.03.163.103.06.074.044.119-.06.119a.211.211 0 0 1-.177-.09zm.059-3.882c-.06-.104-.044-.148.06-.148.059 0 .133.103.192.089.104-.03.148-.06.148-.09 0-.014 0-.044-.015-.088-.015-.045-.015-.074 0-.104.015-.015.03-.015.045-.015.074 0 .266.148.281.208.015.015-.015.03-.06.044a.843.843 0 0 0-.34.104c-.118.089-.163.133-.133.133-.06 0-.119-.044-.178-.133zm.044-1.082c-.014-.044.015-.074.09-.089.133 0 .207.045.222.163 0 .06-.03.09-.09.104-.014.015-.059-.015-.118-.074zm0 .549c.045-.06.09-.09.134-.09.089.03.118.075.104.149-.045.06-.075.074-.119.03zm.06 2.43c-.104-.075.178-.178.178-.164l.148.149c-.06.118-.163.118-.326.014zm.03.977c-.045-.014-.075-.044-.06-.059.015-.044.045-.06.089-.06.044.03.074.06.06.09-.016.03-.045.044-.09.03zm-.06.43l.03-.03.103.104c0 .03-.014.045-.044.045zm.326-1.867c-.163 0-.296-.074-.237-.133.044-.045.074-.074.119-.09.059-.014.118.016.192.105.074.074.045.118-.074.118zm-.193.963c-.044-.074-.044-.133 0-.148.06-.044.178.148.119.163-.044.03-.089.03-.119-.015zm.045 1.778c-.015-.015-.03-.059-.03-.118 0-.045.045-.045.119-.015.118.044.178.104.178.207a.44.44 0 0 1-.267-.074zM3.16 1.86c-.015 0-.163-.118-.09-.118.06-.015.105 0 .12.015.029.044.014.089-.03.103zM3.1 4.675c-.03-.03-.03-.06-.014-.09.015-.029.044-.044.089-.044.074.015.133.045.163.09.044.088.03.133-.06.133-.059 0-.118-.03-.177-.09zm-.014.666c0-.014 0-.03.015-.03.014 0 .014.016.03.03 0 .015-.016.015-.03.03-.015-.015-.015-.015-.015-.03zm.059-1.185c-.074-.104-.044-.148.074-.148.074 0 .119.03.163.104.06.089.044.133-.06.133a.211.211 0 0 1-.177-.089zm.015 3.26l.03.03-.03.029zm.148-4.83c-.044 0-.06-.015-.06-.06.016-.044.03-.059.075-.059.059 0 .089.015.074.06-.015.044-.045.059-.09.059zm-.044.533c-.045-.045-.03-.089.03-.133.014-.015.029 0 .058.03l.104.118c.015.044 0 .074-.015.074-.059.015-.133-.03-.178-.09zm.059 3.319c-.104-.045.103-.045 0 0zm0-.474c-.06-.045.074-.119.133-.074.015.014.03.03.03.044 0 .015-.015.03-.06.045-.044 0-.074 0-.103-.015zm.044 2.34c-.015-.014-.015-.044.015-.073l.044-.06c.045.015.06.06.045.119-.015.044-.06.06-.104.015zm.03-2.83c-.06-.073-.045-.118.044-.162.119-.045.134.074.148.118.045.09.045.134-.03.148-.058.015-.118-.03-.162-.103zm.03-.503c-.03-.03-.015-.074.044-.133.044-.045.104-.015.163.059.074.089.074.148 0 .163-.045.015-.104-.015-.208-.089zm.044 2.77c.015-.014.03-.029.074-.029-.015.015-.03.03-.074.03zm.044-3.837c-.044-.03-.03-.06.015-.089.045-.03.074-.03.104 0l.133.134c-.03.044-.059.059-.103.059a.532.532 0 0 1-.149-.104zm.193-.385c-.133-.119-.178-.133-.178-.178 0-.03.015-.044.06-.06.044-.014.074-.014.103.016l.134.133c-.045.045-.075.074-.119.089zm-.148 3.2l.03-.03.03.03-.03.03zm.118-3.822c-.014 0-.044-.015-.059-.045s-.015-.06 0-.074c.045-.044.06 0 .06.119zm-.03-.578c-.014-.03.016-.06.06-.104.03 0 .06.015.089.06.015.029-.015.059-.06.103-.029 0-.059-.015-.088-.06zm.075 1.304c-.119-.045.074-.045 0 0zm.015-.682l.089-.089.03.03-.09.089zm.089 1.319c-.045-.03-.045-.074-.03-.134.044-.103.133.075.178.119-.015.044-.074.06-.148.015zm.03-.623c-.016-.014-.016-.044-.016-.059.119 0 .178.06.178.193-.074 0-.133-.045-.163-.134zm0-1.23l.029-.029.03.03-.03.03zm.073.756c-.03-.044-.03-.089 0-.118.045-.045.074-.03.09.015.029.044.029.074 0 .103-.03.045-.06.045-.09 0zm.045-.518a.23.23 0 0 1 .089-.119c.044.015.059.045.014.09-.03.029-.059.044-.103.029zm.059-.548l.03-.03.03.03-.03.03zm.06-.415v.03h-.03zm.118 3.23c.015.059-.074.148-.074.192.089 0 .133-.03.133-.074v-.31c-.104 0-.163.029-.178.073a.45.45 0 0 1 .119.119zm-.03 3.57l.03.03.03-.03v-.207h-.03zm.03-5.63c0-.03.015-.044.03-.06v.06zm.03-1.052v.03h-.03zm.044-.207c0-.015 0-.03.015-.03.014 0 .03.015.03.03s-.016.03-.03.03c-.015 0-.015-.015-.015-.03zm.133.385c.03.03.045.06.045.089-.015.015-.06.015-.134.015 0-.03.03-.06.09-.104zm.045-.933a.045.045 0 0 1 0-.06.112.112 0 0 1 .059-.03c.044 0 .06.045.06.12-.06 0-.105-.016-.12-.03zm.148.859c-.06-.074.118-.148.192-.148a.58.58 0 0 1-.03.192c-.044.074-.088.06-.162-.044zm.03-1.14c.044-.075.088-.105.148-.12.059.164.148.149.148.208 0 .03-.015.044-.03.044h-.207c-.015 0-.045-.044-.06-.133zm.044.592c0-.06.044-.104.104-.104.044 0 .059.015.059.044 0 .045-.06.06-.163.06zm.296.31c-.089-.058-.059-.103.09-.118.088-.014.132.03.132.104 0 .015-.03.03-.103.03-.06 0-.104 0-.119-.015zm.03-1.021c-.06-.06.178-.223.192-.223v.119c.015.074.015.104.015.089-.059.074-.133.074-.207.015zm0 .503c-.015-.015-.015-.03-.015-.044 0-.074.06-.104.178-.09.044.016.044.075 0 .164-.03.06-.09.044-.163-.03zm.34-.222c-.029-.015-.029-.06-.014-.118.03-.06.06-.09.089-.09.015 0 .03 0 .044.015l.163.163c-.06.104-.148.104-.281.03zm.03 1.067c-.103-.03-.118-.074-.044-.148.104-.074.37.074.237.148-.045.03-.119.03-.193 0zm.015-.534a.152.152 0 0 1-.074-.088l.06-.045c.073-.03.133-.03.192.015.06.044.06.089 0 .118a.356.356 0 0 1-.178 0zM5.501.126C5.5.11 5.5.11 5.486.11c0 .015 0 .015.015.015zm.133 1.007c.015-.059.045-.103.074-.118.074.015.119.03.163.06.074.058.045.103-.059.118a.19.19 0 0 1-.178-.06zm.148.608c-.074 0-.118-.03-.133-.074 0-.06.044-.089.119-.089.074 0 .103.015.103.044 0 .075-.03.119-.089.119zm-.014.533c0-.014 0-.014-.015-.03-.015.016-.03.016-.03.03 0 .015.015.03.03.03s.015-.015.015-.03zm.014-.326v.03h-.03zm.46-1.852c-.104 0-.149.045-.149.119.119 0 .149-.09.163-.104-.014 0-.014 0-.014-.015zm.059.06c.118-.045-.074-.045 0 0zm.03 1.289c-.045-.104-.045.103 0 0zM7.094 7.342c0 .77.46 1.17 1.348 1.17l.119-.03h.015c.103 0 .31.03.385.03.03-.074.103-.118.207-.118l.119.089c.015 0 .03 0 .044.014 0-.059-.044-.177-.044-.222l.03-.133v-.015c0-.045-.09-.089-.09-.133-.044.044-.088.044-.133.03-.044-.016-.03-.045.015-.075l.178-.133c0-.045-.03-.148-.03-.193v-.089c-.015-.015-.044-.015-.104-.015 0-.074.09-.296.134-.37.281-.193.444-.222.43-.296l-.134-.045-.193-.074c-.014-.03-.014-.06 0-.074.045 0 .09.03.104.03.045 0 .119-.03.163-.03.074 0 .134.06.163.193.015.059.015.089.03.089.059 0 .089-.015.103-.03 0-.015-.014-.044-.044-.089-.03-.03-.03-.06 0-.089a.486.486 0 0 1 .119-.089c.014 0-.134-.163-.09-.266-.014-.015-.029-.06-.073-.104h-.4c-.075 0-.119-.06-.163-.178-.03-.133-.045-.178-.045-.148 0 0 .015-.03.06-.089.044-.044.029-.104-.015-.163-.015-.044.044-.074.044-.089V5.52c-.015-.103-.015-.148-.03-.103.015-.075.015-.104.015-.104-.074-.03-.148-.045-.192-.03-.119-.104-.149-.163-.075-.178a.374.374 0 0 1 .193.015c.06 0 .089-.104.089-.296 0-.074-.074-.104-.222-.104 0-.104.03-.148.103-.148l.09.044h.029v-.34c0-.06-.148-.09-.163-.104-.06-.06-.015-.104.148-.119.045-.014.074-.03.074-.044 0-.045 0-.089-.015-.133-.014-.104-.059-.163-.103-.178-.015 0-.06.015-.119.03-.118.014-.133-.09-.148-.09a.135.135 0 0 0-.104.045c-.103.104-.177.148-.192.133 0-.015-.015-.148-.03-.148l-.089.193c-.044.103-.074.089-.074-.015 0 .044-.03-.074-.089-.34-.074-.016-.133-.03-.192-.016-.045-.014.014-.163-.045-.177-.104-.015-.133-.03-.104-.045.015-.015.074-.03.149-.03 0-.03-.06-.118-.193-.251a.113.113 0 0 1-.03-.075c0-.03.015-.044.06-.03l.059.03c.044.015.089-.118.089-.133.089-.074.133-.104.133-.118-.089 0-.133-.015-.133-.06 0-.044.015-.059.059-.044l.06.03c.044.014.073-.06.088-.193-.03.015-.06.015-.074 0-.015-.015-.015-.045 0-.074.222-.237.163-.074.415-.193.03-.015.089-.015.178 0 .03.015.074 0 .118-.044.03-.015.074 0 .148.044h.015c0-.074.134-.222.134-.296v-.46c-.045-.014-.06-.059-.015-.118.015-.03.015-.044.015-.06v-.088L9.42.422c0-.074 0-.103-.015-.118l-.059-.03c.044-.03.06-.074.03-.148v-.03c.03-.059.03-.089 0-.089h-.297c.015 0-.03.015-.118.06 0 0-.045-.06-.119-.06-.044 0-.133.03-.178.03-.059 0-.148-.03-.192-.03-.045 0-.074 0-.119.015-.044.015-.074.015-.118-.015h-.889c-.09.015-.134.03-.134.045l-.03.074c-.014.415-.029.607-.029.578 0 .06.03.207.03.267 0 .059-.03.162-.03.222.015.755 0 1.778-.015 3.082-.03 1.481-.044 2.504-.044 3.067zm.385.089c.06 0 .089.014.089.03 0 .014-.03.029-.089.029zm.06-.519c.044 0 .059.015.059.03 0 .014-.015.03-.06.03zm.059-.46l.044-.029.03.03-.03.03zm.044-.503h.03v.03zm.045 1.615c-.045.104-.045-.104 0 0zm.192-.326c.045.03.074.06.09.089a.433.433 0 0 1-.134.03h-.163a.608.608 0 0 1 .207-.12zm-.06.519c.03-.015.075.014.12.088h-.223c0-.03.03-.059.104-.088zm-.058-3.26c-.015-.045 0-.074.03-.089.044-.015.073-.015.088.015.015.044 0 .074-.044.089-.045.014-.06.014-.074-.015zm0 2.356c.014-.03.03-.045.059-.045 0 .03-.015.06-.03.074zm.089-2.934h.03v.03h-.03zm.103-.489c0-.03.015-.044.045-.044.014 0 .03.014.03.044zm.104 3.452c-.045 0-.074-.03-.074-.074.044 0 .074.03.074.074zm.222.815c-.104.015-.163-.044-.237-.044 0-.045.03-.074.104-.104.074-.015.178.133.133.148zM8.101 4.35c-.03-.015-.044-.03-.044-.045s.015-.03.044-.03c.03 0 .045.03.045.075zm-.044 1.378l.03.03h-.03zm.074-.949c.015-.03.03-.044.074-.044.06 0 .119.089.104.104l-.045.044c-.089-.074-.133-.104-.133-.104zm-.015.475c.015-.045.045-.06.074-.015.03.03.03.059-.015.074zm.03 1.896a.23.23 0 0 1 .118-.089c.015 0 .104.089.06.089l-.149.03zm0-1.333h.03v.03zm.06.859c-.016-.045 0-.074.029-.089.03-.015.059-.015.103 0 .045.015.06.044.06.074-.134 0-.193 0-.193.015zm.029-2.4c0-.045.015-.06.059-.06l.089.09c-.015.044-.03.059-.06.059zm.074-.475c-.074-.044-.09-.074-.045-.088.074-.045.178.088.134.133-.015.015-.045 0-.09-.045zm-.074 2.327l.03-.03.029.03-.03.03zm.059-.46a.16.16 0 0 1 .119-.148c0 .104-.045.148-.119.148zm.015-2.518c.118-.045-.074-.045 0 0zm.03 2.03C8.278 5.118 8.486 5 8.5 5c.045.044.075.089.104.133.015.015.015.03-.015.044 0 .015-.014.015-.03 0-.044-.014-.059-.03-.059-.03-.014.075-.044.105-.059.09-.044-.015-.074-.045-.104-.06zm.074-.534c-.015-.015-.015-.044 0-.074l.059-.045c.104-.044.192.119.178.119-.015.015-.015.03-.03.03-.044-.015-.074-.03-.089-.03l-.06.03c-.014 0-.029-.015-.058-.03zm.044-.504c-.06-.103.148-.192.163-.148.06.104-.148.193-.163.148zm0 2.03c-.104-.044.104-.044 0 0zm0 1.274c-.03-.03-.015-.059.044-.103.015-.015.045 0 .06.014a.2.2 0 0 1-.104.09zm.06-1.792c-.045.118-.045-.075 0 0zm.014 1.289c-.074-.045-.06-.09.06-.119.103.045.148.089.148.148a.614.614 0 0 1-.208-.03zm.208-.46c-.119-.044-.208-.103-.163-.118a.113.113 0 0 1 .074-.03c.103 0 .163.119.148.133-.015.015-.045.03-.06.015zm-.075-.563c-.014-.044.015-.089.06-.103.059.074.089.118.089.133a.319.319 0 0 1-.149-.03zm.03-1.763c-.03-.015-.044-.03-.044-.06.03 0 .059.016.074.03zm-.03 1.274c-.044-.074-.03-.118.075-.133.118-.015.192.133.177.148l-.074.045c-.074.014-.133 0-.178-.06zm.045-.489c-.06-.059-.03-.103.089-.148.044-.015.103.03.178.104.059.074.03.104-.104.104-.074 0-.119-.015-.163-.06zm.089-.518c-.015-.015-.03-.03-.03-.045 0-.03.03-.044.089-.059.044-.015.089-.015.119.015.059.06.074.104.044.118-.03.03-.06.045-.089.045-.044-.015-.089-.03-.133-.074zm0 3.852c-.06-.044-.06-.089 0-.118.044-.015.089 0 .133.044.03.044.03.074-.015.119-.015.014-.059 0-.118-.045zm.015-1.037a.16.16 0 0 1 .118-.119c.074.074.119.119.119.104-.015.015-.03.015-.045.015a.417.417 0 0 1-.192 0zm.014.519c-.044-.045-.044-.075 0-.104.045-.03.074-.03.119.015.03.044.03.074-.015.103-.03.03-.06.03-.104-.014zm.03-3.853c-.03-.015-.03-.044 0-.089.03-.03.06-.044.089-.044.015 0 .03 0 .044.015.074.074.074.133.015.163-.044.014-.089 0-.148-.045zm.015 2.8c-.015-.014-.015-.014-.015-.03 0-.014.03-.029.089-.029.044-.015.089 0 .104.015.059.03.059.06.014.074-.044.015-.074.03-.088.03-.045 0-.074-.015-.104-.06zm.06-.518c.044-.104.103-.119.207-.03.044.045.044.074.014.104-.014.015-.044 0-.118-.044zm.088-.489c-.074-.044-.06-.074.044-.089.075-.015.119 0 .149.045.014.059-.03.118-.074.103zm.193 1.29c-.045-.03-.045-.06.03-.09.044-.015.088-.015.147-.015.03 0 .03.015.015.045l-.044.06a.251.251 0 0 1-.148 0zm.014-4.594c.015 0 .03 0 .03-.015s-.015-.015-.03-.015c-.014 0-.03 0-.03.015s.016.015.03.015zm.03 4.09c0-.075.03-.104.089-.09.06.015.089.045.089.119-.015.03-.03.044-.06.03zm.074-4.179c-.015.015-.015.044-.015.104.045 0 .06-.015.06-.06 0-.044-.015-.059-.045-.044zm.03.874c-.045-.118-.045.074 0 0zm-.015-.622v.089c.03-.015.044-.045.044-.09zm0 .237v.089c.03-.015.044-.045.044-.09zm.237 4.638c.015-.015.015-.045.015-.06-.133 0-.208.06-.208.178.06 0 .119-.044.193-.118zm-.06.607c.016-.015.016-.03.016-.06-.06 0-.09.016-.104.06.03.015.06.015.089 0zm.075-.919c.06 0 .089-.014.089-.074-.045 0-.074.03-.104.074zm.06.697c-.045.06-.06.089-.03.089.177.015.266-.09.266-.297h-.03c-.014 0-.073.074-.207.208zm.444.296c.044-.015.118.045.222.178.044.074.06.104.06.104h.118c.118-.015.177-.045.177-.074 0-.045-.296-.178-.31-.193-.134-.222-.104-.296-.208-.237-.074.044-.119.06-.119.06-.014.044-.03.073-.03.118-.044.103-.162.148-.37.148 0 .104.045.148.119.148.104 0 .192-.06.281-.178.045-.044.06-.074.06-.074zm-.37 0c0-.015 0-.015-.016-.03-.014.015-.03.015-.03.03s.016.03.03.03c.015 0 .015-.015.015-.03zm.459-.474c.074.089.148.163.237.237.237.178.237.222.459.296.133.09.237.134.311.134 0-.045-.074-.074-.074-.119 0-.104-.015-.148-.044-.163l-.238-.044c-.103-.119-.148-.193-.207-.208-.044-.059-.074-.089-.118-.103a.69.69 0 0 0-.238-.074c-.014-.015-.014-.045 0-.104v-.06c-.088-.044-.133-.074-.148-.074-.044.06-.103.075-.163.045-.103-.06-.133-.104-.089-.148.074-.074.104-.134.09-.148-.06-.06-.134-.045-.208.059-.045.06-.045.118 0 .163l.37.311zm-.326.237c.014.03.03.045.059.045v-.045zm.163.622c0-.014 0-.014-.015-.014s-.015 0-.015.014c0 .045.015.045.03 0zm1.244-.474c.074.178.148 0 .311.119l.134.089a.932.932 0 0 0 .163-.119c.192 0 .281-.03.222-.148-.03-.06-.06-.074-.104-.044l-.163.103c-.015.015-.044 0-.074-.044-.015-.015-.03-.015-.074 0a.919.919 0 0 1-.163.044c-.03-.044-.044-.074-.03-.118.06-.045.104-.06.149-.06.177-.03.237-.103.163-.237-.045-.059-.223-.089-.237-.192 0-.193.34-.104.34-.297 0-.03-.03-.059-.103-.074-.163-.044-.237-.089-.237-.133 0-.06.103-.163.162-.119l.134.075c.044.014.074.014.104 0 .03-.015.03-.045 0-.075l-.03-.088c-.045-.134-.119-.208-.222-.193-.06 0-.09-.015-.104-.045-.015-.059-.015-.103.015-.133.103-.104.37.208.548.208 0-.104-.074-.06-.074-.104 0-.06.044-.134.044-.178-.103 0-.177 0-.192.015-.045.03-.074.03-.074 0v-.208c-.134-.074-.193-.133-.208-.177.03-.045.06-.09.104-.104l.06.06c.029.044.044.073.044.073.118.03.177.06.192.074.074.104.148.178.193.223.074.059.118.044.118-.045.015-.118-.014-.207-.074-.252a.194.194 0 0 0-.163.03.555.555 0 0 1-.089-.148c-.044-.015-.088-.03-.118-.015v-.133c0-.015-.015-.045-.03-.075a.045.045 0 0 1 0-.059c-.474-.089-.177-.326-.459-.31-.163-.045-.252-.075-.237-.12.03-.044.074-.059.148-.03h.015c-.015 0 .03-.014.133-.029.193-.089.134.252.252.282a.938.938 0 0 0 .296-.134c.06-.177-.34-.237-.503-.281-.045-.045-.045-.089.015-.104.044-.015.088 0 .148.015.133.044.281 0 .459-.163a.045.045 0 0 0 0-.06c-.178.104-.267.104-.267.016 0-.045.03-.09.074-.134.03-.015 0-.03-.089-.044-.044 0-.074-.03-.074-.074-.014-.045.03-.06.104-.074.133 0 .178.133.222.133v-.193h-.459c-.06 0-.074.03-.044.104a.39.39 0 0 1 .014.104c-.014.03-.03.044-.044.044-.074 0-.326-.074-.43-.074-.074.015-.118.045-.118.119 0 0 .015.03.03.074a.2.2 0 0 1-.104.089c-.03-.015-.045-.045-.045-.06 0-.014-.015-.014-.059 0-.06 0-.148-.014-.089-.074l.06-.044c0-.045-.09-.089-.267-.163-.134-.06-.208-.148-.223-.148l-.059.03c-.015.014-.03.014-.044.014 0 .045.014.09.059.134.074.118.118.177.118.162 0 .045-.074.06-.207.06-.044.148.133.326.133.474-.014.044-.118.074-.118.118v.134l.178.178c-.104.059-.163.074-.208.192a.756.756 0 0 0 0 .267c.03.06.06.044.09-.06.029-.103.044-.162.058-.177.015-.015.09-.03.223-.045.103-.014.148-.044.133-.118 0-.03 0-.06.015-.074.015-.015.03-.015.06 0l.132.103c.045.045.015.09-.088.134-.297.118-.252.178-.445.178 0 .014.015.044.03.089v.014c0 .045-.149.06-.163.074-.045.06-.09.119-.104.163-.074.104-.104.163-.089.193.045.163.06.207.06.163-.015.03-.015.06-.03.074-.015.015 0 .045.015.089.044.074-.09.193-.075.237.09.133.163.207.238.237.088.06.148.104.177.148.163.134.297.223.386.282l.133.163a.45.45 0 0 0 .163.044c.074.074.118.119.133.163zm-.8-.933c-.193-.015-.311-.015-.267-.09l.074-.088c.015-.015-.014-.044-.059-.089-.015-.044.015-.074.06-.089.044-.015.074-.015.103 0 .06.09.104.163.119.208.074.044.133.059.177.074.075.059.134.118.193.192.045.045.03.09-.074.119-.074.03-.133.015-.178-.045-.015-.014-.074-.192-.148-.192zm-.237-1.675c.104-.044-.074-.044 0 0zm.03 1.112c-.06-.06.059-.297.133-.311l.119.118c0 .015-.03.015-.104.015 0 .044.06.118.044.163-.015.044-.044.074-.103.06-.045 0-.075-.016-.09-.045zm.014 1.956v.03l.03-.03zm.09-3.2c-.015-.075.133-.164.251-.164.06 0 .09.015.074.06 0 .133-.03.192-.089.192-.118 0-.192-.03-.237-.089zm.103-.445c-.044-.015-.03-.06.045-.119l.088-.104h.015c.09 0 .134.015.148.06.015.044 0 .103-.03.163-.029.074-.118.074-.266 0zm.104 1.407c0-.059.103-.281.178-.281.014 0 .014.015.03.03.044.073-.09.28-.164.28-.015 0-.03-.014-.044-.029zm.015.519c-.03-.045-.03-.104 0-.208.03-.089.074-.089.148 0 .074.119.103.193.074.223-.06.089-.134.089-.222-.015zm.177-1.674c-.074-.045-.044-.104.074-.178.119-.045.208-.06.267-.074.06-.06.119-.09.163-.074.03.014.06.03.09.074.014.03.014.059 0 .074h-.238c-.06 0-.089.252-.104.266-.03.03-.118 0-.252-.088zm0-.845c.09.133.163.178.223.148.074-.044.266-.163.266-.178-.014 0-.059.015-.133.03-.104.015-.104-.03-.326-.03zm.045 4.06c0-.015 0-.03-.015-.03a.032.032 0 0 0-.03.03c0 .015.015.015.03.03.015 0 .015-.015.015-.03zm.089-.86c-.03-.044-.03-.074-.015-.103.015-.03.044-.045.089-.045.178.015.281.163.222.237a.168.168 0 0 1-.118.045.264.264 0 0 1-.178-.134zm.059-.414c-.06-.045-.074-.104-.03-.193a.179.179 0 0 1 .074-.074c.09.06.134.133.119.207-.015.09-.074.104-.163.06zm-.015-1.067c0-.104.06-.178.178-.208.06 0 .133.104.119.178-.015.074-.075.074-.149.03-.014-.015-.044-.015-.074 0-.044.03-.059.03-.074.015zm.015.489c-.06-.03-.044-.09.06-.163.073-.06.118-.045.133.059.014.074-.015.104-.06.104-.059.014-.103.014-.133 0zm.119-1.215a.112.112 0 0 1 .059-.03c.074 0 .163.119.118.193-.014.059-.103.089-.266.089 0-.104.03-.178.089-.252zm.607-.534s.015-.03-.267-.03h-.237c-.015 0-.03-.014-.03-.044 0-.044.015-.06.06-.074.074 0 .133.015.178.03l.178-.06h.014c.074 0 .119.045.163.119a.116.116 0 0 1-.059.06zm-.489 2.993c-.044-.044-.044-.089 0-.118.045-.015.074-.015.104 0 .133-.015.207.015.252.074.044.074 0 .118-.134.133a.222.222 0 0 1-.222-.089zm.045-.518c0-.104.044-.134.148-.104.103.044.148.074.148.118 0 .015 0 .03-.015.045h-.252c-.015 0-.03-.015-.03-.06zm.014-.46c-.074-.074-.044-.118.06-.163.044-.03.103-.014.148.045.06.074.06.133-.015.148-.074.03-.148.015-.193-.03zm.03-.533c-.06-.044-.03-.104.089-.148.044-.015.089 0 .148.074.015.015.03.044.015.089 0 .03-.015.044-.06.044-.073 0-.148-.015-.192-.059zm.326-.46c-.282 0-.311-.044-.311-.088 0-.074.044-.119.148-.119s.163.074.163.208zm-.237-1.466c.118-.045-.074-.045 0 0zm.518 3.067c0-.015 0-.03-.014-.03a.032.032 0 0 0-.03.03c0 .015.015.03.03.03.014 0 .014-.015.014-.03zm.252.133a.37.37 0 0 0-.207.06c.044.059.104.059.178 0a.112.112 0 0 0 .03-.06zm-.148-2.089c0 .015.045.044.119.104.044.03.059.044.074.03.015-.015.015-.03.015-.045l-.03-.06v-.029l.03-.06c-.045-.044-.074-.059-.119-.059-.044.045-.074.075-.089.119zm0 1.6a.22.22 0 0 0 .193.06c.044 0 .06-.015.044-.06-.015-.03-.044-.044-.089-.03-.103 0-.148.015-.148.03zm.119-2.178c-.045.045-.03.104.015.178.088.104.133.133.133.074.015-.178-.015-.281-.089-.311-.015.015-.044.03-.06.06zm.103 1.897c.015.044.06.074.104.074.045-.015.06-.03.06-.074.014-.074-.015-.119-.06-.119-.044 0-.089.045-.104.119zm-.014.563c0 .015.059.03.163.03 0-.09-.045-.104-.134-.06zm.074-.83c0-.015 0-.03-.015-.03s-.015.015-.015.03 0 .03.015.03.015-.015.015-.03zm-.015-.815v.133c.104 0 .104-.03.03-.103zm.06 1.482v.03l.029-.03zM16.759 8.364c0 .044-.045.06-.045.104.074 0 .297.044.37.044.03 0 .06-.015.09-.044 0 0-.015-.015-.03-.06-.015-.044 0-.074.06-.074h.207c.044 0 .059.119.118.119l.119-.06c-.015-.059-.252-.133-.252-.251.267 0 .385 0 .355-.015.045.015.045.044 0 .118-.044.075-.059.119-.059.149.045 0 .09-.03.148-.104.03-.045.06-.06.074-.06.015 0 .03 0 .045.015.133-.133.207-.237.207-.31-.103.118-.192.133-.296.044-.044-.045-.044-.074-.03-.119.06-.044.104-.059.149-.059.192-.015.281-.03.266-.044-.015-.03-.044-.045-.06-.045-.014-.06.045-.193.045-.237.06 0-.014.015-.207.044-.089.015-.148-.014-.163-.088-.015-.06 0-.104.074-.149.119-.059.267.119.311.104.045-.044.06-.074.06-.104l-.09-.133c-.014-.06.12-.104.12-.119-.06-.03-.075-.074-.03-.148.014-.044.03-.059.014-.074-.03-.044-.044-.059-.044-.074 0-.044.015-.118.044-.222a.423.423 0 0 0-.015-.237c-.059-.133.045-.282.03-.385 0-.104-.03-.356-.03-.46l.06-.34v-.03a.929.929 0 0 1-.045-.163c-.015-.015-.015-.074-.015-.163 0-.163.015-.267.06-.311h-.03l-.148.044c-.044 0-.074-.015-.089-.03-.044-.044-.06-.073-.06-.088 0-.03.03-.045.075-.045.074.015.104.015.118 0 .015 0 .015-.074.015-.237l-.207-.207v-.223s-.045.015-.119.06c-.015.015-.059.015-.103.015-.134-.03-.178-.074-.104-.134a.504.504 0 0 0 .118-.148.764.764 0 0 0-.163-.03c-.133.075-.207.09-.252.045a1.143 1.143 0 0 1-.088-.222s-.015 0-.03.014c-.044.045-.074.045-.119.015l-.088-.044c-.075.015-.178.355-.312.281-.044-.014-.059-.059-.014-.103a.31.31 0 0 1 .148-.119c.044-.015.044-.044.03-.06-.015-.014-.06-.014-.134-.014h-.163c-.015.06-.06.074-.133.044-.104-.03-.163-.044-.163-.044 0 .119-.148.282-.267.237-.044-.015-.089-.06-.104-.133 0-.045 0-.074-.015-.104h-.34c.014 0-.015.044-.06.119a.181.181 0 0 1-.133.059c-.104 0-.133-.06-.118-.178.014-.133.014-.237.014-.311v-.06c-.044-.059-.074-.118-.074-.162a.611.611 0 0 0-.281-.09c-.045-.014-.045-.059-.03-.103.03-.044.06-.06.104-.06.015 0 .089.03.104.03.044 0 .163-.074.148-.133-.015-.148-.03-.193-.03-.148.178 0 .252 0 .237-.015.045 0 .148.119.208.119.103 0 .163-.03.163-.104h-.09l-.162-.148c.103-.104.177-.149.192-.149.045-.014.178.104.178.149 0-.015-.015.014-.03.118-.014.045.015.074.06.074.044 0 .103-.074.163-.074.118.06.207.119.266.163.074.06.445-.089.578-.074.06.015.09.06.09.074h.073c0-.074-.118-.207-.118-.281-.015-.045 0-.074.015-.074.044-.015.118.044.133.103.015-.015.044-.044.06-.089l.118.119a.21.21 0 0 0-.03.089c.015.03.03.044.06.03.029 0 .059 0 .073-.015.06 0 .104 0 .134.014.089-.163.163-.237.222-.237.015 0 .044.015.06.03.118.074.192.06.192.193.015 0 .06-.03.104-.09.014-.014.03-.059.03-.103-.12-.044-.179-.089-.179-.133 0-.074.03-.104.075-.104.014 0 .074.03.118.03s.06-.03.044-.09c-.014-.029-.044-.044-.088-.029.133-.044.207-.118.207-.222-.06 0-.104.133-.178.089l-.133-.104c-.03-.015-.045-.03-.045-.044v-.238c-.014 0-.059 0-.103.015-.045.015-.09.015-.119 0-.074-.03-.089-.059-.044-.103l.148-.149c.104.134.178.178.207.134.045-.06-.059-.193-.059-.208 0-.044.03-.103.03-.148 0-.192-.045-.281-.148-.281 0 .03 0 .074.014.133.015.06.015.104 0 .133-.014.09-.044.104-.074.06-.103 0-.163-.03-.163-.104 0-.104.119-.178.134-.222.014-.074-.015-.119-.06-.134-.044-.015-.222.148-.326.148-.03 0-.059 0-.089-.014-.03-.015-.03-.03.015-.045.074-.044.119-.06.119-.06C17.425.23 17.337.2 17.292.2c-.133 0-.237.015-.296.03 0 .014.015.014.044.014 0 .163 0 .208-.118.193a.376.376 0 0 1-.208-.118L16.507.14c-.015 0-.089.015-.237.059.104.044.104.104.03.178-.075.044-.104.06-.12.06l-.044-.105c-.177-.118-.296-.207-.31-.207-.104 0-.179.207-.253.252-.074.015-.133-.015-.207-.119-.074-.103-.119-.163-.133-.148-.09.045-.149.089-.193.119.044.074.06.118.074.163.074.044.119.059.148.059.074.015.09.06.03.133-.045.045-.104.045-.178 0-.104-.059-.148-.118-.133-.163.015-.074.015-.103 0-.103-.119 0-.311 0-.297-.119l.03-.06V.112c-.044.074-.148.089-.311.06-.015 0-.045.029-.119.103a.168.168 0 0 1-.118.045.299.299 0 0 1-.163-.045A1.37 1.37 0 0 1 13.869.2c-.088 0-.133.06-.118.178.118.03.178.06.193.074.044.044.03.089-.075.118-.163.06-.266-.148-.34-.088-.015.014-.03.03-.03.059 0 .03.015.044.045.06.074.014.074.073.03.147-.03.074-.09.09-.179.03l-.089-.045-.044.06c0 .103 0 .163.015.148-.074.074-.104.192-.104.37 0-.015.03 0 .074.045.104.103.163.192.178.266.015.015.178.015.178.075 0 .059-.06.103-.193.148.06-.015-.015-.015-.207-.015 0 .015.03.074.03.089 0 .044-.015.074-.06.118.282.06.4.134.356.223-.045.074-.104.088-.208.044-.015-.015-.103-.119-.163-.119 0 .045.06.252.045.326a.936.936 0 0 0-.06.193c0 .252.06.563.06.504 0 .281-.06.504-.06.489v.489c.163 0 .252.015.282.03.044.029.044.059 0 .088-.044.03-.074.045-.104.03a.325.325 0 0 1-.118-.045c-.045-.014-.06 0-.06.075 0 .133.015.237.045.281.015.015.06.03.133.044.045.015.074.045.06.09l-.045.088c-.015.045-.015.074 0 .09l.193.192c.03.015.059 0 .074-.03-.045-.015-.06-.03-.074-.074 0-.06.015-.089.03-.104.044-.014.088.015.162.074.015.015.015.03-.015.075l-.074.088c0 .06.163.163.223.163 0-.074.014-.103.059-.118.252-.074.118.178.267.178h.37v-.104c0-.06.044-.074.148-.044.104.044.148.088.134.148h.4c0-.148.074-.163.222-.045a.25.25 0 0 0 .148.045h.34c-.014-.074 0-.119.045-.134.074-.03.119-.03.163 0 .015.015.03.06.03.119v1.007c0 .045-.03.06-.104.06-.207.03-.133-.149-.222-.149h-.311c-.074.104-.148.134-.237.119-.06 0-.045-.119-.104-.119h-.311c-.06 0-.178.104-.193.119-.044.015-.089-.03-.104-.119a.25.25 0 0 0-.074-.03l-.296.03c-.044-.014-.06-.03-.06-.03a.248.248 0 0 1-.162.12c-.045.014-.134-.015-.267-.09a.346.346 0 0 0-.296 0c-.134.06-.222.075-.297.06a2.21 2.21 0 0 0-.03.31c0 .105.045.12.134.06.045-.03.06-.044.074-.03.045.03.074.06.06.09-.015.059-.075.088-.178.088-.06 0-.09 0-.074-.014-.015.014-.015.03-.015.044 0 .074.015.163.03.237h.059c.059.015.103.03.133.074.074.104-.044.193-.222.193v.222c0 .074.252.044.237.148-.163.237-.311.282-.252.356.03.044.074.059.119.074.088.015.118.089.103.237.045-.104.09-.119.134-.074.03.03.044.044.044.06l.119.014c.044 0 .118.03.163.03.044 0 .044-.03 0-.09-.045-.059-.045-.103-.03-.133.015-.044.089-.044.193-.015.03.015.059.03.088.06.015.015 0 .03-.014.044-.09.074-.134.119-.134.134h.37c.06-.06.104-.075.134-.06.06.045.104.06.133.06.163-.015.267-.015.341-.03.134.074.237-.104.282-.208.015-.044.089-.03.192.03.045.015.104.06.148.133.06.104.104.104.119.015.03-.074.06-.133.104-.148.222 0 .4.015.503.06l.06-.06c-.074-.06-.119-.104-.119-.148s.06-.074.193-.074c.074 0 .281.044.385.044-.06 0-.03-.014.104-.03.044-.014.118.016.222.06.06.044.06.089-.015.148-.133.119-.178-.104-.252-.089-.163 0-.222.03-.177.074.014.015.148.06.148.104zm-3.616-.06a.032.032 0 0 0-.03-.029c-.014 0-.014.015-.029.03 0 .015.015.015.03.03.015 0 .015-.015.03-.03zm.104-6.785c-.06 0-.074.03-.074.133.015.06.03.074.045.045.014-.015.03-.075.03-.178zm0 2.267c-.015-.015-.03-.045-.03-.09h.223l.03.045c-.075.104-.149.119-.223.045zm.015-2.564c-.044-.03-.015-.074.06-.148.044-.044.133-.03.236.045.045.03.045.059.03.103-.015.045-.044.06-.089.06a.302.302 0 0 1-.237-.06zm.207 1.57c-.163.045-.222 0-.237-.103-.014-.044 0-.059.03-.074.044-.015.119 0 .222.045.104.044.104.088-.015.133zm-.088.357c.074-.06.118-.045.148.044-.06.074-.134.119-.208.119 0-.075.015-.134.06-.163zm.014 4.415c-.03-.074.015-.119.119-.119.148 0 .207.045.163.134a.95.95 0 0 1-.193.178c-.015 0-.044-.06-.089-.193zm.223-.415c-.134.015-.252-.074-.193-.133.03-.03.06-.045.104-.045.044.045.089.074.103.06.045-.015.074-.03.09-.03.014.015.029.03.029.044 0 .074-.045.104-.133.104zm-.09 1.037c-.073.015-.118-.074-.118-.148 0-.044.015-.074.06-.074.044.015.162.06.222.06zm-.059-1.6c-.03-.03-.03-.06 0-.089.015-.044.045-.06.075-.074.074-.015.133 0 .177.06.074.073.045.118-.059.147a.225.225 0 0 1-.193-.044zm.045-2.03a.094.094 0 0 1 0-.089c.03-.03.06-.044.089-.044.059.015.103.03.148.059.074.044.06.089-.06.119-.073.03-.133.014-.177-.045zm.015-.548c0-.03.015-.045.03-.06.103-.014.266.06.162.134-.044.03-.089.03-.148 0zm.074-.46c-.045 0-.06-.014-.074-.059l.074-.059c.015 0 .044.015.089.03h.03l.059-.03h.03c.103.06-.016.133-.208.119zm-.015-1.54c-.03-.045-.03-.074-.015-.119.045-.044.074-.06.104-.06.074 0 .148.045.237.12.044.044 0 .088-.148.148-.06.014-.119-.015-.178-.09zm-.03.459c.045-.06.09-.104.134-.119.103.06.103.104.207.104 0 .09-.06.134-.193.134-.03 0-.074-.045-.148-.119zm.045-1.541c-.015-.06.03-.089.148-.089.163 0 .237.03.237.104 0 .044-.03.074-.104.104-.074.044-.133.044-.178 0zm.103 2.148c-.059 0-.103-.044-.118-.118 0-.045.015-.06.044-.074.149-.03.223 0 .223.089 0 .074-.045.103-.149.103zm.045-1.51c-.06-.016-.045-.045.044-.12.045-.044.104-.059.149-.029.103.06-.075.148-.193.148zm.06 6.311c-.075-.074-.075-.133 0-.148.133-.03.207 0 .207.074s-.045.104-.134.104a.113.113 0 0 1-.074-.03zm0-.533a.25.25 0 0 1-.03-.074c.014-.015.088-.03.237-.03.014 0 .03.044.044.133.015.074.015.119 0 .134-.044.03-.133-.03-.252-.163zm.133-.43c-.075 0-.119-.06-.104-.133 0-.045.015-.06.06-.045.118 0 .177.03.177.074 0 .074-.045.104-.133.104zM13.869 3.8c-.014-.044 0-.059.045-.074.104.015.133.03.104.045l.089-.074c.03.03.044.059.03.103-.045.045-.075.06-.105.06a.276.276 0 0 1-.163-.06zm.045-.533c-.06-.044-.045-.089.044-.104.104-.014.178 0 .223.045.014.015-.09.133-.163.133-.045-.015-.09-.044-.104-.074zm-.015 1.526c-.015-.044.03-.06.119-.06.103 0 .133.016.103.045-.074.074-.118.119-.133.104a.252.252 0 0 1-.089-.089zm0-2.608c.015-.044.06-.074.163-.059l.193.09c-.06.132-.163.177-.208.132zm.06.608c-.09-.074-.09-.133 0-.148l.177.03c.045-.015.074-.03.09-.015.014.03.014.059-.016.088-.074.104-.163.119-.252.045zm0-1.6c-.015-.104.059-.119.222-.045.103.03.148.06.163.09.014.014-.015.029-.074.058-.09.03-.134.045-.149.045l-.044-.03zm0 .548c-.015-.044.014-.074.073-.089.104-.015.267.03.252.089-.014.044-.074.089-.177.118-.045.015-.09-.03-.149-.118zm.059 2.637c-.015 0-.045-.014-.06-.044-.044-.06.09-.089.163-.089 0 .089-.03.133-.103.133zm-.015-3.63a.113.113 0 0 1-.03-.074h.311l.03.03c.044.06.015.104-.119.133a.178.178 0 0 1-.192-.089zm.074 7.305c-.015-.03 0-.045.044-.06.06 0 .237.045.237.045 0 .133-.044.178-.133.148-.06-.015-.104-.06-.148-.133zm.089-.415c-.074-.06-.06-.119.015-.163.03-.03.074-.03.118 0 .045.015.074.044.074.089 0 .044-.03.089-.074.104-.06.014-.104.014-.133-.03zm.06-7.453c.014 0 .029 0 .029-.015 0-.014-.015-.014-.03-.014s-.03 0-.03.014c0 .015.015.015.03.015zm0 4.875a.045.045 0 0 1 0-.06h.207c.044 0 .044.03.03.09 0 .03-.03.044-.075.059-.044.015-.089-.015-.163-.09zm.029-.519c-.015-.015-.015-.03 0-.044h.237c0 .074-.03.118-.104.148-.015 0-.06-.03-.133-.104zm.103 2.104c-.118.015-.103-.059-.118-.118 0-.015.015-.015.044-.03.104-.015.163.015.163.074 0 .03-.03.06-.089.074zm-.074-2.578a.113.113 0 0 1-.03-.074c.12 0 .164.03.149.074-.015.074-.06.074-.119 0zm-.014-1.556c-.075-.103-.03-.148.103-.148.09 0 .163.03.208.09.044.044-.06.162-.119.162-.074.015-.133-.03-.192-.104zm-.015 4.638c0-.044.059-.148.118-.148.015 0 .015 0 .03.015.015.059-.045.163-.104.163-.015 0-.03-.015-.044-.03zm0-3.66a.21.21 0 0 1 .089-.03c.074-.014.133-.029.148-.029.044.03.059.06.059.074 0 .045-.03.06-.089.074a.251.251 0 0 1-.148 0zm.074-1.94c-.104-.06-.09-.12.015-.164.044-.014.118 0 .222.06.044.014.06.044.06.059-.016.015-.03.044-.075.06-.074.044-.148.029-.222-.016zm-.03-.534c-.074-.074-.044-.119.119-.119.163 0 .237.03.237.09 0 .014-.015.044-.06.059a.246.246 0 0 1-.296-.03zm-.015.963c-.014-.074.03-.119.134-.119.074 0 .133.045.207.119-.06.089-.133.133-.207.133-.03 0-.074-.044-.134-.133zM14.3 3c-.015-.044-.015-.074 0-.089.015-.014.045-.03.09-.03.044.016.132.09.177.09 0 .074-.045.118-.133.133-.075.015-.119-.03-.134-.104zm.06-2.489c-.015-.015-.015-.03-.015-.044 0-.06.059-.09.177-.09l.104.12a.307.307 0 0 1-.148.088c-.044 0-.089-.03-.119-.074zm.074 6.934c-.075-.014-.075-.044 0-.103l.088-.104c.104-.015.297.074.237.148-.044.074-.163.089-.325.06zm-.03.86c-.015-.104.192-.09.192-.134 0-.103-.148-.266-.148-.326-.014-.044-.014-.074.03-.103.074-.045.267.03.267.163 0 .015-.045.015-.119.015 0 .014.045.074.119.207.074.118-.09.311-.208.296-.059-.044-.103-.074-.133-.118zm.148-1.423c-.074-.074-.074-.118.015-.118.104-.015.163-.015.178 0 .03.015.044.03.03.074a.116.116 0 0 1-.06.06c-.074.029-.119.029-.163-.016zm-.03.119c.045 0 .06.015.06.03 0 .014-.015.03-.06.03zm.208-2.119c-.119 0-.178-.044-.178-.118.015-.045.074-.045.148-.03s.119.044.119.089c0 .03-.03.044-.09.06zm-.119-2.119c-.044-.044-.015-.089.09-.133.044-.03.118-.015.207.06.059.058-.045.162-.119.162-.06.015-.118-.015-.178-.089zm.015.504c-.015-.074.045-.178.119-.133.118.133.148.089.163.133l-.104.089c-.074.044-.133.015-.178-.089zm.03.578c-.06-.03-.06-.089-.015-.163.06-.104.267.089.193.148-.045.045-.104.045-.178.015zm-.03-1.585c-.03-.045 0-.09.089-.134.044-.03.119-.015.193.045.103.074.074.118-.074.163-.09.03-.163 0-.208-.074zm.03-1.438c-.06-.074-.03-.118.074-.163.044-.014.118-.014.222.03.045.03.06.06.045.074a.342.342 0 0 1-.104.074c-.09.06-.163.06-.237-.015zm.03.993c-.045-.06-.06-.104-.03-.148.03-.03.089-.045.178-.045.133-.014.251.015.326.09.074.044-.163.073-.208.088-.133.045-.222.06-.267.015zm.222-.489c-.119.074-.267-.089-.252-.104l.059-.074c.03-.03.104-.03.207.015.045.015.075.045.09.06-.045.044-.075.088-.104.103zm-.208 3.008c0-.045.03-.06.074-.06v.06zm.104 3.29c.015-.045.03-.09.06-.105.029.015.058.015.073.015.06 0 .104 0 .134-.015.014.015.03.03.03.045 0 .104-.06.148-.164.133-.044 0-.089-.03-.133-.074zm0 .458c-.015-.044.03-.059.104-.059.074-.015.118 0 .133.045.015.074-.03.118-.104.118-.044 0-.089-.03-.133-.104zm.06-1.54c.014-.015.029-.03.058-.03 0 .03-.014.044-.03.06zm.044-1.452c-.03-.045-.03-.075 0-.09.014-.014.059-.029.103-.029.119.015.193.015.149.119-.015.044-.06.074-.119.074-.06-.015-.104-.03-.133-.074zM14.92.11c-.074.045-.059.06.06.06 0-.06-.015-.075-.06-.06zm.208 4.52c-.119.044-.193-.045-.193-.105h.223c.044 0 .044.015.03.06zm-.163-2.579c-.03-.03-.03-.06 0-.089.015-.03.044-.044.089-.044.178 0 .267.03.267.089s-.045.089-.149.089c-.089.014-.163 0-.207-.045zm0 5.127c-.015 0-.015-.015-.015-.03 0-.074.045-.118.119-.118.014 0 .03.014.03.044 0 .089-.045.118-.134.104zm-.015-.504c0-.119.074-.133.193-.133 0 .088-.06.133-.193.133zm.06-3.067c-.075-.119-.075-.178.029-.178.044 0 .148.045.193.045 0 .118-.06.177-.163.177-.03 0-.045-.015-.06-.044zm.014-2.578c-.074-.074-.03-.104.104-.104.118 0 .148 0 .104.015.044-.015.074-.015.074-.015.044 0 .044.03.015.074-.03.06-.06.089-.09.104-.073.03-.133 0-.207-.074zm.03.533c-.074-.06-.06-.104.044-.148.074-.015.148-.015.193.03.06.044.03.089-.089.148-.044.03-.089.015-.148-.03zm.044 2.563c-.044 0-.059-.03-.059-.088a.58.58 0 0 1 .193-.045c0 .089-.045.133-.134.133zm-.03-1.022c-.029-.104.045-.163.223-.163 0 .133-.06.193-.193.193zm.075 4.756a.045.045 0 0 1 0-.059c.015-.03.044-.044.059-.044.133 0 .193.03.193.074 0 .074-.045.118-.149.103-.044-.015-.074-.044-.103-.074zm.059-.43c-.089-.059-.089-.103.015-.133h.237c0 .06-.03.104-.089.134-.044.044-.104.044-.163 0zm-.044 1.023v.03h.03v-.03zm.222-.74c-.074 0-.134 0-.134-.075 0-.044.015-.06.03-.06.074-.014.104.03.104.134zm-.09-5.868c-.014-.015-.029-.015-.044-.015.045-.163.119-.222.193-.178a.44.44 0 0 0 .222.074c0 .089-.059.148-.163.163-.03 0-.103-.015-.207-.044zm-.014 6.608v.03h.06v-.03zm.03-4.653c-.015-.044 0-.074.044-.074.06 0 .178.06.133.104-.044.045-.074.06-.103.045zm0 3.112c-.015-.044.03-.074.103-.104.03.015.045.03.045.045-.074.089-.119.103-.148.059zm.03-6.179c-.015-.044.014-.059.073-.059.074 0 .178.03.193.104-.044.074-.104.089-.148.06zm.014.578c-.074-.074-.044-.118.089-.118.119 0 .193.015.207.03.03.029.03.059 0 .088a.214.214 0 0 1-.103.03c-.09.015-.148 0-.193-.03zm0 3.616c0-.06.03-.134.104-.134.044-.015.06 0 .06.045.014.059-.03.089-.164.089zm.06-.534c-.015-.015.029-.06.103-.118l.03.03c-.045.088-.09.118-.134.088zm.088 3.764c-.044-.045-.044-.09-.03-.163.016-.045.045-.045.09 0 .044.044.148.059.31.059 0 .015-.059.044-.177.104-.074.044-.148.044-.193 0zm.03-.49c-.045-.014-.06-.059-.03-.103a.111.111 0 0 1 .104-.074c.133 0 .193.044.148.133-.044.104-.118.119-.222.045zm-.045-4.474v.03h.03v-.03zM15.544.2a.032.032 0 0 0-.03-.03C15.5.17 15.5.185 15.5.2s0 .03.015.03.03-.015.03-.03zm0 6.979c-.074-.104-.06-.163.015-.178.059-.015.222.044.222.104 0 .074-.045.103-.148.103-.045 0-.074-.015-.09-.03zm.03-.578c-.015-.015-.03-.03-.03-.06h.074c0 .03-.015.045-.045.06zm.029.118c0-.103.06-.163.163-.177l.06.074c-.016.074-.09.103-.223.103zm.074-2.06c-.074-.044-.074-.088-.015-.147.045-.045.104-.03.178.014.074.045.074.09 0 .134-.044.03-.104.03-.163 0zm.015-4.133a.157.157 0 0 1-.015-.119c.015-.044.045-.044.06-.03.029.045.044.06.059.06.044-.015.074-.015.074 0 .103.089.118.148.059.178-.074.03-.148 0-.237-.089zm0 .504c-.074-.104-.06-.148.074-.148.06 0 .193.059.237.074 0 .089-.03.133-.104.148-.074.015-.148-.015-.207-.074zm0 2.593c-.074-.09-.074-.148.015-.163.163-.03.237 0 .237.074s-.06.118-.178.118a.113.113 0 0 1-.074-.03zm.044-2.045c-.074-.074-.059-.119.045-.148.06-.03.104-.03.148.015.06.044.06.089 0 .133-.074.06-.148.06-.193 0zm-.03 2.534c0-.074.016-.134.045-.163.015 0 .06.03.163.103.015 0-.03.045-.104.119-.03.03-.059.015-.103-.045zm.075 1.007c0-.015.015-.044.044-.06v.06zm.104 2.252c-.015-.015-.045-.015-.075-.015 0-.044.09-.059.282-.059.06 0 .06.03.015.074l-.074.09c-.03.014-.074-.016-.148-.09zm-.06.445l.03-.03.03.03-.03.03zm.09-.89c-.075-.088-.075-.147.014-.192.074-.044.222.015.222.119 0 .074-.044.118-.148.118-.044 0-.074-.015-.089-.044zm.014-2.074c-.044-.044-.03-.088.074-.118.045-.015.104.015.178.089.03.03.03.06.015.074-.015.03-.03.044-.074.044a.26.26 0 0 1-.193-.089zm.015 3.097c-.03-.06-.015-.104.06-.118.058-.03.088-.015.088.03 0 .029-.015.059-.06.088-.044.03-.073.03-.088 0zm.015-7.793c.103-.045-.104-.045 0 0zm.014 4.208c-.014-.045-.014-.075 0-.09h.238c.03 0 .044.015.03.06a.158.158 0 0 1-.045.074c-.104.044-.178.03-.223-.044zm.03-.534c-.03-.074.015-.118.119-.118.133 0 .177.044.148.118-.03.074-.09.104-.178.089a.252.252 0 0 1-.089-.089zm0 4.623l.03.03.03-.03zM16.048.2c0-.015 0-.03-.015-.03s-.015.015-.03.03c0 .015.015.03.03.03s.015-.015.015-.03zm0 .608c-.06-.06-.045-.09.059-.104.074 0 .118.015.163.06.074.058.074.088-.03.103s-.163-.015-.192-.06zm.014.474c-.014-.045.09-.06.282-.06 0 .104-.06.163-.193.149a.252.252 0 0 1-.089-.09zm.119.607c-.074 0-.119-.044-.119-.148.015-.03.03-.044.06-.03l.089.03h.03c.058-.03.088-.015.088.03 0 .074-.044.118-.148.118zm-.045 5.705c-.014-.03-.014-.06-.014-.075.014-.014.03-.03.044-.03.045 0 .119.03.222.075.06.03.074.074.03.118-.06.075-.104.104-.133.09-.06-.03-.104-.09-.149-.178zm.075-4.401l-.03.03h.03zm-.03 3.897l.03-.03.03.03-.03.03zm0 1.363v.03h.03v-.03zm.163-3.29a.081.081 0 0 1-.045-.073c0-.03.015-.06.06-.075.044-.014.089 0 .133.015.06.06.074.104.03.134-.045.044-.104.044-.178 0zm.03-1.526c-.015 0-.045-.014-.06-.044-.044-.074.06-.133.134-.133.118.015.148.015.103.03.045-.015.09-.03.104-.06.015.015.015.03 0 .03 0 .163-.089.222-.282.177zm-.045.46a.045.045 0 0 1 0-.06c.015-.03.044-.044.06-.059.014-.015.251.074.207.134-.045.044-.09.074-.134.074-.044 0-.089-.03-.133-.09zm.015 2.978c.044-.06.089-.044.133.044-.044.074-.089.104-.163.104 0-.074.015-.133.03-.148zm.133-2.4c-.074.014-.148-.074-.148-.134.104 0 .178.015.207.06.03.044.015.059-.059.074zM16.344 6.2c-.015 0-.015-.015-.015-.03 0-.06.133-.118.193-.104.014.015.03.015.03.03 0 .06-.149.148-.208.104zm0 .504c-.06-.09 0-.134.178-.134 0 .06-.03.104-.074.134-.06.03-.09.03-.104 0zm0 1.763c.118-.045-.074-.045 0 0zm.044-6.371c-.074-.075-.074-.119.03-.163.089-.045.163-.015.237.074.044.044.015.103-.089.148-.044.015-.104-.015-.178-.06zm.015 3.585c-.015-.044-.015-.074.015-.089.03-.03.06-.03.089 0 .015.03.015.06-.03.09-.044.029-.059.029-.074 0zm.03-5.126c0-.045.015-.074.03-.09.133 0 .207.03.207.104 0 .045-.03.06-.104.045-.06-.015-.104-.03-.133-.06zm.03.533c-.03-.015-.045-.03-.045-.044 0-.06.03-.09.104-.09.014 0 .03 0 .044.015.06.06.074.104.06.119-.015.03-.075.03-.164 0zm.044.563a.096.096 0 0 1-.09-.089c0-.044.03-.074.09-.089s.104-.015.133 0c.015.015.03.03.03.045 0 .089-.06.133-.163.133zm-.06 6.8c.015.03.045.045.09.045v-.044zm.104-1.54c-.044-.06-.015-.089.09-.104.103 0 .162.015.177.06.015.074-.03.103-.104.103s-.118-.015-.163-.059zm.148.563c-.103.044-.177-.06-.163-.119.015-.044.045-.059.09-.059.118.015.177.045.162.09a.134.134 0 0 1-.089.088zm-.163.445c-.014-.045 0-.09.045-.104.06-.015.178.015.178.074 0-.015-.045.03-.134.104-.044.014-.074-.015-.089-.074zm.06.266a.032.032 0 0 0-.03-.03c-.015 0-.015.015-.015.03s0 .03.015.03.03-.015.03-.03zm-.03-1.822c-.015-.045.015-.06.089-.074.104 0 .237.044.222.103-.044.06-.089.09-.163.09-.044 0-.089-.045-.148-.12zm.104-.534c.074.015.104.03.089.03s.015-.015.074-.03c.03-.014.044 0 .044.03s-.03.074-.089.119c-.059.014-.118-.03-.163-.104zM16.7.14c-.03.016-.045.03-.045.06.03 0 .06-.015.074-.03zm-.015 3.66c-.015-.03-.015-.059.03-.088.014-.015.044-.015.059.014.014.03.014.06 0 .09-.015.014-.045.014-.09-.016zm.059-1.955c-.045-.015-.045-.06-.015-.104s.06-.044.104-.015c.044.03.074.045.074.045.044-.03.089-.045.104-.03.044.015.059.03.044.074s-.044.06-.104.074c-.089.015-.163 0-.207-.044zm0-1.023c-.06-.074-.03-.133.104-.148.044.06.074.104.103.119.015.03.015.059 0 .089-.014.044-.044.059-.074.044a.274.274 0 0 1-.133-.104zm.207.549c-.118.044-.237-.075-.222-.09l.06-.059h.236c.015 0 .015.015.03.045 0 .044-.03.089-.104.104zm-.192 3.037c-.015-.015-.03-.03-.03-.044 0-.015.015-.03.045-.03s.044.03.044.074zm-.015 1.007c0-.03.015-.059.044-.074.03-.014.06-.014.074 0 .045.045 0 .074-.118.074zm.06-1.51c-.045-.03-.016-.06.058-.105.075-.03.104-.014.104.045 0 .06-.044.089-.148.074-.015 0-.015 0-.015-.015zm.073 3.733c-.015-.044 0-.074.03-.089s.074-.015.118 0a.152.152 0 0 1 .09.074c.029.045-.015.09-.12.134a.45.45 0 0 1-.118-.119zm.045-.978c-.015-.015-.015-.015-.015-.03 0-.044.03-.074.104-.088.074-.015.133.014.163.059.044.089 0 .133-.104.133-.06 0-.104-.03-.148-.074zm.237-.46c-.06.06-.252-.044-.193-.118.06-.074.267.06.193.119zm-.134-1.022c-.059-.074-.059-.118-.014-.133.044-.03.103-.015.177.03.03.03.045.059.03.074-.015.03-.044.044-.06.06-.059.029-.103.014-.133-.03zm0 .534c-.03-.015-.044-.06-.044-.104.015-.044.03-.074.074-.06.133 0 .193.03.178.105-.015.103-.089.118-.208.059zm.03-1.615a.135.135 0 0 1 .119-.06c.03.015.059.045.088.09-.059.088-.133.074-.207-.03zm.03 3.052c-.015-.03 0-.044.03-.06.029-.014.044 0 .059.03.014.03 0 .045-.03.06-.03.014-.044 0-.06-.03zm.074-6.504c-.09-.075-.09-.119-.015-.149.06-.014.104 0 .148.015.06.03.06.074 0 .148-.03.03-.074.03-.133-.014zm-.015.963c-.015 0-.03-.015-.03-.06-.015-.044 0-.074.03-.074.044-.015.104-.015.193.015.103.045.103.089 0 .119a.417.417 0 0 1-.193 0zm0 2.074c-.015-.074.044-.104.163-.104 0 .015-.03.06-.074.104-.045.044-.074.044-.089 0zm.03-2.549c-.075-.074-.06-.118.03-.148.103-.03.162-.03.207.015.044.045-.074.163-.178.163-.03 0-.045-.015-.06-.03zm.014 6.801a.094.094 0 0 1 0-.089.113.113 0 0 1 .074-.03c.075 0 .119.03.163.075.045.06.03.089-.074.104-.059.014-.118-.015-.163-.06zm.06-.563c-.045.119-.045-.074 0 0zm.014-.459c-.044-.044-.03-.074.06-.089.103 0 .178.015.207.045.045.059 0 .103-.133.133-.015.015-.06-.015-.134-.089zm.015-1.008c-.074-.074-.03-.118.119-.118.044 0 .06.03.074.074a.28.28 0 0 1-.03.119c-.015.044-.118-.03-.163-.075zm.208.593c-.104.074-.311-.089-.208-.148.045-.03.104-.03.178 0 .074.044.074.089.03.148zm-.208 1.008c0-.074.045-.134.119-.149.044 0 .06.015.074.03-.045.074-.104.119-.193.119zm.09.992c0-.014 0-.014-.016-.014-.014 0-.014 0-.014.014 0 .045.014.045.03 0zm.162-3.052c-.133 0-.148-.03-.148-.074h.148zm-.074-1.526c-.06-.044-.06-.074-.015-.119.015-.014.297.045.193.119-.045.044-.104.044-.178 0zM17.44.837c-.03-.015-.03-.044 0-.074.015-.015.03-.03.045-.03.059.015.118.045.163.09a.152.152 0 0 1-.09.073zm.163 1.111c-.103 0-.178 0-.163-.163.015-.014.03-.014.06-.014h.177c.045 0 .045.03.015.088-.03.06-.06.09-.089.09zm-.118-.592c-.03-.045 0-.119.103-.193.03-.015.09 0 .163.074.06.045.03.104-.103.178-.074.03-.119.015-.163-.06zm.281 5.852c-.192 0-.266-.03-.266-.074s.044-.059.133-.074c.104-.015.178 0 .222.045.045.044.03.074-.015.103-.014.015-.03.015-.074 0zm-.207-.563c-.015-.03-.015-.059-.015-.074.222 0 .326.03.326.074 0 .06-.119.163-.178.148-.06-.014-.104-.059-.133-.148zm.03 1.037c0-.074.014-.118.088-.103.09.015.134.03.134.074 0 .015-.045.06-.119.118-.044.045-.089.015-.104-.089zm.103-7.541c-.044.03-.074.059-.074.103.03 0 .06-.014.074-.03.03-.029.03-.058 0-.073zm.045 6.075c-.074-.015-.104-.045-.074-.074.014-.015.03-.03.044-.015.074.015.119.015.133.03v.059zm-.03-4.623c0-.015.06-.09.163-.193.133-.044.207.015.207.148 0 .104-.059.163-.192.163-.074 0-.134-.044-.178-.118zm0 2.504h.252l.03.03c-.045.059-.09.088-.134.088-.015 0-.044-.03-.118-.089zm.03 1.644c0-.103.03-.118.133-.118 0 .074-.044.118-.133.118zm.31-3.54c-.103 0-.177-.045-.28-.045 0 .074.044.118.133.133.103.015.148-.015.148-.089zm-.207 2.444l.03-.03.03.03-.03.03zm.074 2.297c-.059-.06-.044-.104.06-.119.103-.03.163-.015.192.06.03.073 0 .103-.074.118-.074 0-.133-.015-.178-.06zm.03-.49c-.06-.044-.044-.073.03-.088.059-.015.118.015.163.059.044.044.03.06-.045.06a.319.319 0 0 1-.148-.03zm.015.104l.06.045-.045.044-.045-.044zm.104-.577c0-.075.044-.104.118-.104.045.015.06.03.045.074-.015.015-.06.03-.163.03zm.03-1.067c0-.06.029-.134.103-.09.03.016.044.045.044.09zm.221 2.578a.032.032 0 0 0-.03-.03c-.014 0-.014.015-.029.03 0 .015.015.03.03.03s.03-.015.03-.03zm.06-5.453v.06h.03v-.06zm0 .178v.045h.03v-.045z"/></g></svg>