<svg xmlns="http://www.w3.org/2000/svg" viewBox="0 0 23.449 8.445" height="31.92" width="88.626"><g aria-label="beta" fill="#a41c31" stroke-width=".265"><path style="font-variant-ligatures:normal;font-variant-numeric:normal;font-variant-caps:normal;font-feature-settings:normal" d="M.074 7.631c-.03 0-.044.015-.044.06 0 .296.503.651.844.71.045.015.178.015.37.03a47.91 47.91 0 0 0 1.32.015c.014 0 .058-.03.073-.03.045.015.06.015.074.03h1.541c.282 0 .741-.296.874-.578.045-.118.045-.193-.014-.207l-.237-.06c-.06-.044.044-.133.118-.118.045 0 .163.044.222.044 0-.059-.044-.207-.03-.266 0-.045.09-.104.09-.149v-.726c-.06-.074-.074-.177-.03-.296a.433.433 0 0 0 .03-.133V4.934c-.015-.103-.03-.192-.03-.266a.72.72 0 0 1 .06-.208l-.09-.133v-.134c.015-.118.015-.207.03-.266 0-.06-.015-.178-.03-.341-.014-.133.015-.207.06-.222s.044-.104 0-.237-.074-.208-.119-.223c.074-.059.119-.118.119-.163 0 0-.015-.014-.03-.059-.015-.015-.015-.044 0-.089 0-.074.089-.31.089-.415-.133 0-.178.045-.163.119s.03.104.015.118c-.03.03-.045.015-.06-.03-.014-.073 0-.147.075-.251.074-.133.074-.222-.03-.252v.133c-.06.045-.163-.074-.178-.118-.015-.074-.015-.104-.03-.104-.059-.015-.103-.015-.133-.03-.163-.014-.237-.059-.222-.118.074-.089.133-.118.207-.074.104.06.208.163.252.163s.074-.03.06-.104c-.015-.044-.267-.163-.267-.281 0-.06-.045-.09-.134-.074-.044.014-.059.03-.074.014-.044-.059-.03-.103-.192-.103-.134-.045-.223-.09-.282-.119-.133-.015-.222.015-.252.09-.074-.03-.148-.045-.222-.06-.163-.03-.252-.03-.281-.015-.104.03-.178.044-.223.03a3.261 3.261 0 0 0-.118.074c-.104 0-.134 0-.119-.015-.044.03-.089.03-.118 0-.074-.074-.119-.104-.134-.104s-.044.03-.074.074c-.015.03-.044.015-.089-.03s-.088-.044-.103 0c-.03.09-.09.134-.178.134-.045-.03-.06-.06-.045-.074.03-.045.045-.074.045-.089 0-.104-.089-.311-.089-.37-.015-.075 0-.119.03-.134V.445c0-.193-.03-.311-.074-.37C2.104.044 2.059.03 2 .03c-.074 0-.104.03-.118.074A.179.179 0 0 0 1.778 0l-.089.03c.015 0-.03 0-.133-.015-.163 0-.297.015-.37.03-.075 0-.12-.045-.134-.03A.215.215 0 0 1 .889.03C.844.015.8 0 .785.015.681.03.652.03.696.03.652.03.548 0 .504 0 .28.015.148.09.089.208.074.238.074.326.074.489v.252c-.015.49-.015.86-.03 1.111v.252c.045.163.06.223.06.178l-.06.089v.015c0 .044.09.34.045.385-.045.074-.06.133-.045.148l.104.06c.06.014-.03.118-.089.192-.015.133-.03.222-.03.282 0 .014.104.03.12.044.073.074-.045.133-.09.133-.03.119-.044.475-.044 1.067.015 0 .133-.044.192-.03.09.045.074.075-.03.104-.103.03-.162.045-.162.06v1.11c.044.045.074.09.059.134-.015.074-.044.119-.06.148-.014.074.06.223.06.282S0 6.697 0 6.815c.015.075.03.105.044.12.134.088.193.148.178.192-.104.06-.222.045-.222.282 0 .014.03.03.074.044.089.015.148.045.178.089.015.044 0 .074-.06.089zm.06-6.208c-.016-.015.014-.045.059-.09.059-.014.133.045.148.105l-.045.059c-.089 0-.148-.03-.163-.074zm.029 4.356c-.074-.045-.074-.074.03-.104.074-.03.118-.015.163.03.059.074.044.104-.045.104-.06 0-.104-.015-.148-.03zm-.03-3.823c0-.074.045-.104.134-.104.148 0 .192.045.133.149H.163l-.03-.03zM.163.86l.03-.03.03.03-.03.03zm.163 5.304c.03-.015.06-.015.089-.015 0 .119-.074.178-.237.178 0-.104.044-.148.148-.163zM.37 2.52c-.133 0-.177-.03-.177-.074 0-.074.044-.103.148-.103.044 0 .089.014.103.044.074.089.045.133-.074.133zM.252 6.801c-.045-.015-.03-.044.03-.118.03-.045.088-.045.162.015.09.059.074.103-.03.133a.173.173 0 0 1-.162-.03zm0-1.54C.237 5.245.237 5.215.237 5.2c.06 0 .133.045.089.089s-.06.03-.074-.03zm.015-2.297c-.03-.015-.03-.045.014-.09s.075-.029.09.016c.029.059.029.089 0 .089-.045 0-.09 0-.104-.015zm.03.489c-.06-.045-.06-.074.014-.09.045-.014.089-.014.104 0 .06.045-.06.105-.119.09zm0 3.837c-.045-.059.059-.118.118-.118.118 0 .178.03.178.103 0 .075-.045.119-.119.119-.044 0-.104-.03-.178-.104zm.059.519C.34 7.794.34 7.779.34 7.764c0-.074.059-.089.163-.074.059.045.074.09.133.09-.089.133-.178.133-.281.029zM.415 4.37c.044 0 .06.015.074.06-.03.044-.06.059-.104.059 0-.06.015-.104.03-.119zm.207.637c-.133.015-.192 0-.192-.044 0-.03.014-.06.059-.074.044-.015.074-.015.104 0 .074.074.088.118.03.118zM.46.652C.444.622.444.593.474.563s.06-.03.074 0c.015.045.015.075 0 .09-.03.029-.06.029-.089 0zm.015 4.845c-.044-.044.045-.133.119-.133.044 0 .059.015.074.06.014.059 0 .103-.045.118-.06.015-.104 0-.148-.045zm.03-4.385c-.104-.045.103-.045 0 0zm.03.548c-.016-.015-.016-.03 0-.074.014-.03.044-.045.059-.045.03 0 .074.03.133.074.074.045.06.075-.045.09-.059.014-.103 0-.148-.045zm0 .518C.458 2.134.488 2.09.592 2.06c.133-.03.192 0 .192.104 0 .03-.03.044-.104.059a.25.25 0 0 1-.148-.045zm.044 3.868C.533 6.03.518 6 .518 5.972c0-.075.03-.104.104-.104.045 0 .074.03.104.074.015.044.015.074 0 .104-.03.014-.074.014-.148 0zm-.015.444c-.015-.015.06-.148.178-.089.103.045.133.104.059.148-.044.03-.089.03-.163 0zm.03-3.808c-.03-.044-.03-.074 0-.118.03-.03.074-.03.118 0l.03.059c0 .03-.015.06-.06.074-.044.015-.074.015-.088-.015zm.044 4.342c-.044-.03-.044-.06 0-.104.03-.045.06-.06.104-.045.074.015.103.09.103.223a.293.293 0 0 1-.207-.074zm.06.518c-.03-.015-.03-.044-.016-.089.015-.044.045-.059.09-.059a.194.194 0 0 1 .192.06c.015.014.015.059 0 .103s-.03.074-.06.074c-.073 0-.133-.03-.207-.089zm.088-3.97c.06.014.09.044.074.103-.044.044-.074.06-.089.044l-.074-.088zM.741 3.2c.015-.015.03-.03.074-.03-.015.015-.03.03-.074.03zm.044 4.815c0-.044.03-.089.074-.118.045.015.074.059.074.133-.074 0-.118 0-.148-.015zM.89 4.223c-.015 0-.104 0-.104-.06.015-.029.03-.044.06-.044s.044.03.044.104zm-.06.49c-.059-.03-.073-.06-.029-.09s.089-.03.133 0c.06.03.074.06.03.09-.03.029-.074.029-.133 0zm0 .473c-.014-.03.015-.06.06-.104.015 0 .089.06.104.104l-.03.06c-.074 0-.119-.015-.133-.06zm.045-3.29c-.074-.044-.06-.088.03-.132.103-.045.252.059.192.118-.044.045-.059.06-.074.06a.25.25 0 0 1-.148-.045zM.86 5.706c-.059-.06.074-.178.148-.119a.515.515 0 0 1 .119.223l-.06.074-.059-.045zM.92.86C.889.845.874.815.889.786.904.77.919.756.949.77c.044.03.058.06.044.089s-.03.03-.074 0zm.014 1.585C.83 2.401.83 2.356.903 2.297c.06-.044.134-.044.208-.015.104.045.104.09.015.148-.06.045-.119.045-.193.015zm-.03 3.793c-.029-.015-.029-.059 0-.103.045-.045.075-.06.104-.045.075.015.119.06.119.119 0 .044-.015.074-.06.059-.073 0-.118-.015-.162-.03zm.03-4.89C.92 1.32.92 1.29.933 1.276c.03 0 .06.015.074.044 0 .015 0 .03-.014.045-.015 0-.045 0-.06-.015zM.92 2.876c-.015-.074.014-.119.103-.119s.134.045.134.149H.948c-.015 0-.015-.015-.03-.03zm0 3.852c-.015-.074.014-.118.103-.118.074-.015.148 0 .193.044.074.06-.045.163-.089.163-.133-.03-.193-.06-.207-.089zm.074.504c-.03-.03-.015-.074.059-.133.015-.015.06.014.118.089.06.074.06.118-.014.118a.212.212 0 0 1-.163-.074zm.059.519c-.045-.045-.03-.09.044-.149.06-.03.119-.014.178.045.03.03.045.06.03.104 0 .044-.015.059-.06.059-.074 0-.148-.015-.192-.06zm.03-3.882c-.045.103-.045-.104 0 0zm.014.533c-.014-.074-.014-.119.03-.133.015 0 .044.014.074.059.03.015.015.044-.03.074-.044.044-.059.044-.074 0zM1.111.578c0-.03.015-.044.06-.059.074.015.118.015.118.015 0 .03-.03.044-.074.06C1.14.577 1.11.577 1.11.577zm.074 4.845c-.074-.015-.089-.044-.015-.103.045-.03.09-.03.149-.015.074.03.074.059.014.103-.014.015-.074.03-.148.015zm-.03-.578l.03-.03.03.03-.03.03zm.06-3.23c-.06-.014-.06-.059-.015-.163.015-.044.074-.044.163.03.089.06.104.104.03.133zm-.03.46c0-.104.06-.134.178-.09.074.016.104.045.119.075.014.044.014.06-.03.06h-.237c-.015 0-.015-.016-.03-.03zm.03 3.867c-.03-.015-.03-.045 0-.089s.06-.074.089-.074c.074 0 .104.06.104.193a.58.58 0 0 1-.193-.03zm.074-3.304c-.074-.015-.06-.06.015-.134.03-.03.074-.03.133 0 .074.045.089.075.03.119-.045.015-.104.03-.178.015zm.133 3.882c-.118 0-.163-.104-.148-.178a.081.081 0 0 1 .074-.044c.045 0 .09.03.148.103.074.074.045.119-.074.119zm-.103.444c-.074-.074-.045-.133.074-.148.074-.015.148 0 .192.06.074.073.045.133-.059.148-.089.014-.163 0-.207-.06zm-.015-2.118c.03 0 .044.014.059.03 0 .029-.015.044-.06.044zm.03 2.578c-.015-.045 0-.074.044-.09s.074-.014.118 0c.045 0 .178.104.163.12-.059.073-.103.088-.148.073zm.044-3.838c-.104-.044.074-.044 0 0zm.044.474c.015-.015.03-.03.06-.03.014 0 .03.015.03.045 0 .045-.03.06-.09.06zm.03 3.956c-.089-.015-.089-.074.015-.192.074-.074.148-.119.192-.149.074-.088.119-.133.163-.148.104-.044.178-.044.208 0 .163.163-.163.282-.282.282-.059.074-.089.133-.089.192-.03.03-.103.03-.207.015zm.03-7.23c-.03-.015-.03-.03 0-.06L1.57.667c.015 0 .06.03.104.074-.044.045-.118.06-.192.045zm.133 3.837c-.119 0-.148-.044-.133-.089a.112.112 0 0 1 .059-.03c.044 0 .074.045.074.12zm-.119.504c-.03-.044-.03-.074.015-.089.074-.015.104-.015.119 0 .015.03 0 .06-.045.089s-.074.03-.089 0zm.015-3.852a.112.112 0 0 1 .06-.03c-.015.03-.03.045-.06.03zm0 .518c-.015-.074.015-.118.104-.118.104 0 .148.044.148.148h-.222zm.015 3.867c-.06-.044-.06-.088.015-.133a.111.111 0 0 1 .133 0c.074.03.06.074-.015.119a.144.144 0 0 1-.133.014zm.015-3.348a.274.274 0 0 1 .133-.104c.119.015.148.045.148.09-.014.029-.03.044-.044.044H1.57zm.281 3.852c-.222 0-.266-.044-.207-.118.015-.015.044-.03.089-.015.074.015.118.06.118.133zm-.192.534c-.045-.015-.015-.074.074-.163.044-.045.104-.045.178.03.03.029.03.059.014.103-.014.044-.03.06-.074.06a.458.458 0 0 1-.192-.03zm0-3.912a.112.112 0 0 1 .059-.03c-.015.03-.03.045-.06.03zm.074 4.386c-.015-.045-.015-.074 0-.104.03-.044.06-.06.104-.044.074.014.133.044.148.088.044.075.015.104-.074.119-.074.015-.134 0-.178-.06zm-.015-3.897h.03l-.03.03zm.074 1.052c-.015-.015-.015-.045 0-.06s.03-.029.06-.029c.044 0 .059.03.059.104-.06 0-.104 0-.119-.015zM1.808.519c-.03-.015-.03-.044 0-.089s.059-.06.088-.06c.045 0 .06.03.03.09-.03.074-.074.089-.118.059zm.103 3.334c-.059 0-.133-.015-.089-.074.015-.03.045-.03.06-.015.044.044.059.074.03.089zm-.074.993c-.03-.015-.03-.045 0-.09s.06-.044.074-.014c.045.044.06.074.015.104a.094.094 0 0 1-.089 0zm.03.503c-.03-.015-.015-.059.044-.118.06-.06.163.089.178.103-.015.03-.044.045-.06.06a.167.167 0 0 1-.162-.045zm0-3.808c-.015-.014-.03-.03-.03-.044 0-.074.045-.104.134-.104.03 0 .059.015.074.03.044.044.044.089-.015.118-.074.03-.119.03-.163 0zm.015 4.342c-.045-.015-.015-.06.059-.134.044-.044.104-.044.163.015.015.03.03.06.015.09-.015.044-.03.058-.06.058-.103 0-.163-.014-.177-.03zm.177-3.823c-.163 0-.222-.044-.177-.104l.074-.044c.089-.015.148.015.178.074.044.044.014.074-.075.074zM1.911.978c-.015-.03 0-.044.03-.059.015-.015.044 0 .06.03 0 .03-.016.044-.03.059-.03.015-.045 0-.06-.03zm.015 1.571c-.03-.015-.03-.03-.015-.074l.074-.06c.045-.014.074-.014.119.03s.044.074 0 .09c-.074.014-.133.029-.178.014zm.222 3.867c-.177.015-.222-.044-.207-.104.015-.044.044-.059.074-.074.06-.014.119 0 .193.045.103.074.074.118-.06.133zm-.133.49c-.074-.016-.074-.06 0-.134.044-.03.089-.03.163-.015.074.015.074.06 0 .118-.03.045-.089.045-.163.03zm0-3.868C2 3.023 2 3.023 2 3.008s0-.03.015-.03c.03-.014.06-.014.074 0 .015 0 .015.015.03.03 0 .015-.015.015-.03.03zm.03 4.37C2 7.365 2 7.336 2.045 7.29s.074-.059.089-.059c.162 0 .251.044.251.133 0 .015 0 .03-.014.045-.075.133-.178.133-.326 0zm.014-3.926c.03-.059.06-.059.09 0-.015.03-.045.045-.104.045 0-.015 0-.03.014-.045zm.563 2.756c-.014-.03-.03-.044-.059-.03-.044.03-.118.03-.192.016-.104-.015-.163-.06-.163-.134a6.803 6.803 0 0 1-.03-.563c.015-.385.015-.681.03-.874 0-.015-.03-.119-.03-.163a1.72 1.72 0 0 0 .03-.4c0 .015-.03-.015-.104-.074 0 0 .104-.193.118-.563.015-.119.03-.178.045-.178h.06l.725.03.03.03v2c.103.059.148.133.118.207-.015.044-.118.178-.118.252 0 .015.044.074.148.178.015.074-.148.118-.163.133-.03.044-.044.074-.044.089h-.119c0 .133-.015.192-.06.192-.103 0-.177-.044-.222-.148zm-.414-4.49c-.045-.088 0-.132.133-.132.104 0 .148.03.148.103 0 0-.044.015-.148.03-.074.015-.119.015-.133 0zm.148.52c-.074-.015-.104-.045-.074-.104.014-.045.074-.06.148-.015.089.044.118.074.074.119-.03.014-.074.014-.148 0zm-.06 4.296c-.014-.074.03-.103.149-.103.103 0 .148.044.148.133 0 .104-.045.133-.119.089-.118-.074-.178-.104-.178-.119zm.015 1.29c.015-.016.03-.03.06-.03-.015.015-.03.03-.06.03zm.015-5.112c0-.03.015-.06.03-.074l.03.03c-.015.029-.03.044-.06.044zm.045 4.37c-.015-.014-.015-.03-.015-.044 0-.074.059-.104.178-.104.044 0 .088.015.118.045.045.104.03.148-.074.163a.22.22 0 0 1-.207-.06zm.059.52c-.03-.045-.03-.075 0-.105s.06-.044.104-.044c.163-.015.266.044.207.118a.239.239 0 0 1-.104.06c-.089.015-.163.015-.207-.03zm.311-6.135c-.163 0-.222-.074-.207-.133.014-.045.03-.06.074-.06.089 0 .148.015.177.06.075.089.06.133-.044.133zm-.178.46c-.015-.09.015-.149.09-.164.132 0 .192.045.192.134 0 .03-.09.044-.252.044-.015 0-.015 0-.03-.015zm.104.533c-.089-.015-.089-.06-.015-.134.045-.044.104-.03.178.015.089.074.089.104-.015.119-.015.015-.074.015-.148 0zM2.71 6.8c-.03-.015-.03-.044 0-.089.03-.03.045-.044.06-.044.074-.03.148 0 .222.074.044.044.015.089-.06.148-.029.03-.103 0-.222-.089zm.03.49c.044-.06.089-.104.148-.12.074.016.134.045.148.09.045.089.015.133-.089.133s-.163-.03-.207-.104zm.089.518c-.074-.06-.06-.104.044-.119.06-.015.119.015.163.06s.015.074-.059.088a.319.319 0 0 1-.148-.03zm.06-6.134c-.06-.045-.045-.104.058-.148.045-.015.075-.03.104-.03.06.06.119.104.119.148-.015.045-.03.074-.074.089-.074.015-.134 0-.208-.06zm.029.43c.015-.045.074-.045.192-.03.06.015.09.044.09.06 0 .029-.016.044-.045.058h-.237zm.489 4.652c-.356-.163-.474-.252-.4-.326.044-.045.103-.06.192-.045.163.045.223.074.223.09l.251.251c.015.045 0 .06-.044.074-.03.015-.074.015-.119 0zm-.148.34c-.163.015-.223-.088-.178-.162.015-.045.044-.06.089-.06.089 0 .148.03.177.09.015.073-.014.118-.088.133zm-.119-4.46c0-.029.015-.044.06-.029 0 .03-.016.045-.06.03zm.178 4.935c-.163 0-.237-.03-.193-.104a.081.081 0 0 1 .074-.044c.06-.015.119 0 .178.044.089.074.074.104-.06.104zm-.117-6.21c-.015-.029.015-.058.06-.103.044-.03.088-.03.118 0 .014.045 0 .074-.06.104-.044.044-.089.044-.118 0zm.044 3.868c-.074-.044-.059-.089.045-.104.178-.044.192.03.178.09-.015.044-.03.058-.06.058a.266.266 0 0 1-.163-.044zm.03-3.437c.03-.045.104-.045.207 0 .045.014.06.044.045.059s-.03.03-.045.03h-.237c0-.03.015-.06.03-.09zm.03.607c-.045-.06.03-.163.088-.163.09 0 .134.044.134.148 0 .045-.03.06-.104.045-.06 0-.104-.015-.118-.03zm0 3.349c-.06-.06-.045-.104.044-.149.148-.044.222-.014.222.119 0 .044-.03.06-.103.074-.075 0-.134-.015-.163-.044zm.222.548c-.163 0-.222-.06-.178-.134.015-.044.044-.059.074-.074.074-.014.133.015.178.074.03.015.03.045.015.09-.015.029-.045.044-.09.044zm-.09.963c-.073-.045-.073-.089.03-.133a.356.356 0 0 1 .178 0c.104.044.134.088.09.133-.03.015-.075.03-.134.03s-.119-.015-.163-.03zm.045-5.912c-.044.119-.044-.074 0 0zM3.47 7.72c-.015-.059.03-.089.118-.089.178 0 .237.045.163.134 0 .015-.074.015-.222.015-.015 0-.045-.015-.06-.06zm.148-6.149c-.03-.014-.015-.044.059-.103.03-.015.074 0 .133.059-.014.044-.03.06-.074.06-.059 0-.103 0-.118-.016zm.192.563c-.163 0-.237-.059-.177-.118.03-.03.059-.045.088-.045.06 0 .09.06.09.163zm-.133 3.32c-.015-.016-.03-.03-.03-.06s.015-.044.045-.06c.104-.029.163 0 .163.075-.015.044-.074.06-.178.044zm.519.77c-.134 0-.208-.045-.208-.222-.222.03-.34 0-.34-.09 0-.133.103-.148.31-.044.149.074.267.178.356.282-.015.044-.06.074-.118.074zM3.75 2.607c-.089-.014-.104-.059-.044-.103.044-.03.089-.03.148 0 .089.03.103.059.044.103-.015.015-.074.015-.148 0zm-.044 3.838c0-.104.03-.178.163-.119.059.03.088.075.088.119zm.059.519c-.074-.06-.045-.104.06-.149.118-.044.251.09.207.149-.015.044-.03.059-.075.059a.22.22 0 0 1-.192-.06zm.044.533c-.044-.06.03-.178.104-.178.015 0 .06.03.148.074.045.03.074.06.06.074-.015.015-.045.045-.09.06-.103.044-.177.03-.222-.03zm.148-.889a.081.081 0 0 1-.044-.074c.296 0 .46-.06.46.133 0 .045-.03.06-.09.06a.671.671 0 0 1-.326-.119zm-.03-5.364c-.014-.014 0-.044.045-.074.015-.015.03 0 .074.045 0 .015-.014.044-.059.089-.015.014-.03-.015-.06-.06zm.016.549c-.074-.045-.045-.104.089-.149.044-.014.103.015.177.09.06.073.03.118-.089.118a.285.285 0 0 1-.177-.06zm.059.503c-.044-.044-.03-.089.044-.133.06-.044.119-.03.178.044.03.03.045.06.03.104s-.03.06-.074.06a.308.308 0 0 1-.178-.075zm.015 3.334c-.015-.044.015-.074.089-.089.074 0 .118.03.118.074s-.06.06-.178.045c-.014-.015-.03-.015-.03-.03zm.089-4.386c0-.014.014-.014.03-.03.014 0 .014.016.014.03 0 .015 0 .03-.015.03s-.03-.015-.03-.03zm.059 5.957c-.074-.045-.074-.09.015-.163.103-.06.37.059.252.178-.045.044-.074.059-.119.044zm.044.489c-.03-.015-.014-.06.06-.134.014-.014.059 0 .133.045.015.015.03.03.03.06 0 .029-.015.044-.045.058a.23.23 0 0 1-.178-.03zm.09-5.675a.112.112 0 0 1-.03-.06c0-.073.059-.103.177-.103.075 0 .134.03.163.089.03.074 0 .104-.103.118-.104.015-.178 0-.208-.044zm.059-.504c-.075-.015-.09-.03-.075-.06.06-.073.119-.088.163-.073.104.044.134.089.104.133-.03.03-.089.03-.192 0zm.074 4.371c-.03-.015-.03-.03 0-.074.014-.03.044-.03.074-.015.044.045.044.06.03.074-.015.015-.06.015-.104.015zm.014.504c-.044-.074-.03-.104.075-.119.103-.015.163 0 .177.06.015.014-.044.118-.089.118-.059.015-.118-.015-.163-.06zm.015.489c-.015-.06.015-.104.074-.119.134-.044.252.104.193.163-.044.03-.074.045-.089.045-.089 0-.148-.03-.178-.09zm.045.533c-.074-.074-.045-.133.089-.148.074-.015.133.015.177.074.075.074.045.133-.074.148a.193.193 0 0 1-.192-.074zm.148-5.2c0-.09.044-.134.118-.134.134 0 .208.06.208.178 0 0-.074-.015-.237-.044zm.178 4.89c-.03-.03-.03-.06-.015-.075.044-.044.074-.074.089-.074.03-.045.089-.015.178.074.088.074.074.133-.045.148-.044.015-.118-.015-.207-.074zm.03-.52c-.03-.014-.045-.03-.045-.059.015-.03.03-.044.044-.044.045 0 .06.03.06.103zm.37-1.718c-.045.118-.045-.074 0 0zM6.107 6.875c-.044.015-.06.06-.06.119l.03.059c.03.015.045 0 .06-.03.014-.074 0-.118-.03-.148zm.074-2.741c.06.06-.118.193-.118.237.044 0 .059-.06.103-.06.015-.014.074 0 .178.045.045.015.104.015.178 0s.118-.06.104-.118c-.134-.119-.208-.297-.445-.297-.074 0-.074.06 0 .193zm-.104 2.415c.074.074.134.148.208.207a2.02 2.02 0 0 0 .34-.207l.178-.104c.045-.03.045-.074.015-.118-.104-.074-.148-.045-.34-.237-.104-.104-.178-.134-.252-.119-.104.015-.149.045-.149.104 0 .044.03.06.104.074a.417.417 0 0 0 .193 0 .523.523 0 0 0 .133.163c.06.074.074.118.045.163s-.06.06-.09.06a.285.285 0 0 1-.177-.06c-.015-.015-.03-.015-.045 0l-.103.089-.06-.03zm0-1.126l.03.03v-.03zm.045.978c-.045-.104-.045.104 0 0zm.296-1.526c.074.015.104.015.104.015l.252.192h.059c.044 0 .06-.06.015-.163-.015-.06-.06-.104-.134-.148-.177-.074-.266-.148-.266-.193 0-.014 0-.044.015-.059a.877.877 0 0 1-.356-.089c-.044.134.015.222.148.297v.044c.015.06.06.089.163.104zm-.163 3.052c-.015.044 0 .06.045.06.044.014.074 0 .089-.03.044-.075.074-.119.103-.119.119.015.148.015.104.03.104-.06.222-.104.163-.163-.045-.06-.237-.03-.282-.09l-.074-.133c-.044-.044-.074-.044-.118-.014-.06.044-.104.059-.119.059v-.074c-.103.03-.118.074-.059.148l.207.207c.015.015-.014.045-.059.119zm2.86.489l.059.03h.785c.104 0 .178-.015.223-.045a.945.945 0 0 0 .133-.415v-.504c.044-.044.044-.103.03-.148s-.104-.059-.104-.118c.03.015.044.015.044.015.045-.03.06-.09.06-.178 0-.074-.03-.267-.03-.326.044-.074.044-.119.044-.163a.359.359 0 0 0-.059-.193c-.06-.118-.133-.178-.207-.178-.03 0-.045.015-.06.045-.03.074-.059.104-.103.089l-.134-.119h-.859l-.119.03c.015.089-.014.281-.059.578-.015.133-.03.296-.03.503l.149.163c0 .045-.178.193-.223.193h-.118c-.074.015-.104.03-.074.06.133.118.222.207.296.251l-.089.03a.517.517 0 0 0-.355-.178c-.119 0-.341.06-.415.06 0-.075.074-.149.222-.193.044-.015.089-.045.104-.09.03-.044.03-.088 0-.118-.045-.044-.074-.03-.09.045-.014.059-.073.059-.073.059-.045-.045-.074-.06-.09-.06a.624.624 0 0 0-.073.03c-.03 0-.06-.015-.074-.059-.015-.03-.015-.06 0-.074.103-.074.207-.133.296-.163.015-.015.03-.03.03-.044v-.134c-.015 0-.06.045-.134.045s-.118-.03-.163-.09c-.059-.073-.059-.133 0-.177.045-.015.104-.015.178.03V6.89c0-.045-.044-.119-.03-.163 0-.074.282-.178.282-.297 0-.059-.104-.207-.104-.281 0-.06.104-.163.104-.222 0-.134-.089-.178-.104-.252-.014-.104.119-.119.119-.134.015-.103.015-.207.074-.222.104-.015.163-.015.193-.015.088.015.133.03.118.03H9.87c0-.044.03-.074.074-.104.045-.044.075-.03.09.015.044.104.118.133.222.074l.118-.074c.015-.015.074-.015.148 0 .045 0 .104.015.148.03l.045-.03v-.252c0-.044.03-.06.074-.06.06 0 .178.03.237.03.074 0 .104-.03.104-.103 0-.06-.074-.104-.06-.148a.893.893 0 0 1 .208-.163l.03.03c.044-.045.059-.06.074-.06-.045 0-.09-.06-.134-.163-.133-.104-.237-.074-.192-.178.03-.044.059-.059.089-.059.059 0 .148.074.207.074 0-.252-.06-.37-.163-.37-.044 0-.163.074-.222.059-.045-.015-.045-.074 0-.178a.75.75 0 0 1 .133-.118.78.78 0 0 0 .148-.223c-.014-.03-.044-.044-.089-.044v.089c-.163 0-.251 0-.266.015s.015.044.059.089c0 .03-.044.074-.133.133a.157.157 0 0 1-.119-.015l-.163.133c-.074.074-.133.104-.163.09-.074-.03-.06-.09.015-.164.178-.103.415-.192.415-.37 0-.104.133-.163.178-.163l.059.03h.015c.015 0 .103-.03.118-.03.045 0 .104.06.193.178.03-.015.044-.045.03-.104-.134-.178-.282-.178-.267-.282.015-.118.03-.163.03-.148-.075 0-.104-.015-.12-.03-.044-.073.075-.192.134-.147l.193.162c.03-.03.03-.103.015-.222-.015-.103-.03-.178-.03-.237-.118 0-.089.163-.163.163l-.06-.03H11.1l-.178.09h-.014c-.015 0-.045 0-.09-.015h-.073c0-.119.207-.104.281-.237.015-.045.015-.06.015-.075.118-.103.207-.177.281-.222a.33.33 0 0 0 .09-.192c-.015-.03-.03-.045-.075-.045l-.207.03c-.015 0-.015.044 0 .118.015.06 0 .09-.045.09h-.222c-.015 0-.044-.03-.06-.075 0 .015.016 0 .06-.044l.193-.09c.015 0 0-.014-.015-.059 0-.059 0-.088.015-.103.074-.134.118-.208.118-.222a.372.372 0 0 0-.326.177c-.103.163-.177.252-.222.267-.118.015-.296-.015-.281-.133.03-.104.133-.134.296-.104 0-.074.118-.089.133-.089 0-.03-.074-.06-.237-.074-.148-.015-.222-.044-.222-.074.03-.104.06-.193.089-.237.015-.03.044-.03.104 0 .044.015.118.207.237.207.133-.015.222-.03.266-.074a.62.62 0 0 0-.177-.118c-.03-.03-.015-.06.044-.09.044 0 .06.016.074.03.148-.074.237-.163.267-.237.015-.03-.015-.059-.074-.103-.09-.045-.134-.075-.134-.09.045-.044.074-.118.074-.222a.504.504 0 0 0-.148.119c-.015.015-.044.015-.074 0l-.06-.06c-.088-.029-.132-.073-.118-.133 0-.059.03-.192.03-.266-.104 0-.089.192-.133.207-.06.015-.267-.06-.267-.118 0-.045.06-.119.06-.134s-.03-.015-.105 0c-.014.015-.03.074-.074.074l-.059-.03A2.547 2.547 0 0 0 9.485.03c.045 0 0 0-.133.014h-.06c-.044.045-.133.06-.296.06C8.863.03 8.686 0 8.448.014c-.178 0-.311 0-.4.016-.044.014-.074.014-.089.014-.044.03-.03.104.045.208.044.06.103.133.192.207.252.208.37.341.37.415.015.104.015.193-.03.267-.014.015-.029 0-.073-.045L7.826.222C7.722.178 7.678.118 7.692.074S7.648 0 7.544 0a.239.239 0 0 0-.192.089c-.104.089-.149.133-.163.133-.045 0-.134-.192-.237-.178-.163.03-.356.149-.563.37-.104.105-.178.208-.193.282-.015.104.06.134.06.148-.016.015-.03.015-.06 0-.015-.014-.03.015-.045.09-.03.133-.044.207-.044.207v1.14c.03.016.044.09.03.223-.015.089.03.148.118.193-.015.044-.06.059-.148.059l.148.148c0 .015-.148.089-.148.133l.044.045.134.133c.015.015 0 .045-.03.09 0 .014.015.044.045.088.03.03.03.06 0 .074l-.163.074c-.015.06.148.148.103.208-.014.059.104.133.119.133l.089-.03c.044-.015.059 0 .074.03l.089.178h.103a.845.845 0 0 0 .06-.326c-.09-.015-.208-.06-.356-.104-.03-.015-.044-.03-.044-.06l.03-.103c.014-.074.044-.104.088-.104.09.03.134.06.134.09 0 .118-.015.147-.03.103.03.03.06.044.074.044.119.015.193.015.207 0 .045-.059.015-.118-.088-.163-.045-.03-.075-.074-.075-.148s-.281-.148-.34-.252c-.045-.089-.03-.148.044-.177.03-.015.06-.015.074-.015.03.015.045.03.03.059l-.03.074v.03c.074.074.148.118.208.118.148-.015.252-.044.296-.118.089-.134.133-.193.133-.193.119 0 .148.074.104.208l-.074.177c-.015.074.118.193.118.252 0 .119-.148.193-.133.267.074.163.119.296.163.37.015.074.045.06.074-.044.015-.045.03-.119.015-.193l-.044-.444c-.015-.104.014-.326.059-.697.015-.118.03-.177.03-.177.014-.015.044-.015.088 0 .045.03.074.044.09.044h.133c.044 0 .148.193.192.237.104.133.178.133.193.03.044-.534 0-.8.163-.815.222-.015.237.03.237.03h.815v1.155l-.06.06h-.696c0 .103 0 .133.015.118a.206.206 0 0 0 0 .133l.074.178a.215.215 0 0 1-.015.163c-.133.104-.237.148-.31.148a.334.334 0 0 0 .029.237c-.015.03-.074.03-.163.015-.104-.044-.297-.326-.46-.326-.044 0-.059.045-.059.134v.162c0 .03-.089.09-.281.178a.867.867 0 0 0-.149.282c.104.074.149.207.149.37 0 .119-.208.134-.208.237a.949.949 0 0 1 .208.223c.014.03.03.044.014.059-.074.06-.118.104-.163.118-.074.06-.059.134.03.223.06.074.089.148.089.192-.044.193-.178.208-.178.252 0 .015.015.045.045.06.103.073.148.103.148.088 0 .015-.193-.015-.311.178-.015.015.015.045.059.089v.015c0 .044-.03.089-.074.133-.015.015-.06 0-.133-.015-.193-.044-.282-.118-.282-.207-.06 0-.089.044-.089.133 0 .104.015.148.06.148.251 0 .31.193.355.267.074.015.119.03.148.015.104.074-.03.148-.163.148l-.06-.03c-.073-.03-.118-.014-.118.045 0 .074.193.237.252.34.06 0 .104-.014.134-.029.044.015.089.03.133.074.015.03.015.074 0 .119-.06.118-.104.177-.133.177-.045-.044-.09-.207-.163-.207-.134-.015-.163-.03-.223-.104.045.37.06.119.267.474.045.09.104.134.163.134h.504c0-.03.015-.06.03-.09.014-.014.059-.014.103 0l.282.075c.222.015.4 0 .518-.015l.06.03zM6.107 3.274l.03.03v-.03zm.015.534c.104-.045-.074-.045 0 0zm.148 1.704c-.06-.015-.089-.03-.104-.03 0 .074.163.163.178.208.074.103.163.192.267.266.074.06.163.104.237.148.118.075.192.104.222.104.119 0 .163-.03.119-.104l-.223-.177c-.252-.163-.474-.312-.696-.415zM6.196 4.8c-.015-.03-.015-.015-.03.044.03-.015.045-.03.03-.044zm.148.474c.06-.015.133.015.207.089.104.103.163.163.193.177.074.03.104 0 .119-.089 0-.103-.015-.177-.03-.192-.044-.015-.074-.015-.089 0-.104-.015-.326-.282-.46-.222-.103.044-.118.03-.118.044zm.133-3.63c-.074.014-.281-.074-.207-.119a.206.206 0 0 1 .133 0c.119.06.148.104.074.119zm-.103.533c-.134-.089-.163-.133-.09-.148.104 0 .179.015.223.03.089.03.104.074.06.133-.045.044-.12.03-.193-.015zm.207 4.875c-.133-.015-.237 0-.252.074 0 0 0 .015.015.059.074.178.163.104.237.237.045.104.089.148.104.148 0-.059.015-.133.03-.207 0-.015.059-.045.059-.09l-.148-.147zm-.178-4.475c0-.03.015-.044.045-.06.044.016.089.06.133.105-.015.03-.044.044-.089.044zm.015 5.497c-.015.015-.015.03-.015.045h.06c-.015-.03-.03-.045-.045-.045zm.133.119h-.03v.044c0 .045.06.074.179.089.044 0 .148-.074.148-.133a.258.258 0 0 0-.104.044h-.03a.45.45 0 0 0-.163-.044zm.178-5.379c.015 0 .015-.03.015-.089 0-.015-.03-.059-.03-.074 0-.044.015-.059.06-.059l.059.044-.03.06v.03c.015.044.03.073.015.088s-.044.015-.089 0zm.119 3.971c0-.015 0-.03-.015-.03s-.03.015-.03.03.015.03.03.03.015-.015.015-.03zm.03-3.097c-.045-.118-.045.074 0 0zm.044 2.845v.03l.03-.03zm.015.134c0 .014.015.044.044.059v-.06zm.015-4.623c-.015-.03-.015-.06.03-.074.044 0 .103.074.103.089l-.03.03a.135.135 0 0 1-.103-.045zm.059.533c-.03-.015-.045-.03-.03-.06 0-.044.015-.058.03-.073.06-.045.118-.03.163.015.103.074-.045.163-.163.118zm0 .578v.03h.03v-.03zm.06 5.2a.032.032 0 0 0-.03-.029c-.015 0-.015.015-.03.03 0 .014.015.03.03.03.014 0 .014-.016.03-.03zM7.025 6.49c.059 0 .103-.015.103-.074-.074 0-.103.03-.103.074zm.089-1.378c0 .059.014.089.044.103v-.103zm.03 2.46c-.045-.06-.03-.12.044-.164.059-.044.088-.03.103.045 0 .074-.015.118-.03.133-.044.045-.088.045-.118-.015zm.029-2.92l-.015-.014a.28.28 0 0 0-.03.118c.06-.044.074-.074.045-.104zm.015.623a.032.032 0 0 0-.03-.03c-.015 0-.015.015-.03.03 0 .015.015.03.03.03s.03-.015.03-.03zm.177 1.837c-.133.044-.251-.03-.207-.148.015-.045.06-.074.104-.06.044 0 .089.06.133.06l.06-.03.029.045c0 .059-.045.103-.119.133zM7.19 4.238l.148.163h.044c0-.074-.118-.223-.192-.223zM7.307.43c-.015-.045 0-.09.045-.134.03-.03.044-.014.059.06.074.103.133.192.192.237.119.118.208.207.267.281.015.045.074.119.074.178l-.044.044a.535.535 0 0 1-.193-.163C7.544.771 7.396.608 7.396.548c.015-.059.015-.089 0-.089-.044-.014-.074-.014-.089-.03zm.074 7.141c-.044-.103-.044-.163 0-.192.074-.06.119-.104.119-.163.015-.119.059-.134.163-.045a.282.282 0 0 1 .074.193c-.06.089-.104.163-.119.207v.03l.03.03c0 .118-.045.237-.148.163-.045-.045-.074-.119-.119-.223zm.104-.755c-.045.014-.06.014-.074 0 .015-.03.03-.06.06-.09.073-.118.132-.133.192-.059.015.015.03.06.044.119.015.074 0 .104-.03.119-.03.014-.088-.015-.162-.09zm-.06-5.483a.112.112 0 0 1 .06-.03l.089.09c-.015.03-.03.044-.045.044zm.09 6.786c-.045 0-.06-.03-.06-.074s.015-.059.06-.059.074.015.074.06-.03.073-.074.073zm-.03-2.83c0-.044.015-.074.03-.088.03.014.044.044.044.118a.113.113 0 0 1-.074-.03zm-.015.934c-.015-.045-.015-.074.03-.089.03-.015.059-.015.103 0s.075.044.09.089c.044.074-.03.148-.104.133-.045-.015-.074-.059-.119-.133zm.06 1.97c.014 0 .029.015.044.03 0 .06-.015.089-.06.089 0-.044 0-.089.015-.118zM7.514 4.95c0-.03.014-.045.044-.03.015 0 .03.015.03.03 0 .044-.03.059-.074.059zm.103.86c-.074 0-.103-.045-.103-.15l.03-.029c.044 0 .073.06.073.178zm.134-2.668c.03.03.059.045.074.03s.03-.015.03-.015l.177.178.148-.09c-.118-.088-.177-.162-.177-.236-.282-.104-.386-.193-.43-.193 0 .119.06.222.178.326zm-.074 3.926c-.045-.014-.104-.03-.06-.074.015-.014.03-.03.06-.03zm.03-1.733c-.06-.045-.075-.089-.075-.133.045 0 .074.044.074.133zm-.016-1.882c0 .045.045.119.134.222.133.163.207.238.222.238.044 0 .06-.045.044-.149-.014-.133-.03-.207-.03-.222-.029.03-.058.045-.088.03l-.237-.119zm.134.948c-.03-.014-.045-.03-.045-.074.09 0 .134.03.134.074zm-.015.578c-.03-.03-.03-.059 0-.103.015-.03.044-.045.089-.03.104.03.148.104.148.222a.313.313 0 0 1-.237-.089zm.015 1.023c-.074-.045-.074-.09-.015-.119.044-.015.089-.015.148.03.089.074.089.104.015.118-.074.015-.119 0-.148-.03zm0 .563a.303.303 0 0 1 0-.163c.015-.074.044-.09.089-.045l.059.06c.044.088.06.148.015.163-.06.014-.104.03-.119.014-.03 0-.044-.014-.044-.03zm.015-1.052c-.045-.074-.045-.134 0-.148.074-.015.251.133.148.177-.074.015-.119.015-.148-.03zM7.9 8.194c.06 0 .089.03.074.074-.03.059-.06.059-.074-.015zm.207-6.86c-.015-.045 0-.075.015-.09.074-.014.133.03.148.164a.152.152 0 0 1-.074.088.604.604 0 0 1-.089-.163zm.06 3.896c-.045-.074-.03-.118.014-.163.074-.059.178.148.134.193-.06.044-.104.03-.149-.03zm.296-.237c-.163-.118-.297-.267-.282-.37.015-.06.045-.074.104-.03a.648.648 0 0 0 .119.104c.03.044.059.03.074-.045.044-.133.089.149.089.223.014.074.148.192.148.266-.045 0-.134-.044-.252-.148zM8.24 3.378c-.015.06.014.09.088.09 0-.045-.03-.134-.03-.179-.014 0-.044.03-.058.09zm.177 3.038c0 .074.015.133.03.148v-.148zm.06-.149l-.03.03h.03zm0-2.148c.103 0 .118.044.059.133-.03.06-.045.03-.06-.074zm.03-2.46c.044 0 .073.015.088.03-.044.06-.089.089-.118.089 0-.06.014-.104.03-.119zm-.03 4.979v.06h.03v-.06zm.03.474v.03h.029v-.03zm.088-5.26c-.015-.044.03-.074.104-.074 0 .03-.015.06-.03.089-.03.015-.059.015-.074-.015zm.06 4.83c-.06-.118-.06.074 0 0zm.162-2.86c0-.014.015-.029.03-.029s.015.015.015.03c0 .014 0 .014-.015.03a.032.032 0 0 1-.03-.03zm.208 3.601l.03-.03.03.03-.03.03zm.548-1.022c-.104-.045.104-.045 0 0zm.045-4.875a.081.081 0 0 1 .074-.045c0 .03-.015.06-.045.075zm.088-.089c0-.03.015-.06.045-.074l.03.03a.081.081 0 0 1-.075.044zm.075 1.26c-.015-.03 0-.045.03-.06.014-.015.044 0 .058.03 0 .03-.014.044-.03.06-.029.014-.044 0-.058-.03zM9.87 4.74c-.014 0-.103 0-.088-.06 0-.029.014-.044.044-.044s.044.03.044.104zm.074-1.185c.06-.015.104.015.149.118.014.015 0 .03-.015.06-.09.133-.163.192-.208.177-.044-.03-.059-.118-.059-.281 0-.045.045-.06.133-.074zM9.87 8.119c-.014-.03 0-.044.03-.059.015-.015.044 0 .06.03 0 .015-.016.03-.03.044-.03.015-.045 0-.06-.015zm.104-3.793c-.06.045-.06-.044-.06-.089h.075c0 .045 0 .074-.015.09zM9.944.504c0-.06.03-.119.09-.134.044-.015.059 0 .073.03.015.074-.03.104-.163.104zm.075 7.008c-.015-.074.03-.104.163-.104 0 .045-.03.074-.075.104-.044.044-.074.044-.088 0zm.088-2.652c.015-.015.03-.015.045-.015.03 0 .074.06.133.178h-.252c0-.06.03-.119.074-.163zm.03-3.349c.015-.03.045-.03.089 0s.044.06.03.089c-.045.06-.104.089-.193.089 0-.074.03-.134.074-.178zm-.03 4.845c.015-.015.03-.03.045-.03.06 0 .089.06.104.178.014.074-.06.104-.193.104 0-.104.015-.178.044-.252zM10.077 4c-.014-.03.016-.074.075-.133.015-.015.044-.015.074 0l.119.133a.134.134 0 0 1-.09.09c-.088 0-.148-.03-.177-.09zm0 .519c-.014-.06.06-.193.105-.193.014 0 .03.015.044.03.044.074.074.104.089.089.044-.119.03-.223.163-.208.06.015.104.03.133.074.104.104-.192.237-.148.237h-.356c-.014 0-.014-.014-.03-.03zm.06-1.645c.045-.044.074-.015.089.09.015.029-.03.044-.133.044 0-.06.014-.104.044-.134zm-.015.682c-.059-.06-.03-.148.104-.252l.148-.133.074-.119c.045-.044.074-.044.074.03.015.118-.089.222-.074.281.015.045.015.074.015.074 0 .045-.044.074-.148.119-.104.03-.163.03-.193 0zm.015-1.126l.03-.03.03.03-.03.03zm.06-.282c0-.015.014-.03.029-.044.015 0 .03.015.03.044zm0-1.719l.029-.03.03.03-.03.03zm0 4.208c.014-.044.044-.044.073-.014s.03.059-.014.074zm.118-2c0-.015.03-.06.074-.104.015-.014.03-.014.044-.014.015.014.03.014.03.03l-.118.118zm0 3.571v.03h.03zm.03-1.393c-.015-.074 0-.118.014-.133.015-.045.045-.045.074.03.015.044.015.088-.014.118-.045.06-.06.06-.074-.015zm0-4.074c-.015-.045.014-.075.074-.075.074-.014.103 0 .103.03a.282.282 0 0 1-.148.074zm.044 1.333c.015-.015.03-.03.06-.03-.016.03-.03.045-.06.03zm.074.622c0-.044.03-.059.03-.059 0 .03-.015.045-.03.06zm.104 1.275c-.06 0-.074-.045-.074-.104.044 0 .074.03.074.104zM10.552.074l-.06.03h.06zm.03 2.207c-.015-.074.03-.103.103-.103a.25.25 0 0 1 .148.044c.045.015.045.045 0 .074 0 .015-.044.015-.118.015h-.104l-.03-.03zm.074 1.927c-.03-.015-.045-.045-.045-.074s.06-.09.163-.193c.104-.015.163.015.163.104 0 .103-.178.266-.281.163zM10.73.844c.089-.044.133 0 .133.134h-.237c0-.045.03-.09.104-.134zM10.7 4.4c.133 0 .311.104.208.148-.075.015-.119.03-.149.015-.044-.015-.074-.044-.059-.103zm.015-2.415c-.104-.044.104-.044 0 0zm.044.83c-.059-.074-.044-.119.03-.148.044-.015.104 0 .148.044.015.015.015.03.015.045 0 .074-.044.103-.133.103-.03 0-.045-.014-.06-.044zm0 .193c0-.06.045-.075.104-.075 0 .045-.03.075-.104.075zm.045 2.059c.015.03.03.044.074.044-.015-.03-.03-.044-.074-.044zm.03-4.786c-.015.074.03.104.148.104a.168.168 0 0 0-.045-.119c-.044-.03-.074-.03-.104.015zm.296.963c-.015.015-.03.015-.03.03s.015.03.03.03a.045.045 0 0 0 .06 0c.014 0 .029-.015.029-.03s-.015-.015-.03-.03zm.06 2.386c.014.044.029.06.058.06.074-.06.149-.164.149-.12v-.059c-.045 0-.119.045-.208.119zm0-3.112v.03h.029v-.03zm.058.46c.015.074.045.118.074.163l.104-.074v-.03a.393.393 0 0 0-.089-.074c-.044-.03-.074-.03-.089.015zm.03-.341V.71h.03V.637zm.044 2.193c-.044-.104-.044.103 0 0zm.015-1.334v.03h.06v-.03zm.045 1.393c-.045-.104-.045.104 0 0zm-.015-.696v.03l.03-.03zm.06-1.008c0-.015-.016-.015-.03-.03-.015 0-.015.015-.015.03s0 .03.015.03.03-.015.03-.03zM14.985 7.898c.193-.119.311.133.326.252.015 0 .207 0 .252.074.044.104.06.178.074.222.03-.044.074-.074.148-.06.133.03.193.045.178.045 0-.177.06-.237.178-.177.015.014.044.014.074.014.074 0 .133-.074.178-.237a.75.75 0 0 0 .03-.192c0-.237-.105-.341-.312-.326-.044 0-.074.03-.089.074-.03.06.015.089.119.104.103.014.177.059.192.163.015.088 0 .148-.015.163-.059.044-.355-.015-.31-.267a.25.25 0 0 1-.075.03c-.074 0-.148-.06-.222-.193-.015-.045-.015-.09.03-.134h.163c.133-.074.207-.148.237-.222.118-.074.4.267.563.46.059.059.074.088.03.088a.186.186 0 0 1-.134-.014c-.044-.03-.06 0-.044.103l.014.193c.06.015.09.06.104.118a.316.316 0 0 1-.044.178c.192 0 .281-.074.281-.207 0-.074-.207-.148-.222-.222 0-.06.03-.104.104-.119.118-.044.207.104.252.178.03.03.059.015.103-.06-.089-.044-.118-.118-.074-.207.163-.178.267-.178.252-.281s-.178-.074-.178-.326a.533.533 0 0 0 .178-.119c-.06 0-.104-.089-.148-.281-.015-.074.118-.134.118-.208-.133.119-.237.134-.326.045-.133-.134-.133-.223.03-.282.06-.015.178.133.252.089.044-.015.044-.06 0-.133l-.133-.119c-.104-.074-.163-.133-.163-.192 0-.015.014-.045.03-.06.073-.074.103-.103.103-.089.06.045.104.06.118.06.045-.06.09-.104.104-.149.074-.133.119-.237.104-.31 0-.06-.03-.09-.03-.104 0-.045.03-.134.03-.178-.193 0-.311-.045-.326-.148-.03-.104.06-.163.267-.178.044 0 .074-.015.074-.03 0-.104-.015-.178-.06-.192-.296-.163-.31-.267-.355-.326-.06-.015-.104-.03-.133-.03-.045 0-.104.015-.178.03-.015.014 0 .044.015.089.03.044.014.074-.06.088-.192.074-.148-.177-.296-.207l-.267.03a.284.284 0 0 0-.118.059h-.208a.718.718 0 0 0-.282-.119c-.015.09-.06.119-.133.09a.374.374 0 0 0-.134-.06c.015.074.03.133.03.178 0 .015-.03.074-.03.118 0 .015.015.06.06.134 0 0-.015.089-.06.266a.512.512 0 0 0 .03.252c-.015-.015-.015.015-.03.119-.014.044-.014.074-.014.118.044 0 .103-.03.148-.03.074 0 .133.015.163.06.015.06 0 .104-.06.148-.044 0-.074-.015-.088-.03-.074.075-.149.045-.149.104v.163c.223 0 .312.104.267.297-.015.088-.06.088-.133.014-.06-.074-.104-.074-.134-.014-.059.162-.148.237-.251.237-.06 0-.208-.09-.282-.074-.015.044-.015.074 0 .103 0 .045-.03.06-.089.074-.06.015-.104.015-.133 0-.015-.015-.03-.044-.03-.089.03-.044.03-.074.015-.103-.104-.148-.163-.223-.163-.237 0-.074.06-.074.06-.237.014-.549.014-.949.029-1.23l-.03-.46c0-.074 0-.222.015-.43.015-.251.045-.384.089-.384.089.014.163.014.207.03h.163c.015 0 .075-.075.149-.06l.059.044c.015.015.044.015.089 0 .059-.014.074-.222.178-.237.103 0 .088.208.148.252.059-.015.103-.015.133-.03.045.015.089.015.104 0 .133-.074.252-.118.34-.133.134-.015.193-.03.193-.044l.09-.134c.044-.044.103-.044.192 0 .074.045.118.06.118.06 0 .163-.059.237-.192.252.177 0 .148-.03.207-.03h.193c0 .015.044.03.148.03a.433.433 0 0 1-.03-.134c0-.06.03-.089.09-.104.044-.014.103 0 .177.045.044-.015.089-.03.118-.06a.553.553 0 0 1-.03-.177c0-.045 0-.06-.014-.06-.356-.088-.311-.296-.489-.296.045.06.06.104.015.148 0 0-.045-.014-.119-.03-.103-.014-.237.164-.34.149-.134-.015-.149-.104-.03-.237.118-.133.193-.163.237-.074.03.059.074.074.133.03l.045-.149c.03-.148.089-.178.192-.074.06.06.104.09.119.074.03-.015.03-.044 0-.103-.044-.119.089-.208.089-.252-.06 0-.119.03-.193.089-.03.03-.089.044-.163.059-.074.044-.133.074-.148.104-.06.059-.089.088-.104.088s-.089-.03-.103-.03c-.074 0-.193.149-.267.149l-.163-.03c-.03-.014-.03-.044 0-.103.044-.119.104-.178.193-.178l.088.074c.045.015.104-.06.178-.208a.38.38 0 0 0 0-.31c-.03-.09-.059-.134-.074-.134-.03 0-.044.015-.03.06l.045.162c.015.015-.074.09-.252.208-.163.103-.237.163-.252.148-.118 0-.192-.015-.237-.06 0-.014.03-.074.074-.207.03-.074.09-.074.178 0s.148.104.178.104c0-.104-.06-.193-.104-.193-.015 0-.178-.163-.237-.148.015.148-.044.222-.148.237-.148.015-.222-.03-.222-.133 0-.074.044-.134.133-.178l.207-.104c.015-.015.015-.044 0-.074h-.251c-.045 0-.075.045-.104.148-.015.045-.045.06-.074.045-.015-.015-.06-.104-.074-.104-.045 0-.074.045-.104.133-.044.119-.089.178-.104.178-.044 0-.118-.06-.163-.06-.044-.014-.089.03-.133.134a.771.771 0 0 1-.296.193l-.03-.03v-.326c.044-.044.06-.074.06-.103 0-.06-.03-.193-.03-.252 0-.074.133-.163.088-.178l-.206-.104c-.103-.045-.133-.089-.103-.133a.56.56 0 0 1 .163-.104c0-.222-.015-.622-.09-.608l-.058.03c-.015 0-.03 0-.03-.015-.119 0-.193-.03-.207-.104l-.06.03v.208l-.03.03c-.133-.105-.192-.105-.192-.282-.015 0-.044.03-.104.074-.015 0-.044-.03-.089-.074-.014-.015-.044-.015-.118-.015-.163 0-.267 0-.326.015l-.119.103c-.03.045-.044.045-.044 0V.03c-.074 0-.208.015-.4.03-.06.044-.104.059-.119.059a.555.555 0 0 0-.089.148c-.059.237-.088.489-.088.77 0 .09 0 .578-.015 1.467-.03 1.6-.045 3.141-.045 4.608.015.015.03.045.03.074l-.03.163c-.03.312.09.563.37.786.134.103.208.163.253.163 0-.104.03-.134.074-.119.03.015.059.045.089.089 0 .015 0 .03-.015.06-.045.059.074.088.133.088h1.082c.044 0 .074-.03.059-.104 0-.118-.044-.192-.119-.222-.03-.015-.074.015-.148.09-.089-.045-.074-.105.03-.179.06-.044.133-.044.222-.014.045.014.074.014.089 0s.015-.03 0-.075c-.044-.074 0-.118.133-.163.104-.03.163.09.163.37.06 0 .134-.177.178-.192 0 .045.163.208.148.311l-.103.119c-.015.015 0 .044.014.06l.238-.06h.014c.06 0 .163.044.223.044V8.18c-.237-.104-.312-.089-.312-.192 0-.045.015-.075.045-.09zm-2.267-.444c0-.06.06-.075.104-.075v.075zm.415-6.194c-.045.119-.045-.074 0 0zm.281-1.007l.03.03h-.06zm.193.978c-.044 0-.104-.03-.119-.075-.014-.014 0-.03.03-.03.06 0 .089.03.089.105zm-.104-.8h.045c0 .029-.015.044-.045.059zm.074.31c-.014 0-.03-.014-.044-.03 0-.073.044-.103.148-.103.074 0 .104.06.104.163-.03 0-.104-.015-.208-.03zm.09 7.483c-.016-.015-.016-.044-.016-.06.178 0 .252.06.223.164-.015.014-.03.03-.06.03-.074 0-.118-.045-.148-.134zm.059-.533l.03-.03.029.03-.03.03zm.059-6.623c.015-.015.03-.03.06-.03 0 .03-.016.044-.03.06zm.104 6.756c-.119-.044.074-.044 0 0zm0-7.2c0-.075.059-.134.133-.134.044 0 .074.015.06.059-.016.044-.075.074-.193.074zm.237 6.963c-.015-.015-.045-.015-.119.03-.015.014-.06.03-.118.03 0-.06.044-.12.133-.164.133-.074.326.06.222.163-.015.015-.06 0-.118-.06zm-.223-.296l.03-.03.03.03-.03.03zm.074-4.934c-.044.103-.044-.104 0 0zm-.014 4.756c-.015-.074.148-.163.222-.148l.118.088c0 .03-.014.045-.03.06-.014 0-.044-.015-.088-.03-.045-.015-.074 0-.089.015-.074.044-.119.06-.133.015zm.059-5.29h.03v.03zm.044-.43c-.044-.059-.014-.088.09-.088.044 0 .059.03.059.103-.075 0-.134 0-.149-.015zm.045.549c-.015-.015-.03-.03-.03-.06.03 0 .045.015.06.03zm-.015 4.622c0-.044.03-.088.104-.133.015-.015.03-.015.059.015l.118.118c-.014.03-.03.045-.044.045.015-.015-.044-.03-.163-.045zm.118-5.14c0-.016 0-.016.015-.016s.015 0 .03.015c0 .015-.015.03-.03.03s-.015-.015-.015-.03zm.03 6.711h-.015c0 .104.09.193.282.267.015.015.044.015.074.015.044-.015.044-.03.015-.045-.045-.044-.06-.104-.045-.163l-.296-.06-.015-.014zm.06-4.978c-.03 0-.045-.015-.03-.03 0-.015.015-.03.03-.03.044 0 .059.015.059.06zm.162 4.267l-.059.03h-.015c-.03 0-.044-.015-.059-.06a.094.094 0 0 1 0-.089c.044-.059.119-.074.193-.03.089.045.118.104.089.178 0 .015-.045 0-.119-.03zm-.148-4.786c0-.03.015-.044.03-.06.03-.014.044 0 .06.03s0 .045-.03.06c-.015.015-.045 0-.06-.03zm.06-.415c0-.104.088-.178.133-.163.118-.104.207-.148.267-.148h.148a.328.328 0 0 1 .266-.178c.163.074.178.163.074.237a1.923 1.923 0 0 1-.281.09.648.648 0 0 0-.104.118c-.059.015-.103.03-.148.03-.089 0-.133.073-.133.207.163 0 .252.015.266.044.074-.103.134-.178.163-.237.045-.015.104.03.193.134.03.044-.044.074-.207.118-.075.03-.119.045-.134.06l-.044.103c-.03.015-.119 0-.252-.044-.074-.03-.089-.06-.074-.104s.015-.089 0-.133c-.015-.104-.134-.09-.134-.134zm.014 4.697c-.059-.074-.03-.118.09-.133.044-.015.088.015.162.059.09.06.06.104-.074.119-.074.014-.133 0-.178-.045zm.09-3.852c-.03-.06.029-.104.162-.148.074-.015.178.103.178.177-.044 0-.133-.044-.178-.03-.104.016-.163.016-.163 0zm-.016-.311l.03-.03.03.03-.03.03zm.134-1.26c-.03 0-.045.03-.045.09.03-.016.045-.045.045-.09zm.296 6.342c-.163.074-.385-.119-.252-.237.163-.134.385.133.252.237zm-.193-.578c-.059-.089-.044-.163.06-.208.089-.059.163-.03.207.104s.03.193-.015.208c-.133-.015-.207-.045-.252-.104zm.06-.578c-.06-.118-.015-.178.133-.178.104.045.148.119.148.193.015.104-.03.163-.118.178-.06 0-.119-.06-.163-.193zm.103-5.423a.032.032 0 0 0-.03.03c0 .044.134.148.193.148 0-.148-.059-.207-.163-.178zm-.014 1.6c-.045-.044-.015-.089.074-.118.074-.03.133-.03.177 0 .015.015.03.03.03.074s0 .074-.015.089a.25.25 0 0 1-.148.044.23.23 0 0 1-.118-.089zm.192 4.697c-.06-.059-.06-.118.015-.192.044-.045.089-.045.148 0 .045.044.09.059.134.044s.059-.03.059-.044c0-.252-.282-.252-.326-.297-.045-.059-.06-.118-.015-.178s.119-.074.207-.044c.06.015.119.34.223.296.118-.044.252.09.207.223-.015.118-.311.089-.355.192-.045.074-.075.119-.119.104a.356.356 0 0 1-.178-.104zm.03-6.371v.03h.03v-.03zm.37 5.571c-.015-.118-.118-.133-.192-.148-.119-.06-.163-.119-.149-.193.015-.074.09-.103.193-.089a.47.47 0 0 1 .148.163.72.72 0 0 0 .208.163c.103.045.148.119.103.208-.044.104-.103.133-.192.089-.06-.015-.104-.09-.119-.193zm-.207-4.045c-.015-.015-.015-.044-.015-.06 0-.088.06-.132.163-.132.044 0 .089.03.119.088.059.104.044.163-.045.178-.074.015-.148 0-.222-.074zm.06.548c-.045-.118-.045.074 0 0zm.029-1.037c-.074-.089-.045-.148.059-.178.163-.059.267.06.222.163-.015.045-.03.074-.074.09-.074.029-.133 0-.207-.075zm.266 2.741c-.281 0-.326-.044-.266-.103.044-.03.074-.045.118-.045.104 0 .148.045.148.148zm.03 3.067c-.015-.03-.015-.044-.03-.044a.388.388 0 0 1-.192-.09c-.104-.088-.104-.177 0-.251.074-.06.267.148.385.252.104.089.178.163.193.237 0 .044 0 .074-.015.089-.045.044-.134-.045-.148-.045l-.134.045c-.03.015-.044-.045-.059-.193zm-.252-3.615c0-.148.074-.178.222-.074.03.015.045.06.06.104l-.074.074c-.119-.015-.193-.045-.208-.09zm.06-1.408h.059l-.03.03zm.133 3.364c-.03-.045-.045-.074-.045-.09 0-.058.015-.103.03-.132.044-.09.133-.09.237.014.089.074.089.163 0 .252-.03.045-.104.03-.222-.044zm.03-3.393c-.03-.03-.015-.074.059-.148.015-.015.074.014.148.059.044.03.06.06.06.074 0 .03-.03.044-.075.044a.458.458 0 0 1-.193-.03zm.251 2.919c-.074.03-.326-.09-.266-.163 0-.09.044-.134.148-.134.044 0 .089.03.104.09.044.103.059.177.014.207zm-.207-.623c-.074-.074-.045-.133.074-.148.178-.044.207.104.207.178 0 .044-.03.06-.074.06a.384.384 0 0 1-.207-.09zm.015-2.726c-.015-.118.015-.193.059-.207.06-.015.207.044.207.103 0 .09-.074.134-.207.134-.044 0-.06-.015-.06-.03zm.03-1.052v.06h.029zm.014 3.186c0-.074.045-.09.148-.074.074.014.119.074.119.177a.357.357 0 0 1-.222-.059zm.09 2.489c-.09-.06-.075-.133.044-.222.088-.06.162-.03.222.074.044.103.03.177-.045.207-.059.03-.133.015-.222-.06zm.058-.534c-.074-.088-.059-.163.03-.207.104-.044.178-.015.222.06.074.118.074.192-.015.207-.103.015-.192 0-.237-.06zm.06-3.807c-.045-.015-.015-.09.088-.193.075-.074.119-.074.149 0 .044.089.03.148-.03.193-.044.044-.118.044-.207 0zm-.015 3.289c-.045-.074-.015-.133.059-.178.044-.044.089-.06.119-.03l.148.149c.015.044-.074.177-.134.177-.044 0-.118-.118-.192-.118zm.118-.474c-.03-.015-.044-.06-.059-.104-.015-.06-.015-.089.015-.104.118-.074.34.015.267.208-.045.089-.119.089-.223 0zm-.059-4.49v.045c.03 0 .044-.015.06-.045zm.074 3.868c-.06-.06.045-.119.119-.119.118 0 .177.044.177.148a.112.112 0 0 1-.03.06c-.058.044-.147.014-.266-.09zm.015-3.72c-.015 0-.015.015-.03.03 0 .015.015.03.03.03s.015-.015.03-.03zm.06 3.2c-.03-.014-.03-.029 0-.044.014-.03.044-.044.058-.059.03-.015.09.015.163.09.015.014.03.044.015.058-.015.03-.03.045-.074.03s-.104-.03-.163-.074zm0-2.992c-.016.044.014.06.073.074.045.015.09 0 .104-.03.03-.014.015-.059-.03-.103a.486.486 0 0 1-.118-.09.438.438 0 0 0-.03.149zm.221 5.438a.333.333 0 0 0-.177.014c-.015-.014-.03-.059-.03-.103.015-.06.03-.09.044-.104.09-.074.178-.074.252.015.045.06.074.133.074.237a.276.276 0 0 1-.163-.06zM16.2 6.43a.21.21 0 0 1-.03-.089c0-.089.06-.133.178-.133.074 0 .133.044.163.118.045.149.015.223-.089.223-.074 0-.148-.045-.222-.119zm.089-.533c-.045-.104-.03-.163.06-.193.073-.015.132 0 .192.074.074.074.059.148-.03.222-.074.074-.148.045-.222-.103zm.252 2.489a.334.334 0 0 0-.237-.119c0 .06.03.104.089.134s.103.03.148-.015zM16.318 3.2c.119-.044-.074-.044 0 0zm.045-1.985c0-.015-.015-.015-.03-.03-.015 0-.015.015-.015.03 0 .014 0 .03.015.03s.015-.016.03-.03zm-.015 4.163c-.074-.104-.044-.178.074-.207.074-.015.134.03.193.118.03.03.03.074.015.119-.015.044-.03.06-.074.074-.075.015-.149-.015-.208-.104zm.074-.563c-.06-.044-.044-.089.03-.118.104-.045.192.074.178.133-.015.044-.045.06-.09.044-.029 0-.073-.014-.118-.059zm.03-3.482c-.015.045 0 .06.044.074.074 0 .178-.03.178-.089 0 0-.03-.014-.104-.059-.03-.015-.074 0-.118.074zm.06 5.882c-.045-.044-.045-.103 0-.148.029-.044.073-.074.118-.074.059.03.118.074.163.119 0 .089 0 .133-.015.148 0 .044-.045.06-.134.044-.074-.014-.118-.044-.133-.089zm.014-.533c-.03-.133.015-.207.133-.207.134 0 .193.014.193.059v.252c0 .015.015.03.044.015.06-.015.09-.015.074-.015.119 0 .193.089.178.207-.015.06-.06.09-.133.09a.263.263 0 0 1-.267-.208c0-.06-.207-.119-.222-.193zm.044-.489c-.074-.089-.03-.163.104-.222.089-.03.163.015.222.133.045.104.03.163-.074.163-.118 0-.207-.03-.252-.074zm0-4.341l.134.118.059-.059a.353.353 0 0 0-.178-.06zm.06 3.852c-.06-.074-.03-.148.089-.207.074-.045.148-.015.192.074.015.03.03.074.03.133-.015.045-.03.074-.074.074-.104 0-.193-.03-.237-.074zm.03-2.874c-.075-.09-.03-.134.118-.134.103 0 .178.03.222.104.044.074-.015.119-.148.133-.074.015-.134-.014-.193-.103zm.088 2.163c.06-.074.252.074.252.133-.015.09-.133.134-.326.134 0-.134.03-.223.074-.267zm.015-3.378v.059c.06 0 .089-.015.089-.06zm.207 3.037c-.163 0-.222-.06-.177-.118.014-.045.044-.06.088-.06.06 0 .09.06.09.178zm-.133 2.904c-.074-.074-.089-.163-.015-.237.045-.044.104-.044.208.03.044.03.059.059.059.103 0 .104-.045.149-.148.149a.135.135 0 0 1-.104-.045zm.193-2.119c-.03-.074 0-.133.074-.148.089-.015.133 0 .133.045v.207l-.06.06a.316.316 0 0 1-.147-.164zm.059-2.948c-.015-.015-.015-.03-.03-.03s-.015.015-.03.03c0 .015.015.03.03.03s.015-.015.03-.03zm0 5.66c-.015-.015-.015-.03-.03-.03s-.015.015-.03.03c0 .015.015.015.03.03zm-.03-6.771c0 .044.03.103.09.148v-.134c-.016-.103-.045-.103-.09-.03zm.06.326v.118c.044 0 .059-.015.059-.06-.015-.044-.045-.073-.06-.058zm.074.533c0 .015 0 .015-.015.015.03.044.06.06.089.06 0-.045-.03-.075-.074-.075zm.03-.281c.133 0 .147-.015.147-.149-.103 0-.148.045-.148.149zm.222.325c-.178.06-.223.208-.178.223.015.015.044.015.089.015a.775.775 0 0 1 .089-.238zm-.193.978c.118-.044-.074-.044 0 0zm.074 2.653v.059h.03v-.06zm.06 1.718a.032.032 0 0 0-.03-.03c-.015 0-.015.015-.015.03s0 .03.015.03.014-.015.03-.03zm-.03-4.563c.014.074.014.118.03.118.029-.03.044-.059.029-.074.015-.059 0-.089-.015-.103-.03.014-.044.03-.044.059zM17.4 6.95c-.044-.104-.044.074 0 0zM18.144 7.364c0 .444.252.77.74.963.134.06.223.089.268.089h.785c0-.074-.119-.178-.119-.193 0-.044.06-.074.163-.074-.044-.015-.059-.059-.059-.103 0-.015.03-.03.074-.075.104-.059.163-.103.178-.133.044-.044-.296-.163-.4-.207-.267-.163-.46-.297-.593-.386l-.089-.059.03-.044c.118 0 .281.089.474.252.044.044.163.118.34.192.179.074.297.104.342.104.074-.074.163-.074.237 0 .014.015.03.044.014.074a.421.421 0 0 1-.192.163c.015.015.03.044.03.074 0 .163-.193.148-.327.193-.014 0-.03.03-.014.074.014.074.014.118.03.133 0 .015.029 0 .073-.015.06-.014.223.045.282.045 0-.015-.03-.074-.074-.163 0-.045.089-.163.163-.119.118.074.133.148.044.237.045.015.074.03.119.03l.06-.03a.361.361 0 0 1 .177 0c.089.015.148.03.178.03h.207c.193 0-.015-.104.296-.104.075 0 .163.104.149.104.251 0 .385-.015.414-.03-.03-.014-.044-.03-.03-.074 0-.044.016-.059.045-.074.119-.044.341.178.356.178.193-.089.311-.178.37-.252.074-.015.119-.03.148-.03.09-.03.134-.074.134-.133 0 0-.015-.03-.03-.074v-.03c.06-.059.104-.103.148-.133.015-.104 0-.133.06-.193-.06-.03-.163.015-.326.149-.074.059-.134.089-.178.089s-.074-.03-.074-.09c.178-.325.518-.385.592-.4.015-.03.015-.103-.03-.207-.014-.044-.014-.06-.029-.06-.044-.014-.074-.014-.089-.014-.207-.044-.296-.104-.281-.163.03-.06.03-.089 0-.089-.015-.015-.03-.015-.074 0h-.178c-.015 0-.03-.015-.03-.044s.015-.045.03-.06c.044-.03.104-.03.178 0 .103.03.163.045.177.045.045 0 .134-.06.178-.06 0 .045 0 .09-.015.104-.044.06-.044.104.03.119.074.044.133.044.163 0 .015-.015.015-.06.015-.133-.045-.045-.06-.075-.06-.09v-.073c.015-.015.03-.03.03-.045l-.074-.074c-.015-.015-.015-.06-.015-.119.015-.37.119-.4.119-.4 0-.118-.06-.177-.193-.192s-.192-.045-.192-.06.059-.044.192-.103c.074-.015.148-.134.163-.148.015-.119.03-.193.03-.237-.074-.015-.104-.03-.119-.06-.044-.074.149-.148.149-.207 0-.045-.09-.208-.149-.133-.148.148-.237.296-.266.43-.015.073.148.118.148.177.015.074-.148.119-.193.163l-.325.459c-.044.044-.06.089-.06.104h.371c.045 0 .074.03.06.089l-.06.118c-.074.104-.133.148-.177.148v-.177c-.075-.045-.149-.06-.193-.075-.074-.014-.119-.014-.148.03l-.267.252h-.089c0-.045 0-.074.015-.089.015-.03 0-.06-.044-.074-.104-.044-.119-.089-.03-.133.222-.015.296 0 .34-.06.03-.03.03-.059-.014-.074-.074-.03-.119-.044-.119-.059-.03-.015-.03-.044.015-.06a.665.665 0 0 1 .252-.059c.119-.014.148-.059.104-.133s-.03-.133.044-.193l-.03-.03h-.207s-.03.045-.104.149c-.192.252-.37.415-.503.504-.104.104-.149.163-.163.207-.09.074-.134.119-.148.119-.045 0-.104-.03-.178-.09-.119-.073-.252-.088-.415-.014-.193.104-.297.089-.341-.03-.015-.044-.03-.059-.06-.059h-.28c-.074-.044-.148-.06-.193-.074 0-.044 0-.074.015-.104 0-.03-.015-.059-.06-.089-.103-.059-.147-.103-.103-.148s.089-.074.104-.059c.015 0 .074.03.089.03l.059-.104c.03-.089.044-.193.06-.311 0 0-.016-.074-.06-.237-.015-.06 0-.09.074-.09h.519c.074-.073.148-.118.192-.147.015 0 .03.014.06.059.059.074.133.104.237.118.074 0 .118 0 .162-.014.03.03.045.088.045.192 0 .015-.015.045-.03.09-.015.029-.015.058 0 .073.045.074.06.104.06.104a.433.433 0 0 0-.03.133c.015.148.03.208.03.163-.015.163-.03.237-.03.208v.148c.104.044.193.03.267-.06-.074-.074-.104-.133-.09-.192.075-.015.149-.03.223-.015.104-.015.163-.044.178-.118 0-.06-.104-.06-.104-.119 0-.03.06-.06.193-.074.118-.119.148-.267.207-.311.074-.074.119-.134.148-.178.252-.34.4-.548.445-.593.06-.059.074-.089.06-.103a.236.236 0 0 0-.12-.045c-.03-.015-.03-.044 0-.089.015-.044.045-.059.075-.074.014 0 .074 0 .177.015.06.015.09.03.09.044 0 0-.016.03-.06.104a8.281 8.281 0 0 1-.385.49c-.03.044-.045.058-.045.073 0 .06.178.163.223.119a.152.152 0 0 0 .074-.09c.015-.044.015-.073-.03-.088-.074-.015-.089-.044-.074-.089.03-.044.06-.074.104-.06l.074.06c.015.015.163-.118.178-.163-.015.015-.015-.015-.03-.089-.015-.104.089-.104.163-.118.015 0 .015-.045.015-.134v-.133s-.074-.03-.208-.089c-.163-.06.134-.207.193-.267.03-.044.044-.074.044-.118-.118 0-.385-.09-.326-.208.075-.074.119-.118.163-.133a.54.54 0 0 0 .134-.178c0-.044-.045-.074-.148-.074h-.208c-.015 0-.03-.03-.03-.089.03-.103.104-.148.238-.103.044.014.059.03.074.044.044.044.059.03.074-.044.015-.045 0-.075-.03-.104-.03-.03-.03-.104 0-.222.015-.074-.03-.223-.03-.267 0-.104.119-.252.119-.326 0-.104-.207-.296-.207-.4h.103c.015-.015.03-.045.015-.104a.947.947 0 0 0-.089-.237c-.074-.133-.118-.193-.133-.193l-.222-.044c-.03-.06 0-.133.074-.237.089-.104.133-.178.118-.193-.03-.059-.089-.059-.192 0-.193.134-.119-.459-.282-.518-.015.015-.074.163-.133.148-.045-.133-.045-.267-.104-.267-.015 0-.06.074-.252.06-.133-.015-.192-.03-.207-.03V.28c-.06 0-.09-.03-.104-.103-.015-.03-.03-.045-.044-.045h-.208v.074S21.524.163 21.42.09a.5.5 0 0 0-.178-.06c-.118 0-.37.06-.474.06V.074c-.282 0-.474-.015-.548-.03l-.09.09c-.044.044-.073.029-.088-.045-.044-.015-.074-.03-.119-.03-.207-.015-.325-.015-.355-.015-.163 0-.252.074-.252.237v.474c-.044 0-.06-.059-.104-.059 0 .104.015.178.045.193.089.015.133.044.133.059s-.015.015-.03.03h-.074c-.044 0-.059.014-.059.03v.518c.045.118.06.178.06.192 0 .06-.06.163-.06.223v.103c.03.03.06.045.089.045.044.03.06.074.044.133h.415c.045-.089.104-.118.148-.089.03.03.045.06.06.09h.563c.03.014.06.029.089.029.015 0 .074-.03.089-.03.044 0 .148.03.192.03l.09-.03h.014c.193 0 .267.074.267.267.014 0 .089-.044.133-.03.06.015.104.045.119.09.03.073 0 .103-.104.118-.045 0-.119-.03-.163-.03v.4l.03.03c.074-.09.133-.119.177-.074.045.03.06.059.06.103.014.045 0 .075-.045.09a2.78 2.78 0 0 1-.296-.045c-.045-.015-.134-.015-.282-.015-.06.074-.104.178-.207.133-.045-.014-.09-.044-.104-.103-.015-.015-.015-.03-.03-.03h-1.498c-.489.193-.785.445-.874.77-.03.267-.044.46-.044.593-.015.178-.015.341-.015.474zM19.24.148c.104-.044-.074-.044 0 0zm0 2.06c.104-.06-.074-.06 0 0zm.134-2.134a.032.032 0 0 0-.03-.03c-.015 0-.015.015-.015.03s0 .03.015.03.03-.015.03-.03zm.103 1.912c-.103-.045.104-.045 0 0zm.015 2.681c.015-.014.015-.03.03-.03s.03.016.03.03a.045.045 0 0 1 0 .06c0 .014-.015.03-.03.03s-.015-.016-.03-.03zm.09-2.785c-.03-.015-.03-.03 0-.06.029-.044.058-.044.088-.014-.015.044-.044.06-.089.074zm.014 3.793c-.044.119-.044-.074 0 0zm-.015.489c.104 0 .148.03.134.104-.015.03-.045.044-.09.03-.029-.016-.044-.045-.044-.09zm.074-2.637c-.044-.015-.044-.03 0-.075l.074-.088c.074-.015.134.074.134.148-.015.03-.045.044-.06.03-.014 0-.074 0-.148-.015zm0 .488c-.044-.044 0-.088.134-.133.044-.015.089-.015.118.03-.06.074-.133.103-.237.118l-.015-.015zm.015.534l.163-.148c.015-.03.045-.03.089 0a.152.152 0 0 1 .089.074c.015.074 0 .104-.045.104h-.25zm.074-3.378c-.015-.015.119-.163.163-.119.015.015-.104.163-.163.119zm.06 4.267c.074-.074.162-.074.237 0 .074.074.059.104-.03.104h-.251c0-.045.015-.074.044-.104zm-.03 1.319l.03-.03.03.03-.03.03zm.044-1.734c-.015-.015-.03-.044-.015-.089.015-.044.03-.06.06-.06.074 0 .133.03.163.09.044.074.03.118-.045.118-.074.015-.118-.015-.163-.059zM19.805.104c0-.015.015-.03.03-.03s.015.015.015.03 0 .03-.015.03-.03-.015-.03-.03zm.09 1.511c0 .045-.016.06-.06.06zm.044 4.95c-.074-.045-.06-.09.014-.134.03-.015.075-.015.119 0s.06.03.06.059c0 .03-.03.06-.075.074-.044.015-.089.015-.118 0zm.014-3.35h.03v.03h-.03zm.045.564c-.06-.03-.06-.06.015-.09h.089c0 .104-.03.134-.104.09zm.06.577c-.045 0-.075-.014-.075-.059 0-.104.06-.148.163-.148.045 0 .074.03.074.074 0 .089-.06.133-.163.133zm.147 2.697c-.177 0-.266-.074-.222-.119.03-.03.06-.044.104-.03.074.016.118.06.118.149zm-.207.415c0-.045.044-.06.118-.045s.119.03.149.06c.059.074.03.118-.074.118-.075 0-.134-.03-.163-.074zm.074-2.652a.148.148 0 0 1 .06-.163c.044-.03.073-.015.118.044.015.045-.09.148-.148.148-.015 0-.015-.015-.03-.03zm0-3.956c.06-.09.104-.119.133-.074.03.03 0 .074-.074.133zm.06 5.23v.148h.029V6.09zm.059-4.697a.032.032 0 0 1-.03-.03c-.015-.03 0-.044.03-.044.118-.044.177-.015.177.06 0 .014-.059.029-.177.014zm.044.474c-.044.119-.044-.074 0 0zm.015 4.92c-.03-.03-.03-.045 0-.06.015-.015.044 0 .06.03 0 .03-.016.044-.06.03zm0 .473c0-.014.03-.044.089-.118.044 0 .074.015.089.03-.015.103-.045.148-.104.148-.015 0-.045-.015-.074-.06zm.089.638c0-.015-.015-.015-.03-.03-.015 0-.015.015-.03.03.015.014.015.03.03.03s.015-.016.03-.03zm-.015-4.386c-.015-.015-.015-.03-.015-.045 0-.089.044-.133.119-.133.014 0 .03 0 .044.015.044.044.044.104 0 .148s-.089.044-.148.015zm.03.43c0-.075.044-.104.118-.104.015 0 .03.015.044.044.015.045.015.09-.014.104-.03.03-.074.03-.119 0zm.014 1.081c-.03-.104.045-.148.208-.148.103 0 .163.03.163.104s-.06.118-.193.118c-.089 0-.148-.03-.178-.074zm.03-.533c-.015-.074 0-.119.044-.134.06-.044.09-.044.104 0 .015.074.015.119-.03.149-.059.03-.103.03-.118-.015zm.089-3.364c-.03-.015-.045-.03-.03-.059a.158.158 0 0 1 .045-.074c.014-.015.044-.015.089 0s.059.044.074.074v.015c0 .044-.06.06-.178.044zm0 .46c.044-.074.074-.104.118-.104.09 0 .134.044.134.133h-.222zm.06.518c0-.074.029-.104.103-.089.06 0 .104.03.148.074l-.119.06c-.059.014-.103 0-.133-.03zm.207 4.949c-.104.015-.223-.044-.163-.119.014-.044.059-.074.103-.059.134.015.208.06.208.148-.015 0-.074.015-.148.03zm.163.504c-.252 0-.341-.045-.297-.09.06-.058.104-.147.148-.103l.149.148zm-.282-3.853c0-.014.03-.059.089-.118.03-.03.06-.045.104-.03.118.045.148.09.103.163 0 .015-.044.015-.133.015h-.133zm.119.356c.03-.044.074-.044.133 0a.2.2 0 0 1 .089.104c.015.06-.178.089-.297.089 0-.074.03-.148.075-.193zm-.03 3.956c-.045-.044-.06-.089-.015-.133s.104-.03.178.03l.074.059c.044.044-.089.089-.148.074-.045 0-.074-.015-.09-.03zm.06-7.186c-.075-.044-.045-.089.058-.148.015-.015.075.015.149.074.074.06.074.089-.015.104a.58.58 0 0 1-.193-.03zm.029 3.912c-.074-.045-.06-.09.015-.149.044-.044.089-.03.163.015.03.015.044.045.044.06 0 .044-.03.074-.089.088s-.104 0-.133-.014zm.03-3.408c-.015-.015-.03-.045-.015-.09a.116.116 0 0 1 .059-.058c.074-.015.281.118.178.177-.03.03-.06.045-.09.03-.029 0-.073-.015-.133-.06zm.059.504c-.074-.06-.06-.09.03-.104.073-.015.133 0 .177.044.045.06.03.09-.044.104s-.134 0-.163-.044zm.385 4.948c-.193 0-.311-.03-.34-.089s0-.088.073-.103c.06 0 .119.015.163.044.148.045.222.134.237.252-.03.045-.059.074-.089.074-.044-.015-.059-.044-.044-.118zm-.296-3.363c-.06-.045.089-.178.148-.178.03 0 .074.045.133.119.015.074-.015.103-.104.118a.19.19 0 0 1-.177-.06zm.03 4.297c-.03-.03-.03-.06 0-.104.014-.015.044-.015.088-.015.104 0 .163.03.193.074.03.045 0 .074-.104.074a.426.426 0 0 1-.178-.03zm.207-.463c-.133 0-.207-.06-.207-.178.207 0 .311.03.311.104 0 .059-.03.089-.104.074zm-.178-3.334a.112.112 0 0 1-.03-.06c0-.073.06-.118.164-.118.044 0 .089.03.104.074.044.134.03.193-.045.208-.044.014-.104-.03-.193-.104zm.015.504c-.015-.06.09-.163.134-.163s.148.103.133.163c-.015.015-.104.03-.237.03zm0 3.778c-.03-.074 0-.119.074-.119.074-.014.134.015.178.09.015.014 0 .044-.015.059-.103.103-.177.088-.237-.03zm.03-3.29c0-.088.044-.133.148-.133.119 0 .178.03.178.104 0 .044-.045.074-.148.089s-.163 0-.178-.045zm.34-3.807c-.28 0-.31-.045-.31-.09 0-.029.059-.103.192-.221.119-.104.193-.193.208-.193.088 0 .163.03.207.104.074.089.044.133-.104.148s-.222.015-.222.03c-.015.03-.015.074 0 .118s.03.089.03.104zm-.222.444c-.014-.015-.03-.03-.03-.044 0-.045.03-.06.075-.074.044-.015.074-.015.089 0 .044.044.03.074-.015.118-.045.03-.089.03-.119 0zm.03.519c-.044-.104-.015-.163.119-.163.059 0 .103.03.118.074.045.104-.074.118-.178.104-.03 0-.044 0-.059-.015zm.089 1.526c-.015-.074.03-.119.133-.119.119 0 .178.03.178.104 0 .06-.044.089-.148.089-.089-.015-.148-.03-.163-.074zm.015 3.852c-.045-.089-.03-.148.059-.163.074-.015.148.015.207.074.03.045.03.074.015.09-.074.014-.163.029-.237.029-.03 0-.044-.015-.044-.03zm.222-3.274c-.163.015-.193-.015-.207-.06 0-.014.044-.074.148-.177l.148.118c.015.015.03.03.03.045 0 .044-.045.059-.119.074zm-.148 3.763c-.09-.074-.074-.133.044-.163.06-.015.119.015.193.089.074.089.074.133-.03.133-.103 0-.163-.014-.207-.059zm.015-3.29c-.074-.103-.045-.162.059-.177.104 0 .222.119.222.163-.015.044-.03.06-.06.06-.103.014-.177 0-.221-.045zm.03-4.207c-.104-.045.103-.045 0 0zm.014 4.637c-.015-.044.03-.074.119-.088.089 0 .148.03.163.074.014.044 0 .089-.045.103a.283.283 0 0 1-.237-.089zm.074-3.793c-.089-.044-.089-.089 0-.133.074-.044.134-.044.208 0 .074.06.074.104-.015.148a.295.295 0 0 1-.193-.015zm-.03 4.297c0-.074.104-.104.297-.104-.015-.133.015-.222.104-.266.074-.045.207.044.207.118-.118 0-.193.015-.222.06a.094.094 0 0 0 0 .088c.015.045.03.06.03.075 0 .03-.06.059-.193.088-.09.015-.148.015-.178 0zm.252-3.763c-.192 0-.281-.03-.222-.104.03-.044.06-.06.09-.074.118-.044.207.074.207.133-.015.03-.03.045-.075.045zm-.177.46c-.015-.075.03-.12.103-.134.09 0 .149.03.193.089.044.044.03.074-.044.074h-.223zm.03.577c-.104-.06-.075-.119.073-.178.074-.03.149-.015.223.045.044.059-.03.148-.09.163a.295.295 0 0 1-.207-.03zm.029.474c-.03-.03-.03-.06 0-.089.074-.074.118-.104.148-.089.089.015.148.06.163.134.015.089-.03.133-.148.133-.045 0-.089-.03-.163-.089zm-.03 3.275c0-.045.015-.074.06-.104.044-.045.088-.045.103 0 .03.044.03.074.015.104a.135.135 0 0 1-.118.059zm.09.563c-.03-.03-.03-.06-.016-.104.015-.045.03-.06.074-.074.104-.015.163.015.193.104.015.044-.015.088-.089.133-.044.03-.089.015-.163-.06zm.177-3.349a.319.319 0 0 0-.148.03c-.045-.015-.045-.06-.015-.104l.089-.045c.133-.044.207 0 .207.104 0 .045-.015.074-.059.074-.015 0-.03-.015-.074-.059zm-.178 3.808c0-.119.03-.163.148-.119.03.015.074.06.119.104.015.015 0 .03-.015.045h-.222c-.015 0-.015-.015-.03-.03zm.045-7.275c-.045-.015-.045-.045-.015-.074l.104.089c-.045 0-.075 0-.09-.015zm-.015 3.956c0-.06.089-.163.281-.311.104-.074.163-.104.208-.09.103.016.148.06.148.12 0 .162-.222.133-.222.148l-.06.103c-.044.104-.088.163-.148.178s-.118-.015-.178-.089zm.03 3.823c-.015-.03-.03-.06-.015-.074.014-.03.03-.045.074-.045.103.015.177.045.207.089.015.03.015.06 0 .089s-.044.044-.089.044a.275.275 0 0 1-.178-.103zm0-2.297l.044-.03.03.03-.03.044zm.074-.963c-.104-.03-.09-.089.014-.163.045-.03.09-.03.149 0s.088.074.074.118l-.074.045a.303.303 0 0 1-.163 0zm0-3.897c-.075-.044.118-.163.177-.207.104-.148.178-.223.252-.223.045 0 .074.03.119.075.03.03.03.059 0 .088-.015.015-.178-.03-.223.149-.014.118-.059.177-.103.177a.418.418 0 0 1-.222-.059zm.059-.518v.088h-.045V.5zm.015 1.037c-.06-.03-.045-.074.03-.134.044-.044.103-.03.177.03.074.074.074.119 0 .133-.104.015-.178 0-.207-.03zm.03.504c-.016 0-.016-.015-.03-.03 0-.074.044-.119.133-.119.015 0 .03.015.03.045 0 .089-.045.118-.134.104zm0 .548c-.06-.045.088-.193.162-.178.09.015.134.044.148.104.015.074-.014.103-.118.103-.074 0-.133-.014-.193-.03zm.014.489a.429.429 0 0 1 .163-.163c.104 0 .163.044.163.133 0 .03-.015.06-.06.074-.133.06-.222.045-.266-.044zm.045 3.793c.014-.015.03-.03.059-.03-.015.015-.03.03-.06.03zm.044-3.32c0-.118.06-.147.178-.103.133.06.163.119.089.163h-.237c-.015 0-.03-.015-.03-.06zm.252 3.883c-.193 0-.311-.089-.252-.148.03-.015.074-.015.118 0 .09.015.134.074.134.148zm-.194.46c-.074-.044-.06-.088.015-.103.133-.03.207 0 .222.09l-.045.058a.41.41 0 0 1-.192-.044zm0-3.303a.466.466 0 0 1 .148-.148c.163.044.207.103.119.177h-.238c-.014 0-.014-.014-.03-.03zm.015-3.32c-.015-.014.014-.044.074-.103l.089-.089c.044-.015.177.09.177.134s-.103.074-.326.074c-.014 0-.014 0-.014-.015zm0 .816c0-.045 0-.104.059-.104.015 0 .03.015.044.03-.03.044-.059.074-.103.074zm.089 3.008c-.03-.03-.03-.06 0-.104.014-.045.044-.06.088-.045.075.015.134.045.163.119.015.044.015.074-.03.089-.029.015-.073.015-.118 0s-.089-.03-.103-.06zm0 1.896c-.03-.015-.015-.044.03-.074.044-.015.073-.015.088.015-.015.044-.06.06-.104.074l-.014-.015zm.059-5.23c-.015-.015-.015-.045 0-.074.015-.045.03-.06.06-.06.103-.03.162 0 .162.104 0 .03-.03.045-.089.045-.074.014-.118 0-.133-.015zm.03.504c-.045-.03-.03-.074.044-.134s.207.045.207.119c0 .03-.03.044-.103.044a.319.319 0 0 1-.149-.03zm.296.696c-.222-.104-.356-.104-.311-.207.03-.163.31-.163.266-.208.045-.133.178-.237.297-.178.148.09.163.163.044.208-.089.044-.133.059-.133.074 0 .044.015.089.059.133.074.119.104.193.089.222-.015.015-.06.015-.133.015h-.133zm-.267.356c-.06-.06.104-.178.119-.178.133 0 .207.044.207.148 0 .015-.015.044-.044.06-.09.073-.178.058-.282-.03zm0 3.304c-.03-.03-.015-.074.045-.134.044-.044.088-.03.163.045.088.074.088.103-.015.118a.458.458 0 0 1-.193-.03zm-.015 1.837v.03h.03v-.03zm.09-1.363c-.03-.015-.045-.03-.03-.06 0-.029.014-.044.044-.059.104-.03.163 0 .163.09-.015.044-.074.044-.178.029zm0-3.29c-.075-.074-.06-.118.058-.148.075-.014.134 0 .208.074s.044.119-.074.134a.22.22 0 0 1-.193-.06zm.014 3.794c-.015-.015-.015-.03 0-.06s.044-.044.06-.044c.103 0 .133.03.103.089s-.089.06-.163.015zm.089-3.245c-.045-.015-.074-.03-.089-.06-.015-.014.119-.192.296-.118.104.045.104.104.015.178-.06.03-.133.03-.222 0zm-.03 3.793c-.015-.015-.015-.03-.015-.074 0-.03.015-.045.03-.06.089-.044.163-.029.207.06.015.03 0 .06-.074.074a.251.251 0 0 1-.148 0zm.074-3.319c-.074 0-.089-.03-.044-.104.015-.044.044-.059.118-.044.09 0 .119.03.074.089-.014.044-.074.06-.148.06zM22.546.65c-.045.119-.045-.074 0 0zm-.015 4.742c.015.014.207.118.222.088l.044-.148h-.206c.015 0-.014.015-.059.06zm.03-4.505c-.075-.044-.06-.103.029-.148.015.045.222.06.222.163-.015.104-.104.089-.252-.015zm.177.548c-.074 0-.178-.014-.178-.148.148 0 .237.03.252.074.015.045-.015.074-.074.074zm-.089 1.171a.032.032 0 0 0-.03-.03c-.014 0-.014.015-.014.03s0 .03.015.03.03-.015.03-.03zm-.015-.682c-.03-.059 0-.103.074-.133.075-.015.134 0 .178.06.06.073-.178.088-.222.088-.015 0-.015 0-.03-.015zm.045.83l-.06.06h.06zm.089.77c-.074-.044-.074-.103-.03-.162.06-.074.133-.074.208-.015.074.074.088.118.044.163a.18.18 0 0 1-.222.015zm-.015 3.764c-.06-.03-.06-.074 0-.119.03-.03.074-.044.133-.03.074.016.074.06.03.12-.045.044-.089.059-.163.029zm.03-3.319c-.015-.015-.015-.044 0-.089s.03-.059.059-.059c.133-.03.207 0 .207.104 0 .044-.03.059-.103.074-.075.015-.134 0-.163-.03zM22.916.4c0-.015 0-.03-.015-.03s-.03.015-.03.03c0 .014.015.029.03.029s.015-.015.015-.03zm.03 1.2c0-.06.014-.104.133-.09.06.015.089.045.089.075 0 .059-.06.089-.178.074-.03-.015-.044-.03-.044-.06zm.163 4.489l.03-.06c.014-.029-.045-.044-.164-.044.015-.074.045-.118.104-.133.074-.015.118-.015.133.03.03.074.03.133.015.192-.044.104-.074.119-.118.045zm-.119-3.971c-.015-.074.03-.119.133-.119h.193c0 .104-.104.149-.296.149-.015 0-.015-.015-.03-.03zm.089 4.386c-.06 0-.104-.06-.104-.074 0-.06.074-.09.208-.09 0 .104-.03.164-.104.164zm-.045-3.838c-.074-.03-.074-.074 0-.133.015-.015.045-.015.104-.015.074.045.104.089.09.119-.016.059-.09.074-.194.03zm.06-1.717c0 .06.03.09.075.09v-.09zm.015 5.29c0-.015.015-.03.03-.03s.015.015.015.03 0 .03-.015.03-.03-.015-.03-.03zm.09-5.171l.118.118c.044-.014.044-.044.03-.118-.015-.045-.045-.045-.104-.03zm.177 4.652c0-.015-.015-.015-.03-.03-.014 0-.014.015-.03.03 0 .015.016.03.03.03.015 0 .015-.015.03-.03zm.074-4.385c0-.015 0-.015-.015-.015-.015-.015-.015 0-.015.015s0 .03.015.03.015-.016.015-.03z"/></g></svg>