<svg xmlns="http://www.w3.org/2000/svg" width="78.726" height="32.2" viewBox="0 0 20.83 8.52"><g style="line-height:125%" aria-label="Info" font-weight="400" font-size="14.817" font-family="3 The Hard Way Overrun" letter-spacing="0" word-spacing="0" stroke-width=".265" fill="#a41c31"><path style="-inkscape-font-specification:'3 The Hard Way Overrun, Normal';font-variant-ligatures:normal;font-variant-caps:normal;font-variant-numeric:normal;font-feature-settings:normal;text-align:start" d="M.015 8.15H0c0 .073.015.103.044.103.03 0 .06-.015.09-.06zm.178-1.142c.074.06.148.09.222.104.133.044.207.06.222.03.015-.045.015-.09 0-.119-.06-.074-.133-.089-.118-.148.014-.03.044-.045.088-.045.238 0 .37.06.386.193.015.045.03.074.044.074.104.015.193.03.267.03.06-.045.118-.09.104-.104a.353.353 0 0 0-.178-.06c-.134-.029-.193-.073-.163-.118.015-.044.074-.059.178-.059 0-.015-.104-.044-.326-.089C.77 6.682.696 6.623.696 6.55l.03-.06C.741 6.46.682 6.446.548 6.43.43 6.416.37 6.386.37 6.342v-.208c0-.044.03-.044.074-.03.045.015.06.03.075.045.103.133.207.207.281.207.193 0 .237.045.133.134-.014.059.075.103.252.118.104.015.178.074.193.163.015.045.015.09.03.104 0 .015.03.015.074 0 .044 0 .192.044.207.044.119-.044.163-.089.148-.148-.044-.015-.103-.015-.148-.015-.207-.014-.296-.074-.267-.148.015-.015.03-.044.074-.074.015-.015.015-.03-.014-.044-.09-.015-.163-.03-.208-.03-.163-.015-.252-.074-.252-.148l.045-.06c0-.029-.045-.059-.134-.073C.83 6.164.682 6.134.696 6.06c.015-.044.03-.06.03-.074L.519 5.94a1.197 1.197 0 0 1-.134-.31C.37 5.615.37 5.6.4 5.585c.104-.015.207.118.311.222-.015 0 .015 0 .09-.015.132-.015.207.03.207.134 0 .014-.045.074-.045.118.045.015.356.06.37.163-.014.045-.044.06-.059.074.015.015.074.03.193.045.089.015.148.059.163.103-.119.06-.104.134.044.208.015.015.06.015.134.015h.31c.104 0 .149-.045.149-.119-.045 0-.119-.044-.163-.044-.045 0-.074.059-.089.059-.074.044-.252-.089-.237-.163.015-.074.06-.089.133-.06.104.03.148.045.163.045a.212.212 0 0 0 .06-.148l.044-.193c.06-.163.074-.252.03-.296-.045-.015-.015-.207-.09-.207-.073-.015-.266-.045-.28-.119-.016-.044.014-.089.088-.104.045-.014.104 0 .163.015 0-.074.089-.192.089-.267-.015-.118-.296-.133-.34-.192a.2.2 0 0 1 .103-.089c.074-.015.207.074.267.074v-.193h.03c0-.177-.312-.237-.312-.34l.03-.06c.015-.044.015-.059-.015-.074-.015-.015-.06-.015-.104 0s-.074.015-.089.015c-.03-.015-.044-.044-.044-.089l.044-.06c.193.045.297.06.297.06.074.119.044.237.222.237 0-.252-.119-.459-.074-.503a.473.473 0 0 1 .104-.09v-.31l-.075-.045c.015-.06.075-.207.075-.222 0-.06-.075-.134-.09-.148-.014-.03-.014-.09 0-.163 0-.03.015-.06.03-.09 0 0 .06-.044.06-.059 0 0-.015-.03-.06-.088-.015-.015-.015-.03 0-.06s.03-.044.03-.059c0-.044-.03-.104-.03-.119.015-.133.03-.237.06-.31l-.045-.223c-.03-.104-.044-.163-.044-.163.103-.104.133-.207.089-.311a1.364 1.364 0 0 1-.03-.282c0-.103.06-.37.06-.489-.016-.133-.045-.237-.06-.31-.03-.134-.074-.223-.133-.238 0 0-.045.015-.119.03-.044 0-.148-.06-.222-.06H.133l-.03.03a.303.303 0 0 1 0 .163C.12.385.134.46.134.43.133.474.09.563.09.607c0 .045.015.104.03.178a1.92 1.92 0 0 1 0 .415 7 7 0 0 0-.045.4c.015.148.015.252.03.326-.015.074-.03.119-.03.133v1.69c.06.014.089.03.089.074 0 .03-.03.059-.089.074v.355h.119l.207.223c.06.044-.044.192-.163.148C.177 4.608.133 4.4.059 4.4v.222c.015.074.03.133.06.148.133.104.207.163.192.207a.365.365 0 0 1-.06.149c-.073.044-.118 0-.147-.163 0-.03-.015-.045-.03-.045-.015.074-.03.133-.03.178 0 .104.045.193.149.252.059.03.074.074.059.118-.045.104-.208.104-.208.104v.222a.255.255 0 0 1 .237.237c0 .074-.014.119-.088.104-.015 0-.104-.074-.149-.074v.222c0 .015.03.03.104.045a.473.473 0 0 1 .089.103c.03.104.119.163.267.178.103.015.118.06.044.134L.43 6.86C.385 6.845.356 6.816.34 6.8l.03-.058c.015-.045-.074-.075-.237-.09-.044-.014-.074-.014-.089 0-.014.03-.014.06-.014.104a.557.557 0 0 0 .237.134c.044.015.059.044.044.089-.015.03-.044.044-.089.03zm-.149-1.57v.03h.03v-.03zm0 .474v.044h.03v-.044zm.03 1.837c-.06.03-.03.074.089.133.03-.03.044-.059.06-.103 0-.03-.016-.045-.06-.045-.044-.015-.074 0-.089.015zm.015-.622c0-.015 0-.03-.015-.03s-.015.015-.015.03 0 .03.015.03.015-.015.015-.03zm.222.37c0 .015-.044.074-.044.119h.281c.045 0 .06-.015.06-.06.014-.044 0-.074-.03-.088-.104-.045-.193-.06-.252-.074C.252 7.275.282 7.17.104 7.17v.104zM.148 3.363c0-.059.015-.118.074-.103.045 0 .06.014.06.044 0 .045-.045.06-.134.06zm.03-.503c-.06-.045-.06-.06 0-.074.044-.015.089-.015.118 0 .06.014-.059.088-.118.074zm.015 1.17c.03-.06.059-.06.089.015-.015.03-.045.044-.104.044 0-.014 0-.044.015-.059zm.044-.963c-.044.104-.044-.104 0 0zM.222 2.015l.03-.03.03.03-.03.03zm.104-.563c-.044.119-.044-.074 0 0zm-.03 6.964c0 .089.074.104.223.044-.03-.03-.09-.044-.178-.044zm.03-.43c-.03.045 0 .074.104.119.059.03.103.015.148-.045a.602.602 0 0 0-.148-.133c-.045-.015-.074 0-.104.06zm.148-2.652A.081.081 0 0 1 .43 5.26l.03-.074c0-.015-.016-.045-.045-.074-.015-.015 0-.03.044-.074.06-.015.134.133.134.133l.192.148c.015.03 0 .06-.015.09a.674.674 0 0 1-.296-.075zm0-1.215a.094.094 0 0 1 0-.089c.03-.03.06-.03.074 0 .015.03 0 .06-.015.089-.03.03-.044.03-.059 0zm.015.711v-.118c.015-.134.06-.163.133-.104.104.104.178.178.223.237a.295.295 0 0 1-.208.03zm.015-.504c0-.118.03-.148.133-.133.06 0 .089.015.089.045 0 .059-.074.088-.222.088zm0-1.214c0-.015 0-.104.059-.104.03.015.044.03.044.06 0 .029-.03.044-.103.044zm.015 4.593c-.03.118.103.177.385.177.074-.059.089-.103.06-.133-.06-.015-.105-.03-.15-.03-.236-.03-.177-.044-.251-.044-.015 0-.03.015-.044.03zm.044-5.423c.015-.045.044-.06.089-.074-.015.044-.045.059-.089.074zm.074-.563h.06c-.015.015-.03.03-.06.03zM.652 7.23c-.045.03-.03.059.044.103l.149.03c.133.015.192-.015.192-.104-.044 0-.118-.015-.207-.03-.09-.014-.148-.014-.178 0zM.74 4.4c0-.104.044-.149.148-.119.06.015.044.044-.03.089a.28.28 0 0 1-.118.03zm.281 1.274c-.177 0-.296-.134-.222-.178.015-.015.06-.015.104 0 .074.015.118.074.118.178zM.845 4.608c-.015-.015-.03-.03-.03-.044 0-.09.044-.134.133-.134.074 0 .148.045.237.148.03.045.015.06-.03.074a.572.572 0 0 1-.31-.044zm-.015.46c-.045-.075-.015-.12.059-.134.044-.015.089-.015.104 0l.133.133c-.044.074-.104.104-.148.104a.25.25 0 0 1-.148-.104zm0-1.705c.015-.044.059-.059.103-.074.045.015.045.045 0 .06a.21.21 0 0 1-.088.03L.83 3.362zm.044.163l.03-.03.03.03-.03.03zM.948 2.52c-.044.118-.044-.104 0 0zm.09 1.378c-.06 0-.105-.015-.105-.074.075 0 .104.03.104.074zM.932 2.8l.03-.03.045.03-.045.03zm0 5.66v.03h.03v-.03zm.104-.933c-.03.015-.044.044-.03.06 0 .014.015.029.045.029h.133c.193 0 .282-.015.267-.06 0-.059-.06-.074-.178-.059-.074 0-.163.015-.237.03zm-.015.504c0 .074.06.103.193.103.074-.044.118-.089.118-.103zm.03.444c.104-.044-.104-.044 0 0zm.252-2.548c-.178.014-.252-.06-.208-.119.015-.044.03-.06.03-.074 0 0-.044-.06-.044-.133.133 0 .192.015.148.059-.045.044-.06.074-.03.089.074.015.148.03.163.104.015.044-.015.059-.06.074zM1.17 3.6c-.015-.014 0-.03.044-.074.03.015.03.045.015.074-.015.03-.045.03-.06 0zm.044 1.541c-.03 0-.044-.014-.06-.044l.03-.03c.015.015.03.045.03.074zM1.2 4.845c-.074-.06-.044-.104.074-.133.045-.015.104.03.163.103-.015.045-.03.06-.06.074a.316.316 0 0 1-.177-.044zm.015.548c-.074-.074-.074-.118 0-.133.06-.015.104-.015.148.03.045.044.045.074 0 .118a.114.114 0 0 1-.148-.015zm0 1.941c.133.06.296.015.37.06a.991.991 0 0 0 .252-.104c-.074 0-.266-.06-.34-.074-.075 0-.223.089-.297.089 0 .014 0 .014.015.03zm0-4.222c-.044-.045-.03-.075.044-.09.074-.014.119 0 .134.06.015.044 0 .06-.03.074-.015.015-.044.015-.074 0zm.015-.534c-.045-.044-.015-.06.074-.06 0 .105-.03.12-.074.06zm-.015 5.734v.03h.06v-.03zm.03-4c-.015-.045 0-.074.044-.074.03-.015.074-.015.133 0l.104.044c.074.03.119.06.104.104 0 .044-.015.059-.03.044l-.326-.089c-.015 0-.015-.015-.03-.03zm.014-.49c-.014-.014-.014-.029 0-.044.015-.03.045-.044.06-.044.03 0 .044.03.044.104-.044 0-.089 0-.104-.015zm.163 3.912h-.044c0 .074.044.134.133.148.119.015.193.015.208-.03.015-.014-.045-.118-.09-.118-.014 0-.073.03-.118.03zm.03-1.57c-.089-.06-.074-.104.06-.119.103-.015.177 0 .207.06.015.044.015.088-.015.103s-.074.015-.133 0a.325.325 0 0 1-.119-.044zm-.03 2.148v.03h.06v-.03zm.06-2.37c-.074-.015.059-.119.103-.075a.111.111 0 0 1-.103.074zm.03-.267c-.075-.06-.075-.119 0-.163.103-.074.34.118.207.178-.09.044-.163.03-.208-.015zm.029-.534c-.015-.014-.03-.03-.03-.044 0-.03.03-.06.074-.074.045-.015.09-.015.119 0 .015.015.03.03.03.044 0 .03-.03.06-.075.074-.044.03-.088.03-.118 0zm-.015 1.882c-.044.045.015.06.148.06 0-.06-.044-.09-.133-.075l-.015.015zm-.015.563c.015.015.03.03.06.03v-.03zm.06-4.208c-.03 0-.045-.015-.03-.044 0-.03.015-.045.044-.045.045-.015.09.015.104.09zm.163.548c-.104 0-.178-.03-.178-.133.118 0 .178.045.178.133zM1.57 8.342v.015c.133 0 .192.044.192.118.015 0 .06-.03.104-.104.015-.044-.015-.059-.06-.059H1.6zm0-5.512c-.015-.03 0-.044.03-.06.029-.014.044 0 .058.03.015.03 0 .045-.03.06-.029.014-.044 0-.058-.03zm.014 1.808c-.074-.104-.044-.149.074-.149.045 0 .09.03.134.104.044.045.015.09-.06.104-.044.015-.103 0-.148-.06zm.43 2.844c-.296 0-.34.045-.326.104.03.045.045.06.06.06h.34c.074 0 .089-.03.045-.104-.015-.03-.06-.045-.119-.06zm-.281-.474c-.015.015-.015.03-.015.045 0 .074.178.133.296.133.06-.044.104-.074.119-.104.03-.044 0-.074-.074-.103-.06-.015-.134.059-.178.059-.074-.015-.119-.015-.148-.03zm.133.786c-.03-.015-.045-.015-.06-.015 0 .103.045.133.134.074.044-.03.03-.045-.074-.06zm-.03-1.838a.112.112 0 0 1-.03-.059c0-.074.104-.104.297-.104 0 .119-.03.193-.074.208-.074.03-.133.015-.193-.045zm.045-2.326a.081.081 0 0 1-.074-.044l.03-.03c.029.015.044.044.044.074zm.03 4.386c-.045.015-.06.044-.03.089.03.044.059.059.103.059.06-.044.134-.074.119-.119-.03-.059-.089-.074-.193-.03zm-.015-4.904c.014-.03.044-.045.059-.03-.015.015-.03.03-.06.03zm0 5.378v.03h.059v-.03zm.03-5.72c-.016-.044.029-.073.132-.073 0 .044-.014.074-.044.089-.044.03-.074.03-.089-.015zm.029.549c-.03-.015-.03-.03 0-.06.03-.044.059-.044.089-.014-.015.044-.045.06-.09.074zm.015-1.037c-.045.103-.045-.104 0 0zm.148 4.608c.103.015.148-.06.148-.134-.06 0-.282.03-.282.074 0 .015.045.03.134.06zm-.045-4.312c-.044.119-.044-.104 0 0zm.045.593c-.045 0-.074-.015-.074-.06h.074zm-.03 4.09c0 .073.104.177.163.133.074-.075.03-.119-.118-.134zm.089-1.823c0-.015-.03-.074-.03-.09v.09zm.074.86c.104-.045-.104-.045 0 0zm0 1.333c.104-.045-.104-.045 0 0zM8.139 8.446c-.015.014-.015.014-.015.03h.281c.104.014.163.029.178.044-.044-.193.104-.282.178-.326.015-.015 0-.104-.045-.237-.014-.104.074-.37.074-.49.015-.118.015-.207.015-.266 0-.074-.015-.148-.03-.252-.014-.015-.014-.044 0-.089.015-.044.03-.074.03-.089 0-.133-.266-.118-.252-.252.015-.059.149-.089.149-.103 0-.03-.03-.104-.075-.223-.044-.089-.044-.163-.014-.207.074-.104.118-.163.133-.208.03-.074.03-.133.015-.148l-.074-.074c-.015-.044.118-.237.118-.281-.03-.045-.03-.104 0-.163h-.103c0-.148 0-.223-.015-.237l-.208-.119c-.044-.074.03-.148.104-.104.104.03.178.075.193.119-.015-.015 0-.074.014-.178.119-.178-.207-.192-.266-.355-.015-.119.103-.134.207-.149.045-.014.045-.059 0-.103-.06-.119-.148-.267-.133-.282l.089-.089c.074-.103.089-.207.03-.31-.03-.075-.045-.12-.03-.15.03-.058.059-.103.089-.118.074-.237.044-.326.059-.37.015-.37.015-.504.015-.43-.074 0-.119.03-.134.074l-.03-.03.09-.207c0-.014-.045-.044-.149-.103H8.51v-.223c-.356-.385-.252-.385-.37-.503-.104-.03-.06-.119-.149-.208-.31-.192-.252-.385-.296-.415L7.561.474c-.015 0-.09.074-.104.074 0-.015 0-.06.015-.104V.356C7.457.326 7.442.31 7.427.31c-.118 0-.177.119-.192.133V.193l-.03-.03h-.193c-.044 0-.103-.03-.148-.03 0 .015.015.06.045.119 0 .015-.015.03-.045.06-.015.014-.03 0-.059-.03L6.538.059c-.163-.044-.148.104-.192.06L6.212.044c-.044 0-.118.134-.177.09l-.09-.09c-.236.015-.414.045-.533.06-.059 0-.237-.06-.31-.06-.045.015.058.104.073.149.045.089.03.133-.044.148a.575.575 0 0 1-.208-.148l.06-.119a.433.433 0 0 0-.134-.03s-.059.015-.163.06c-.03.015-.059 0-.103-.015-.06-.03-.09-.03-.09 0-.014.104-.044.163-.088.163-.045 0-.09-.06-.134-.074-.044-.015-.059-.015-.074 0s-.03.03-.03.074l-.029-.03c-.133.163-.252.267-.34.311a.973.973 0 0 0-.149.415c-.044.208-.06.519-.044.934l.03.178c0 .03-.016.074-.03.133-.03.074-.03.133.014.148l.09-.044a.786.786 0 0 1 .162.133c-.014.044-.044.044-.118.03a.572.572 0 0 1-.148-.03v.34c0 .016.03.03.089.06.014.015.03.044.014.074-.014.045-.163.03-.103.267l.089.222c0 .03-.03.06-.09.074v.415c.045.044.06.074.06.089l-.074.074c-.015.178-.03.46-.03.845.015.133.015.177.015.162-.015.045-.015.075 0 .09.015.014.03.014.06 0 .014-.015.044 0 .073.014.09.045.134.09.134.134 0 .059-.045.088-.119.074l-.104-.06c-.014-.014-.03-.014-.044 0v.312c.104 0 .252.118.207.222-.03.044-.074.059-.118.044-.104-.015-.148-.03-.133-.03 0 .238.103.43.326.593.088.074.133.104.148.104.059 0 .207-.06.163-.104-.06-.015-.104-.03-.134-.03a.433.433 0 0 1-.03-.133c0-.015-.073 0-.073-.074 0 0 .014-.015.03-.06.014-.029 0-.058-.016-.073-.074-.015-.118-.03-.148-.015-.074-.044-.059-.074.045-.104.044-.015.089-.015.133.03.074.074.119.104.133.104.178.014.563-.045.726-.045.045-.015.06-.015.075-.03.014-.014-.119-.088-.06-.148.015-.03.06-.044.134-.044l.133.089c.03.015.044.015.044.03l.06-.03c.044-.015.118.03.207.118 0 .045 0 .074-.015.09-.03-.016-.059-.016-.074-.03-.06-.045-.118-.045-.178.03.119-.045.193.103.267.103h.163c.119.06.178.089.163.089 0-.045-.044-.104-.118-.208-.045-.074-.104-.133-.149-.192a.602.602 0 0 0-.207-.148c-.074-.03-.133-.015-.148.059a1.147 1.147 0 0 0-.178-.148c0-.09.281-.297.415-.252.133.089.163.148.089.193-.09-.104-.163-.104-.208 0 .015-.015.104.014.237.074.134.044.223.074.252.074v-.208c0-.044-.103-.059-.089-.074.045-.044.06-.089.06-.118a.28.28 0 0 1-.119.03c-.03 0-.044-.016-.06-.06-.044-.074.03-.148.223-.148 0-.104-.178-.37-.133-.43.015-.015.044-.044.103-.06.03-.014.045-.044.045-.058 0-.09 0-.149-.015-.193-.015-.104-.03-.163-.015-.193s.03-.044.03-.044v-.963c-.03-.03-.045-.074-.03-.119l.03-.059c.015-.03-.015-.074-.089-.118.074-.075.104-.134.089-.178-.045-.134-.06-.178-.06-.163.075-.178.134-.297.149-.297h.385l.4.4c-.015.045.045.104.178.178.044.015.06.074.06.178.014.074.192.045.236.089.015.06 0 .104-.044.118-.045.015-.104 0-.148-.014-.163-.104-.237-.163-.223-.163-.044 0-.059.059-.059.192.03.045.06.074.089.09l.089.088c-.06.03-.104.045-.148.03a.135.135 0 0 0-.045.103c0 .06.03.163.09.297a.785.785 0 0 1-.09.326c.015.059.045.222.045.296l-.03.06c-.015.014-.015.014-.015.029.09 0 .163.015.222.044.104.06.134.119.075.163-.015.015-.09.03-.193.015-.074-.015-.089-.059-.06-.133h-.029v.43c0 .044.119.03.133.044.074.074.119.119.104.133-.06.074-.118.104-.163.104-.044 0-.044-.089-.089-.089 0 .148.015.252.06.311.074.148.118.208.133.193-.045.03-.074.044-.119.044l-.059.09c-.015.103-.015.177.03.236.074.104.074.163 0 .163-.045 0-.06.03-.06.09v.251l.149.148c.103.015.34-.089.4-.089.074 0 .207.119.192.223l-.03.059a1.8 1.8 0 0 1 .341.03c.074-.163.178-.208.312-.134.088.045.103.104.059.148a.512.512 0 0 1-.178.045c-.104.015-.163.044-.193.074-.014.03.03.044.134.044.103 0 .296-.03.4-.03.03.016.044.03.06.06-.12.044-.223.074-.297.06-.37.014-.504.029-.43.029 0-.074-.015-.119-.03-.119h-.326c0 .06.119.163.119.208-.044.074-.089.118-.133.133-.045-.015-.134-.074-.149-.074-.103.03-.103.089-.014.178-.06.015-.104.03-.134.074 0 .03.015.044.045.06.074-.075.163-.075.237 0 .015-.045.044-.075.074-.06.074.015.118.03.118.03 0-.03-.014-.06-.059-.104-.015-.045.119-.119.163-.119l.074.074.074.104c.045.045-.015.074-.148.074 0 .104.326.074.37.119l.06.118c.015.03.044.03.06-.015.073-.103.118-.133.147-.074-.089.045-.089.119 0 .237l.09.134c0 .015-.016.059-.03.103zM3.53 8.223c-.015.119 0 .193.03.237 0 .015.029.03.088.03h.311v-.03c-.104.015-.163-.015-.178-.089-.014-.074.104-.148.149-.103.074.059.118.103.148.148v.044c.133.015.222.03.281.03.074-.015.134-.06.178-.163.015-.044-.34-.104-.4-.148.044-.163-.06-.297-.237-.237-.015 0-.03.089-.045.089-.014 0-.03-.015-.044-.03v-.207c0-.045.044-.06.133-.045.134.074.119.119.475.119 0-.119-.09-.178-.252-.178l-.06.044h-.014c.074 0 0-.015-.193-.044h-.133c-.045.015-.074.03-.074.044 0 .015.03.09.03.104 0 .015-.105.089-.105.104s.015.03.03.044c.089.074.133.119.133.134-.044.074-.088.103-.118.088l-.089-.044c0-.015-.03.015-.044.06zm.014-1.318c-.014.044.045.074.193.074.148-.015.222-.06.222-.134h-.015v-.03c.09-.044.134-.073.134-.118-.015-.074-.074-.089-.148-.044-.015.015-.134.148-.178.133l-.09-.044c-.014.044 0 .03-.118.163zm1.17.592c-.044.015-.029.03.03.074.06.015.09-.133.149-.118l.059.06c.015 0 .074-.134.089-.134s.118.207.222.207c0-.267-.296-.311-.37-.311.044 0 .059-.015.059-.06 0-.029-.015-.059-.03-.073-.03-.03-.059-.03-.089.014-.044.045-.059.045-.074 0-.014-.044 0-.074.045-.088.074-.015.074-.045-.03-.075-.06-.014-.089-.044-.089-.074 0 0 .03-.03.09-.103 0-.015-.016-.03-.06-.045a9.216 9.216 0 0 1-.4-.118c0 .103.133.103.178.148 0 0-.09.192-.09.252 0 0 .016.03.06.074.06.06 0 .118-.237.118-.015-.014-.015-.03 0-.059.03-.044.044-.06.044-.074 0-.044-.044-.074-.118-.104a.299.299 0 0 0-.163 0c-.03.015-.045.06-.045.134-.044 0-.266-.06-.326-.045-.044.015-.074.045-.074.119 0 .015.06.118.045.133-.045.03-.06.06-.045.074l.03.06c.207.014.356.03.46.059.044-.015.059-.03.073-.06 0-.03-.014-.059-.044-.074.015.015-.045.015-.207.015 0-.192.192-.222.251-.207a.46.46 0 0 0 .297.237c.192.044.266.074.192.074 0-.104.045-.163.134-.163.074 0 .089.015.074.06zm-1.155.178c.015 0 .015 0 .015-.015s-.015-.015-.03-.015c-.03 0-.03.015.015.03zm.015-1.26c-.044.134.015.208.178.208 0-.104-.134-.326-.178-.207zm.119-3.244c-.03-.015-.045-.03-.045-.045h.34c.016 0 .03.015.045.045s.015.044 0 .059c-.015.044-.044.06-.089.06-.044 0-.133-.045-.251-.12zm.177-1.245c-.133.015-.222-.044-.207-.089l.074-.044c.074 0 .133.015.148.03.045.044.045.088-.015.103zm-.163 2.77c-.044-.044-.03-.058.03-.058.015 0 .104.044.104.163a.814.814 0 0 1-.134-.104zm.015-3.318c.045-.06.09-.089.148-.089.09.015.134.06.134.148-.163 0-.267-.015-.282-.06zm.03 2.874c-.015 0-.03-.014-.03-.044-.015-.03 0-.045.03-.045.074-.014.133-.014.148 0 .074.045.06.075-.015.09zm.074-.489c-.015-.014-.015-.03-.015-.059 0-.03 0-.044.015-.044.044-.03.074-.03.118 0 .015 0 .015.015.015.044 0 .03 0 .045-.015.06a.164.164 0 0 1-.118 0zM3.87.92c-.03-.015-.044-.03-.059-.074-.015-.045 0-.06.03-.075.059-.014.118-.014.177.03.075.06.075.104 0 .119a.252.252 0 0 1-.148 0zm.015 4.637c-.03-.015-.03-.044-.015-.059.03-.044.06-.06.09-.06.058-.014.118.016.162.104.045.09.015.134-.089.134-.044 0-.089-.045-.148-.119zm.045-2.874c.074-.104.133-.104.207-.03.03.03.044.074.03.119-.015.044-.045.074-.09.059zm.03 2.356a.134.134 0 0 1 .088-.09c.03.016.015.045-.06.12zm.073-2.83c-.074-.074-.044-.104.06-.104.074 0 .118.03.133.074-.015.044-.03.089-.06.104-.044-.015-.088-.045-.133-.074zM4.02 4.489c.015-.044.045-.059.075-.059.059-.015.088 0 .103.03s-.015.074-.089.118zm.075-2.785c-.03-.03-.03-.074 0-.119.03-.044.059-.044.103 0l.119.119c.015.044.015.06-.03.06a.233.233 0 0 1-.192-.06zM4.138 4c.03-.03.06-.045.104-.045.044.045.059.074.015.089h-.03zm.044-2.756c-.03-.015-.044-.045-.044-.09 0-.073.044-.118.119-.118.014 0 .044.015.074.045.074.074.089.118.044.163-.044.03-.104.03-.193 0zm0 4.622c-.03-.03-.03-.059 0-.088.03-.03.06-.045.09-.045.044 0 .103.045.177.133.015.015 0 .06-.074.104-.044.015-.118-.015-.193-.104zm.075-5.17c-.03-.015-.06-.03-.075-.06-.014-.015.06-.163.163-.089.075.045.119.09.104.134-.015.044-.089.044-.192.014zm-.06 1.792h.03v.03h-.03zm.06 5.053c0-.015-.015-.015-.03-.03-.015 0-.015.015-.015.03s0 .03.015.03.03-.016.03-.03zm.014-4.52c-.044-.029-.044-.059-.014-.088.03-.015.059-.03.103-.015.074.015.104.074.104.192-.044 0-.104-.03-.193-.088zm.193 2.4c-.178-.058-.252-.088-.207-.147.014-.03.044-.045.059-.06.06-.014.118 0 .163.06.015.015.015.059.03.103zM4.331 2.52c-.045-.06-.015-.104.059-.119.089-.015.148 0 .163.06.044.103.03.163-.045.163a.193.193 0 0 1-.177-.104zm.03 3.778c-.045-.118-.045.074 0 0zm.029-1.452c-.045-.015-.06-.044-.03-.089.015-.03.06-.03.104-.015s.06.045.03.09c-.015.014-.045.029-.104.014zm.015-2.86c-.045-.044-.045-.074 0-.088.015-.015.044-.015.089 0 .103.014.148.059.148.148-.104 0-.178-.015-.237-.06zm.03 2.341c-.075-.044-.06-.088.059-.103.074-.015.133 0 .148.074.03.074.015.104-.045.104-.044 0-.103-.03-.163-.075zm-.03 3.645c0 .03.03.045.089.06.074.014.103 0 .118-.015s-.03-.045-.104-.074c-.044-.015-.074 0-.103.03zm.015.149h-.015c.044.044.074.074.103.074 0-.06-.03-.09-.088-.074zm.044-6.638c-.06-.074-.044-.104.06-.104.133-.015.192.03.192.133 0 .045-.03.06-.104.045a.276.276 0 0 1-.148-.074zm.03 4.741c-.015.015-.03.015-.045.015 0 .074.015.104.06.118.014.015.059 0 .118-.03.015-.014.03-.029.03-.044 0-.044-.06-.074-.163-.059zm0-5.26C4.449.933 4.479.874 4.568.8c.015 0 .044.03.103.074l.104.104c-.015.044-.06.06-.133.044-.074-.014-.119-.044-.148-.059zm.044 4.697c-.03-.03-.03-.06 0-.089l.074-.044c.045-.015.074 0 .089.014l.133.134c-.044.104-.148.104-.296-.015zm0 2l.03.03.03-.03-.03-.03zm0 .193c.015.044.045.044.074.015.03-.03.03-.06-.015-.074zm.074-7.35c-.044-.029-.06-.059-.06-.088 0-.074.045-.104.134-.104.03 0 .06.015.09.03.088.074.103.133.044.178-.045.044-.104.03-.208-.015zm-.03 2.801c-.044-.015-.044-.044-.014-.06.044-.029.074-.029.103-.014.03.015.03.044 0 .06-.03.029-.059.029-.088.014zm-.014 3.882c.015-.03.03-.044.059-.044 0 .03-.015.059-.03.074zM4.7 2.86c-.074-.045-.089-.09-.06-.119.06-.044.12-.044.179 0 .088.074.088.133 0 .148a.115.115 0 0 1-.119-.03zm-.044 2.267c-.074 0-.06-.03.014-.075.03-.014.06-.03.104-.014.015.014.03.03.015.044 0 .015-.015.03-.03.045zm0 1.452c-.015.059 0 .089.074.089.118 0 .177-.015.192-.06.015-.044-.015-.059-.059-.059h-.178c-.015.015-.03.015-.03.03zm0-2.756h.03v.03h-.03zm.014-1.556c0-.06.06-.089.163-.074l.09.089c.014.03 0 .044-.016.059a.875.875 0 0 1-.207-.03zm.015 6.075c-.015.06.015.089.06.089 0-.03-.015-.06-.06-.104v.015zm.045-3.704c-.015-.015-.03-.03-.03-.045 0-.03.015-.06.06-.074.044-.015.073 0 .088.015.045.044.045.074 0 .089-.044.03-.074.03-.118.015zm-.015-2.904c.044-.075.104-.104.148-.09.089.015.133.075.133.149h-.222zm.015 4.578c.059 0 .074-.06.074-.104-.045 0-.074.03-.074.104zm.148 1.837s-.104.045-.104.09c.133-.045.163-.075.104-.09zm.104-6.83a.212.212 0 0 1-.163-.074c-.045-.045.059-.119.118-.119.045 0 .089.045.133.133.015.045-.014.06-.088.06zm-.075 6.993c-.03-.015-.059-.015-.088-.015 0 .148.103.223.296.223 0-.09-.074-.163-.208-.208zm-.074-4.208c.015-.044.045-.06.09-.074a.473.473 0 0 1 .088.104c-.03.044-.06.06-.089.06zM4.88.77c-.045-.059-.03-.103.06-.148.073-.03.132 0 .177.09.06.103.03.147-.074.147A.205.205 0 0 1 4.879.77zm.163 7.068c-.193-.074-.193.044-.178.119 0 .03.03.044.074.03l.178-.045c.03-.015.03-.03 0-.06s-.06-.044-.074-.044zm-.134-4.267c-.03-.015-.03-.03 0-.06.03-.014.06-.03.09-.014.029.015.029.044 0 .074a.094.094 0 0 1-.09 0zm.015 1.822s.045-.015.119-.059c.044-.044.074-.074.06-.104l-.06-.074c.015-.03.044-.044.06-.044.103.074.132.133.118.192-.09.074-.163.134-.237.149zm.119.697c-.045-.015-.06.014-.074.074 0 .044.015.059.03.059.059 0 .088-.015.103-.044.015-.03-.015-.06-.06-.09zm-.06-2.978c0-.03.015-.06.03-.075l.03.03c-.015.03-.03.045-.06.045zm.06-.445c-.045-.015-.06-.044-.06-.089 0-.074.045-.104.12-.104.029 0 .058.015.088.045.074.074.089.118.044.163-.059.044-.118.044-.192-.015zm.089 4.49c.148.177.4.088.444.31.015 0 .045-.014.06-.044.044 0 .103.045.103.045 0-.134-.266-.223-.266-.297 0-.015.014-.015.044-.015.03.015.06.015.074.03.045-.044-.03-.163-.252-.118.015-.134-.044-.312-.178-.312a.207.207 0 0 0-.118.06c0 .014.178.192.237.266l-.06.045c-.014 0-.103-.03-.118-.03l-.104.03zm-.119.444v.03h.03V7.6zm.06.578a.032.032 0 0 0-.03-.03c-.015 0-.015.015-.03.03 0 .015.015.03.03.03s.03-.015.03-.03zm.014-6.06c-.044-.045-.03-.104.045-.148.044-.03.089-.015.148.044.06.089.06.133-.015.148-.074.015-.133 0-.178-.044zm.045 2.519c-.015 0 0-.03.015-.104.044-.06-.104-.148-.045-.208.015-.03.045-.059.06-.103.029-.104.044-.148.059-.148.148.044.207.118.177.192a.262.262 0 0 1-.118.074.49.49 0 0 1 0 .208c-.03.074-.074.103-.148.089zm.148-2.964c-.133-.074-.178-.133-.163-.178.015-.014.044-.03.089-.03.089-.014.148.016.163.09.015.059-.015.133-.09.118zM5.1 6.46l.03.148c.044-.015.059-.044.059-.074 0-.044-.015-.089-.06-.104zm.03 1.719c-.03.03-.03.074 0 .118.015.015.044.015.089 0 .074-.014.103-.089.103-.192a.256.256 0 0 0-.192.074zm.074-7.127c-.03-.03-.03-.044-.015-.06.03-.044.06-.059.089-.073.06-.015.118.014.163.089.03.03.03.059.015.103-.015.045-.06.06-.104.06-.03 0-.074-.045-.148-.119zm.222 4.015l-.207.03h-.03c-.03-.015-.015-.045.03-.089.133-.104.222-.133.281-.089.09.074.134.133.119.178-.015.03-.06.015-.163-.03zM5.16 6.282v.03h.06v-.03zM5.175.104c0-.015 0-.015.015-.03.015 0 .03.015.03.03s-.015.03-.03.03-.015-.015-.015-.03zm.282.503c-.104.06-.223-.044-.267-.103.015-.03.044-.045.06-.06.088-.03.177.015.28.119zM5.234 7.75c-.044-.118-.044.074 0 0zm.015-4.43c.074 0 .119.015.119.03-.015.014-.045.03-.119.03zm.074-.415c-.014-.03-.014-.06.015-.089.015-.03.045-.03.09 0 .029.03.029.06-.016.104-.03.044-.059.03-.089-.015zm.015 1.141c0-.06.045-.074.104-.074 0 .044-.03.074-.104.074zm.03-1.63c-.074-.074-.06-.118.074-.133a.19.19 0 0 1 .178.059c.074.074.059.119-.06.133-.074 0-.148-.014-.192-.059zm0 4.015v.03h.06v-.03zm.044.252c-.059.045-.044.06.06.074.074.015.118 0 .118-.044 0-.015-.03-.03-.074-.045-.044 0-.089 0-.104.015zm.267-4.726c-.163.015-.207-.045-.282-.119.015-.03.045-.044.075-.059.163-.06.34.163.207.178zm-.237 2.726c-.045.119-.045-.074 0 0zm.044 3.808a.032.032 0 0 0-.03-.03c-.014 0-.014.015-.014.03s0 .03.015.03.03-.015.03-.03zm-.03-.133c0 .059.016.074.045.059.074-.03.09-.045.015-.06zm0-4.164c.016-.03.045-.044.09-.06.103-.044.103.03.103.134-.014.045-.014.06-.03.045zm.164.37c-.06 0-.119-.059-.163-.103.015-.015.03-.03.074-.03.06 0 .089.045.089.134zM5.516 6.89c-.06-.104-.06.103 0 0zm-.03-5.571c-.014-.045.015-.06.074-.06.104-.014.193.03.208.104 0 .045-.03.089-.074.104-.03.015-.104-.045-.208-.148zm.03 6.638c-.044.014-.044.059-.015.103.03.045.06.045.09.015.044-.044.058-.074.044-.089-.03-.03-.045-.044-.06-.044-.03 0-.044 0-.059.015zm-.03-.193v.03h.074v-.03zm.104-1.408c-.03 0-.044.015-.06.045h.06zM5.575.86C5.56.845 5.56.815 5.575.77 5.59.726 5.62.711 5.65.711c.119 0 .178.045.178.148 0 .015 0 .045-.015.06-.059.074-.133.059-.237-.06zm.06-.503c-.045-.06-.03-.104.059-.119s.148 0 .192.074c.045.089.015.133-.088.133-.045 0-.104-.03-.163-.088zm-.015 8.03c-.015.015-.015.045 0 .104h.089c0-.089-.03-.119-.09-.104zm.03-4.919c0-.015.014-.03.029-.03.015 0 .015.015.015.03s0 .03-.015.03a.032.032 0 0 1-.03-.03zm.029 3.512v.059h.06v-.06zm.044-.504c-.044-.119-.044.074 0 0zm.03-4.282c-.044-.045-.03-.074.044-.104.045-.03.104-.015.149.045.044.044.044.074-.03.089a.194.194 0 0 1-.163-.03zm.074-.519c-.015-.015-.03-.03-.03-.044 0-.074.045-.09.134-.074.074.015.104.089.104.192a.354.354 0 0 1-.208-.074zm.045-.518c-.075-.06-.045-.104.074-.119.074-.015.118.015.163.09.044.088.03.132-.06.132-.044 0-.103-.03-.177-.103zM6.168.71C6.02.756 5.916.637 5.916.607c0-.074.044-.118.119-.118.014 0 .03 0 .044.015l.133.148c.015.044 0 .06-.044.06zm-.045 1.245c-.014-.045.03-.074.134-.074 0 .074-.03.103-.104.103zm.06-.49c-.015-.014-.03-.029-.03-.044 0-.059.045-.088.148-.074.134.09.163.148.104.178-.06.03-.133.015-.222-.06zM6.242.92a.23.23 0 0 1 .119-.09c.059.045.103.09.118.12a.252.252 0 0 1-.089.088.43.43 0 0 1-.148-.118zm.119-.43c-.104-.03-.134-.074-.075-.148.06-.06.134-.06.223 0 .133.089.163.148.059.163-.06.015-.133 0-.207-.015zm.133 1.808c-.03-.03-.03-.06.015-.09.03-.044.059-.029.089.03.03.06.03.09-.015.104-.015.015-.045 0-.09-.044zm.044-.534c-.03-.03-.014-.044.045-.06.059-.014.089 0 .103.045.03.074.015.119-.03.119-.014 0-.044-.03-.118-.104zm.06 6.638c.103-.044-.104-.044 0 0zm.03-7.186c-.045.104-.045-.104 0 0zm.073 6c.074.06 0 .164.06.208h-.03c.074-.03.148-.044.193-.03.074-.044.103-.088.103-.118H6.85c0-.044 0-.074.015-.089.015-.03 0-.06-.044-.074a.78.78 0 0 0-.222-.089c0 .074.03.148.103.193zm-.03.267c0-.03-.014-.044-.029-.044-.03 0-.044.015-.044.044zM6.687.8a.152.152 0 0 1-.074-.089c.06-.074.119-.104.178-.06.074.045.104.105.09.15-.03.073-.09.073-.194 0zm-.059 6.934c-.059.015.03.178.134.178 0-.148-.045-.207-.134-.178zm.06-1.911c0-.015 0-.03-.015-.03a.032.032 0 0 0-.03.03c0 .015.015.03.03.03.014 0 .014-.015.014-.03zm.192 2.474c-.06 0-.163.045-.178.09 0 .014 0 .014.015.029l.074.074c0-.045.09-.133.09-.193zm-.074-4c-.074-.074-.089-.119-.03-.148.06-.045.119-.045.163 0 .074.074.09.133.03.177-.06.045-.119.03-.163-.03zm-.03-.682c.149 0 .237.015.252.06a.35.35 0 0 1-.133.088c-.045 0-.089-.03-.119-.103zm.03 3.082c-.015-.015-.03-.044-.03-.089.015-.044.03-.089.045-.103.104-.104.311.133.178.192-.06.03-.119.03-.193 0zM6.82 8.06c-.015.045.015.074.089.09.074.014.103.014.118-.03-.044-.045-.089-.09-.103-.119-.03-.015-.06 0-.104.06zm.044-1.94c-.044-.104-.015-.149.06-.149.088-.015.148.03.192.104.045.104.015.163-.089.178-.074.014-.133-.03-.163-.134zm.015.859a.45.45 0 0 0 .119.118c.148-.03.222-.06.207-.074-.06-.06-.104-.089-.118-.089-.134 0-.193.015-.208.045zm0 1.511v.03h.089v-.03zm.06-2.904a.112.112 0 0 1-.03-.06c0-.029.015-.044.059-.059.044-.014.074-.014.104.015l.133.134c-.03.074-.118.074-.267-.03zm.059-.548c-.015-.06.014-.09.103-.09l.045.03.118.119c-.03.044-.074.06-.118.044-.09-.044-.134-.089-.148-.103zM7.19.578c-.074.03-.163-.074-.163-.089 0-.03.03-.044.074-.044.06 0 .09.014.104.059.015.044 0 .074-.015.074zm-.118 2.267c-.104-.045.074-.045 0 0zm.03 1.733c-.06-.074-.045-.133.059-.148.074-.015.118.03.148.134.015.044.015.059-.015.074-.044.014-.148-.015-.193-.06zm.014 3.705c-.015 0-.03.014-.03.059 0 .03 0 .044.015.06.074.044.119.073.119.088.044 0 .074-.015.089-.06.03-.044.03-.088 0-.118-.045-.06-.104-.074-.193-.03zm.045-4.238c-.015-.044-.015-.074.014-.089.03-.015.075-.015.119 0a.152.152 0 0 1 .089.074c.015.045-.015.089-.089.104-.06.015-.104-.015-.133-.09zm.044 2.43c-.044-.06-.06-.119-.015-.178.074-.163.252.074.193.208-.045.074-.104.059-.178-.03zm.03-2.949a.045.045 0 0 1 0-.059c.03-.015.059-.03.103-.03.045 0 .104.03.149.104.044.074-.06.119-.104.104a.722.722 0 0 1-.148-.119zm.03 2.371c-.045-.03-.045-.06 0-.104.044-.044.073-.059.103-.015l.133.134c.015.044.015.06-.03.06-.058 0-.192-.03-.207-.075zm-.03 2.045V8h.178v-.03c-.015 0-.119-.03-.163-.03zm.059-2.534c-.015-.015-.03-.03-.03-.044 0-.074.045-.119.134-.119.03 0 .074.03.118.074.015.015.015.06.015.104-.104-.015-.178-.03-.237-.015zm.252-2.311c-.06.044-.326-.06-.222-.134.044-.03.089-.03.163 0 .103.06.118.104.059.134zM7.368.785c-.044.119-.044-.074 0 0zm.03 4.09c-.045-.074-.03-.104.074-.119s.163.03.163.134c0 .044-.03.059-.104.044-.06-.015-.104-.03-.133-.06zm.089 1.733c.044-.044.074-.044.118-.015.045.03.045.074 0 .119-.074.074-.148.118-.222.118 0-.103.03-.177.104-.222zm-.03 1.734c-.044.06-.03.089.074.089s.222-.178.237-.104c.045.074.074.104.089.104 0-.208-.089-.311-.252-.311-.222 0-.074.148-.148.222zm-.015-4.03c.074-.104.134-.104.208-.03.03.03.044.074.03.119-.016.044-.03.074-.075.059zm.09 1.896c-.06-.06-.045-.104.044-.133.074-.03.133-.015.177.06.074.103.074.147-.015.147-.103 0-.162-.03-.207-.074zm.221-2.282c-.103.074-.296-.088-.192-.163.044-.044.103-.044.177 0 .06.06.06.119.015.163zM7.62 3.35c-.074-.06-.044-.104.06-.119.073-.015.118.015.162.089.045.074.045.118-.03.118a.359.359 0 0 1-.192-.088zm0 2.34c-.044-.044-.044-.073 0-.118.044-.03.089-.03.118 0l.134.133c-.06.074-.104.09-.148.074-.045-.03-.09-.059-.104-.088zm.074-.518c-.044-.044-.03-.089.044-.104.06-.015.104 0 .134.045.044.059.03.089-.015.103-.074.015-.119 0-.163-.044zm.03 2.356c-.015-.015-.015-.03-.015-.045 0-.03.03-.044.089-.059s.103 0 .118.03c.06.059.06.103-.015.118-.074.015-.133 0-.177-.044zm.014-2.904c0-.03.03-.06.075-.074.044-.015.074 0 .103.015l.134.133c-.03.044-.074.074-.119.074a.353.353 0 0 1-.163-.089zm.119-.46c-.074-.088-.044-.133.074-.133.06 0 .119.03.163.089.06.089.03.133-.074.133-.074 0-.119-.03-.163-.089zm.015 2.297c-.015-.03 0-.06.03-.074a.094.094 0 0 1 .088 0c.045.06.074.089.074.089.015.015 0 .03-.014.044-.104-.014-.163-.03-.178-.059zm.044-2.8c-.074-.074-.044-.119.09-.134.058-.014.118.015.177.09.044.059.015.088-.089.088-.089.015-.148 0-.178-.044zM7.961 6c-.074-.014-.074-.044 0-.103.015-.015.044-.015.059-.015s.044 0 .06.015c.073.06.073.089 0 .104a.164.164 0 0 1-.12 0zm.03-2.874c-.015-.044.014-.059.059-.074.103-.044.237.03.237.104 0 .044-.015.074-.06.089-.044.015-.074.015-.103 0-.06-.045-.104-.074-.134-.119zm.014 2.371c-.06-.089-.03-.148.09-.163.073 0 .192.119.192.193 0 .044-.045.059-.119.044s-.133-.03-.163-.074zm.03 2.311c-.074-.044-.045-.089.06-.118.044-.015.073.015.118.06.044.058.044.088 0 .103a.316.316 0 0 1-.178-.045zm.044-2.83c-.015-.014-.03-.03-.03-.044 0-.044.045-.074.134-.074.104 0 .163.06.163.178a.507.507 0 0 1-.267-.06zm.119-.474c-.015 0-.03-.015-.045-.044-.014-.015 0-.045.03-.09.044-.044.089-.044.133 0 .09.075.104.12.045.15a.215.215 0 0 1-.163-.016zm-.03 2.252c.074-.103.134-.118.178-.059.015.015.015.045.03.074.014.045.014.09 0 .104-.015.03-.03.044-.06.03zm.045-.459c-.045-.03-.045-.06.014-.089a.319.319 0 0 1 .149-.03c.03.015.044.03.03.045 0 .03-.016.044-.03.06-.06.044-.119.044-.163.014zm.252-2.267c-.104.074-.341-.089-.208-.192.104-.06.267.133.208.192zm-.178-.622c-.015-.06.03-.09.103-.104.075 0 .119.03.119.104s-.044.104-.119.089c-.044-.03-.088-.06-.103-.09zm.178 2.474c-.119-.103-.193-.103-.178-.163.015-.03.03-.044.059-.044a.19.19 0 0 1 .178.06c.03.058.015.103-.06.147zM8.316 8.15c-.059-.015-.059-.044-.014-.089.044-.03.088-.044.148-.03.044.015.044.045 0 .09-.03.03-.074.044-.134.03zm.237-2.785c-.103-.015-.207-.119-.163-.178a.113.113 0 0 1 .075-.03c.074 0 .133.03.148.104.014.03.014.06 0 .074-.015.03-.03.044-.06.03zM8.376 6.37l.03-.03v.06zm.089 1.29c-.045-.075-.045-.12 0-.134.044-.045.207.148.133.163-.06.015-.104.015-.133-.03zm0-.593c0-.03.014-.045.03-.06.029-.015.044 0 .058.03.015.03 0 .044-.03.044-.014.015-.044 0-.058-.014zm.281 1.422v.03h.03zm.03-2.119v.03h.03v-.03zm.059-2.963c0-.03-.015-.045-.03-.06v.06zm-.03.474v.03h.03v-.03zm0 .37v.09h.03v-.09zM9.624 7.927c-.015.03-.015.06-.015.104l.03.459.03.03h1.17c.252 0 .548-.015.889-.03.074 0 .118-.015.133-.03v-.252s-.03.015-.074.03c-.03.015-.044 0-.06-.03-.014-.014.016-.044.09-.118.015-.015.015-.045.015-.074V6.949h-.356c-.074 0-.119-.044-.148-.119-.015-.044.015-.088.104-.118a.333.333 0 0 1 .207.015c.104.044.178.074.193.074v-.237c-.09 0-.134 0-.149-.015-.044-.015.06-.178.119-.222 0-.045-.015-.074-.03-.104a.803.803 0 0 0 .03-.252V5.72c-.074 0-.133-.015-.148-.044a.428.428 0 0 0 .178-.222c.014-.045.044-.06.088-.06h.312c.089-.089.177-.133.251-.133 0 .074 0 .104.015.118.03.015.074 0 .134-.014.163-.03.252-.045.296-.03.074.03.148.044.207.044.134-.014.252-.014.326-.014l.386-.015c.34 0 .326-.03.43-.148.014-.03.044-.045.059-.045v.104c-.015.015-.015.044-.015.089h.489l.03-.03V4.267l-.015-.637V3.35c-.015-.134-.03-.223-.045-.238h-1.022a.214.214 0 0 1-.104.03c-.044 0-.104-.015-.207-.03-.178-.014-.237 0-.312 0-.059.09-.118.134-.192.119-.045-.015-.045-.119-.09-.119h-.177c-.504.015-.77.03-.785.03-.074-.044-.119-.074-.119-.089v-.4c-.059-.015-.059-.104 0-.237.06-.118.104-.148.163-.148l.193-.104c.104-.074.163-.059.178.074 0 .015.015.03.059.03h.43v-.045l-.149-.148.06-.059c.015.104.237.03.237.089 0 0-.015.044-.06.118v.045c.415 0 .741 0 .978-.015l.549-.015h.237c.089 0 .148-.015.163-.044V1.096L14.795.49V.222a.906.906 0 0 0-.045-.207h-2.074c-.015.044-.06.074-.133.118-.015.015-.045.015-.09 0C12.425.09 12.41.06 12.425.03c0-.015-.044-.015-.148 0-.104 0-.281 0-.563.014-.237.015-.43.015-.563.015-.074 0-.4.148-.46.163-.014-.015-.044-.015-.059-.015l.06-.118c0-.045-.06-.045-.193-.03-.489.193-.652.341-.652.356.03.044.03.074 0 .089-.044.015-.074.044-.089.059-.015.06-.03.104-.03.148-.044.045-.088.06-.118.074-.044.134-.06.237-.06.326.016.148.016.267.03.341a.571.571 0 0 1-.03.148v.119c.016.044.193.044.193.103 0 .06-.133.134-.192.178v.297c0 .222 0 .4.015.563l.014.355c0 .163 0 .252.015.252.074 0 .223-.148.237-.163.045-.03.09-.03.119 0 .044.03.044.06 0 .104a.74.74 0 0 1-.267.133c-.074.163-.104.222-.104.297v.43c.104 0 .134.029.119.088a.469.469 0 0 1-.119.178v.637s.03-.015.09-.03c.029-.014.044 0 .044.045 0 .104-.09.148-.104.163v.696c.015 0 .045-.015.089-.06.015-.029.03-.014.03.03 0 .03-.03.09-.09.178-.073.09-.073.134 0 .149l.253.059c.044.015.133-.015.237-.09.074-.044.133-.029.177.016.09.103.134.163.134.163.089-.015.148-.03.178-.03.133.045.251.074.34.119.163.074.252.118.252.163-.03.074-.059.118-.074.118h-.385a3.672 3.672 0 0 0-.578-.193 2.907 2.907 0 0 0-.563-.059v.193c.104.03.133.06.119.104-.074.103-.119.148-.119.133v.637c0 .044.119.015.119.074 0 0-.03.06-.104.178zm.015-5.497c-.074-.015-.06-.045.015-.119.088-.074.148-.103.192-.074.015.045-.074.237-.207.193zm.059 1.674c-.044 0-.06-.03-.06-.074.03-.03.06-.044.09-.044.103-.074.207-.193.222-.208.03 0 .06.015.089.06 0 .014-.015.044-.06.088-.103.119-.192.178-.281.178zm.03-1.14c-.074 0-.09-.03-.06-.075a.303.303 0 0 1 .134-.074c.133-.044.222-.074.281-.074 0 .104-.237.222-.355.222zm0-1.423c-.015-.015-.03-.045-.015-.074 0-.015.015-.03.044-.03l.06.06c.014.014.059-.015.133-.06.06-.015.089.015.089.09 0 .029-.03.058-.074.088-.045.03-.134 0-.237-.074zm0 1.689c-.015 0-.015-.015-.015-.03 0-.074.044-.118.133-.118.03 0 .045.015.045.044-.015.074-.06.119-.163.104zm.044 1.69c-.074-.016-.06-.06.015-.134a.181.181 0 0 1 .133-.06c0 .134-.044.208-.148.193zm0 .696c.015-.03.03-.045.045-.045.044 0 .074 0 .103.015.045.03.045.074 0 .118-.044.06-.089.075-.118.06a.319.319 0 0 1-.03-.148zm.045-4.49c-.045-.044-.045-.074 0-.118.044-.03.074-.015.118.044.044.06.044.089 0 .089s-.089 0-.118-.015zm.03 7.157h.044v.03h-.045zm.073-6.179c-.03-.104-.03-.163.015-.178.06-.015.193.015.193.09 0 .088-.045.132-.149.132-.03 0-.044-.014-.059-.044zm.03 1.585c-.119-.014.06-.192.43-.192 0 .103-.104.207-.208.148-.044-.015-.06-.03-.06-.015a.276.276 0 0 1-.162.06zm0-1.096c-.015-.045.222-.252.281-.208.015.015.015.045.015.119v.119c0 .044-.06.059-.192.059-.03 0-.06-.03-.104-.09zm.03 1.94c-.075-.014.074-.162.133-.162.044.015.03.044-.015.118-.015.03-.06.045-.119.045zm.118.845c-.119.015-.133-.03-.133-.044 0-.089.059-.119.163-.104.014.015.03.03.03.045 0 .059-.016.089-.06.103zm-.119.786c.075 0 .104.015.119.03-.015.029-.044.044-.119.044zm.06-3.053l.133-.177c.074-.178.089-.252.163-.252.119 0 .178.044.178.133 0 .104-.148.178-.252.282-.015.015.104.059.06.133-.045.104-.09.119-.164.044-.059-.074-.103-.118-.118-.163zm0 3.912c0-.044.015-.089.059-.104l.06.045c0 .03-.016.06-.045.089-.03.03-.06.03-.074-.015zm.015.904c0-.074.03-.148.103-.148 0 .103-.03.148-.103.148zM10.084.8c-.016-.015-.03-.015-.03-.03 0-.074.059-.118.192-.118 0 .074-.089.193-.163.148zm.044.83c-.045-.015-.045-.03-.03-.045.015-.014.044-.03.089-.03v.075zm.044 2.533c-.015-.014-.015-.014-.015-.03 0-.073.163-.192.223-.147.133.074-.134.222-.208.177zm.015-2.904l.03-.03.03.03-.03.03zm.03 3.749c-.045-.015-.03-.044.03-.119.014-.03.044-.044.088-.044 0 .133-.044.193-.118.163zm.014-3.2c-.014-.015-.014-.015-.014-.03 0-.06.148-.163.192-.148.045.044.06.089.015.133-.06.045-.119.06-.193.045zm-.014 4.03c-.015-.06.03-.163.088-.163.015 0 .03 0 .045.015.03.014.03.044 0 .103-.03.045-.06.074-.089.074-.015 0-.03-.014-.044-.03zm.074 2.46c.03-.015.059 0 .074.029-.015.044-.045.074-.104.074 0-.044.015-.089.03-.104zM10.276 1.2c-.015-.044.044-.06.148-.06 0 .06-.015.105-.06.12-.029.014-.059-.015-.088-.06zm.015 6.342c-.119-.045.074-.045 0 0zm.044-7.127c-.06-.045-.06-.089 0-.133.045-.045.074-.03.089.014.015.104 0 .149-.044.149-.015 0-.03-.015-.045-.03zm0 1.896c-.133-.014.089-.177.163-.133.074.044-.044.178-.163.133zm0-.296c.03 0 .045.015.045.03.014.03 0 .044-.045.044zm.06 1.763c-.015-.015-.03-.03-.03-.044 0-.074.059-.119.178-.119 0 .163.163 0 .177.104.015.104-.015.148-.118.148a.446.446 0 0 1-.208-.089zm0 .845c-.045-.015-.03-.045.014-.119.03-.03.074-.044.134-.044 0 .118-.045.178-.149.163zm.014.83c-.015 0-.015-.015-.015-.03 0-.045.119-.119.163-.104.015.015.015.03.015.045 0 .059-.104.133-.163.089zm.015 1.703c-.074-.014-.074-.044 0-.059h.06c.073.015.073.045 0 .06a.045.045 0 0 1-.06 0zm.015-3.837c-.045-.045-.045-.074 0-.089a.458.458 0 0 1 .118-.03c.134.015.193.045.193.09a.171.171 0 0 1-.074.103c-.074.044-.148.03-.237-.074zm0 2.978c-.015 0-.015-.015-.03-.03 0-.014.045-.044.134-.074 0 .104-.03.149-.104.104zm.03-5.32c-.06-.014.059-.207.118-.162.03.03.03.074 0 .118-.03.06-.074.075-.119.045zm-.015 6.965c-.015-.03 0-.06.044-.074.045-.03.06-.015.074.03.015.044 0 .073-.03.088s-.059 0-.088-.044zm.074-6.46c-.015-.015-.015-.015-.015-.03 0-.044.06-.074.163-.074 0 .089-.015.133-.045.148-.044.015-.074 0-.103-.044zm.015 1.022a.322.322 0 0 1 .251-.163c.045 0 .074.015.09.06 0 .133 0 .133-.178.133h-.134zm.014 1.734c0-.075.06-.163.163-.163.015.014.03.03.03.044 0 .074-.06.119-.193.119zm.015-2.579c.045 0 .06.015.06.03s-.015.03-.06.03zm.074.341c-.015-.015-.03-.03-.03-.044 0-.074.075-.104.223-.104 0 .119-.089.208-.193.148zm-.015 3.912c-.044-.015-.03-.045.015-.119.015-.03.06-.044.119-.03.074.016-.06.193-.134.149zm0-.83c0-.133.06-.178.134-.163.015.015.015.03 0 .074-.045.06-.09.09-.134.09zm.03 2.504h.06v.03h-.06zm.03.845c0-.03.014-.06.044-.074.03-.015.045-.015.06.03 0 .029-.015.059-.03.073-.03.015-.06 0-.074-.03zm.044-5.438a.265.265 0 0 1 .148-.133c.104.014.119.044.074.118-.044.045-.089.074-.133.074-.03 0-.06-.015-.089-.059zm.03-2.919c-.045-.118-.045.074 0 0zM10.75.46c0-.044.03-.089.074-.089 0 .045-.03.074-.074.104zm0 .83h.06v.03h-.06zm.06 2.563c-.045-.014-.03-.059.044-.118a.158.158 0 0 0 .074-.045l.044.03c0 .104-.104.178-.163.133zm0-3.2c-.03-.03-.03-.045.014-.06.03-.014.06 0 .074.015.03.03.015.06-.03.075-.014.014-.03 0-.059-.03zm.029.533c-.015-.014-.03-.03-.03-.044 0-.045.03-.074.09-.104.073-.03.103-.03.118 0 .014.015.014.03.014.045 0 .044-.014.074-.059.103a.206.206 0 0 1-.133 0zm0 2.356c-.015-.015-.03-.03-.03-.06 0-.044.06-.073.178-.103a.437.437 0 0 0 .148-.044c.015-.015.03 0 .045.015.03.03-.03.074-.163.148-.074.044-.134.059-.178.044zm0 1.17c-.03-.014-.015-.044.044-.103l.09-.074.029.03c-.045.103-.104.163-.163.148zm0 .786l.03.03h-.06zm-.015.889c.015-.015.03-.03.074-.03-.015.015-.03.03-.074.03zm.119.711c.014 0 .03.015.059.03a.193.193 0 0 1-.178.104c0-.06.044-.104.119-.134zm-.075.963c-.014 0-.014 0-.014-.015 0-.059.044-.088.118-.088.015 0 .015 0 .015.014.015.045.015.074-.015.09-.015.014-.06.014-.104 0zm.03-2.682c.015-.03.03-.044.06-.03.029 0 .044.016.044.045 0 .03-.03.045-.104.045zm.045-1.363c-.045-.015-.045-.03 0-.059a.168.168 0 0 1 .118-.044c0 .074-.044.118-.118.103zm0-2.326c-.015-.044.074-.148.133-.148.015 0 .03.015.044.03.015.044-.014.088-.074.133-.015.015-.059 0-.103-.015zm0-.756l.03-.03.029.03-.03.03zm.074 1.29c-.045-.03-.06-.06-.045-.075.06-.088.134-.118.208-.103.014.015.014.103.059.089.03-.015.044-.015.06-.015l.029.03c0 .162-.104.177-.311.073zm0 .459a.111.111 0 0 1 0-.134c.014-.044.044-.074.089-.074.103 0 .177.045.192.119.03.104-.015.163-.118.178-.074.015-.119-.015-.163-.09zm0 1.63c-.015-.015-.03-.015-.03-.03 0-.06.06-.089.163-.089 0 .133-.044.163-.133.119zM11.047 6c-.045-.015-.045-.045 0-.074.044-.03.073-.045.103-.045.044.03.044.06.015.09-.045.044-.074.044-.119.029zm-.016-.83c0-.074.075-.133.149-.133 0 .089-.045.133-.149.133zm.045 2.519c-.045-.015-.045-.03-.015-.06.045-.014.074-.029.104-.014.03.015.03.044 0 .074a.094.094 0 0 1-.09 0zM11.09.356c.03-.045.059-.06.103-.045.015.015.015.045-.03.06-.044.03-.058.03-.073-.015zm.044 2.889c0-.193.104-.237.178-.193.044.03.06.06.044.104-.014.06-.088.089-.222.089zM11.15.533c-.015-.03 0-.044.03-.059.014-.015.044 0 .059.03s0 .044-.03.059-.044 0-.059-.03zm.089 3.393c-.015-.059-.015-.103.015-.148-.045-.059-.045-.103-.03-.118.119-.119.311-.311.385-.311.104 0 .119.03.045.103-.104.074-.163.134-.208.178a.455.455 0 0 0-.074.193c-.015.089-.059.118-.133.103zm.03-2.518c0-.03.03-.06.074-.074.014.03.014.059 0 .074-.015.014-.045.014-.074 0zm0 3.363c-.03-.015-.03-.03 0-.074.03-.03.059-.045.074-.045.044 0 .059.015.03.06-.03.044-.06.074-.104.059zm0 1.69c-.045-.016-.045-.045 0-.09.044-.06.074-.074.103-.06.045.03.045.06 0 .105-.03.044-.059.059-.103.044zm.014-.86c-.044-.045.06-.163.119-.119.06.045-.06.178-.119.119zm.09-3.675c-.045 0-.075-.03-.09-.074 0-.06.134-.118.208-.104l.03.06c0 .074-.045.118-.149.118zm-.075 5.393c-.03-.103 0-.163.074-.163.015 0 .03.015.045.03 0 .015-.015.045-.045.089-.044.074-.059.089-.074.044zm.015.83c.015-.03.03-.044.06-.044-.016.03-.03.044-.06.044zm0-5.793c0-.045.06-.074.163-.089a.41.41 0 0 1 .193 0c.014 0 .014 0 .014.015 0 .03-.059.074-.163.133-.074.045-.133.03-.177-.015zm.178.207c.015-.015.03-.015.059-.015 0 .119-.044.178-.148.178 0-.074.03-.118.089-.163zm-.045 2.623v.044h-.03zm.03-2.267c-.133-.045.089-.193.163-.133.104.044-.045.177-.163.133zm-.015 3.17c-.015-.014 0-.059.074-.133.045-.015.074 0 .09.015 0 .089-.045.133-.15.133l-.014-.014zm0-1.659c0-.074.03-.133.104-.178l.03.03c.014.015 0 .06-.06.119a.113.113 0 0 1-.074.03zm.104-3.348c-.06-.015-.06-.045.015-.074a.28.28 0 0 1 .118-.03c0 .089-.044.118-.133.104zm0-.534c0-.06.015-.103.074-.103 0 .074-.03.103-.074.103zm.06 1.037c-.134-.014.088-.177.162-.133.045.015.045.06 0 .104-.044.044-.104.044-.163.03zm.014 2.208c-.06-.074-.015-.104.118-.104 0 .06-.059.149-.118.104zm0 .208c-.104-.045.104-.045 0 0zm.03.844c-.03-.015-.045-.044-.03-.06.015-.029.044-.044.074-.058.044 0 .074.014.089.03 0 .103-.045.132-.133.088zm0-2.756c-.015-.015.014-.074.118-.148.074-.044.104-.044.119 0 .014.133-.045.193-.149.193-.03 0-.059-.015-.088-.045zm.059 5.32c-.045-.015-.045-.03-.03-.06.015-.015.03-.015.074-.015v.074zM11.713.221c.015 0 .163-.163.207-.103.045.103-.03.163-.207.163zm.044 3.69c-.103-.045.104-.045 0 0zm.045-2.8c-.03-.016-.03-.03 0-.06.03-.044.06-.044.089-.015-.015.045-.045.06-.09.074zm.06-.342c-.016-.014-.03-.03-.03-.044l.044-.044h.119c.088.014.088.044.014.074a.18.18 0 0 1-.148.014zm-.016 2.875c-.044-.045.149-.222.223-.163.103.104-.119.222-.223.163zm0 1.689c0-.074.104-.207.119-.163.044.044.06.074.06.089-.016.044-.075.074-.179.074zm.015-.86c-.015-.103.03-.148.163-.148 0 .119-.044.178-.118.178-.015 0-.03-.015-.045-.03zm.074-3.23c.015-.014.03-.029.074-.029-.014.015-.03.03-.074.03zm.06.475l.177-.148c.03 0 .045.03.03.074 0 .044-.015.074-.03.089a.316.316 0 0 1-.177.044zm.044 1.54c0-.044.03-.059.074-.073v.074zm.074.712c.045 0 .074.015.089.044-.044.074-.104.104-.148.104 0-.074.015-.118.06-.148zm-.03.948c-.014-.03.015-.074.075-.133.03 0 .059.015.074.03 0 .088-.045.133-.119.133-.015 0-.015-.015-.03-.03zm.06-4.474c-.015-.03 0-.06.03-.075.044-.03.073-.03.088.015.015.03 0 .06-.044.074-.045.03-.06.03-.074-.014zm.059.755c.03-.044.06-.089.104-.104.044.045-.06.178-.104.104zm.03 2.119c-.074 0-.074-.03 0-.074.03-.015.089-.015.163-.015 0 .074-.06.104-.163.089zm0-2.4c.03-.06.059-.06.089.014-.015.015-.045.03-.104.03 0-.015 0-.03.015-.044zm.059 1.14c-.03 0-.045-.014-.06-.044l.03-.03c.015.015.03.045.03.075zm.044 2.356a.094.094 0 0 1 .09 0c.014.015.029.045.014.074-.03.06-.089.09-.163.09 0-.075.015-.12.06-.164zm-.044-3.007c.044 0 .074.014.089.03-.015.029-.045.044-.09.044zm0 2.267h.06v.03h-.06zm.148-1.66c-.044 0-.06-.015-.06-.06 0-.044.03-.058.104-.058.03.014.045.044.06.059-.03.044-.06.06-.104.06zM12.424.83c-.015-.015 0-.074.074-.163.074-.104.119-.119.148-.074.015.014-.03.074-.103.177-.06.06-.104.075-.119.06zm.06 2.504c-.045.118-.045-.104 0 0zm.014-3.275v.03h.03v-.03zm0 4.075h.03v.03h-.03zm.03.844c-.015-.088.03-.133.133-.133a.25.25 0 0 1-.044.148c-.03.045-.06.045-.09-.015zm.089-1.452c-.06-.014-.06-.044-.015-.089.03-.03.074-.044.133-.03.06.016.06.045.015.09-.03.044-.074.044-.133.03zm.06 1.126c-.045 0-.03-.03.029-.103l.089-.074c.044-.015.059 0 .059.044 0 .104-.06.148-.178.133zm.029-2.963c-.03-.015-.03-.03 0-.074.03-.03.059-.03.074 0 0 .044-.03.06-.074.074zm-.015 2.104c.015-.044.044-.06.089-.074-.015.044-.045.06-.09.074zm.163-2.045c0-.03.015-.044.03-.059.014.015.03.015.03.03-.016.015-.03.03-.06.03zm.06 2.504c-.016 0-.016 0-.016-.014 0-.075.045-.119.149-.119 0 .119-.045.163-.134.133zm0 .815c-.016-.059.044-.089.147-.089 0 .09-.03.134-.103.134-.015 0-.03-.015-.045-.045zm.103-3.185c-.015-.015-.015-.015-.015-.03 0-.044.045-.074.119-.104.074-.014.118-.014.133.03.015.074-.015.119-.104.148-.044.015-.089 0-.133-.044zm.074 2.015a.134.134 0 0 1 .089-.09c.015.03.015.06 0 .075s-.045.03-.089.015zm.03-.267c-.119-.044.074-.044 0 0zm.014-2.37c.015-.015.03-.03.06-.03-.015.03-.045.044-.06.03zm0 3.422h.03v.03h-.03zm.208-1.245c-.074 0-.089-.03-.06-.103a.156.156 0 0 1 .134-.074c.03 0 .044.014.06.044.014.03.014.06 0 .074a.181.181 0 0 1-.134.06zm-.045.92c0-.105.09-.179.163-.179 0 .119-.059.178-.163.178zm.03.77h.133c0 .103-.03.118-.103.059zm.119-3.023c-.045-.03-.045-.06 0-.074a.319.319 0 0 1 .148-.03c0 .119-.045.148-.148.104zm.088 2.711c0-.059.03-.133.09-.133.029 0 .044.015.044.045 0 .059-.045.088-.134.088zm.178-1.244c-.015-.015-.015-.045.015-.09.045-.029.074-.029.089.016a.171.171 0 0 1-.104.074zm.09 1.674c-.03-.015-.045-.03-.03-.044.03-.074.074-.119.148-.119 0 .133-.045.178-.119.163zm.177-1.911c-.03-.015-.044-.045-.03-.074.06-.074.134-.104.208-.09.074.016-.104.208-.178.164zm.03 1.422c.044 0 .074.015.089.03 0 .06-.045.089-.149.089 0-.045.015-.09.06-.119zM15.585 7.69c0 .192.103.37.31.548.223.163.416.252.608.252h.282a.96.96 0 0 1 .148.03h1.319c.044-.06.074-.075.118-.03.03.015.104.03.222.03h1.097c.06 0 .104-.09.148-.09 0 0 .03.015.074.03h.074c.148-.074.252-.148.311-.207.178-.163.267-.237.267-.252.104-.163.148-.267.148-.282 0-.044-.03-.148-.03-.192.015-.133.03-.178.03-.133-.015-.045-.03-.06-.03-.06a.624.624 0 0 1 .03-.074v-.207c0-.104 0-.163.015-.178.015-.06.015-.089.015-.104 0-.104-.015-.148-.03-.104.03-.044.045-.074.03-.118 0-.074-.045-.252-.045-.326h.015c.015-.104.045-.252.06-.445.014-.414-.075-.622-.06-.726l.06-.207c.014-.03 0-.074-.045-.133-.015-.015 0-.074.044-.178a.54.54 0 0 0 0-.222 1.185 1.185 0 0 1-.059-.223c0 .015.015-.044.06-.207.014-.044 0-.119-.015-.237a1.074 1.074 0 0 1 .03-.43c.014-.104.029-.178.014-.222a.628.628 0 0 0-.03-.163l.03-.03c.015-.014.015-.014.015-.03h-.104v-.147c.045 0 .074-.03.09-.075a.206.206 0 0 0 0-.133c-.045-.104-.06-.178-.045-.252.014-.089.03-.222.014-.415-.014-.177-.014-.266-.014-.281 0-.089 0-.148.014-.178-.044-.104-.074-.133-.118-.089-.015.06-.015.104 0 .134 0 .074-.104.118-.163.103a.27.27 0 0 1-.148-.163c-.06-.118.148-.207.163-.222l-.03-.03a.564.564 0 0 0-.281.06c-.06-.015-.163-.149-.104-.208.089 0 .148.015.163.06.163-.03.237-.06.222-.104 0-.119 0-.163-.015-.119.015-.044.015-.074 0-.104s-.03-.044-.044-.044c-.015.015-.045.015-.074.015-.06 0-.104-.015-.134-.045-.059-.059-.059-.103-.014-.133.074-.044.103-.06.103-.074-.015-.044-.207-.074-.266-.133-.06-.06-.134-.163-.208-.119h-.43a.113.113 0 0 0-.074-.03c-.059.045-.103.075-.118.104a.566.566 0 0 1-.133.134c-.015.014-.045 0-.075-.03-.074-.074-.133-.133-.163-.178-.044-.044-.163-.03-.326.045-.088.03-.148.03-.177.014-.074-.059-.104-.089-.119-.089-.074 0-.118.015-.133.06-.015.015 0 .059.03.103.03.03.014.06-.03.09a.135.135 0 0 1-.148 0c-.074-.045-.104-.075-.104-.12.015-.058.03-.088.044-.088h.149V.015h-.37c-.045.06-.149-.03-.193.074-.015.074-.134.118-.149.104-.014-.015-.03-.045-.014-.074 0-.015.074-.06.074-.104-.045 0-.149.104-.208.06-.044-.045-.074-.06-.089-.06C16.977 0 16.933 0 16.918 0c0 .119.193.296.133.34-.103.06-.177.045-.251-.058-.015-.015-.015-.045 0-.09.03-.073.014-.133-.045-.162-.03-.015-.089-.015-.178.014-.059.015-.237.193-.34.193l-.104-.06c-.37.371-.37.356-.43.46-.03.074-.03.104 0 .104.133.015.208.03.208.074 0 .06-.06.089-.163.089-.075-.045-.119-.045-.134-.03-.015.045-.015.104-.015.208 0 .177.193.222.193.237-.015.074-.193.118-.193.192v.208c.074.015.104.059.09.118-.06.119-.09.163-.09.119v.518c0 .074.252.104.252.178 0 .06-.044.09-.133.09-.045 0-.104-.06-.148-.06v.37c0 .045.192.045.148.148-.133.06-.148 0-.148.386v.163c0 .014.03.074.03.089.014.044-.03.103-.03.148v.385c0 .06.222.06.222.118 0 .045-.074.075-.222.075v.326c0 .014.03.044.103.074.104.014-.133.089-.133.281.015.133.045.222.06.296 0 .06-.06.238-.06.341 0 .074.015.148.03.208 0 .03-.015.059-.03.074.015.03.045.03.089 0 .015 0 .163.089.163.133 0 .045-.06.074-.193.074-.044-.044-.074-.074-.059-.074v.34c.089.105.133.149.119.164l-.119.118v.549c0-.015.06.03.163.103.03.03.03.06.015.074-.015.03-.045.045-.089.045zm-.03-.06c.015 0 .015 0 .015-.014 0-.015 0-.015-.015-.015-.044 0-.044.015 0 .03zm.118-3.674c-.014-.015-.014-.03-.014-.044.133 0 .192.044.192.118 0 .03-.015.045-.03.045-.059 0-.103-.045-.148-.119zm.015-1.896c0-.03.015-.045.045-.045.015.015.03.03.03.045 0 .044-.03.059-.075.059zm.074 3.23c-.014-.045-.014-.075 0-.104.163.015.252.074.252.207a.4.4 0 0 1-.252-.103zm-.014.592c-.075-.03-.06-.074.014-.133.015-.015.06-.015.104.03.045.044.045.074 0 .103-.03.03-.074.03-.118 0zm.177-2.326c-.103.015-.237-.119-.163-.193.015-.014.06 0 .163.06.045.014.06.044.06.059 0 .044-.015.06-.06.074zm-.074 3.556c-.044 0-.089 0-.089-.044 0-.015.015-.03.03-.03.044 0 .06.03.06.074zm-.03-4.904c-.029-.045-.014-.09.045-.104.045-.015.089-.015.104.03.015.03-.015.059-.06.088-.044.015-.074.015-.088-.014zm.045 4.445c-.044-.03-.06-.074-.044-.119.014-.044.044-.074.089-.074.014 0 .014 0 .03.015l.147.133c-.03.104-.103.119-.222.045zm0-5.082c-.06.118-.06-.075 0 0zm-.03 3.17c.03-.044.06-.059.104-.059.045 0 .09.03.104.074.015.03.015.06 0 .089-.015.03-.03.044-.074.044zm.06-3.037c-.03 0-.03-.015-.015-.045l.044-.059a.251.251 0 0 1 .149 0c.059.03.044.06-.045.104a.206.206 0 0 1-.133 0zm-.015 1.215c-.015-.03 0-.045.044-.06.074 0 .193.045.193.104 0 .074-.044.104-.133.074-.045-.044-.09-.074-.104-.118zm.06 1.333c0-.03.044-.044.118-.03.074.016.118.03.133.045a.236.236 0 0 1-.104.134zm.044-3.067c-.045-.074-.03-.118.014-.133.104-.03.149 0 .149.104 0 .03-.03.059-.074.074-.045.015-.075 0-.09-.045zm0 1.156c.044 0 .089.03.163.074.044.03.044.06.03.089-.045.044-.09.06-.12.044-.044-.014-.059-.074-.073-.148zm.118 3.852C16 6.193 16 6.12 16 6.016c.015-.045.045-.03.119.03.044.029.06.058.06.088 0 .045-.03.06-.075.06zM16.06.623c-.015-.03.015-.045.059-.06.074-.015.193.03.178.089-.015.044-.074.074-.148.06a.252.252 0 0 1-.09-.09zm0 4.978a.094.094 0 0 1 0-.09c.015-.044.044-.058.059-.044.074.074.133.119.178.149.015.03-.015.074-.09.118-.044.015-.103-.03-.147-.133zm.015-1.882c-.119-.044.074-.044 0 0zm.163-1.674c-.015.015-.193-.074-.149-.178.015-.045.045-.074.09-.074.014 0 .014 0 .029.015l.148.148c-.044.044-.074.074-.118.089zm0 4.934c-.119-.015-.134-.06-.134-.178.119 0 .267.118.252.163-.015.015-.06.03-.118.015zm-.104-1.852c.015-.06.044-.09.089-.09.103.015.148.03.163.075a.198.198 0 0 1-.119.103.35.35 0 0 1-.133-.088zm.03-1.853c-.015-.014-.03-.044-.015-.074 0-.03.014-.044.044-.03.074.016.133.06.178.104-.015.045-.03.09-.074.104a.274.274 0 0 1-.134-.104zm.074.564c-.03-.015-.045-.03-.03-.06 0-.03.015-.044.044-.044.045 0 .06.03.06.104zm.03-2.342c-.075-.074-.075-.133.014-.148.015 0 .074.015.148.06.06.044.06.074 0 .103-.06.045-.118.03-.163-.015zM16.25 4.49c.074 0 .267.104.223.178-.045.06-.09.074-.149.03-.044-.015-.059-.06-.074-.133zm.163-1.63c-.118.015-.163-.059-.148-.118 0-.044.015-.06.06-.06.118 0 .177.03.177.105 0 .044-.03.059-.089.074zm-.133 3.63c-.03-.014-.015-.044.044-.073.045-.03.09-.03.119 0 .03.044.015.059-.044.074-.06.015-.104.015-.119 0zm.044-.548c-.044-.044-.044-.074-.03-.103.016-.045.06-.045.105-.03.118.045.177.133.177.237-.103 0-.192-.03-.252-.104zm-.03-1.866c.06-.075.134-.075.223-.015.044.03.044.074.03.118-.015.045-.06.06-.104.045zm0 2.237h.03l-.03.03zm.09-4.06c-.03-.015-.03-.044-.015-.06.015-.029.03-.029.06-.014.118.044.177.104.177.148a.364.364 0 0 1-.222-.074zm0-.474c-.015-.044.015-.074.089-.119.03.015.044.03.059.06-.074.089-.119.103-.148.059zm0 3.63c-.015-.074.015-.104.074-.104.133 0 .207.06.207.163 0 .03-.015.045-.044.06-.045.044-.119 0-.237-.119zm.074-4.904a.158.158 0 0 1-.045-.074c-.014-.045 0-.06.015-.074.074-.045.311.103.208.163-.045.044-.104.03-.178-.015zm-.015.518c0-.044.03-.074.089-.089.044.015.044.045 0 .06a.21.21 0 0 1-.089.03zm.148 2.667c-.104 0-.118-.089-.118-.163.163 0 .222.03.207.104-.015.03-.044.045-.089.06zm-.104 3.616c-.03-.015-.03-.045 0-.06.03-.03.06-.03.09-.014.044.014.044.044 0 .059-.03.015-.06.03-.09.015zm.03-.563c-.015-.03-.015-.06 0-.075a.113.113 0 0 1 .074-.03.486.486 0 0 0 .119.09c.03.03.03.059-.015.089-.074.074-.134.059-.178-.074zm.03-1.764c-.074-.059-.06-.103.03-.118.073-.015.118 0 .162.044.045.045.03.09-.044.134-.045.014-.09-.015-.148-.06zm-.015-1.926l.03-.044c.044.044.251.06.251.118 0 .03-.03.045-.103.045-.06 0-.104-.015-.119-.03zm.044-1.2c-.044-.044.09-.118.148-.118 0 .088-.044.133-.133.133l-.015-.015zm.03-.593c-.015-.03-.015-.059 0-.074.015-.03.044-.044.06-.044.014 0 .029.015.058.03l.104.118c-.06.104-.133.089-.222-.03zm-.015 3.142c.045-.045.074-.075.119-.09.103.104.163.164.148.164-.09.103-.178.074-.267-.074zm.06 1.881c-.09-.044-.104-.089-.045-.148.03-.015.089 0 .178.06.103.059.118.103.044.118-.06.015-.118.015-.178-.03zm0-3.748c-.015-.015-.015-.045-.015-.06.177 0 .266.045.266.134 0 .059-.044.074-.133.044-.045-.015-.089-.06-.119-.118zM16.724.8a.081.081 0 0 1-.044-.074c-.015-.044 0-.06.044-.074.03 0 .075.03.149.074s.074.089 0 .133c-.03.015-.074-.014-.149-.059zm-.014 4.934c-.03-.03-.03-.06-.015-.074.015-.015.044-.03.089-.015.074.015.133.045.163.119.044.074 0 .103-.104.103-.03 0-.074-.044-.133-.133zm.014-1.822c-.014-.03-.014-.06-.014-.09.014-.014.03-.014.059.016.074.044.133.059.178.074.044.059-.03.133-.104.133-.044 0-.074-.045-.119-.133zm0-1.882c.015-.015.03-.03.075-.03-.015.015-.03.03-.075.03zm.104 3.274c-.104-.074-.104-.118-.03-.133.104-.044.386.104.223.163-.074.03-.134.015-.193-.03zm-.03-3.14c-.014-.075.06-.104.193-.104 0 .103-.06.148-.163.133-.015 0-.015-.015-.03-.03zm.06 1.303c-.09-.06-.09-.104-.015-.148.03-.015.06-.03.074-.015.045.015.06.03.074.045.074.074.089.118.03.148a.173.173 0 0 1-.163-.03zm-.06 3.645c0-.044.06-.06.164-.044.074.014.074.03.014.074a.144.144 0 0 1-.133.014zm.06-4.193c-.015-.045.015-.089.089-.163 0-.015.015 0 .059.03 0 .014.178.088.163.163-.015.044-.044.074-.119.059l-.088-.06c-.045 0-.075-.014-.104-.03zm.252 1.896c-.134.06-.341-.103-.223-.163.104-.059.193-.014.282.119zm-.208 1.793c-.074-.074-.074-.133 0-.148.09-.015.163.015.237.119-.014.03-.044.044-.059.059-.074.015-.133.015-.178-.03zm.267-5.437c-.133.014-.252-.104-.237-.149a.112.112 0 0 1 .06-.03.388.388 0 0 1 .221.03c.104.06.09.104-.044.149zm-.207.488c-.015-.074-.015-.118.03-.133.058 0 .177.045.118.089-.015.03-.03.044-.045.044-.059.045-.089.045-.103 0zm.074 2.638c-.09-.074-.09-.134-.015-.163.044-.015.31.148.178.192-.074.03-.119.015-.163-.03zm-.045 1.778c-.015-.03 0-.06.015-.09.015-.014.03-.014.074 0a.31.31 0 0 1 .148.12.2.2 0 0 1-.103.088c-.045-.014-.09-.044-.134-.118zm.252-3.6c-.133 0-.207-.03-.207-.164.044 0 .118.03.222.09.015.029 0 .059-.015.073zm-.178 3.096c-.015-.015-.015-.044-.015-.06 0-.044.045-.058.119-.044.089.015.148.06.163.104.044.074.015.104-.104.104-.074 0-.118-.03-.163-.104zm.015 1.808c-.044-.045-.044-.06 0-.074.03-.015.06 0 .074.014.03.03.03.06-.015.075-.015.014-.044 0-.059-.015zm.015-6.816c-.015-.03-.015-.06 0-.074.03-.044.06-.044.089-.03.074.074.133.104.148.119.06.06-.045.104-.104.104-.044 0-.089-.045-.133-.119zm.015 3.17a.094.094 0 0 1 0-.088c.015-.03.03-.03.059-.015a.602.602 0 0 1 .163.089c.044.06.015.104-.089.119-.06 0-.104-.03-.133-.104zm.266 3.23c-.103.075-.34-.103-.222-.162.074-.045.282.104.222.163zm-.222-1.985c.222 0 .326.045.282.119-.015.06-.074.074-.149.06a.177.177 0 0 1-.133-.12zm.148-2.993c-.118.015-.148-.059-.148-.163.178 0 .267.03.252.104-.015.045-.044.06-.104.06zM17.2 3.2c.014-.03.03-.044.059-.03a.112.112 0 0 1-.06.03zm.088-1.763a.135.135 0 0 1-.044-.104c.133 0 .222.03.252.075-.045.103-.104.103-.208.03zm-.03 3.097c-.029-.074.045-.074.208 0l.09.044c0 .015-.03.045-.09.09-.03.014-.074 0-.118-.045zm.193 1.926c-.192 0-.237-.074-.192-.133.015-.015.044-.03.089-.015.133.015.222.074.178.133-.015.015-.045.03-.075.015zm-.148-3.719c.015-.06.03-.104.074-.118.104.044.163.088.178.118.015.045-.015.06-.104.06-.074 0-.118-.015-.148-.06zm.09.474c.044 0 .058.015.073.06-.015.044-.059.059-.118.059 0-.045.015-.09.044-.119zm-.03-2.311C17.318.83 17.333.8 17.437.8c.074 0 .118.03.163.074 0 .045-.03.074-.074.09-.104-.016-.149-.03-.163-.06zm0 4.978c-.015-.044-.015-.074 0-.089.014-.03.03-.044.074-.03.059.016.118.06.192.134.045.044-.059.119-.133.119-.06 0-.104-.045-.133-.134zm.03-1.837c-.016-.015-.016-.045-.016-.06.015-.014.03-.029.06-.029.133 0 .207.044.207.148-.015.045-.074.06-.148.06-.03-.015-.06-.045-.104-.119zm.014-1.882l.06-.059c.073.06.133.104.177.118.015.045 0 .075-.044.09-.045.014-.074 0-.104-.03zM17.481.46c-.015-.015-.03-.059-.044-.103-.015-.045 0-.06.044-.06.015 0 .074.015.178.06l.089.044c0 .03-.015.06-.06.074-.088.045-.162.03-.207-.015zm-.044 6.727c-.015-.044 0-.06.044-.06.074 0 .193.06.193.105 0 .074-.045.103-.119.074a.45.45 0 0 1-.118-.119zm.726-.904c-.119-.015-.356.045-.4.03l-.149-.148.09-.074v-.563c0-.03-.03-.03-.09 0-.014 0-.03-.015-.044-.03l-.133-.119v-.074c.044 0 .089.015.133.06.015.014.044 0 .074-.045.045-.104.074-.192.06-.267-.045-.074-.104-.118-.149-.162 0-.104.208-.356.163-.43-.044-.074-.074-.119-.074-.134 0-.014.089-.088.089-.133v-.518c0-.015-.015-.03-.06-.03h-.088c-.045-.045-.09-.089-.104-.119.015-.044.045-.059.074-.059.045.03.074.045.104.03.044-.015.074-.03.074-.045V3.2c-.104-.074-.148-.148-.148-.222a.112.112 0 0 1 .06-.03l.058.03c.03.015.045-.03.03-.163v-.192c-.044-.045-.044-.119 0-.223.03-.089.06-.133.074-.133h.696c0 .015-.014-.03-.044-.104-.015-.044 0-.074.044-.089.104-.014.178 0 .223.074.044.074-.119.134-.119.193 0 .015.03.06.03.104 0 .015-.03.074-.03.089v.252c0 .03.015.059.045.074.089.044.133.059.148.059.133.074.148.118.074.163a.144.144 0 0 1-.133.015 3.264 3.264 0 0 1-.119-.074c0 .03 0 .074.015.118v.104c0 .015-.03.074-.03.118 0 .045.193.134.193.178 0 .045-.06.074-.178.104-.015 0-.015.03-.015.104 0 .059.134.252.074.326-.044.074-.074.118-.074.133v.533c0 .03.03.045.09.03.044-.015.058-.03.073-.03l.074.06c.074.044.09.089.045.118a.396.396 0 0 1-.163.03c-.045 0-.074-.045-.119-.045v.252c.134.03.193.09.193.193 0 .074-.06.118-.193.148.03.03.045.074.03.133-.015.09-.015.119-.03.09 0 .044.134.118.119.177-.045.03-.09.044-.134.06-.014.044-.03.073-.03.103-.014.104-.014.193-.014.252l.03.06v.014c0 .06-.045.089-.134.074-.03-.015-.044-.015-.044-.03l-.148-.148zm-.593.326c.163 0 .237.045.237.134 0 .074-.06.088-.178.044-.044-.044-.089-.074-.103-.119zm.044-5.423c-.014-.014-.014-.044-.014-.059.192 0 .296.03.296.089l-.03.044c-.118.104-.207.09-.252-.074zm.015.608c.015-.045.06-.06.104-.074.044.015.044.03 0 .059a.21.21 0 0 1-.089.03l-.015-.015zm.074-1.111c-.014-.03 0-.045.03-.06.06 0 .133.015.178.03.074.03.104.06.104.074 0 .03-.03.06-.09.104-.029.015-.073 0-.118-.045zm0 4.06V4.8h.03v-.06zm.03 2.755c.015-.044.044-.059.06-.059l.118.06c.044.014.03.044-.015.073-.06.015-.119 0-.163-.074zm.089-.489c0-.03.015-.044.03-.059.088.044.163.06.222.06.089.029.074.059-.045.103-.03.015-.059.015-.089.015-.059-.045-.103-.074-.118-.119zm.089-4.874c-.015-.015-.03-.015-.03-.03 0-.03.015-.06.06-.074.044-.015.088-.015.118 0 .015 0 .015.015.015.03 0 .044-.119.088-.163.074zm.192 4.489c-.192-.015-.222-.104-.222-.163a.21.21 0 0 1 .09-.03c.177 0 .295.119.236.163a.214.214 0 0 1-.104.03zm-.177-5.156l.03-.03.029.03-.03.03zm.163.178c-.06.044-.149-.03-.134-.074l.06-.03c.074-.03.118-.03.133 0 .015.015-.015.06-.06.104zm-.03-.549c-.089-.074-.104-.133-.03-.163.074-.014.252.045.252.119 0 .06-.044.089-.118.089a.135.135 0 0 1-.104-.045zm.06-.577c-.045-.045-.03-.075.044-.075.103 0 .31.06.207.163-.044.03-.074.045-.104.045a.444.444 0 0 1-.148-.133zm-.016 6.815c-.014-.059.015-.089.119-.089.03 0 .074.045.148.119.015.074-.015.104-.118.104-.045 0-.09-.045-.149-.134zm.104-.489c-.06-.059-.03-.103.089-.118.044 0 .089.03.148.103.045.075.015.104-.089.119-.03 0-.074-.03-.148-.104zm.015-5.023c-.015-.014-.015-.044-.015-.059.148 0 .222.03.222.104 0 .015 0 .03-.014.044-.09.104-.149.074-.193-.089zm.074-.474c-.03-.044-.03-.074.015-.089.015 0 .03.015.074.03.104.044.163.06.163.074.015.06-.015.089-.119.089-.044 0-.089-.03-.133-.104zM18.37.8c.045-.104.148-.104.311 0l.03.06c0 .059-.148.148-.193.103zm.133 6.312c.06.015.09.015.09 0 .044-.044.073-.044.088-.03.045.015.06.045.074.09.03.073-.03.118-.163.133-.089.014-.133-.03-.133-.149zm.045-6.697c-.03-.015-.045-.045-.06-.089-.014-.044 0-.06.045-.06.119-.014.267.075.267.12 0 .029-.015.044-.045.058a.26.26 0 0 1-.207-.03zm.104 1.304c-.074-.074-.074-.119-.03-.148.074-.06.296.118.178.163-.06.03-.104.03-.148-.015zm-.045 4.934c-.015-.03-.015-.06 0-.074.015-.015.074-.03.148-.03.045.044.09.074.104.104.045.044-.133.177-.178.133-.044-.06-.059-.104-.074-.133zm-.03.992c.045 0 .06.015.06.03s-.015.03-.06.03zm.06-6.504c-.015-.03 0-.045.044-.06.03-.014.074-.014.119 0 .044.015.089.015.104.03.059.015.074.045.059.09-.015.044-.045.073-.104.088-.044.015-.118-.044-.222-.148zm.03 4.993a.156.156 0 0 1 .133-.074c.118.015.207.133.192.148-.059.06-.118.09-.177.074zm.044 1.319c.044 0 .074 0 .089.015.015.044.044.059.06.059.058 0 .162-.045.221-.045.045 0 .045.015.03.045l-.074.06c-.104.044-.178.073-.222.058-.045-.014-.09-.059-.104-.133zm.044-6.801c-.014-.074.119-.104.193-.089.119.044.163.089.148.148-.015.045-.089.074-.192.074-.015 0-.06-.044-.149-.133zm.193 1.94c-.119.016-.193-.044-.193-.118 0-.044.015-.074.045-.089.044-.03.104-.014.178.045.044.03.059.06.059.089 0 .044-.03.06-.089.074zm-.133 1.216c0-.045.014-.06.059-.074.104 0 .222.044.222.118s-.044.09-.148.074zm.014 1.896c-.03-.059.134-.163.178-.133.074.06.119.089.104.133a.35.35 0 0 1-.133.09c-.074.014-.119-.016-.149-.09zm.178 1.423c-.133.015-.192-.06-.178-.163 0-.06.03-.074.075-.045.118.074.118.119.237.119 0 .044-.045.074-.134.089zm-.133-2.8c.015-.03.03-.045.044-.03.015 0 .03.015.03.03 0 .044-.03.059-.074.059zm.222-2.267c-.104.074-.281-.075-.207-.149 0 0 .118.03.163.045.089.015.103.06.044.104zm.03 3.215c-.178.059-.237-.06-.252-.134 0-.044.015-.074.06-.074.073 0 .147.015.221.06.104.044.104.103-.03.148zm-.163 1.318c-.045-.074-.06-.118-.015-.133.03 0 .06.015.104.03a.54.54 0 0 0 .222 0c.104.015.104.03.015.074-.074.03-.119.044-.134.059-.03.044.015.119.149.207-.015.015-.03.03-.045.03-.089 0-.192-.089-.296-.267zm.207-3.2c-.103.074-.34-.089-.207-.163.074-.044.31.089.207.163zM18.948.074c.015.03.03.045.06.045 0-.03-.016-.06-.03-.075zm0 1.363c.015-.03.06-.044.133-.03.163.015.163.06.163.104 0 .06-.044.09-.148.09zm.089 4.564c-.015-.015-.015-.045-.015-.06.045 0 .133.075.193.075.044 0 .148-.045.207-.045v.074s-.074.03-.207.09c-.074 0-.134-.045-.178-.134zm.03-5.038c-.015-.074.014-.104.118-.104.133 0 .207.045.207.149 0 .074-.074.118-.207.103l-.03-.03a.486.486 0 0 1-.088-.118zm0 1.852c-.03-.074-.015-.104.059-.104.044 0 .089.03.148.09a.045.045 0 0 1 0 .059l-.074.059c-.06.015-.104-.015-.133-.104zm.014 4.534c-.014-.015-.014-.044-.014-.06 0-.044.044-.058.118-.073.074-.015.119 0 .119.03v.222c0 .044-.03.059-.104.014-.045-.03-.074-.074-.119-.133zm0-2.578c0-.06.06-.148.163-.148.074.03.06.074-.03.118a.433.433 0 0 1-.133.03zm.03-4.727c-.015.015-.03.015-.015.03h.089c-.015-.015-.03-.03-.074-.03zm.015 2.238c-.015-.06.03-.09.133-.09.133 0 .193.045.193.149 0 .03-.06.06-.178.104L19.2 2.37zm0 3.215c.015-.044.044-.06.089-.06.074.045.118.06.133.06.104-.015.148-.03.163-.015.015.03 0 .06-.06.09-.103.058-.177.073-.207.044zm.015-1.348c-.045-.06 0-.09.103-.09v.179c-.044 0-.074-.03-.103-.09zM19.2.563c-.089-.074-.089-.133 0-.178.06-.03.133-.015.237.045.089.059.089.103-.015.148A.238.238 0 0 1 19.2.563zm.089 3.126c-.015-.014-.045-.03-.06-.074l.045-.059c.06.074.104.089.118.074a.624.624 0 0 0 .075-.03c.03.015.03.045.014.09-.03.059-.089.059-.192 0zm-.03-1.881c-.03-.045-.03-.074.015-.09.074-.014.222.03.267.09-.045.074-.104.118-.149.118-.044 0-.088-.044-.133-.118zm-.015 3.17c.015-.03.045-.044.06-.059l.088.06c.015.014.06 0 .119-.015.044-.015.089-.015.119 0 0 .014 0 .014.014.03 0 .044-.074.088-.207.133-.089.014-.148-.03-.193-.149zm.06 1.334l.03-.03.029.03-.03.03zm.014.652c.015-.015.03-.03.06-.03-.015.015-.03.03-.06.03zm.06-3.778a.081.081 0 0 1-.045-.075c-.015-.044 0-.074.045-.074-.015 0 .03.03.163.074.044.015.059.03.044.045-.015.03-.044.044-.06.06-.058.029-.103.014-.147-.03zm-.045-1.927c.045-.074.119-.059.252.015.045.03.06.06.03.104-.045.06-.09.074-.134.03zm.06 4.564a.081.081 0 0 1 .074-.045l.044.075c.06.03.104.044.133.044.074.044.06.074-.044.089-.03 0-.104-.06-.208-.163zm0 .607c-.015-.044.014-.059.074-.074.044 0 .059.015.059.045 0 .044-.015.074-.045.089s-.059-.015-.089-.06zm.03-3.837l.029-.03.03.03-.03.03zM19.451.77a.35.35 0 0 1 .133-.088c.074.03.148.074.193.118.044.06-.134.133-.208.133l-.03-.03zm0 3.186c-.015-.03 0-.044.03-.06.029-.014.044 0 .059.03.014.03 0 .045-.03.06-.03.014-.044 0-.06-.03zm.059 1.363c-.015-.015-.015-.044-.015-.074.06 0 .297.119.297.178 0 .044-.045.06-.119.044a.206.206 0 0 1-.163-.148zm.015-3.17c-.015-.045 0-.075.044-.075.045 0 .045.06.06.06.044.014.074-.03.074-.163.014 0 .044.03.118.103.09.09.03.149-.178.193-.044 0-.089-.044-.118-.119zm0 .592c0-.06.044-.148.148-.148l.044.06c-.014.058-.074.088-.192.088zm.06-2.445c-.045-.089-.016-.133.088-.133.089 0 .148.044.163.133.03.074 0 .119-.104.119-.044 0-.103-.045-.148-.119zm.058 3.23c-.03-.014-.044-.059-.044-.118.044.044.089.074.148.06.015 0 .104-.03.119-.03.089 0 .074.03-.045.103-.06.045-.118.03-.178-.015zm.104-1.926c-.015.015-.044.03-.089.03-.074-.045-.044-.074.06-.104.044-.015.074-.03.118-.03.104.075.119.134.074.178-.03.03-.089.045-.193.045v-.06zM19.66 2.95c-.015-.03 0-.045.03-.06.044-.015.06 0 .06.045.014.044 0 .059-.03.074-.015-.015-.045-.03-.06-.06zm.045 2.711c-.045.118-.045-.074 0 0zm.044-4.534c-.06-.06-.03-.104.104-.133a.247.247 0 0 1 .237.074c.06.074.015.118-.148.163-.06.015-.119-.03-.193-.104zm0 3.719c.104 0 .148.015.119.06-.074.073-.104.073-.119.014zm.015-2.341c-.045-.044.03-.163.089-.119l.074.06h.015c.015 0 .059-.015.103-.03a.094.094 0 0 1 .09 0c.044.03.029.06-.03.104-.134.074-.252.074-.341-.015zm.074.548c-.06-.015-.044-.044.06-.089A.258.258 0 0 1 20 2.92c.074.044.06.074-.03.104a.433.433 0 0 1-.133.03zm.015-2.415c-.03-.074.03-.118.178-.133.074-.015.118.015.163.074.044.074 0 .118-.134.163-.089.015-.163-.015-.207-.104zm.03 3.112c-.045.118-.045-.074 0 0zm.03-1.764c.014-.044.029-.074.058-.088l.09.03h.029l.118-.03h.03c.015.014.03.03.03.044 0 .044-.045.089-.148.119-.104.03-.163 0-.208-.075zm.029 1.29c-.104-.045.103-.045 0 0zM20 1.466c-.015-.045-.015-.06.03-.074.014-.015.059-.015.103 0 .119.015.208.03.267.03 0 .073-.06.118-.193.133-.103.015-.163-.015-.207-.09zm.044 1.304c0-.03.015-.045.045-.045.015 0 .03.015.03.045zm.045.622c-.015-.015-.015-.044-.015-.06.06 0 .089.016.104.045-.045.06-.074.06-.09.015zm.133-.726c0-.044.015-.089.045-.119 0-.014-.134-.237-.134-.296 0-.03.015-.044.045-.06.015 0 .296.12.296.134a.626.626 0 0 0-.118.252c-.03.133-.075.163-.134.089zm-.074.222c-.015-.03 0-.044.03-.059.044 0 .059.015.059.044 0 .03-.015.045-.044.045-.015 0-.03-.015-.045-.03zm.311-.963c-.118 0-.207-.104-.207-.222.06 0 .311.118.311.133 0 .06-.03.09-.104.09zM20.281.252c.104-.045-.103-.045 0 0zm.193 1.407c0-.044.03-.074.089-.103.044.03.06.059.03.089-.015.014-.06.014-.119.014zm.045-.414c-.045-.119-.045.103 0 0zm.103-.534v.045c.045 0 .074-.015.09-.045zm.03.252v.03h.03v-.03zm.089-.03l.03.03v-.03zm.06.119v.03h.029v-.03z"/></g></svg>