<svg xmlns="http://www.w3.org/2000/svg" width="88.626" height="31.92" viewBox="0 0 23.449 8.445"><g style="line-height:125%" aria-label="beta" font-weight="400" font-size="14.817" font-family="3 The Hard Way Overrun" letter-spacing="0" word-spacing="0" stroke-width=".265" fill="#a41c31"><path style="-inkscape-font-specification:'3 The Hard Way Overrun, Normal';font-variant-ligatures:normal;font-variant-caps:normal;font-variant-numeric:normal;font-feature-settings:normal;text-align:start" d="M.074 7.63c-.03 0-.044.015-.044.06 0 .296.503.652.844.711.045.015.178.015.37.03.578.015 1.008.015 1.32.015.014 0 .059-.03.073-.03.045.015.06.015.074.03h1.541c.282 0 .741-.297.875-.578.044-.119.044-.193-.015-.208l-.237-.059c-.06-.044.044-.133.118-.119.045 0 .163.045.222.045 0-.06-.044-.208-.03-.267 0-.044.09-.104.09-.148v-.726c-.06-.074-.074-.178-.03-.296a.433.433 0 0 0 .03-.134V4.934c-.015-.104-.03-.193-.03-.267a.72.72 0 0 1 .06-.207l-.09-.134v-.133c.015-.118.015-.207.03-.267 0-.059-.015-.177-.03-.34-.014-.134.015-.208.06-.223.044-.014.044-.103 0-.237-.045-.133-.074-.207-.119-.222.074-.06.119-.118.119-.163 0 0-.015-.015-.03-.06-.015-.014-.015-.044 0-.088 0-.074.089-.311.089-.415-.133 0-.178.044-.163.119.015.074.03.103.015.118-.03.03-.045.015-.06-.03-.014-.074 0-.148.075-.251.074-.134.074-.223-.03-.252v.133c-.06.045-.163-.074-.178-.118-.015-.075-.015-.104-.03-.104-.059-.015-.103-.015-.133-.03-.163-.015-.237-.06-.222-.118.074-.09.133-.119.207-.074.104.059.208.163.252.163.045 0 .074-.03.06-.104-.015-.045-.267-.163-.267-.282 0-.059-.045-.089-.133-.074-.045.015-.06.03-.075.015-.044-.06-.03-.104-.192-.104a1.995 1.995 0 0 1-.282-.118c-.133-.015-.222.015-.252.089-.074-.03-.148-.045-.222-.06-.163-.03-.252-.03-.281-.014-.104.03-.178.044-.223.03a3.263 3.263 0 0 0-.118.073c-.104 0-.133 0-.119-.014-.044.03-.089.03-.118 0-.074-.075-.119-.104-.134-.104-.014 0-.044.03-.074.074-.014.03-.044.015-.089-.03-.044-.044-.088-.044-.103 0-.03.09-.09.134-.178.134-.044-.03-.06-.06-.044-.074.03-.045.044-.075.044-.09 0-.103-.089-.31-.089-.37-.015-.074 0-.118.03-.133V.444c0-.192-.03-.31-.074-.37C2.104.044 2.06.03 2 .03c-.074 0-.103.03-.118.074A.179.179 0 0 0 1.778 0l-.089.03c.015 0-.03 0-.133-.015-.163 0-.297.015-.37.03-.075 0-.12-.045-.134-.03A.215.215 0 0 1 .889.03C.845.015.8 0 .785.015.682.03.652.03.696.03.652.03.548 0 .504 0 .282.015.148.089.089.207.074.237.074.326.074.49V.74C.06 1.23.06 1.6.044 1.852v.252c.045.163.06.222.06.178l-.06.089v.014c0 .045.09.341.045.386-.045.074-.06.133-.045.148l.104.06c.06.014-.03.118-.089.192-.015.133-.03.222-.03.281 0 .015.104.03.12.045.073.074-.045.133-.09.133-.03.119-.044.474-.044 1.067.015 0 .133-.045.192-.03.09.045.075.074-.03.104-.103.03-.162.044-.162.06v1.11c.044.045.074.09.06.134-.016.074-.045.118-.06.148-.015.074.06.222.06.282 0 .059-.075.192-.075.31.015.075.03.104.044.12.134.088.193.147.178.192C.12 7.187 0 7.17 0 7.408c0 .015.03.03.074.045.089.015.148.044.178.089.015.044 0 .074-.06.089zm.06-6.208c-.015-.014.014-.044.059-.088.059-.015.133.044.148.103l-.045.06c-.089 0-.148-.03-.163-.075zM.162 5.78c-.074-.045-.074-.075.03-.104.074-.03.118-.015.163.03.059.073.044.103-.045.103-.06 0-.104-.015-.148-.03zm-.03-3.823c0-.074.045-.104.134-.104.148 0 .192.045.133.148H.163l-.03-.03zM.163.859l.03-.03.03.03-.03.03zm.163 5.305c.03-.015.06-.015.089-.015 0 .118-.074.178-.237.178 0-.104.044-.148.148-.163zM.37 2.519c-.133 0-.177-.03-.177-.074 0-.074.044-.104.148-.104.044 0 .089.015.103.044.075.09.045.134-.074.134zM.252 6.8c-.045-.015-.03-.045.03-.119.03-.044.088-.044.162.015.09.06.075.104-.03.133a.173.173 0 0 1-.162-.03zm0-1.541C.237 5.245.237 5.215.237 5.2c.06 0 .133.045.089.09-.044.044-.06.03-.074-.03zm.015-2.297c-.03-.014-.03-.044.015-.089.044-.044.074-.03.088.015.03.06.03.09 0 .09-.044 0-.088 0-.103-.016zm.03.49c-.06-.045-.06-.075.014-.09.045-.014.09-.014.104 0 .06.045-.06.104-.119.09zm0 3.837c-.045-.06.059-.119.118-.119.118 0 .178.03.178.104s-.045.119-.119.119c-.044 0-.104-.03-.178-.104zm.059.518C.34 7.794.34 7.778.34 7.764c0-.074.06-.089.163-.074.059.044.074.089.133.089-.089.133-.178.133-.281.03zm.059-3.437c.044 0 .06.015.074.06-.03.044-.06.058-.104.058 0-.059.015-.103.03-.118zm.207.637c-.133.015-.192 0-.192-.044 0-.03.015-.06.059-.074.044-.015.074-.015.104 0 .074.074.089.118.03.118zM.46.652C.445.622.445.592.474.563c.03-.03.06-.03.074 0 .015.044.015.074 0 .089-.03.03-.059.03-.089 0zm.015 4.845c-.044-.044.045-.133.119-.133.044 0 .059.014.074.059.015.06 0 .104-.045.118-.059.015-.103 0-.148-.044zm.03-4.386c-.104-.044.103-.044 0 0zm.03.548c-.015-.014-.015-.03 0-.074.014-.03.044-.044.059-.044.03 0 .074.03.133.074.074.044.06.074-.044.089-.06.015-.104 0-.149-.045zm0 .519c-.075-.044-.045-.089.059-.118.133-.03.192 0 .192.103 0 .03-.03.045-.103.06a.25.25 0 0 1-.149-.045zm.044 3.867c-.045-.015-.06-.044-.06-.074 0-.074.03-.104.104-.104.045 0 .074.03.104.074.015.045.015.075 0 .104-.03.015-.074.015-.148 0zm-.015.445c-.015-.015.06-.148.178-.09.104.045.133.105.06.149-.045.03-.09.03-.164 0zm.03-3.808c-.03-.045-.03-.074 0-.119.03-.03.074-.03.118 0l.03.06c0 .03-.015.059-.06.074-.044.014-.074.014-.088-.015zm.044 4.341c-.044-.03-.044-.06 0-.104.03-.044.06-.059.104-.044.074.015.104.089.104.222a.293.293 0 0 1-.208-.074zm.06.519c-.03-.015-.03-.045-.015-.09.014-.044.044-.058.088-.058a.194.194 0 0 1 .193.059c.015.015.015.06 0 .103-.015.045-.03.075-.06.075-.073 0-.133-.03-.207-.09zM.784 3.57c.06.015.09.044.074.104-.044.044-.074.059-.089.044L.696 3.63zM.741 3.2c.015-.015.03-.03.074-.03-.015.015-.03.03-.074.03zm.044 4.815c0-.045.03-.09.074-.119.045.015.074.06.074.134-.074 0-.118 0-.148-.015zM.89 4.223c-.015 0-.104 0-.104-.06.015-.03.03-.044.06-.044s.044.03.044.104zm-.06.489c-.059-.03-.073-.06-.029-.09a.111.111 0 0 1 .133 0c.06.03.075.06.03.09-.03.03-.074.03-.133 0zm0 .474c-.014-.03.016-.06.06-.104.015 0 .089.06.104.104l-.03.06c-.074 0-.118-.016-.133-.06zm.045-3.29c-.074-.044-.06-.088.03-.133.104-.044.252.06.192.119-.044.044-.059.059-.074.059a.25.25 0 0 1-.148-.044zM.86 5.705c-.059-.059.074-.177.149-.118a.515.515 0 0 1 .118.222l-.06.074-.058-.044zM.92.86C.889.845.874.815.889.785.904.77.919.755.949.77c.044.03.059.06.044.09-.015.029-.03.029-.074 0zm.014 1.586C.83 2.4.83 2.355.903 2.297c.06-.045.134-.045.208-.015.104.044.104.089.015.148-.06.044-.118.044-.193.015zm-.03 3.793c-.029-.015-.029-.06 0-.104.045-.044.075-.06.105-.044.074.014.118.059.118.118 0 .045-.015.074-.06.06-.073 0-.118-.015-.162-.03zm.03-4.89c-.014-.03-.014-.059 0-.074.03 0 .06.015.075.045 0 .015 0 .03-.015.044-.015 0-.045 0-.06-.015zM.92 2.874c-.015-.074.014-.118.103-.118.09 0 .134.044.134.148H.948c-.015 0-.015-.015-.03-.03zm0 3.853c-.015-.074.014-.119.103-.119.074-.015.149 0 .193.045.074.059-.044.163-.089.163-.133-.03-.193-.06-.207-.09zm.074.504c-.03-.03-.015-.075.059-.134.015-.015.06.015.119.09.059.073.059.118-.015.118a.212.212 0 0 1-.163-.074zm.059.518c-.044-.044-.03-.089.044-.148.06-.03.119-.015.178.044.03.03.045.06.03.104 0 .045-.015.06-.06.06-.073 0-.148-.015-.192-.06zm.03-3.882c-.045.104-.045-.104 0 0zm.014.534c-.014-.075-.014-.119.03-.134.015 0 .045.015.074.06.03.014.015.044-.03.074-.044.044-.059.044-.074 0zM1.111.578c0-.03.015-.045.06-.06a.671.671 0 0 0 .118.015c0 .03-.03.045-.074.06-.074-.015-.104-.015-.104-.015zm.074 4.845c-.074-.015-.089-.045-.014-.104.044-.03.088-.03.148-.015.074.03.074.06.014.104-.014.015-.074.03-.148.015zm-.03-.578l.03-.03.03.03-.03.03zm.06-3.23c-.06-.015-.06-.06-.015-.163.015-.044.074-.044.163.03.089.059.104.103.03.133zm-.03.46c0-.104.06-.134.178-.09.074.015.104.045.119.075.014.044.014.059-.03.059h-.237c-.015 0-.015-.015-.03-.03zm.03 3.866c-.03-.014-.03-.044 0-.088.03-.045.06-.074.089-.074.074 0 .104.059.104.192a.58.58 0 0 1-.193-.03zm.074-3.304c-.074-.014-.06-.059.015-.133.03-.03.074-.03.133 0 .074.044.09.074.03.119-.045.014-.104.03-.178.014zm.133 3.882c-.118 0-.163-.103-.148-.177a.081.081 0 0 1 .074-.045c.045 0 .09.03.148.104.075.074.045.118-.074.118zm-.103.445c-.074-.074-.045-.134.074-.148.074-.015.148 0 .192.059.074.074.045.133-.059.148-.089.015-.163 0-.207-.06zm-.015-2.119c.03 0 .044.015.06.03 0 .03-.016.044-.06.044zm.03 2.578c-.015-.044 0-.074.044-.089a.164.164 0 0 1 .118 0c.045 0 .178.104.163.119-.059.074-.103.089-.148.074zm.044-3.837c-.104-.045.074-.045 0 0zm.044.474c.015-.015.03-.03.06-.03.014 0 .03.015.03.045 0 .044-.03.059-.09.059zm.03 3.956c-.089-.015-.089-.074.015-.193.074-.074.148-.118.192-.148.075-.089.119-.133.163-.148.104-.045.178-.045.208 0 .163.163-.163.281-.282.281-.059.074-.089.134-.089.193-.03.03-.103.03-.207.015zm.03-7.23c-.03-.016-.03-.03 0-.06l.089-.06c.014 0 .059.03.103.075-.044.044-.118.06-.192.044zm.133 3.837c-.119 0-.148-.045-.133-.09a.112.112 0 0 1 .059-.029c.044 0 .074.045.074.119zm-.119.504c-.03-.045-.03-.075.015-.09.074-.014.104-.014.119 0 .015.03 0 .06-.045.09-.044.03-.074.03-.089 0zm.015-3.853a.112.112 0 0 1 .06-.03c-.015.03-.03.045-.06.03zm0 .519c-.015-.074.015-.119.104-.119.104 0 .148.045.148.148h-.222zm.015 3.867c-.06-.044-.06-.089.015-.133a.111.111 0 0 1 .133 0c.074.03.06.074-.015.118a.144.144 0 0 1-.133.015zm.015-3.349a.274.274 0 0 1 .133-.103c.119.015.148.044.148.089-.014.03-.03.044-.044.044h-.207zm.281 3.853c-.222 0-.266-.045-.207-.119.015-.015.044-.03.089-.015.074.015.118.06.118.134zm-.192.533c-.045-.015-.015-.074.074-.163.044-.044.104-.044.178.03.03.03.03.059.015.103-.015.045-.03.06-.075.06a.458.458 0 0 1-.192-.03zm0-3.911a.112.112 0 0 1 .06-.03c-.016.03-.03.044-.06.03zm.074 4.385c-.015-.044-.015-.074 0-.103.03-.045.06-.06.104-.045.074.015.133.045.148.089.044.074.015.104-.074.119-.074.014-.134 0-.178-.06zm-.015-3.897h.03l-.03.03zm.074 1.052a.045.045 0 0 1 0-.059c.015-.015.03-.03.06-.03.044 0 .059.03.059.104-.06 0-.104 0-.119-.015zM1.808.52c-.03-.015-.03-.045 0-.09.03-.044.059-.059.089-.059.044 0 .059.03.03.09-.03.073-.075.088-.12.059zm.103 3.333c-.059 0-.133-.014-.089-.074.015-.03.045-.03.06-.015.044.045.059.075.03.09zm-.074.993c-.03-.015-.03-.044 0-.089.03-.044.06-.044.074-.015.045.045.06.074.015.104a.094.094 0 0 1-.089 0zm.03.504c-.03-.015-.015-.06.044-.119.06-.059.163.09.178.104-.015.03-.044.044-.06.06a.167.167 0 0 1-.162-.045zm0-3.808c-.015-.015-.03-.03-.03-.045 0-.074.045-.103.134-.103.03 0 .059.015.074.03.044.044.044.088-.015.118-.074.03-.119.03-.163 0zm.015 4.341c-.045-.015-.015-.06.059-.133.044-.045.104-.045.163.015.015.03.03.059.015.089-.015.044-.03.059-.06.059-.103 0-.162-.015-.177-.03zM2.06 2.06c-.163 0-.223-.045-.178-.104l.074-.045c.089-.014.148.015.178.074.044.045.014.075-.074.075zM1.91.978c-.014-.03 0-.045.03-.06.015-.014.044 0 .06.03 0 .03-.016.045-.03.06-.03.014-.045 0-.06-.03zm.015 1.57c-.03-.014-.03-.03-.015-.074l.074-.059c.045-.015.074-.015.119.03.044.044.044.074 0 .089-.074.014-.133.03-.178.014zm.222 3.868c-.177.014-.222-.045-.207-.104.015-.045.044-.06.074-.074.06-.015.119 0 .193.044.103.074.074.119-.06.134zm-.133.489c-.074-.015-.074-.06 0-.134.045-.03.089-.03.163-.015.074.015.074.06 0 .119-.03.044-.089.044-.163.03zm0-3.868C2 3.023 2 3.023 2 3.007c0-.014 0-.029.015-.029.03-.015.06-.015.074 0 .015 0 .015.015.03.03 0 .015-.015.015-.03.03zm.03 4.371C2 7.364 2 7.334 2.045 7.29c.044-.045.074-.06.089-.06.163 0 .251.045.251.134 0 .015 0 .03-.014.044-.074.134-.178.134-.326 0zm.015-3.926c.03-.06.059-.06.088 0-.014.03-.044.044-.103.044 0-.014 0-.03.015-.044zm.563 2.756c-.015-.03-.03-.045-.06-.03-.044.03-.118.03-.192.015-.104-.015-.163-.06-.163-.133a6.802 6.802 0 0 1-.03-.563c.015-.386.015-.682.03-.875 0-.014-.03-.118-.03-.163a1.72 1.72 0 0 0 .03-.4c0 .015-.03-.014-.104-.074 0 0 .104-.192.118-.563.015-.118.03-.178.045-.178h.06l.725.03.03.03v2c.104.06.148.133.118.207-.014.045-.118.178-.118.252 0 .015.044.074.148.178.015.074-.148.119-.163.133-.03.045-.044.075-.044.09h-.119c0 .133-.015.192-.06.192a.222.222 0 0 1-.221-.148zm-.415-4.49c-.045-.089 0-.133.133-.133.104 0 .148.03.148.104 0 0-.044.015-.148.03-.074.014-.119.014-.133 0zm.148.519c-.074-.015-.104-.045-.074-.104.015-.044.074-.059.148-.015.089.045.118.074.074.119-.03.015-.074.015-.148 0zm-.06 4.297c-.014-.074.03-.104.149-.104.103 0 .148.045.148.133 0 .104-.045.134-.119.09-.118-.075-.177-.104-.177-.12zm.015 1.289c.015-.015.03-.03.06-.03-.015.015-.03.03-.06.03zm.015-5.112c0-.03.015-.06.03-.074l.03.03c-.015.03-.03.044-.06.044zm.045 4.371c-.015-.015-.015-.03-.015-.044 0-.075.06-.104.178-.104.044 0 .089.015.118.044.045.104.03.148-.074.163a.22.22 0 0 1-.207-.059zm.059.519c-.03-.045-.03-.074 0-.104s.06-.045.104-.045c.163-.014.266.045.207.119a.239.239 0 0 1-.104.06c-.089.014-.163.014-.207-.03zm.311-6.135c-.163 0-.222-.074-.207-.133.014-.044.03-.06.074-.06.089 0 .148.016.178.06.074.089.059.133-.045.133zm-.178.46c-.015-.09.015-.148.09-.163.133 0 .192.044.192.133 0 .03-.09.045-.252.045-.015 0-.015 0-.03-.015zm.104.533c-.089-.015-.089-.06-.015-.133.045-.045.104-.03.178.015.089.074.089.103-.015.118-.015.015-.074.015-.148 0zm.044 4.312c-.03-.015-.03-.045 0-.09.03-.029.045-.044.06-.044.074-.03.148 0 .222.075.044.044.015.088-.06.148-.029.03-.103 0-.222-.09zm.03.489c.045-.06.089-.104.148-.119.074.015.134.045.148.09.045.088.015.133-.088.133-.104 0-.163-.03-.208-.104zm.089.518c-.074-.059-.06-.103.044-.118.06-.015.119.015.163.06.045.044.015.073-.059.088a.319.319 0 0 1-.148-.03zm.06-6.134c-.06-.044-.045-.103.059-.148.044-.015.074-.03.103-.03.06.06.119.104.119.149-.015.044-.03.074-.074.089-.074.014-.134 0-.208-.06zm.029.43c.015-.044.074-.044.192-.03.06.015.09.045.09.06 0 .03-.015.044-.045.059h-.237zm.489 4.652c-.356-.163-.474-.251-.4-.326.044-.044.103-.059.192-.044.163.044.223.074.223.089l.252.252c.014.044 0 .059-.045.074-.03.015-.074.015-.118 0zm-.148.341c-.163.015-.223-.089-.178-.163.015-.044.044-.06.089-.06.089 0 .148.03.178.09.014.074-.015.118-.09.133zm-.119-4.46c0-.03.015-.044.06-.03 0 .03-.015.045-.06.03zm.178 4.934c-.163 0-.237-.03-.193-.103a.081.081 0 0 1 .074-.045c.06-.015.119 0 .178.045.09.074.074.103-.06.103zM3.2 1.363c-.014-.03.015-.06.06-.104.044-.03.089-.03.118 0 .015.045 0 .074-.06.104-.044.045-.088.045-.118 0zm.045 3.867c-.074-.044-.06-.089.044-.103.178-.045.193.03.178.088-.015.045-.03.06-.06.06a.266.266 0 0 1-.162-.045zm.03-3.437c.03-.045.103-.045.207 0 .044.015.06.044.044.06-.014.014-.03.029-.044.029h-.237c0-.03.015-.06.03-.09zm.03.607c-.045-.059.029-.163.088-.163.089 0 .133.045.133.148 0 .045-.03.06-.103.045-.06 0-.104-.015-.119-.03zm0 3.349c-.06-.06-.045-.104.044-.148.148-.045.222-.015.222.118 0 .045-.03.06-.104.074-.074 0-.133-.015-.163-.044zm.221.548c-.163 0-.222-.06-.177-.133.014-.045.044-.06.074-.074.074-.015.133.014.177.074.03.015.03.044.015.089-.015.03-.044.044-.089.044zm-.089.963c-.074-.044-.074-.089.03-.133a.356.356 0 0 1 .178 0c.104.044.133.089.089.133a.296.296 0 0 1-.134.03.533.533 0 0 1-.163-.03zm.045-5.912c-.045.119-.045-.074 0 0zM3.467 7.72c-.015-.059.03-.088.119-.088.177 0 .237.044.163.133 0 .015-.074.015-.223.015-.014 0-.044-.015-.059-.06zm.148-6.148c-.03-.015-.015-.045.06-.104.03-.015.074 0 .133.06-.015.044-.03.058-.074.058-.06 0-.104 0-.119-.014zm.193.563c-.163 0-.237-.06-.178-.119.03-.03.06-.044.089-.044.06 0 .089.059.089.163zm-.133 3.319c-.015-.015-.03-.03-.03-.06s.015-.044.044-.059c.104-.03.163 0 .163.074-.014.045-.074.06-.177.045zm.518.77c-.133 0-.207-.044-.207-.222-.223.03-.341 0-.341-.09 0-.132.104-.147.311-.044.148.074.267.178.356.282-.015.044-.06.074-.119.074zM3.75 2.608c-.09-.015-.104-.06-.045-.104.045-.03.09-.03.148 0 .09.03.104.06.045.104-.015.015-.074.015-.148 0zm-.045 3.837c0-.103.03-.178.163-.118.06.03.089.074.089.118zm.06.519c-.075-.06-.045-.104.059-.148.118-.045.252.089.207.148-.015.044-.03.06-.074.06a.22.22 0 0 1-.193-.06zm.044.533c-.045-.059.03-.178.104-.178.014 0 .059.03.148.075.044.03.074.059.059.074-.015.014-.044.044-.089.059-.104.044-.178.03-.222-.03zm.148-.889a.081.081 0 0 1-.044-.074c.296 0 .459-.06.459.134 0 .044-.03.059-.089.059a.671.671 0 0 1-.326-.119zm-.03-5.363c-.014-.015 0-.045.045-.074.015-.015.03 0 .074.044 0 .015-.015.044-.06.089-.014.015-.029-.015-.059-.06zm.015.548c-.074-.045-.044-.104.09-.148.044-.015.103.014.177.089.06.074.03.118-.089.118a.285.285 0 0 1-.178-.06zm.06.504c-.045-.045-.03-.09.044-.134.06-.044.118-.03.178.045.03.03.044.059.03.103-.015.045-.03.06-.075.06A.308.308 0 0 1 4 2.297zm.014 3.333c-.015-.044.015-.074.09-.089.073 0 .118.03.118.075 0 .044-.06.059-.178.044-.015-.015-.03-.015-.03-.03zm.09-4.385c0-.015.014-.015.029-.03.015 0 .015.015.015.03 0 .014 0 .03-.015.03a.032.032 0 0 1-.03-.03zM4.162 7.2c-.074-.045-.074-.089.015-.163.104-.06.37.06.252.178-.044.044-.074.059-.118.044zm.045.489c-.03-.015-.015-.06.06-.134.014-.014.058 0 .133.045.014.015.03.03.03.06 0 .029-.016.044-.045.058a.23.23 0 0 1-.178-.03zm.089-5.675a.112.112 0 0 1-.03-.06c0-.073.06-.103.178-.103.074 0 .133.03.163.089.03.074 0 .104-.104.119-.103.014-.178 0-.207-.045zm.06-.504c-.075-.015-.09-.03-.075-.059.06-.074.119-.089.163-.074.104.044.133.089.104.133-.03.03-.09.03-.193 0zm.073 4.371c-.03-.015-.03-.03 0-.074.015-.03.045-.03.074-.015.045.045.045.06.03.074-.015.015-.06.015-.104.015zm.015.504c-.044-.074-.03-.104.074-.119.104-.014.163 0 .178.06.015.015-.045.118-.089.118-.06.015-.119-.015-.163-.059zm.015.489c-.015-.06.015-.104.074-.119.133-.044.252.104.193.163-.045.03-.075.045-.09.045-.088 0-.148-.03-.177-.09zm.044.533c-.074-.074-.044-.133.09-.148.073-.015.133.015.177.074.074.074.044.134-.074.148a.193.193 0 0 1-.193-.074zm.148-5.2c0-.09.045-.134.119-.134.133 0 .207.06.207.178 0 0-.074-.015-.237-.044zm.178 4.89c-.03-.03-.03-.06-.015-.075.045-.044.075-.074.09-.074.029-.044.088-.015.177.074.089.074.074.133-.044.148-.045.015-.119-.015-.208-.074zm.03-.52c-.03-.014-.045-.029-.045-.059.015-.03.03-.044.045-.044.044 0 .06.03.06.104zm.37-1.718c-.044.118-.044-.074 0 0zM6.107 6.875c-.044.015-.059.06-.059.118l.03.06c.03.015.044 0 .06-.03.014-.074 0-.118-.03-.148zm.075-2.741c.059.06-.119.192-.119.237.044 0 .06-.06.104-.06.015-.014.074 0 .178.045a.356.356 0 0 0 .177 0c.074-.015.119-.06.104-.118-.133-.119-.207-.297-.444-.297-.075 0-.075.06 0 .193zm-.104 2.415c.074.074.133.148.207.207a2.02 2.02 0 0 0 .341-.207l.178-.104c.044-.03.044-.074.015-.118-.104-.074-.148-.045-.341-.237-.104-.104-.178-.134-.252-.119-.104.015-.148.045-.148.104 0 .044.03.06.104.074a.417.417 0 0 0 .192 0 .523.523 0 0 0 .134.163c.059.074.074.118.044.163-.03.044-.06.06-.089.06a.285.285 0 0 1-.178-.06c-.015-.015-.03-.015-.044 0l-.104.089-.06-.03zm0-1.126l.03.03v-.03zm.044.978c-.044-.104-.044.104 0 0zm.297-1.526c.074.015.103.015.103.015l.252.192h.06c.044 0 .059-.06.014-.163-.015-.06-.059-.104-.133-.148-.178-.074-.267-.148-.267-.193 0-.014 0-.044.015-.059a.877.877 0 0 1-.356-.089c-.044.134.015.222.149.297v.044c.014.06.059.089.163.104zm-.163 3.052c-.015.044 0 .06.044.06.045.014.074 0 .089-.03.044-.075.074-.119.104-.119.118.015.148.015.103.03.104-.06.223-.104.163-.163-.044-.06-.237-.03-.281-.09l-.074-.133c-.045-.044-.074-.044-.119-.014-.059.044-.103.059-.118.059v-.074c-.104.03-.119.074-.06.148l.208.207c.015.015-.015.045-.06.119zm2.86.489l.059.03h.785c.104 0 .178-.015.222-.045a.945.945 0 0 0 .133-.415v-.504a.141.141 0 0 0 .03-.148c-.015-.044-.104-.059-.104-.118.03.015.045.015.045.015.044-.03.059-.09.059-.178 0-.074-.03-.267-.03-.326.045-.074.045-.119.045-.163a.359.359 0 0 0-.06-.193c-.059-.118-.133-.178-.207-.178-.03 0-.044.015-.06.045-.029.074-.058.104-.103.089l-.133-.119h-.86l-.118.03c.015.089-.015.281-.06.578-.014.133-.029.296-.029.503l.148.163c0 .045-.178.193-.222.193h-.119c-.074.015-.103.03-.074.06.134.118.223.207.297.251l-.09.03a.517.517 0 0 0-.355-.178c-.118 0-.34.06-.415.06 0-.075.074-.149.223-.193.044-.015.088-.045.103-.09.03-.044.03-.088 0-.118-.044-.044-.074-.03-.089.045-.014.059-.074.059-.074.059-.044-.044-.074-.06-.089-.06a.624.624 0 0 0-.074.03c-.03 0-.059-.015-.074-.059-.015-.03-.015-.06 0-.074.104-.074.208-.133.297-.163.014-.015.03-.03.03-.044v-.134c-.016 0-.06.045-.134.045-.074 0-.119-.03-.163-.09-.06-.073-.06-.133 0-.177.044-.015.104-.015.178.03V6.89c0-.045-.045-.119-.03-.163 0-.074.282-.178.282-.297 0-.059-.104-.207-.104-.281 0-.06.104-.163.104-.222 0-.134-.09-.178-.104-.252-.015-.104.118-.119.118-.134.015-.103.015-.207.074-.222.104-.015.163-.015.193-.015.089.015.133.03.119.03H9.87c0-.044.03-.074.074-.104.044-.044.074-.03.089.015.044.104.118.133.222.074l.119-.074c.015-.015.074-.015.148 0 .044 0 .104.015.148.03l.044-.03v-.252c0-.044.03-.06.075-.06.059 0 .177.03.237.03.074 0 .103-.03.103-.103 0-.06-.074-.104-.059-.148a.893.893 0 0 1 .207-.163l.03.03c.045-.045.06-.06.074-.06-.044 0-.089-.06-.133-.163-.133-.104-.237-.074-.193-.178.03-.044.06-.059.09-.059.058 0 .147.074.207.074 0-.252-.06-.37-.163-.37-.045 0-.163.074-.223.059-.044-.015-.044-.074 0-.178a.75.75 0 0 1 .134-.118.78.78 0 0 0 .148-.223c-.015-.03-.045-.044-.089-.044v.089c-.163 0-.252 0-.267.015-.015.014.015.044.06.089 0 .03-.045.074-.134.133a.157.157 0 0 1-.118-.015l-.163.133c-.074.074-.134.104-.163.09-.074-.03-.06-.09.014-.164.178-.103.415-.192.415-.37 0-.104.134-.163.178-.163l.06.03h.014c.015 0 .104-.03.119-.03.044 0 .103.06.192.178.03-.015.045-.045.03-.104-.133-.178-.281-.178-.267-.282.015-.118.03-.162.03-.148-.074 0-.104-.015-.119-.03-.044-.073.075-.192.134-.147l.192.163c.03-.03.03-.104.015-.223-.015-.103-.03-.178-.03-.237-.118 0-.088.163-.162.163l-.06-.03h-.03l-.177.09h-.015c-.015 0-.044 0-.089-.015h-.074c0-.119.208-.104.282-.237.014-.045.014-.06.014-.075.119-.103.208-.177.282-.222a.33.33 0 0 0 .089-.192c-.015-.03-.03-.045-.074-.045l-.208.03c-.014 0-.014.044 0 .118.015.06 0 .09-.044.09h-.222c-.015 0-.045-.03-.06-.075 0 .015.015 0 .06-.044l.192-.09c.015 0 0-.014-.015-.058 0-.06 0-.09.015-.104.074-.134.119-.208.119-.222a.372.372 0 0 0-.326.177c-.104.163-.178.252-.222.267-.119.015-.297-.015-.282-.133.03-.104.133-.134.296-.104 0-.074.119-.089.134-.089 0-.03-.074-.06-.237-.074-.148-.015-.223-.044-.223-.074.03-.104.06-.193.09-.237.014-.03.044-.03.103 0 .044.015.119.207.237.207.133-.015.222-.03.267-.074a.62.62 0 0 0-.178-.118c-.03-.03-.015-.06.044-.09.045 0 .06.016.075.03.148-.074.237-.163.266-.237.015-.03-.015-.059-.074-.103-.089-.045-.133-.074-.133-.09.044-.044.074-.118.074-.222a.504.504 0 0 0-.148.119c-.015.015-.045.015-.074 0l-.06-.06c-.089-.029-.133-.073-.118-.133 0-.059.03-.192.03-.266-.104 0-.09.192-.134.207-.06.015-.267-.06-.267-.118 0-.045.06-.119.06-.134 0-.015-.03-.015-.104 0-.015.015-.03.074-.074.074l-.06-.03A2.547 2.547 0 0 0 9.487.03c.044 0 0 0-.134.014h-.059c-.044.045-.133.06-.296.06C8.863.03 8.686 0 8.449.014c-.178 0-.312 0-.4.016-.045.014-.075.014-.09.014-.044.03-.03.104.045.208.044.06.104.133.193.207.252.208.37.341.37.415.015.104.015.193-.03.267-.014.015-.03 0-.074-.045L7.826.222C7.723.178 7.678.12 7.693.074 7.708.03 7.648 0 7.545 0a.239.239 0 0 0-.193.089c-.104.089-.148.133-.163.133-.044 0-.133-.192-.237-.178-.163.03-.356.149-.563.37-.104.105-.178.208-.193.282-.014.104.06.134.06.149-.015.014-.03.014-.06 0-.014-.015-.03.014-.044.088l-.045.208v1.14c.03.016.045.09.03.223-.015.089.03.148.119.193-.015.044-.06.059-.149.059l.149.148c0 .015-.149.089-.149.133l.045.045.133.133c.015.015 0 .045-.03.09 0 .014.015.044.045.088.03.03.03.06 0 .074l-.163.074c-.015.06.148.148.104.208-.015.059.104.133.118.133l.09-.03c.044-.014.059 0 .073.03l.09.178h.103a.845.845 0 0 0 .06-.326c-.09-.015-.208-.06-.356-.104-.03-.015-.045-.03-.045-.06l.03-.103c.015-.074.044-.104.089-.104.089.03.133.06.133.09 0 .118-.015.147-.03.103.03.03.06.044.075.044.118.015.192.015.207 0 .044-.059.015-.118-.089-.163-.044-.03-.074-.074-.074-.148s-.282-.148-.34-.252c-.045-.088-.03-.148.044-.177.03-.015.059-.015.074-.015.03.015.044.03.03.06l-.03.073v.03c.074.074.148.118.207.118.148-.015.252-.044.296-.118.09-.134.134-.193.134-.193.118 0 .148.074.104.208l-.075.177c-.014.074.119.193.119.252 0 .119-.148.193-.133.267.074.163.118.296.163.37.014.074.044.06.074-.044.015-.045.03-.119.015-.193l-.045-.444c-.015-.104.015-.326.06-.697.014-.118.029-.177.029-.177.015-.015.044-.015.089 0 .044.03.074.044.089.044h.133c.045 0 .148.193.193.237.103.134.178.134.192.03.045-.534 0-.8.163-.815.223-.015.237.03.237.03h.815v1.155l-.059.06h-.696c0 .103 0 .133.015.118a.206.206 0 0 0 0 .133l.074.178a.215.215 0 0 1-.015.163c-.134.104-.237.148-.311.148a.334.334 0 0 0 .03.237c-.016.03-.075.03-.164.015-.103-.044-.296-.326-.46-.326-.044 0-.058.045-.058.134v.163c0 .03-.09.088-.282.177a.866.866 0 0 0-.148.282c.104.074.148.207.148.37 0 .119-.207.134-.207.237a.949.949 0 0 1 .207.223c.015.03.03.044.015.059-.074.06-.119.104-.163.118-.074.06-.06.134.03.223.059.074.089.148.089.192-.045.193-.178.208-.178.252 0 .015.015.045.044.06.104.074.148.103.148.088 0 .015-.192-.014-.31.178-.016.015.014.045.058.089v.015c0 .044-.03.089-.074.133-.014.015-.059 0-.133-.015-.193-.044-.281-.118-.281-.207-.06 0-.09.044-.09.133 0 .104.015.148.06.148.252 0 .311.193.355.267.075.015.119.03.149.015.103.074-.03.148-.163.148l-.06-.03c-.074-.03-.118-.014-.118.045 0 .074.192.237.252.34.059 0 .103-.014.133-.029.045.015.089.03.133.074.015.03.015.074 0 .119-.059.118-.103.178-.133.178-.044-.045-.089-.208-.163-.208-.133-.015-.163-.03-.222-.104.044.37.06.119.267.475.044.088.103.133.163.133h.503c0-.03.015-.06.03-.089.015-.015.06-.015.104 0l.281.074c.222.015.4 0 .519-.015l.059.03zM6.106 3.274l.03.03v-.03zm.015.534c.104-.045-.074-.045 0 0zm.148 1.704c-.059-.015-.088-.03-.103-.03 0 .074.163.163.178.208.074.103.163.192.266.266.074.06.163.104.237.148.119.075.193.104.223.104.118 0 .163-.03.118-.104l-.222-.177c-.252-.163-.474-.311-.697-.415zM6.196 4.8c-.014-.03-.014-.015-.03.044.03-.015.045-.03.03-.044zm.149.474c.059-.015.133.015.207.089.104.103.163.163.193.177.074.03.103 0 .118-.088 0-.104-.015-.178-.03-.193-.044-.015-.074-.015-.088 0-.104-.015-.326-.282-.46-.222-.103.044-.118.03-.118.044zm.133-3.63c-.074.014-.282-.074-.208-.119a.206.206 0 0 1 .134 0c.118.06.148.104.074.119zm-.104.533c-.133-.089-.163-.133-.089-.148.104 0 .178.015.223.03.088.03.103.074.059.133-.045.044-.119.03-.193-.015zm.208 4.875c-.134-.015-.237 0-.252.074 0 0 0 .015.015.06.074.177.163.103.237.236.044.104.089.148.103.148 0-.059.015-.133.03-.207 0-.015.06-.045.06-.089l-.149-.148zm-.178-4.475c0-.03.015-.044.044-.06.045.016.09.06.134.105-.015.03-.045.044-.09.044zm.015 5.497c-.015.015-.015.03-.015.045h.06c-.016-.03-.03-.045-.045-.045zm.133.119h-.03v.044c0 .045.06.074.178.089.045 0 .148-.074.148-.133a.258.258 0 0 0-.103.044h-.03a.45.45 0 0 0-.163-.044zm.178-5.379c.015 0 .015-.03.015-.089 0-.015-.03-.059-.03-.074 0-.044.015-.06.06-.06l.059.045-.03.06v.03c.015.044.03.073.015.088s-.045.015-.09 0zm.118 3.971c0-.015 0-.03-.015-.03a.032.032 0 0 0-.03.03c0 .015.016.03.03.03.015 0 .015-.015.015-.03zm.03-3.097c-.045-.118-.045.074 0 0zm.044 2.845v.03l.03-.03zm.015.134c0 .014.015.044.045.059v-.06zm.015-4.623c-.015-.03-.015-.06.03-.074.044 0 .103.074.103.089l-.03.03a.135.135 0 0 1-.103-.045zm.06.533c-.03-.015-.045-.03-.03-.06 0-.044.014-.058.03-.073.059-.045.118-.03.162.015.104.074-.044.163-.163.118zm0 .578v.03h.029v-.03zm.059 5.2a.032.032 0 0 0-.03-.029c-.015 0-.015.015-.03.03 0 .014.015.03.03.03s.015-.016.03-.03zM7.026 6.49c.06 0 .104-.015.104-.074-.074 0-.104.03-.104.074zm.089-1.378c0 .059.015.089.044.103v-.103zm.03 2.46c-.045-.06-.03-.12.044-.164.06-.044.089-.03.104.045 0 .074-.015.118-.03.133-.044.045-.089.045-.118-.015zm.03-2.92l-.016-.014a.28.28 0 0 0-.03.118c.06-.044.075-.074.045-.104zm.014.623a.032.032 0 0 0-.03-.03c-.014 0-.014.015-.03.03 0 .015.016.03.03.03.015 0 .03-.015.03-.03zm.178 1.837c-.133.044-.252-.03-.208-.148.015-.045.06-.074.104-.06.045 0 .09.06.134.06l.059-.03.03.045c0 .059-.045.103-.12.133zm-.178-2.874l.148.163h.045c0-.075-.119-.223-.193-.223zM7.308.43c-.015-.045 0-.09.044-.134.03-.03.045-.014.06.06.073.103.133.192.192.237.119.118.207.207.267.281.014.045.074.119.074.178l-.045.044a.535.535 0 0 1-.192-.163C7.545.77 7.397.607 7.397.548 7.41.49 7.41.46 7.397.46c-.045-.014-.075-.014-.09-.03zm.074 7.141c-.045-.103-.045-.163 0-.192.074-.06.118-.104.118-.163.015-.119.06-.134.163-.045a.282.282 0 0 1 .074.193c-.059.089-.103.163-.118.207v.03l.03.03c0 .118-.045.237-.149.163-.044-.045-.074-.119-.118-.223zm.103-.755c-.044.014-.059.014-.074 0 .015-.03.03-.06.06-.09.074-.118.133-.133.192-.059.015.015.03.06.045.119.015.074 0 .104-.03.119-.03.014-.089-.015-.163-.09zm-.059-5.482a.112.112 0 0 1 .06-.03l.088.089c-.014.03-.03.044-.044.044zm.09 6.786c-.045 0-.06-.03-.06-.075 0-.044.015-.059.06-.059.044 0 .073.015.073.06 0 .044-.03.074-.074.074zm-.03-2.83c0-.045.014-.075.03-.09.029.015.044.045.044.12a.113.113 0 0 1-.075-.03zm-.015.933c-.015-.044-.015-.074.03-.089.029-.015.059-.015.103 0a.134.134 0 0 1 .089.089c.044.074-.03.148-.104.133-.044-.014-.074-.059-.118-.133zm.059 1.97c.015 0 .03.015.044.03 0 .06-.014.09-.059.09 0-.045 0-.09.015-.12zM7.515 4.95c0-.03.015-.045.045-.03.014 0 .03.015.03.03 0 .044-.03.059-.075.059zm.104.86c-.074 0-.104-.045-.104-.149l.03-.03c.044 0 .074.06.074.178zm.133-2.668c.03.03.06.045.074.03.015-.015.03-.015.03-.015l.178.178.148-.09c-.119-.088-.178-.162-.178-.236-.282-.104-.385-.193-.43-.193 0 .119.06.222.178.326zm-.074 3.927c-.044-.015-.104-.03-.06-.075.016-.014.03-.03.06-.03zm.03-1.734c-.06-.044-.074-.089-.074-.133.044 0 .074.044.074.133zm-.015-1.882c0 .045.044.119.133.223.134.163.208.237.222.237.045 0 .06-.045.045-.149-.015-.133-.03-.207-.03-.222-.03.03-.059.045-.089.03l-.237-.119zm.133.949c-.03-.015-.044-.03-.044-.075.089 0 .133.03.133.075zm-.015.577c-.03-.03-.03-.059 0-.103.015-.03.045-.045.09-.03.103.03.147.104.147.222a.313.313 0 0 1-.237-.089zm.015 1.023c-.074-.045-.074-.09-.015-.119.045-.015.09-.015.149.03.088.074.088.104.014.118-.074.015-.118 0-.148-.03zm0 .563a.303.303 0 0 1 0-.163c.015-.074.045-.09.09-.045l.058.06c.045.089.06.148.015.163-.06.014-.104.03-.118.014-.03 0-.045-.014-.045-.03zm.015-1.052c-.044-.074-.044-.134 0-.148.074-.015.252.133.148.177-.074.015-.118.015-.148-.03zm.06 2.682c.059 0 .088.03.073.074-.03.059-.059.059-.074-.015zm.207-6.86c-.015-.045 0-.075.015-.09.074-.014.133.03.148.164a.152.152 0 0 1-.074.088.604.604 0 0 1-.09-.162zm.059 3.896c-.044-.074-.03-.118.015-.163.074-.059.178.148.133.193-.06.044-.104.03-.148-.03zm.296-.237c-.163-.118-.296-.266-.281-.37.015-.06.044-.074.104-.03.044.045.088.09.118.104.03.044.06.03.074-.045.045-.133.09.149.09.223.014.074.147.192.147.266-.044 0-.133-.044-.252-.148zm-.222-1.615c-.015.06.015.09.089.09 0-.045-.03-.134-.03-.179-.014 0-.044.03-.059.09zm.178 3.038c0 .074.015.133.03.148v-.148zm.06-.149l-.03.03h.03zm0-2.148c.103 0 .118.044.058.133-.03.06-.044.03-.059-.074zm.029-2.46c.044 0 .074.015.089.03-.045.06-.09.089-.119.089 0-.06.015-.104.03-.119zm-.03 4.979v.06h.03v-.06zm.03.474v.03h.03v-.03zm.089-5.26c-.015-.044.03-.074.103-.074 0 .03-.014.06-.03.089-.029.015-.058.015-.073-.015zm.059 4.83c-.06-.118-.06.074 0 0zm.163-2.86c0-.014.015-.029.03-.029.014 0 .014.015.014.03s0 .015-.014.03a.032.032 0 0 1-.03-.03zm.207 3.601l.03-.03.03.03-.03.03zm.549-1.022c-.104-.045.103-.045 0 0zm.044-4.875a.081.081 0 0 1 .074-.044c0 .03-.015.059-.044.074zm.089-.089c0-.03.015-.06.044-.074l.03.03a.081.081 0 0 1-.074.044zm.074 1.26c-.015-.03 0-.045.03-.06.014-.014.044 0 .059.03 0 .03-.015.044-.03.06-.03.014-.044 0-.059-.03zm.089 2.044c-.015 0-.104 0-.089-.059 0-.03.015-.044.044-.044.03 0 .045.03.045.103zm.074-1.185c.06-.015.104.015.148.119.015.014 0 .03-.015.059-.089.133-.163.192-.207.178-.045-.03-.06-.119-.06-.282 0-.044.045-.06.134-.074zM9.871 8.12c-.015-.03 0-.045.03-.06.014-.015.044 0 .059.03 0 .015-.015.03-.03.044-.03.015-.044 0-.06-.014zm.104-3.794c-.06.045-.06-.044-.06-.088h.074c0 .044 0 .074-.014.088zM9.945.504c0-.06.03-.119.089-.134.044-.014.06 0 .074.03.015.074-.03.104-.163.104zm.074 7.008c-.015-.074.03-.104.163-.104 0 .045-.03.074-.074.104-.044.045-.074.045-.089 0zm.089-2.652c.015-.015.03-.015.044-.015.03 0 .075.06.134.178h-.252c0-.06.03-.119.074-.163zm.03-3.349c.014-.03.044-.03.089 0 .044.03.044.06.03.09-.045.058-.105.088-.193.088 0-.074.03-.133.074-.178zm-.03 4.845c.015-.014.03-.03.044-.03.06 0 .09.06.104.179.015.074-.06.103-.192.103 0-.103.014-.178.044-.252zM10.078 4c-.014-.03.015-.074.074-.133.015-.015.045-.015.075 0l.118.133a.134.134 0 0 1-.089.09c-.089 0-.148-.03-.178-.09zm0 .52c-.014-.06.06-.194.104-.194.015 0 .03.015.045.03.044.074.074.104.088.089.045-.119.03-.222.163-.207.06.014.104.03.134.074.103.103-.193.237-.148.237h-.356c-.015 0-.015-.015-.03-.03zm.06-1.646c.044-.044.074-.014.089.09.014.029-.03.044-.134.044 0-.06.015-.104.045-.134zm-.015.682c-.06-.06-.03-.148.104-.252l.148-.133.074-.119c.044-.044.074-.044.074.03.015.118-.089.222-.074.281.015.045.015.074.015.074 0 .045-.045.075-.149.119-.103.03-.163.03-.192 0zm.015-1.126l.03-.03.029.03-.03.03zm.059-.282c0-.014.015-.03.03-.044.014 0 .03.015.03.044zm0-1.718l.03-.03.03.03-.03.03zm0 4.208c.015-.045.044-.045.074-.015s.03.06-.015.074zm.118-2c0-.015.03-.06.075-.104.014-.015.03-.015.044-.015.015.015.03.015.03.03l-.119.118zm0 3.57v.03h.03zm.03-1.393c-.015-.074 0-.118.015-.133.015-.044.044-.044.074.03.015.044.015.089-.015.118-.044.06-.06.06-.074-.015zm0-4.074c-.015-.045.015-.074.074-.074.074-.015.104 0 .104.03a.282.282 0 0 1-.148.073zm.045 1.333c.014-.014.03-.03.059-.03-.015.03-.03.045-.06.03zm.074.623c0-.045.03-.06.03-.06 0 .03-.016.045-.03.06zm.103 1.274c-.059 0-.074-.045-.074-.104.045 0 .074.03.074.104zM10.552.074l-.059.03h.06zm.03 2.208c-.015-.074.03-.104.104-.104a.25.25 0 0 1 .148.044c.044.015.044.045 0 .075 0 .014-.044.014-.119.014h-.103l-.03-.03zm.074 1.926a.081.081 0 0 1-.044-.074c0-.03.059-.089.163-.193.103-.015.163.015.163.104 0 .104-.178.267-.282.163zM10.73.845c.09-.045.134 0 .134.133h-.237c0-.045.03-.089.103-.133zM10.7 4.4c.134 0 .312.103.208.148-.074.015-.118.03-.148.015-.045-.015-.074-.045-.06-.104zm.015-2.416c-.103-.044.104-.044 0 0zm.045.83c-.06-.074-.045-.118.03-.148.044-.015.103 0 .148.044.015.015.015.03.015.045 0 .074-.045.104-.134.104-.03 0-.044-.015-.06-.045zm0 .193c0-.06.044-.074.104-.074 0 .044-.03.074-.104.074zm.044 2.06c.015.029.03.044.074.044-.014-.03-.03-.045-.074-.045zm.03-4.786c-.015.074.03.103.148.103a.168.168 0 0 0-.044-.118c-.045-.03-.074-.03-.104.015zm.296.963c-.014.014-.03.014-.03.03 0 .014.016.029.03.029a.045.045 0 0 0 .06 0c.014 0 .03-.015.03-.03s-.016-.015-.03-.03zm.06 2.385c.014.045.03.06.059.06.074-.06.148-.164.148-.12v-.058c-.044 0-.118.044-.207.118zm0-3.111v.03h.03v-.03zm.059.459a.417.417 0 0 0 .074.163l.104-.074v-.03a.393.393 0 0 0-.09-.074c-.044-.03-.073-.03-.088.015zm.03-.34V.71h.03V.637zm.044 2.192c-.044-.104-.044.104 0 0zm.015-1.334v.03h.059v-.03zm.044 1.393c-.044-.103-.044.104 0 0zm-.015-.696v.03l.03-.03zm.06-1.008c0-.014-.015-.014-.03-.03-.015 0-.015.016-.015.03 0 .015 0 .03.015.03s.03-.015.03-.03zM14.985 7.897c.193-.118.311.134.326.252.015 0 .207 0 .252.074.044.104.06.178.074.222.03-.044.074-.074.148-.059.133.03.193.045.178.045 0-.178.06-.237.178-.178.014.015.044.015.074.015.074 0 .133-.074.178-.237a.75.75 0 0 0 .03-.193c0-.237-.105-.34-.312-.326-.044 0-.074.03-.089.074-.03.06.015.089.119.104.103.015.177.06.192.163.015.089 0 .148-.015.163-.059.044-.355-.015-.31-.267a.25.25 0 0 1-.075.03c-.074 0-.148-.06-.222-.193-.015-.044-.015-.089.03-.133h.163c.133-.074.207-.148.237-.222.118-.075.4.266.563.459.059.06.074.089.03.089a.186.186 0 0 1-.134-.015c-.044-.03-.06 0-.044.104l.014.192c.06.015.09.06.104.119a.316.316 0 0 1-.044.178c.192 0 .281-.074.281-.208 0-.074-.207-.148-.222-.222 0-.06.03-.104.104-.119.118-.044.207.104.251.178.03.03.06.015.104-.06-.089-.044-.118-.118-.074-.207.163-.177.267-.177.252-.281-.015-.104-.178-.074-.178-.326a.533.533 0 0 0 .178-.119c-.06 0-.104-.088-.148-.281-.015-.074.118-.133.118-.207-.133.118-.237.133-.326.044-.133-.133-.133-.222.03-.282.06-.014.178.134.252.09.044-.015.044-.06 0-.134l-.133-.119c-.104-.074-.163-.133-.163-.192 0-.015.014-.045.03-.06.073-.074.103-.103.103-.088.06.044.104.059.118.059.045-.06.09-.104.104-.148.074-.134.119-.237.104-.311 0-.06-.03-.09-.03-.104 0-.045.03-.133.03-.178-.193 0-.311-.044-.326-.148-.03-.104.06-.163.267-.178.044 0 .074-.015.074-.03 0-.103-.015-.177-.06-.192-.296-.163-.31-.267-.355-.326-.06-.015-.104-.03-.134-.03-.044 0-.103.015-.177.03-.015.015 0 .044.015.089.03.044.014.074-.06.089-.192.074-.148-.178-.296-.208l-.267.03a.284.284 0 0 0-.118.06h-.208a.719.719 0 0 0-.281-.12c-.015.09-.06.12-.134.09a.374.374 0 0 0-.133-.06c.015.074.03.134.03.178 0 .015-.03.074-.03.119 0 .014.015.059.06.133 0 0-.016.089-.06.267a.512.512 0 0 0 .03.252c-.015-.015-.015.014-.03.118-.015.045-.015.074-.015.119.045 0 .104-.03.148-.03.074 0 .134.015.163.06.015.059 0 .103-.059.147-.044 0-.074-.014-.089-.03-.074.075-.148.045-.148.105v.162c.222 0 .311.104.267.297-.015.089-.06.089-.134.015-.059-.074-.103-.074-.133-.015-.06.163-.148.237-.252.237-.06 0-.207-.089-.281-.074-.015.044-.015.074 0 .104 0 .044-.03.059-.09.074-.059.014-.103.014-.133 0-.014-.015-.03-.045-.03-.09.03-.044.03-.073.016-.103-.104-.148-.163-.222-.163-.237 0-.074.059-.074.059-.237.015-.548.015-.948.03-1.23l-.03-.46c0-.073 0-.221.015-.429.014-.252.044-.385.089-.385.088.015.163.015.207.03h.163c.015 0 .074-.075.148-.06l.06.045c.014.014.044.014.088 0 .06-.015.074-.223.178-.237.104 0 .089.207.148.251.06-.014.104-.014.134-.03.044.016.089.016.103 0 .134-.073.252-.118.341-.133.133-.014.193-.03.193-.044l.089-.133c.044-.045.103-.045.192 0 .074.044.119.059.119.059 0 .163-.06.237-.193.252.178 0 .148-.03.208-.03h.192c0 .015.045.03.148.03a.433.433 0 0 1-.03-.134c0-.059.03-.088.09-.103.044-.015.103 0 .177.044.045-.015.09-.03.119-.059a.553.553 0 0 1-.03-.178c0-.044 0-.06-.014-.06-.356-.088-.312-.295-.49-.295.045.059.06.103.015.148 0 0-.044-.015-.118-.03-.104-.015-.237.163-.34.148-.134-.015-.15-.103-.03-.237.118-.133.192-.163.237-.074.03.06.074.074.133.03l.044-.148c.03-.149.09-.178.193-.075.06.06.104.09.118.075.03-.015.03-.045 0-.104-.044-.119.09-.208.09-.252-.06 0-.12.03-.193.089-.03.03-.09.044-.163.06-.074.044-.134.073-.148.103-.06.06-.09.089-.104.089-.015 0-.089-.03-.104-.03-.074 0-.192.148-.267.148l-.162-.03c-.03-.014-.03-.044 0-.103.044-.119.103-.178.192-.178l.089.074c.044.015.104-.059.178-.207a.38.38 0 0 0 0-.311c-.03-.09-.06-.134-.074-.134-.03 0-.045.015-.03.06l.045.163c.014.014-.075.088-.252.207-.163.104-.237.163-.252.148-.119 0-.193-.015-.237-.06 0-.014.03-.073.074-.207.03-.074.089-.074.178 0 .089.075.148.104.177.104 0-.104-.059-.192-.103-.192-.015 0-.178-.163-.237-.149.014.149-.045.223-.149.237-.148.015-.222-.03-.222-.133 0-.074.045-.133.134-.178l.207-.103c.015-.015.015-.045 0-.074h-.252c-.044 0-.074.044-.104.148-.014.044-.044.059-.074.044-.015-.015-.059-.104-.074-.104-.044 0-.074.045-.103.134-.045.118-.09.178-.104.178-.045 0-.119-.06-.163-.06-.045-.015-.09.03-.134.134a.771.771 0 0 1-.296.192l-.03-.03v-.325c.045-.045.06-.074.06-.104 0-.06-.03-.193-.03-.252 0-.074.133-.163.089-.178l-.207-.103c-.104-.045-.134-.09-.104-.134a.56.56 0 0 1 .163-.104c0-.222-.015-.622-.089-.607l-.06.03c-.014 0-.029 0-.029-.015-.118 0-.193-.03-.207-.104l-.06.03V.31l-.03.03c-.133-.104-.192-.104-.192-.282-.015 0-.044.03-.104.074-.014 0-.044-.03-.088-.074-.015-.015-.045-.015-.119-.015-.163 0-.267 0-.326.015l-.119.104c-.03.044-.044.044-.044 0V.03c-.074 0-.207.014-.4.03-.06.044-.104.059-.119.059a.555.555 0 0 0-.088.148c-.06.237-.09.489-.09.77 0 .09 0 .578-.014 1.467-.03 1.6-.045 3.141-.045 4.608.015.015.03.044.03.074l-.03.163c-.03.311.09.563.37.785.134.104.208.163.253.163 0-.103.03-.133.074-.118.03.015.059.044.089.089 0 .015 0 .03-.015.059-.045.06.074.089.133.089h1.082c.044 0 .074-.03.06-.104 0-.118-.045-.192-.12-.222-.03-.015-.074.015-.148.089-.089-.045-.074-.104.03-.178.06-.044.133-.044.222-.015.045.015.074.015.09 0 .014-.015.014-.03 0-.074-.045-.074 0-.118.132-.163.104-.03.163.089.163.37.06 0 .134-.177.178-.192 0 .044.163.207.148.311l-.103.119c-.015.014 0 .044.015.059l.237-.06h.014c.06 0 .163.045.223.045v-.222c-.237-.104-.311-.09-.311-.193 0-.044.014-.074.044-.089zm-2.267-.444c0-.06.06-.074.104-.074v.074zm.415-6.194c-.045.119-.045-.074 0 0zm.281-1.007l.03.03h-.06zm.193.978c-.044 0-.104-.03-.119-.074-.014-.015 0-.03.03-.03.06 0 .089.03.089.104zm-.104-.8h.045c0 .03-.015.044-.045.059zm.074.31c-.014 0-.03-.014-.044-.029 0-.074.044-.104.148-.104.074 0 .104.06.104.163-.03 0-.104-.014-.208-.03zm.09 7.483c-.016-.015-.016-.044-.016-.059.178 0 .252.06.223.163-.015.015-.03.03-.06.03-.074 0-.118-.045-.148-.134zm.059-.533l.03-.03.029.03-.03.03zm.059-6.623c.015-.015.03-.03.06-.03 0 .03-.016.045-.03.06zm.104 6.756c-.119-.044.074-.044 0 0zm0-7.2c0-.075.059-.134.133-.134.044 0 .074.015.06.06-.016.044-.075.073-.193.073zm.237 6.963c-.015-.015-.045-.015-.119.03-.015.015-.06.03-.118.03 0-.06.044-.12.133-.164.133-.074.326.06.222.163-.015.015-.06 0-.118-.059zm-.223-.296l.03-.03.03.03-.03.03zm.074-4.934c-.044.104-.044-.104 0 0zm-.014 4.756c-.015-.074.148-.163.222-.148l.118.089c0 .03-.014.044-.03.059-.014 0-.044-.015-.088-.03-.045-.014-.074 0-.089.015-.074.045-.119.06-.133.015zm.059-5.29h.03v.03zm.044-.43c-.044-.059-.014-.088.09-.088.044 0 .059.03.059.104-.075 0-.134 0-.149-.015zm.045.549c-.015-.015-.03-.03-.03-.06.03 0 .045.016.06.03zm-.015 4.623c0-.045.03-.09.104-.134.015-.014.03-.014.059.015l.118.119c-.014.03-.03.044-.044.044.015-.015-.044-.03-.163-.044zm.119-5.142c0-.014 0-.014.014-.014.015 0 .015 0 .03.014 0 .015-.015.03-.03.03-.014 0-.014-.015-.014-.03zm.03 6.712h-.016c0 .104.09.193.282.267.015.015.044.015.074.015.044-.015.044-.03.015-.045a.167.167 0 0 1-.045-.163l-.296-.059-.015-.015zm.058-4.978c-.03 0-.044-.015-.03-.03 0-.014.016-.03.03-.03.045 0 .06.016.06.06zm.163 4.267l-.059.03h-.015c-.03 0-.044-.015-.059-.06a.094.094 0 0 1 0-.088c.044-.06.119-.074.193-.03.089.044.118.104.089.178 0 .015-.045 0-.119-.03zm-.148-4.786c0-.03.015-.044.03-.059.03-.015.044 0 .06.03.014.03 0 .044-.03.059-.015.015-.045 0-.06-.03zm.06-.414c0-.104.088-.178.133-.163.118-.104.207-.149.267-.149h.148a.328.328 0 0 1 .266-.177c.163.074.178.163.074.237a1.923 1.923 0 0 1-.281.089c-.044.044-.089.088-.104.118-.059.015-.103.03-.148.03-.089 0-.133.074-.133.207.163 0 .252.015.266.045.075-.104.134-.178.163-.238.045-.014.104.03.193.134.03.044-.044.074-.207.118-.074.03-.119.045-.134.06l-.044.103c-.03.015-.119 0-.252-.044-.074-.03-.089-.06-.074-.104a.206.206 0 0 0 0-.133c-.015-.104-.134-.089-.134-.133zm.014 4.696c-.059-.074-.03-.118.09-.133.044-.015.088.015.162.06.09.059.06.103-.074.118-.074.015-.133 0-.178-.045zm.09-3.852c-.03-.06.029-.104.162-.148.074-.015.178.104.178.178-.044 0-.133-.045-.178-.03-.104.015-.163.015-.163 0zm-.016-.311l.03-.03.03.03-.03.03zm.134-1.26c-.03 0-.045.03-.045.09.03-.015.045-.045.045-.09zm.296 6.342c-.163.074-.385-.119-.252-.237.163-.133.385.133.252.237zm-.193-.578c-.059-.089-.044-.163.06-.207.089-.06.163-.03.207.103.045.134.03.193-.015.208-.133-.015-.207-.045-.252-.104zm.06-.578c-.06-.118-.015-.177.133-.177.104.044.148.118.148.192.015.104-.03.163-.118.178-.06 0-.119-.06-.163-.193zm.103-5.423a.032.032 0 0 0-.03.03c0 .044.134.148.193.148 0-.148-.059-.207-.163-.178zm-.014 1.6c-.045-.044-.015-.088.074-.118.074-.03.133-.03.178 0 .014.015.03.03.03.074 0 .045 0 .074-.016.09a.25.25 0 0 1-.148.044.23.23 0 0 1-.118-.09zm.192 4.698c-.059-.06-.059-.119.015-.193.045-.045.089-.045.148 0 .045.044.09.06.134.044.044-.014.059-.03.059-.044 0-.252-.282-.252-.326-.296-.045-.06-.06-.119-.015-.178.045-.06.119-.074.207-.045.06.015.119.341.223.297.118-.045.252.089.207.222-.015.118-.311.089-.355.192-.045.075-.075.119-.119.104a.356.356 0 0 1-.178-.104zm.03-6.372v.03h.03v-.03zm.37 5.571c-.015-.118-.118-.133-.192-.148-.119-.059-.163-.118-.148-.192.014-.074.088-.104.192-.09a.47.47 0 0 1 .148.164.72.72 0 0 0 .208.163c.103.044.148.118.103.207-.044.104-.103.133-.192.089-.06-.015-.104-.089-.119-.193zm-.207-4.045c-.015-.014-.015-.044-.015-.059 0-.089.06-.133.163-.133.044 0 .089.03.119.089.059.103.044.163-.045.178-.074.014-.148 0-.222-.075zm.06.549c-.045-.119-.045.074 0 0zm.029-1.037c-.074-.09-.045-.149.059-.178.163-.06.267.059.222.163-.015.044-.03.074-.074.089-.074.03-.133 0-.207-.074zm.266 2.74c-.281 0-.326-.044-.266-.103.044-.03.074-.045.118-.045.104 0 .148.045.148.149zm.03 3.068c-.015-.03-.015-.045-.03-.045a.388.388 0 0 1-.192-.089c-.104-.089-.104-.178 0-.252.074-.059.267.149.385.252.104.09.178.163.193.237 0 .045 0 .074-.015.09-.045.044-.133-.045-.148-.045l-.134.044c-.03.015-.044-.044-.059-.192zm-.252-3.616c0-.148.074-.177.222-.074.03.015.045.06.06.104l-.074.074c-.119-.015-.193-.044-.208-.089zm.06-1.407h.059l-.03.03zm.133 3.363c-.03-.044-.045-.074-.045-.089 0-.059.015-.103.03-.133.044-.089.133-.089.237.015.089.074.089.163 0 .252-.03.044-.104.03-.222-.045zm.03-3.393c-.03-.03-.015-.074.059-.148.015-.015.074.015.148.06.044.029.06.059.06.073 0 .03-.03.045-.075.045a.458.458 0 0 1-.193-.03zm.251 2.919c-.074.03-.326-.089-.266-.163 0-.089.044-.133.148-.133.044 0 .089.03.104.089.044.103.059.177.014.207zm-.207-.622c-.074-.074-.045-.134.074-.148.178-.045.207.103.207.177 0 .045-.03.06-.074.06a.384.384 0 0 1-.207-.09zm.015-2.727c-.015-.118.015-.192.059-.207.06-.015.207.044.207.104 0 .089-.074.133-.207.133-.044 0-.06-.015-.06-.03zm.03-1.052v.06h.029zm.014 3.186c0-.074.045-.089.148-.074.074.015.119.074.119.178a.357.357 0 0 1-.222-.06zm.09 2.49c-.09-.06-.075-.134.044-.223.088-.06.163-.03.222.074.044.104.03.178-.045.208-.059.03-.133.014-.222-.06zm.058-.534c-.074-.089-.059-.163.03-.208.104-.044.178-.014.222.06.074.118.074.192-.015.207-.103.015-.192 0-.237-.06zm.06-3.808c-.045-.015-.015-.089.089-.193.074-.074.118-.074.148 0 .044.09.03.149-.03.193-.044.044-.118.044-.207 0zm-.015 3.29c-.045-.075-.015-.134.06-.179.044-.044.088-.059.118-.03l.148.149c.015.044-.074.178-.134.178-.044 0-.118-.119-.192-.119zm.118-.475c-.03-.015-.044-.06-.059-.104-.015-.059-.015-.088.015-.103.118-.074.34.015.267.207-.045.09-.119.09-.223 0zm-.059-4.49V1.2c.03 0 .045-.015.06-.044zm.074 3.868c-.06-.06.045-.119.119-.119.118 0 .177.045.177.148a.112.112 0 0 1-.03.06c-.058.044-.147.015-.266-.09zm.015-3.72c-.015 0-.015.016-.03.03 0 .015.015.03.03.03s.015-.015.03-.03zm.06 3.201c-.03-.015-.03-.03 0-.044.014-.03.044-.045.058-.06.03-.014.09.015.163.09.015.014.03.044.015.059-.015.03-.03.044-.074.03-.044-.015-.103-.03-.163-.075zm0-2.993c-.016.045.014.06.073.074.045.015.09 0 .104-.03.03-.014.015-.059-.03-.103a.486.486 0 0 1-.118-.089.438.438 0 0 0-.03.148zm.221 5.438a.333.333 0 0 0-.177.015c-.015-.015-.03-.06-.03-.104.015-.06.03-.089.044-.104.09-.074.178-.074.252.015.045.06.074.134.074.237a.276.276 0 0 1-.163-.059zM16.2 6.43a.21.21 0 0 1-.03-.088c0-.09.06-.134.178-.134.074 0 .133.045.163.119.045.148.015.222-.089.222-.074 0-.148-.044-.222-.119zm.089-.533c-.045-.104-.03-.163.06-.193.073-.014.132 0 .192.074.074.075.059.149-.03.223-.074.074-.148.044-.222-.104zm.252 2.49a.334.334 0 0 0-.237-.12c0 .06.03.104.089.134.059.03.103.03.148-.015zM16.318 3.2c.119-.044-.074-.044 0 0zm.045-1.985c0-.015-.015-.015-.03-.03-.015 0-.015.015-.015.03s0 .03.015.03.015-.015.03-.03zm-.015 4.163c-.074-.103-.044-.177.074-.207.074-.015.134.03.193.119.03.03.03.074.015.118-.015.045-.03.06-.074.074-.075.015-.149-.015-.208-.104zm.074-.563c-.06-.044-.044-.088.03-.118.104-.045.192.074.178.133-.015.045-.045.06-.09.045-.029 0-.073-.015-.118-.06zm.03-3.481c-.015.044 0 .059.044.074.074 0 .178-.03.178-.09 0 0-.03-.014-.104-.059-.03-.014-.074 0-.118.074zm.06 5.882c-.045-.045-.045-.104 0-.148.029-.045.073-.075.118-.075.059.03.118.075.163.119 0 .089 0 .133-.015.148 0 .045-.045.06-.134.045-.074-.015-.118-.045-.133-.09zm.014-.534c-.03-.133.015-.207.133-.207.134 0 .193.015.193.06v.251c0 .015.015.03.044.015.06-.015.09-.015.074-.015.119 0 .193.089.178.207-.015.06-.06.09-.133.09a.263.263 0 0 1-.267-.208c0-.06-.207-.119-.222-.193zm.044-.489c-.074-.089-.03-.163.104-.222.089-.03.163.015.222.133.045.104.03.163-.074.163-.118 0-.207-.03-.252-.074zm0-4.34l.134.118.059-.06a.353.353 0 0 0-.178-.059zm.06 3.851c-.06-.074-.03-.148.089-.207.074-.044.148-.015.192.074.015.03.03.074.03.133-.015.045-.03.074-.074.074-.104 0-.193-.03-.237-.074zm.03-2.874c-.075-.089-.03-.133.118-.133.104 0 .178.03.222.103.044.074-.015.119-.148.134-.074.015-.133-.015-.193-.104zm.088 2.163c.06-.074.252.074.252.134-.015.088-.133.133-.326.133 0-.133.03-.222.074-.267zm.015-3.378v.06c.06 0 .089-.016.089-.06zm.207 3.037c-.163 0-.222-.059-.177-.118.014-.045.044-.06.089-.06.059 0 .088.06.088.178zm-.133 2.905c-.074-.075-.089-.163-.015-.238.045-.044.104-.044.208.03.044.03.059.06.059.104 0 .103-.045.148-.148.148a.135.135 0 0 1-.104-.045zm.193-2.12c-.03-.073 0-.133.074-.147.089-.015.133 0 .133.044v.207l-.06.06a.316.316 0 0 1-.147-.163zm.059-2.948c-.015-.015-.015-.03-.03-.03s-.015.015-.03.03c0 .015.016.03.03.03.015 0 .015-.015.03-.03zm0 5.66c-.015-.015-.015-.03-.03-.03s-.015.015-.03.03c0 .015.016.015.03.03zm-.03-6.771c0 .044.03.104.09.148v-.133c-.016-.104-.045-.104-.09-.03zm.06.326v.118c.044 0 .059-.014.059-.059-.015-.044-.045-.074-.06-.06zm.074.533c0 .015 0 .015-.015.015.03.045.06.06.089.06 0-.045-.03-.075-.074-.075zm.03-.281c.133 0 .147-.015.147-.148-.103 0-.148.044-.148.148zm.222.326c-.178.059-.223.207-.178.222.015.015.044.015.089.015a.775.775 0 0 1 .089-.237zm-.193.978c.118-.045-.074-.045 0 0zm.074 2.652v.06h.03v-.06zm.06 1.719a.032.032 0 0 0-.03-.03c-.015 0-.015.015-.015.03 0 .014 0 .03.015.03.014 0 .014-.016.03-.03zm-.03-4.564c.014.074.014.119.03.119.029-.03.044-.06.029-.074.015-.06 0-.09-.015-.104-.03.015-.044.03-.044.06zm.044 3.882c-.044-.104-.044.074 0 0zM18.145 7.364c0 .444.252.77.74.963.134.06.223.089.267.089h.785c0-.074-.118-.178-.118-.193 0-.044.06-.074.163-.074-.045-.015-.06-.06-.06-.104 0-.014.03-.03.075-.074.103-.059.163-.103.178-.133.044-.044-.297-.163-.4-.207-.267-.163-.46-.297-.593-.386l-.09-.059.03-.044c.12 0 .282.089.475.252.044.044.163.118.34.192.178.074.297.104.341.104.074-.074.163-.074.237 0 .015.015.03.044.015.074a.421.421 0 0 1-.193.163c.015.015.03.044.03.074 0 .163-.193.148-.326.193-.015 0-.03.03-.015.074.015.074.015.118.03.133 0 .015.03 0 .074-.015.06-.015.222.045.282.045 0-.015-.03-.074-.075-.163 0-.045.09-.163.163-.119.119.074.134.148.045.237.044.015.074.03.118.03l.06-.03a.361.361 0 0 1 .178 0c.088.015.148.03.177.03h.208c.192 0-.015-.104.296-.104.074 0 .163.104.148.104.252 0 .385-.015.415-.03-.03-.015-.044-.03-.03-.074 0-.044.015-.06.045-.074.118-.044.34.178.356.178.192-.089.31-.178.37-.252.074-.015.118-.03.148-.03.089-.03.133-.074.133-.133 0 0-.014-.03-.03-.074v-.03c.06-.059.105-.103.149-.133.015-.104 0-.133.06-.193-.06-.03-.164.015-.327.148-.074.06-.133.09-.177.09-.045 0-.075-.03-.075-.09.178-.325.519-.385.593-.4.015-.03.015-.103-.03-.207-.014-.044-.014-.06-.03-.06-.044-.014-.073-.014-.088-.014-.207-.045-.296-.104-.282-.163.03-.06.03-.089 0-.089-.014-.015-.03-.015-.074 0h-.177c-.015 0-.03-.015-.03-.044 0-.03.015-.045.03-.06.044-.03.103-.03.177 0 .104.03.163.045.178.045.045 0 .133-.06.178-.06 0 .045 0 .09-.015.104-.044.06-.044.104.03.119.074.044.133.044.163 0 .015-.015.015-.06.015-.134-.045-.044-.06-.074-.06-.089v-.074c.015-.014.03-.03.03-.044l-.074-.074c-.015-.015-.015-.06-.015-.119.015-.37.119-.4.119-.4 0-.118-.06-.178-.193-.192-.133-.015-.193-.045-.193-.06 0-.014.06-.044.193-.103.074-.015.148-.134.163-.148.015-.119.03-.193.03-.238-.075-.014-.104-.03-.119-.059-.044-.074.148-.148.148-.207 0-.045-.089-.208-.148-.134-.148.149-.237.297-.267.43-.015.074.148.119.148.178.015.074-.148.118-.192.163l-.326.46c-.045.044-.06.088-.06.103h.371c.044 0 .074.03.06.089l-.06.118c-.074.104-.133.149-.178.149v-.178c-.074-.045-.148-.06-.192-.074-.074-.015-.119-.015-.149.03l-.266.251h-.09c0-.044 0-.074.016-.089.014-.03 0-.059-.045-.074-.103-.044-.118-.089-.03-.133.223-.015.297 0 .341-.06.03-.03.03-.059-.014-.074-.075-.03-.119-.044-.119-.059-.03-.015-.03-.044.015-.06a.665.665 0 0 1 .252-.058c.118-.015.148-.06.103-.134-.044-.074-.03-.133.045-.192l-.03-.03h-.207s-.03.045-.104.148c-.192.252-.37.415-.504.504-.103.104-.148.163-.163.207-.089.075-.133.119-.148.119-.044 0-.104-.03-.178-.089-.118-.074-.251-.089-.414-.015-.193.104-.297.09-.341-.03-.015-.044-.03-.059-.06-.059h-.281c-.074-.044-.148-.059-.193-.074 0-.044 0-.074.015-.103 0-.03-.015-.06-.06-.09-.103-.059-.147-.103-.103-.148.045-.044.09-.074.104-.059.015 0 .074.03.089.03l.06-.104c.029-.089.044-.192.058-.311 0 0-.014-.074-.059-.237-.015-.06 0-.089.074-.089h.519c.074-.074.148-.119.192-.148.015 0 .03.015.06.06.059.073.133.103.237.118.074 0 .118 0 .163-.015.03.03.044.089.044.192 0 .015-.015.045-.03.09-.014.029-.014.059 0 .073.045.074.06.104.06.104a.433.433 0 0 0-.03.133c.015.149.03.208.03.163-.015.163-.03.238-.03.208v.148c.104.045.193.03.267-.06-.074-.073-.104-.133-.09-.192.075-.015.15-.03.223-.015.104-.014.163-.044.178-.118 0-.06-.104-.06-.104-.119 0-.03.06-.059.193-.074.118-.118.148-.266.207-.31.074-.075.119-.134.148-.179.252-.34.4-.548.445-.592.06-.06.074-.09.06-.104a.236.236 0 0 0-.12-.045c-.029-.014-.029-.044 0-.088.016-.045.045-.06.075-.075.015 0 .074 0 .178.015.059.015.088.03.088.045 0 0-.014.03-.059.103a8.28 8.28 0 0 1-.385.49c-.03.044-.044.059-.044.073 0 .06.177.163.222.119a.152.152 0 0 0 .074-.089c.015-.044.015-.074-.03-.089-.074-.015-.089-.044-.074-.089.03-.044.06-.074.104-.059l.074.06c.015.014.163-.12.178-.164-.015.015-.015-.015-.03-.089-.015-.103.089-.103.163-.118.015 0 .015-.045.015-.133v-.134s-.074-.03-.208-.089c-.162-.059.134-.207.193-.266.03-.045.045-.074.045-.119-.119 0-.386-.089-.326-.207.074-.074.118-.119.163-.134a.54.54 0 0 0 .133-.178c0-.044-.045-.074-.148-.074h-.208c-.014 0-.03-.03-.03-.089.03-.103.104-.148.238-.103.044.015.059.03.074.044.044.045.06.03.074-.044.015-.045 0-.074-.03-.104s-.03-.104 0-.222c.015-.074-.03-.222-.03-.267 0-.104.12-.252.12-.326 0-.104-.208-.296-.208-.4h.103c.015-.015.03-.044.015-.104a.947.947 0 0 0-.089-.237c-.074-.133-.118-.192-.133-.192l-.222-.045c-.03-.059 0-.133.074-.237.089-.104.133-.178.118-.192-.03-.06-.088-.06-.192 0-.193.133-.119-.46-.282-.519-.015.015-.074.163-.133.148-.045-.133-.045-.267-.104-.267-.015 0-.06.075-.252.06-.133-.015-.192-.03-.207-.03v.208c-.06 0-.089-.03-.104-.104-.015-.03-.03-.045-.044-.045h-.208v.074S21.523.163 21.42.09a.5.5 0 0 0-.178-.06c-.118 0-.37.06-.474.06V.074c-.281 0-.474-.015-.548-.03l-.089.09c-.044.044-.074.029-.089-.045-.044-.015-.074-.03-.118-.03-.208-.015-.326-.015-.356-.015-.163 0-.252.075-.252.238v.474c-.044 0-.06-.06-.104-.06 0 .104.015.178.045.193.089.015.133.044.133.06 0 .014-.015.014-.03.029h-.073c-.045 0-.06.015-.06.03v.518c.045.119.06.178.06.193 0 .059-.06.163-.06.222v.104c.03.03.06.044.09.044.044.03.058.074.044.133h.414c.045-.088.104-.118.149-.088.03.03.044.059.059.088h.563c.03.015.06.03.089.03.015 0 .074-.03.089-.03.044 0 .148.03.192.03l.09-.03h.014c.193 0 .267.075.267.267.015 0 .089-.044.133-.03.06.015.104.045.119.09.03.074 0 .103-.104.118-.044 0-.119-.03-.163-.03v.4l.03.03c.074-.089.133-.118.177-.074.045.03.06.06.06.104.014.044 0 .074-.045.089a2.78 2.78 0 0 1-.296-.045c-.045-.015-.133-.015-.282-.015-.059.074-.103.178-.207.134-.045-.015-.089-.045-.104-.104-.015-.015-.015-.03-.03-.03h-1.496c-.489.193-.785.445-.874.77-.03.267-.045.46-.045.593-.014.178-.014.341-.014.475zM19.24.148c.104-.044-.074-.044 0 0zm0 2.06c.104-.06-.074-.06 0 0zm.133-2.134a.032.032 0 0 0-.03-.03c-.014 0-.014.015-.014.03s0 .03.015.03.03-.015.03-.03zm.104 1.911c-.104-.044.104-.044 0 0zm.015 2.682c.015-.015.015-.03.03-.03.014 0 .03.015.03.03a.045.045 0 0 1 0 .06c0 .014-.016.03-.03.03-.015 0-.015-.016-.03-.03zm.089-2.785c-.03-.015-.03-.03 0-.06.03-.044.06-.044.089-.014-.015.044-.045.059-.09.074zm.015 3.793c-.045.118-.045-.074 0 0zm-.015.489c.104 0 .148.03.133.103-.015.03-.044.045-.089.03-.03-.015-.044-.044-.044-.089zm.074-2.638c-.045-.014-.045-.03 0-.074l.074-.089c.074-.014.133.074.133.149-.014.03-.044.044-.059.03-.015 0-.074 0-.148-.016zm0 .49c-.045-.045 0-.09.133-.134.045-.015.09-.015.119.03-.06.074-.134.103-.237.118l-.015-.015zm.015.533l.163-.148c.015-.03.044-.03.089 0a.152.152 0 0 1 .089.074c.014.074 0 .103-.045.103h-.252zm.074-3.378c-.015-.015.118-.163.163-.119.015.015-.104.163-.163.119zm.06 4.267c.073-.074.162-.074.236 0 .074.074.06.103-.03.103h-.251c0-.044.014-.074.044-.103zm-.03 1.318l.03-.03.029.03-.03.03zm.044-1.733c-.015-.015-.03-.045-.015-.089s.03-.06.06-.06c.073 0 .133.03.162.09.045.074.03.118-.044.118-.074.015-.119-.015-.163-.06zm-.015-4.92c0-.014.015-.029.03-.029s.015.015.015.03 0 .03-.015.03a.032.032 0 0 1-.03-.03zm.089 1.512c0 .044-.015.06-.06.06zm.044 4.949c-.074-.045-.059-.09.015-.134.03-.014.074-.014.119 0 .044.015.06.03.06.06s-.03.059-.075.074c-.044.015-.089.015-.119 0zm.015-3.349h.03v.03h-.03zm.045.563c-.06-.03-.06-.059.015-.089h.088c0 .104-.03.134-.103.09zm.059.578c-.044 0-.074-.015-.074-.06 0-.103.06-.147.163-.147.044 0 .074.03.074.074 0 .089-.06.133-.163.133zm.148 2.697c-.178 0-.267-.074-.222-.119.03-.03.06-.044.104-.03.074.015.118.06.118.149zm-.207.415c0-.045.044-.06.118-.045s.119.03.148.06c.06.074.03.118-.074.118-.074 0-.133-.03-.163-.074zm.074-2.653a.148.148 0 0 1 .06-.163c.044-.03.073-.014.118.045.014.044-.09.148-.149.148-.014 0-.014-.015-.03-.03zm0-3.956c.06-.089.104-.118.133-.074.03.03 0 .074-.074.134zm.06 5.23v.149h.029V6.09zm.058-4.696a.032.032 0 0 1-.03-.03c-.014-.03 0-.044.03-.044.119-.045.178-.015.178.059 0 .015-.06.03-.178.015zm.045.474c-.045.118-.045-.074 0 0zm.015 4.919c-.03-.03-.03-.044 0-.06.014-.014.044 0 .059.03 0 .03-.015.045-.06.03zm0 .474c0-.015.03-.044.089-.118.044 0 .074.014.088.03-.014.103-.044.147-.103.147-.015 0-.045-.014-.074-.059zm.089.637c0-.015-.015-.015-.03-.03-.015 0-.015.015-.03.03.015.015.015.03.03.03s.015-.015.03-.03zm-.015-4.385c-.015-.015-.015-.03-.015-.045 0-.089.044-.133.118-.133.015 0 .03 0 .045.015.044.044.044.103 0 .148-.045.044-.089.044-.148.015zm.03.43c0-.075.044-.104.118-.104.015 0 .03.014.044.044.015.044.015.089-.015.104-.03.03-.074.03-.118 0zm.014 1.08c-.03-.103.045-.147.208-.147.103 0 .163.03.163.103 0 .074-.06.119-.193.119-.089 0-.148-.03-.178-.074zm.03-.533c-.015-.074 0-.118.044-.133.06-.044.09-.044.104 0 .015.074.015.119-.03.148-.059.03-.103.03-.118-.015zm.089-3.363c-.03-.015-.045-.03-.03-.06A.158.158 0 0 1 20.5.994c.015-.015.045-.015.09 0 .044.015.059.044.073.074v.015c0 .044-.059.059-.177.044zm0 .46c.044-.075.074-.104.118-.104.09 0 .134.044.134.133h-.223zm.059.518c0-.074.03-.104.104-.089.059 0 .103.03.148.074l-.119.06c-.059.014-.103 0-.133-.03zm.207 4.949c-.103.015-.222-.045-.163-.119.015-.044.06-.074.104-.06.133.016.208.06.208.15-.015 0-.075.014-.149.029zm.163.504c-.252 0-.34-.045-.296-.09.06-.059.104-.148.148-.103l.148.148zm-.281-3.853c0-.015.03-.06.089-.118.03-.03.059-.045.103-.03.119.044.149.089.104.163 0 .015-.044.015-.133.015h-.134zm.118.356c.03-.045.074-.045.134 0a.2.2 0 0 1 .089.103c.014.06-.178.09-.297.09 0-.075.03-.149.074-.193zm-.03 3.956c-.044-.045-.059-.09-.014-.134.044-.044.104-.03.178.03l.074.06c.044.044-.09.088-.148.073-.045 0-.074-.014-.09-.03zm.06-7.186c-.074-.045-.044-.09.06-.148.014-.015.073.014.147.074.075.059.075.089-.014.103a.58.58 0 0 1-.193-.03zm.03 3.911c-.074-.044-.06-.089.014-.148.045-.044.09-.03.163.015.03.015.045.044.045.06 0 .044-.03.073-.089.088a.186.186 0 0 1-.133-.015zm.03-3.407c-.016-.015-.03-.045-.016-.09a.116.116 0 0 1 .06-.059c.074-.014.281.119.178.178-.03.03-.06.045-.09.03-.029 0-.073-.015-.133-.06zm.059.503c-.075-.059-.06-.089.03-.103.073-.015.133 0 .177.044.044.06.03.089-.044.104-.075.015-.134 0-.163-.045zm.385 4.949c-.193 0-.311-.03-.341-.089-.03-.06 0-.089.074-.104.06 0 .119.015.163.045.148.044.222.133.237.252-.03.044-.06.074-.089.074-.044-.015-.059-.045-.044-.119zm-.297-3.363c-.059-.045.09-.178.149-.178.03 0 .074.044.133.118.015.074-.015.104-.104.119a.19.19 0 0 1-.178-.06zm.03 4.296c-.03-.03-.03-.059 0-.103.015-.015.045-.015.089-.015.104 0 .163.03.193.074s0 .074-.104.074a.426.426 0 0 1-.178-.03zm.207-.459c-.133 0-.207-.06-.207-.178.207 0 .311.03.311.104 0 .06-.03.089-.104.074zm-.177-3.334a.112.112 0 0 1-.03-.059c0-.074.06-.118.163-.118.044 0 .089.03.104.074.044.133.03.192-.045.207-.044.015-.103-.03-.192-.104zm.015.504c-.015-.06.088-.163.133-.163.044 0 .148.104.133.163-.015.015-.104.03-.237.03zm0 3.778c-.03-.074 0-.118.074-.118.074-.015.133.015.177.089.015.015 0 .044-.014.06-.104.103-.178.088-.237-.03zm.03-3.289c0-.089.044-.133.147-.133.119 0 .178.03.178.103 0 .045-.044.075-.148.09-.104.014-.163 0-.178-.045zm.34-3.808c-.282 0-.311-.044-.311-.089 0-.03.059-.103.192-.222.119-.104.193-.193.208-.193.089 0 .163.03.207.104.074.09.045.134-.103.148-.149.015-.223.015-.223.03-.015.03-.015.074 0 .119.015.044.03.088.03.103zm-.222.445c-.015-.015-.03-.03-.03-.045 0-.044.03-.059.074-.074.045-.015.074-.015.089 0 .044.045.03.074-.015.119-.044.03-.089.03-.118 0zm.03.518c-.045-.103-.016-.163.118-.163.06 0 .104.03.118.074.045.104-.074.119-.177.104-.03 0-.045 0-.06-.015zM21.33 3.6c-.015-.074.03-.118.134-.118.118 0 .177.03.177.104 0 .059-.044.089-.148.089-.089-.015-.148-.03-.163-.075zm.015 3.853c-.044-.09-.03-.148.06-.163.073-.015.147.015.207.074.03.044.03.074.015.089-.075.015-.163.03-.238.03-.03 0-.044-.015-.044-.03zm.222-3.275c-.163.015-.192-.015-.207-.059 0-.015.044-.074.148-.178l.148.119c.015.015.03.03.03.044 0 .045-.045.06-.119.074zm-.148 3.764c-.089-.074-.074-.134.045-.163.059-.015.118.015.192.089.074.089.074.133-.03.133-.103 0-.162-.015-.207-.06zm.015-3.29c-.074-.103-.045-.163.06-.177.103 0 .221.118.221.163-.014.044-.03.059-.059.059-.104.015-.178 0-.222-.045zm.03-4.208c-.104-.044.103-.044 0 0zm.014 4.638c-.014-.044.03-.074.119-.089.089 0 .148.03.163.074.015.045 0 .09-.045.104a.283.283 0 0 1-.237-.089zm.074-3.793c-.088-.044-.088-.089 0-.133.075-.045.134-.045.208 0 .074.059.074.103-.015.148a.295.295 0 0 1-.193-.015zm-.03 4.297c0-.074.105-.104.297-.104-.015-.133.015-.222.104-.267.074-.044.207.045.207.119-.118 0-.192.015-.222.06a.094.094 0 0 0 0 .088c.015.045.03.06.03.074 0 .03-.06.06-.193.09-.089.014-.148.014-.178 0zm.253-3.764c-.193 0-.282-.03-.223-.103.03-.045.06-.06.09-.074.118-.045.207.074.207.133-.015.03-.03.044-.074.044zm-.178.46c-.015-.074.03-.119.104-.134.089 0 .148.03.192.09.045.044.03.073-.044.073h-.222zm.03.578c-.104-.06-.075-.119.074-.178.074-.03.148-.015.222.044.044.06-.03.148-.089.163a.295.295 0 0 1-.207-.03zm.03.474c-.03-.03-.03-.06 0-.09.073-.073.118-.103.147-.088.09.015.149.06.163.133.015.09-.03.134-.148.134-.044 0-.089-.03-.163-.09zm-.03 3.274c0-.044.014-.074.059-.103.044-.045.089-.045.104 0 .03.044.03.074.014.103a.135.135 0 0 1-.118.06zm.088.563c-.03-.03-.03-.059-.014-.103.014-.045.03-.06.074-.075.103-.014.163.015.192.104.015.045-.014.09-.089.134-.044.03-.088.014-.163-.06zm.178-3.348a.319.319 0 0 0-.148.03c-.044-.015-.044-.06-.015-.104l.09-.045c.133-.044.207 0 .207.104 0 .044-.015.074-.06.074-.014 0-.03-.015-.074-.06zm-.178 3.808c0-.119.03-.163.149-.119.03.015.074.06.118.104.015.015 0 .03-.015.044h-.222c-.015 0-.015-.015-.03-.03zM21.76.356c-.045-.015-.045-.045-.015-.074l.104.088c-.045 0-.074 0-.09-.014zm-.015 3.956c0-.06.089-.163.282-.312.103-.074.163-.103.207-.088.104.014.148.059.148.118 0 .163-.222.133-.222.148l-.06.104c-.044.104-.088.163-.147.178-.06.015-.119-.015-.178-.09zm.03 3.822c-.015-.03-.03-.059-.015-.074.015-.03.03-.044.074-.044.104.015.178.044.207.089.015.03.015.059 0 .089-.014.03-.044.044-.089.044a.275.275 0 0 1-.177-.104zm0-2.296l.044-.03.03.03-.03.044zm.074-.963c-.104-.03-.09-.09.015-.163.044-.03.089-.03.148 0s.089.074.074.118l-.074.045a.303.303 0 0 1-.163 0zm0-3.897c-.074-.045.118-.163.178-.208.103-.148.177-.222.251-.222.045 0 .075.03.119.074.03.03.03.06 0 .09-.015.014-.178-.03-.222.147-.015.119-.06.178-.104.178a.418.418 0 0 1-.222-.06zm.06-.519v.09h-.045V.503zm.014 1.037c-.06-.03-.045-.074.03-.133.044-.044.103-.03.177.03.074.074.074.118 0 .133-.103.015-.177 0-.207-.03zm.03.504c-.015 0-.015-.015-.03-.03 0-.073.044-.118.133-.118.015 0 .03.015.03.045 0 .088-.045.118-.133.103zm0 .548c-.06-.044.088-.192.162-.177.09.014.134.044.149.103.014.074-.015.104-.119.104-.074 0-.133-.015-.192-.03zm.014.49a.429.429 0 0 1 .163-.164c.104 0 .163.045.163.134 0 .03-.015.06-.059.074-.133.06-.222.044-.267-.045zm.045 3.792c.015-.014.03-.03.059-.03-.015.016-.03.03-.06.03zm.044-3.318c0-.119.06-.149.178-.104.133.06.163.118.089.163h-.237c-.015 0-.03-.015-.03-.06zm.252 3.882c-.193 0-.311-.09-.252-.149.03-.014.074-.014.119 0 .089.015.133.074.133.149zm-.193.459c-.074-.045-.059-.09.015-.104.134-.03.208 0 .223.089l-.045.06a.41.41 0 0 1-.193-.045zm0-3.304a.466.466 0 0 1 .149-.148c.163.044.207.103.118.177h-.237c-.015 0-.015-.014-.03-.03zm.015-3.32c-.015-.014.015-.044.074-.103l.09-.089c.044-.015.177.09.177.134 0 .044-.104.074-.326.074-.015 0-.015 0-.015-.015zm0 .816c0-.045 0-.104.06-.104.014 0 .03.015.044.03-.03.044-.06.074-.104.074zm.09 3.007c-.03-.03-.03-.059 0-.103.014-.045.044-.06.088-.045.074.015.133.045.163.119.015.044.015.074-.03.089-.03.015-.074.015-.118 0-.045-.015-.089-.03-.104-.06zm0 1.897c-.03-.015-.016-.044.029-.074.044-.015.074-.015.089.015-.015.044-.06.059-.104.074l-.015-.015zm.058-5.23c-.014-.015-.014-.045 0-.074.015-.045.03-.06.06-.06.103-.03.163 0 .163.104 0 .03-.03.045-.09.045-.073.014-.118 0-.133-.015zm.03.503c-.044-.03-.03-.074.045-.133.074-.06.207.045.207.119 0 .03-.03.044-.104.044a.319.319 0 0 1-.148-.03zm.296.697c-.222-.104-.355-.104-.31-.208.029-.163.31-.163.266-.207.044-.133.178-.237.296-.178.148.09.163.163.045.208-.09.044-.134.059-.134.074 0 .044.015.089.06.133.074.119.103.193.089.222-.015.015-.06.015-.134.015h-.133zm-.266.355c-.06-.059.103-.177.118-.177.134 0 .208.044.208.148 0 .015-.015.044-.045.06-.089.073-.178.058-.281-.03zm0 3.305c-.03-.03-.015-.074.044-.134.045-.044.09-.03.163.045.09.074.09.103-.015.118a.458.458 0 0 1-.192-.03zm-.015 1.837v.03h.03v-.03zm.089-1.363c-.03-.015-.045-.03-.03-.06 0-.03.015-.044.045-.059.103-.03.163 0 .163.09-.015.044-.074.044-.178.029zm0-3.29c-.074-.074-.06-.118.06-.148.073-.015.132 0 .207.074.074.074.044.119-.075.134a.22.22 0 0 1-.192-.06zm.015 3.793c-.015-.014-.015-.03 0-.059.014-.03.044-.044.059-.044.104 0 .133.03.104.089-.03.059-.09.059-.163.014zm.089-3.244c-.045-.015-.075-.03-.09-.06-.014-.014.12-.192.297-.118.104.044.104.104.015.178-.06.03-.134.03-.222 0zm-.03 3.793c-.015-.015-.015-.03-.015-.074 0-.03.015-.045.03-.06.089-.044.163-.03.207.06.015.03 0 .059-.074.074a.251.251 0 0 1-.148 0zm.074-3.32c-.074 0-.089-.029-.044-.103.014-.044.044-.06.118-.044.089 0 .119.03.074.089-.015.044-.074.059-.148.059zM22.545.653c-.044.118-.044-.074 0 0zm-.015 4.741c.015.015.208.119.223.09l.044-.149h-.207c.014 0-.015.015-.06.06zM22.56.89c-.074-.044-.06-.104.03-.148.014.044.222.06.222.163-.015.104-.104.089-.252-.015zm.178.548c-.074 0-.178-.015-.178-.148.148 0 .237.03.252.074.015.045-.015.074-.074.074zm-.09 1.17a.032.032 0 0 0-.029-.029c-.015 0-.015.015-.015.03s0 .03.015.03.03-.015.03-.03zm-.014-.68c-.03-.06 0-.105.074-.134.074-.015.133 0 .178.06.06.073-.178.088-.222.088-.015 0-.015 0-.03-.015zm.045.829l-.06.06h.06zm.088.77c-.074-.044-.074-.103-.03-.163.06-.074.134-.074.208-.014.074.074.09.118.045.163a.18.18 0 0 1-.223.014zm-.014 3.764c-.06-.03-.06-.074 0-.119.03-.03.074-.044.133-.03.074.015.074.06.03.12-.045.044-.09.058-.163.029zm.03-3.32c-.016-.014-.016-.044 0-.088.014-.044.029-.06.058-.06.134-.029.208 0 .208.104 0 .045-.03.06-.104.074-.074.015-.133 0-.163-.03zM22.915.4c0-.015 0-.03-.015-.03a.032.032 0 0 0-.03.03c0 .015.015.03.03.03s.015-.015.015-.03zm.03 1.2c0-.06.014-.104.133-.089.059.015.088.045.088.074 0 .06-.059.09-.177.074-.03-.014-.045-.03-.045-.059zm.162 4.49l.03-.06c.015-.03-.045-.044-.163-.044.015-.074.044-.119.104-.133.074-.015.118-.015.133.03.03.073.03.133.015.192-.045.104-.074.118-.119.044zm-.118-3.971c-.015-.074.03-.119.133-.119h.193c0 .104-.104.148-.297.148-.015 0-.015-.014-.03-.03zm.089 4.386c-.06 0-.104-.06-.104-.075 0-.059.074-.088.207-.088 0 .103-.03.163-.103.163zm-.045-3.838c-.074-.03-.074-.074 0-.133.015-.015.045-.015.104-.015.074.044.104.089.089.118-.015.06-.09.074-.193.03zm.06-1.719c0 .06.029.09.073.09v-.09zm.014 5.29c0-.015.015-.03.03-.03s.015.015.015.03 0 .03-.015.03a.032.032 0 0 1-.03-.03zm.09-5.171l.118.118c.044-.014.044-.044.03-.118-.016-.045-.045-.045-.104-.03zm.177 4.652c0-.015-.015-.015-.03-.03-.015 0-.015.015-.03.03 0 .015.015.03.03.03s.015-.015.03-.03zm.074-4.386c0-.014 0-.014-.015-.014-.015-.015-.015 0-.015.014 0 .015 0 .03.015.03s.015-.015.015-.03z"/></g></svg>