<svg xmlns="http://www.w3.org/2000/svg" viewBox="0 0 20.83 8.52" height="32.2" width="78.728"><g aria-label="Info" fill="#a41c31" stroke-width=".265"><path style="font-variant-ligatures:normal;font-variant-numeric:normal;font-variant-caps:normal;font-feature-settings:normal" d="M.014 8.149h-.015c0 .074.015.104.045.104s.059-.015.089-.06zm.178-1.14c.074.058.148.088.222.103.133.044.207.06.222.03.015-.045.015-.09 0-.12-.059-.073-.133-.088-.118-.147.015-.03.044-.045.089-.045.237 0 .37.06.385.193.015.044.03.074.044.074.104.015.193.03.267.03.06-.045.119-.09.104-.104a.353.353 0 0 0-.178-.06c-.133-.029-.193-.073-.163-.118.015-.044.074-.06.178-.06 0-.014-.104-.044-.326-.088-.148-.015-.222-.074-.222-.148l.03-.06C.74 6.46.68 6.445.546 6.43.43 6.415.37 6.386.37 6.341v-.207c0-.045.03-.045.074-.03s.059.03.074.045c.103.133.207.207.281.207.193 0 .237.045.134.133-.015.06.074.104.252.119.103.015.177.074.192.163.015.044.015.089.03.104 0 .015.03.015.074 0 .044 0 .192.044.207.044.119-.044.163-.089.148-.148-.044-.015-.103-.015-.148-.015-.207-.015-.296-.074-.266-.148.014-.015.03-.044.074-.074.014-.015.014-.03-.015-.045-.09-.014-.163-.03-.208-.03-.163-.014-.251-.073-.251-.147l.044-.06c0-.03-.044-.059-.133-.074C.829 6.164.68 6.134.696 6.06c.014-.045.03-.06.03-.074L.517 5.94a1.197 1.197 0 0 1-.134-.31C.37 5.614.37 5.6.4 5.585c.104-.015.208.118.311.222-.014 0 .015 0 .09-.015.133-.015.207.03.207.133 0 .015-.045.075-.045.119.045.015.356.06.37.163-.014.044-.044.06-.059.074.015.015.074.03.193.044.089.015.148.06.163.104-.119.06-.104.134.044.208.015.014.06.014.134.014h.31c.105 0 .15-.044.15-.118-.045 0-.12-.045-.164-.045s-.074.06-.089.06c-.074.044-.252-.09-.237-.163.015-.074.06-.09.134-.06.103.03.148.045.162.045a.212.212 0 0 0 .06-.148l.044-.193c.06-.163.074-.252.03-.296-.045-.015-.015-.208-.09-.208-.073-.014-.266-.044-.28-.118-.015-.045.014-.089.088-.104.045-.015.104 0 .163.015 0-.074.09-.193.09-.267-.016-.118-.297-.133-.342-.192a.2.2 0 0 1 .104-.09c.074-.014.208.075.267.075v-.193h.03c0-.178-.312-.237-.312-.34l.03-.06c.015-.044.015-.06-.015-.074-.015-.015-.06-.015-.104 0s-.074.015-.088.015c-.03-.015-.045-.045-.045-.089l.045-.06c.192.045.296.06.296.06.074.119.044.237.222.237 0-.252-.118-.46-.074-.504s.074-.074.104-.089v-.31l-.074-.045c.014-.06.074-.208.074-.222 0-.06-.074-.134-.09-.149-.014-.03-.014-.089 0-.163 0-.03.016-.059.03-.088 0 0 .06-.045.06-.06 0 0-.015-.03-.06-.089-.014-.014-.014-.03 0-.059.015-.03.03-.044.03-.06 0-.044-.03-.103-.03-.118.015-.133.03-.237.06-.31l-.045-.223c-.03-.104-.044-.163-.044-.163.104-.104.133-.208.089-.311a1.364 1.364 0 0 1-.03-.282c0-.104.06-.37.06-.489C2.31.474 2.28.37 2.265.297c-.03-.134-.074-.223-.133-.238 0 0-.045.015-.119.03-.044 0-.148-.06-.222-.06H.132l-.03.03a.303.303 0 0 1 0 .163c.016.163.03.237.03.207 0 .045-.044.134-.044.178s.015.104.03.178a1.92 1.92 0 0 1 0 .415 7 7 0 0 0-.045.4c.015.148.015.252.03.326-.015.074-.03.118-.03.133v1.69c.06.014.09.029.09.073 0 .03-.03.06-.09.075v.355h.119l.207.222c.06.045-.044.193-.163.149C.176 4.608.132 4.4.058 4.4v.223c.015.074.03.133.06.148.133.103.207.163.192.207a.365.365 0 0 1-.059.148c-.074.045-.119 0-.148-.163 0-.03-.015-.044-.03-.044-.015.074-.03.133-.03.178 0 .103.045.192.149.252.059.03.074.074.059.118-.044.104-.207.104-.207.104v.222a.255.255 0 0 1 .237.237c0 .074-.015.119-.09.104-.014 0-.103-.074-.147-.074v.222c0 .015.03.03.103.044a.473.473 0 0 1 .09.104c.029.104.118.163.266.178.104.015.118.06.044.133L.43 6.86c-.045-.015-.074-.045-.09-.06l.03-.059c.015-.044-.074-.074-.237-.089-.044-.014-.074-.014-.088 0-.015.03-.015.06-.015.104a.557.557 0 0 0 .237.134c.044.014.06.044.044.088-.015.03-.044.045-.089.03zM.044 5.436v.03h.03v-.03zm0 .475v.044h.03v-.044zm.03 1.837c-.06.03-.03.074.088.133.03-.03.045-.059.06-.103 0-.03-.015-.045-.06-.045-.044-.015-.074 0-.089.015zm.014-.622c0-.015 0-.03-.015-.03s-.015.015-.015.03c0 .014 0 .03.015.03s.015-.016.015-.03zm.222.37c0 .015-.044.074-.044.119h.281c.045 0 .06-.015.06-.06.014-.044 0-.074-.03-.089-.104-.044-.193-.059-.252-.074-.074-.118-.044-.222-.222-.222v.104zM.147 3.363c0-.059.015-.118.074-.103.045 0 .06.014.06.044 0 .044-.045.06-.134.06zm.03-.504c-.06-.044-.06-.059 0-.074.044-.014.089-.014.119 0 .059.015-.06.09-.119.074zM.192 4.03c.03-.06.06-.06.089.015-.015.03-.045.044-.104.044 0-.015 0-.044.015-.059zm.044-.963c-.044.104-.044-.104 0 0zM.221 2.015l.03-.03.03.03-.03.03zm.104-.563c-.044.118-.044-.074 0 0zm-.03 6.964c0 .089.075.103.223.044-.03-.03-.09-.044-.178-.044zm.03-.43c-.03.044 0 .074.104.119.06.03.104.014.148-.045a.602.602 0 0 0-.148-.133c-.045-.015-.074 0-.104.059zm.148-2.652A.081.081 0 0 1 .43 5.26l.03-.074c0-.015-.015-.045-.045-.074-.015-.015 0-.03.044-.075.06-.014.134.134.134.134l.192.148c.015.03 0 .06-.014.089a.674.674 0 0 1-.297-.074zm0-1.215a.094.094 0 0 1 0-.09c.03-.029.06-.029.074 0 .015.03 0 .06-.014.09-.03.03-.045.03-.06 0zm.015.711v-.119c.015-.133.06-.163.133-.103.104.103.178.178.223.237-.045.03-.119.044-.208.03zm.015-.504c0-.118.03-.148.133-.133.06 0 .09.015.09.044 0 .06-.075.09-.223.09zm0-1.215c0-.015 0-.104.06-.104.029.015.044.03.044.06s-.03.044-.104.044zm.015 4.593c-.03.119.103.178.385.178.074-.06.089-.104.06-.133-.06-.015-.104-.03-.149-.03-.237-.03-.178-.044-.252-.044-.015 0-.03.015-.044.03zm.044-5.422c.015-.045.045-.06.09-.075-.016.045-.045.06-.09.075zm.074-.564h.06c-.015.015-.03.03-.06.03zM.651 7.23c-.044.03-.03.06.045.104l.148.03c.133.014.192-.015.192-.104-.044 0-.118-.015-.207-.03s-.148-.015-.178 0zM.74 4.4c0-.103.044-.148.148-.118.06.015.045.044-.03.089a.28.28 0 0 1-.118.03zm.282 1.274c-.178 0-.297-.133-.223-.177.015-.015.06-.015.104 0 .074.015.119.074.119.177zM.844 4.608c-.015-.015-.03-.03-.03-.045 0-.089.045-.133.133-.133.075 0 .149.044.238.148.03.045.014.06-.03.074a.572.572 0 0 1-.311-.044zm-.015.459c-.045-.074-.015-.119.06-.133.044-.015.088-.015.103 0l.133.133c-.044.074-.103.104-.148.104a.25.25 0 0 1-.148-.104zm0-1.704c.015-.044.06-.06.104-.074.044.015.044.044 0 .06a.21.21 0 0 1-.09.029L.83 3.363zm.044.163l.03-.03.03.03-.03.03zM.947 2.52c-.044.118-.044-.104 0 0zm.09 1.378c-.06 0-.104-.015-.104-.074.074 0 .103.03.103.074zM.932 2.8l.03-.03.044.03-.045.03zm0 5.66v.03h.03v-.03zm.103-.933c-.03.015-.044.044-.03.059 0 .015.016.03.045.03h.134c.192 0 .281-.015.266-.06 0-.059-.059-.074-.178-.059-.074 0-.163.015-.237.03zm-.014.504c0 .074.059.103.192.103.074-.044.119-.089.119-.103zm.03.444c.103-.044-.105-.044 0 0zm.251-2.548c-.178.014-.252-.06-.207-.119.014-.044.03-.06.03-.074 0 0-.045-.06-.045-.133.133 0 .192.014.148.059s-.06.074-.03.089c.074.015.149.03.163.103.015.045-.015.06-.059.075zM1.17 3.6c-.015-.015 0-.03.044-.074.03.015.03.045.015.074-.015.03-.044.03-.06 0zm.044 1.541c-.03 0-.044-.015-.06-.044l.03-.03c.015.015.03.045.03.074zM1.2 4.845c-.074-.06-.044-.104.074-.133.045-.015.104.03.163.103-.014.045-.03.06-.059.074a.316.316 0 0 1-.178-.044zm.015.548c-.074-.074-.074-.118 0-.133.06-.015.104-.015.148.03s.045.073 0 .118a.114.114 0 0 1-.148-.015zm0 1.941c.133.06.296.015.37.06a.99.99 0 0 0 .252-.104c-.074 0-.266-.06-.34-.074-.074 0-.223.088-.297.088 0 .015 0 .015.015.03zm0-4.223c-.044-.044-.03-.074.045-.089s.118 0 .133.06c.015.044 0 .059-.03.074-.015.015-.044.015-.074 0zm.015-.533c-.044-.045-.015-.06.074-.06 0 .104-.03.12-.074.06zm-.015 5.734v.03h.06v-.03zm.03-4c-.015-.045 0-.075.044-.075.03-.015.074-.015.134 0l.103.045c.074.03.119.059.104.103 0 .045-.015.06-.03.045l-.326-.089c-.014 0-.014-.015-.03-.03zm.015-.49c-.015-.014-.015-.03 0-.044.014-.03.044-.044.059-.044.03 0 .044.03.044.103-.044 0-.089 0-.103-.015zm.163 3.912h-.045c0 .074.045.133.133.148.119.015.193.015.208-.03.015-.014-.045-.118-.089-.118-.015 0-.074.03-.119.03zm.03-1.57c-.09-.06-.075-.104.058-.12.104-.014.178 0 .208.06.015.045.015.09-.015.104-.03.015-.074.015-.133 0s-.104-.03-.119-.045zm-.03 2.148v.03h.059v-.03zm.059-2.37c-.074-.016.06-.12.104-.075a.111.111 0 0 1-.104.074zm.03-.268c-.075-.059-.075-.118 0-.163.103-.074.34.119.207.178-.089.045-.163.03-.208-.015zm.03-.533c-.016-.015-.03-.03-.03-.044 0-.03.03-.06.074-.074.044-.015.088-.015.118 0 .015.014.03.03.03.044 0 .03-.03.06-.074.074-.045.03-.09.03-.119 0zm-.016 1.882c-.044.044.015.059.148.059 0-.06-.044-.089-.133-.074l-.015.015zm-.015.563c.015.015.03.03.06.03v-.03zm.06-4.208c-.03 0-.045-.015-.03-.045 0-.03.015-.044.045-.044.044-.015.088.015.103.089zm.163.548c-.104 0-.178-.03-.178-.133.118 0 .178.044.178.133zM1.57 8.341v.015c.133 0 .192.045.192.119.015 0 .06-.03.104-.104.015-.044-.015-.06-.06-.06H1.6zm0-5.511c-.015-.03 0-.045.03-.06s.044 0 .059.03 0 .045-.03.06-.044 0-.06-.03zm.015 1.807c-.075-.103-.045-.148.074-.148.044 0 .089.03.133.104.044.044.015.089-.06.104-.044.014-.103 0-.147-.06zm.43 2.845c-.297 0-.342.045-.327.104.03.044.045.06.06.06h.34c.074 0 .09-.03.045-.105-.015-.03-.06-.044-.119-.059zm-.282-.474c-.015.015-.015.03-.015.044 0 .074.178.134.296.134.06-.045.104-.074.119-.104.03-.044 0-.074-.074-.104-.06-.014-.134.06-.178.06-.074-.015-.119-.015-.148-.03zm.133.785c-.03-.015-.044-.015-.06-.015 0 .104.045.134.134.075.045-.03.03-.045-.074-.06zm-.03-1.837a.112.112 0 0 1-.03-.06c0-.073.105-.103.297-.103 0 .118-.03.193-.074.207-.074.03-.133.015-.193-.044zm.045-2.326a.081.081 0 0 1-.074-.045l.03-.03c.03.015.044.045.044.075zm.03 4.385c-.045.015-.06.045-.03.09.03.044.06.059.104.059.059-.045.133-.074.118-.119-.03-.06-.089-.074-.192-.03zm-.015-4.904c.015-.03.044-.044.059-.03-.015.015-.03.03-.06.03zm0 5.379v.03h.059v-.03zm.03-5.72c-.015-.044.029-.074.133-.074 0 .045-.015.074-.045.09-.044.029-.074.029-.089-.016zm.029.549c-.03-.015-.03-.03 0-.06.03-.044.06-.044.089-.015-.015.045-.045.06-.089.075zM1.97 2.28c-.045.104-.045-.103 0 0zm.148 4.608c.104.015.148-.059.148-.133-.06 0-.281.03-.281.074 0 .015.044.03.133.06zm-.044-4.311c-.045.118-.045-.104 0 0zm.044.592c-.044 0-.074-.014-.074-.059h.074zm-.03 4.09c0 .074.104.178.163.133.074-.074.03-.118-.118-.133zm.09-1.823c0-.014-.03-.074-.03-.088v.088zm.073.86c.104-.045-.103-.045 0 0zm0 1.333c.104-.044-.103-.044 0 0zM8.138 8.446c-.015.015-.015.015-.015.03h.282c.103.014.163.03.178.044-.045-.193.103-.281.177-.326.015-.015 0-.104-.044-.237-.015-.104.074-.37.074-.489.015-.118.015-.207.015-.267 0-.074-.015-.148-.03-.251-.015-.015-.015-.045 0-.09s.03-.073.03-.088c0-.134-.267-.119-.252-.252.015-.06.148-.09.148-.104 0-.03-.03-.104-.074-.222-.044-.089-.044-.163-.015-.208.074-.103.119-.163.133-.207.03-.074.03-.133.015-.148l-.074-.074c-.015-.045.119-.237.119-.282-.03-.044-.03-.103 0-.163H8.7c0-.148 0-.222-.015-.237l-.207-.118c-.045-.074.03-.149.104-.104.103.03.177.074.192.118-.015-.014 0-.074.015-.177.118-.178-.207-.193-.267-.356-.015-.118.104-.133.208-.148.044-.015.044-.06 0-.104-.06-.118-.148-.267-.134-.281l.09-.09c.073-.103.088-.207.029-.31-.03-.074-.045-.119-.03-.149.03-.059.06-.103.09-.118.073-.237.044-.326.058-.37.015-.37.015-.504.015-.43-.074 0-.118.03-.133.074l-.03-.03.09-.207c0-.015-.045-.045-.149-.104h-.119V1.75c-.355-.385-.251-.385-.37-.504-.104-.03-.06-.118-.148-.207-.311-.193-.252-.386-.296-.415L7.559.475c-.015 0-.09.074-.104.074 0-.015 0-.06.015-.104V.356c-.015-.03-.03-.044-.045-.044-.118 0-.178.118-.192.133v-.25l-.03-.03H7.01c-.044 0-.103-.03-.148-.03 0 .015.015.06.045.118 0 .015-.015.03-.045.06-.015.015-.03 0-.06-.03L6.537.061c-.163-.045-.148.104-.192.06L6.21.045c-.044 0-.118.133-.178.089L5.943.046c-.237.015-.414.044-.533.06-.06 0-.237-.06-.311-.06-.045.015.06.104.074.148.044.09.03.134-.044.148A.575.575 0 0 1 4.92.194l.06-.118a.433.433 0 0 0-.134-.03s-.06.015-.163.06c-.03.014-.06 0-.104-.016-.059-.03-.089-.03-.089 0-.014.104-.044.163-.088.163S4.313.194 4.269.18c-.044-.014-.06-.014-.074 0-.015.015-.03.03-.03.074l-.03-.03c-.132.164-.251.268-.34.312a.973.973 0 0 0-.148.415c-.045.207-.06.518-.045.933l.03.178c0 .03-.015.074-.03.133-.03.075-.03.134.015.149l.09-.045c.073.045.118.089.162.133-.015.045-.044.045-.118.03a.572.572 0 0 1-.149-.03v.341c0 .015.03.03.09.06.014.014.029.044.014.074-.015.044-.163.03-.104.266l.09.223c0 .03-.03.059-.09.074v.415c.045.044.06.074.06.088l-.074.075c-.015.177-.03.459-.03.844.015.133.015.178.015.163-.015.044-.015.074 0 .089s.03.015.06 0c.014-.015.044 0 .073.015.09.044.134.089.134.133 0 .06-.045.089-.119.074l-.104-.06c-.015-.014-.03-.014-.044 0v.312c.104 0 .252.119.207.222-.03.045-.074.06-.118.045-.104-.015-.148-.03-.134-.03 0 .237.104.43.326.593.09.074.134.104.149.104.059 0 .207-.06.163-.104-.06-.015-.104-.03-.134-.03a.433.433 0 0 1-.03-.133c0-.015-.074 0-.074-.074 0 0 .015-.015.03-.06.015-.03 0-.059-.015-.074-.074-.014-.118-.03-.148-.014-.074-.045-.06-.075.045-.104.044-.015.088-.015.133.03.074.074.118.103.133.103.178.015.563-.044.726-.044.045-.015.06-.015.074-.03.015-.015-.118-.089-.059-.148.015-.03.06-.044.133-.044l.134.088c.03.015.044.015.044.03l.06-.03c.044-.014.118.03.207.119 0 .044 0 .074-.015.089-.03-.015-.06-.015-.074-.03-.06-.044-.118-.044-.178.03.119-.045.193.104.267.104h.163c.118.059.178.088.163.088 0-.044-.045-.103-.119-.207-.044-.074-.103-.133-.148-.193a.602.602 0 0 0-.207-.148c-.074-.03-.134-.015-.148.06a1.148 1.148 0 0 0-.178-.149c0-.089.281-.296.415-.252.133.09.163.149.089.193-.09-.104-.163-.104-.208 0 .015-.015.104.015.237.074.134.045.222.074.252.074v-.207c0-.045-.104-.06-.089-.074.045-.045.06-.09.06-.119a.28.28 0 0 1-.12.03c-.029 0-.044-.015-.058-.06-.045-.074.03-.148.222-.148 0-.103-.178-.37-.133-.43a.208.208 0 0 1 .103-.059c.03-.014.045-.044.045-.059 0-.089 0-.148-.015-.192-.015-.104-.03-.163-.015-.193s.03-.045.03-.045v-.963c-.03-.03-.045-.074-.03-.118l.03-.06c.015-.029-.015-.073-.09-.118.075-.074.105-.133.09-.178-.045-.133-.06-.178-.06-.163.075-.178.134-.296.149-.296h.385l.4.4c-.015.044.044.104.178.178.044.015.059.074.059.178.015.074.193.044.237.088.015.06 0 .104-.044.119-.045.015-.104 0-.149-.015-.163-.104-.237-.163-.222-.163-.044 0-.06.06-.06.193.03.044.06.074.09.089l.089.089c-.06.03-.104.044-.148.03a.135.135 0 0 0-.045.103c0 .06.03.163.089.296a.785.785 0 0 1-.089.326c.015.06.045.223.045.297l-.03.059c-.015.015-.015.015-.015.03.089 0 .163.014.222.044.104.06.134.119.074.163-.014.015-.088.03-.192.015-.074-.015-.09-.06-.06-.134h-.03v.43c0 .045.12.03.134.045.074.074.119.118.104.133-.06.074-.119.104-.163.104s-.044-.09-.089-.09c0 .149.015.253.06.312.073.148.118.207.133.193-.045.03-.074.044-.119.044l-.06.089c-.014.104-.014.178.03.237.075.104.075.163 0 .163-.044 0-.059.03-.059.089v.252l.148.148c.104.015.341-.089.4-.089.075 0 .208.118.193.222l-.03.06a1.8 1.8 0 0 1 .341.03c.074-.164.178-.208.311-.134.09.044.104.103.06.148a.512.512 0 0 1-.178.044c-.104.015-.163.045-.193.074-.015.03.03.045.134.045s.296-.03.4-.03c.03.015.044.03.059.06-.119.044-.222.074-.296.059-.37.015-.504.03-.43.03 0-.075-.015-.12-.03-.12h-.326c0 .06.119.164.119.208-.045.074-.09.119-.134.134-.044-.015-.133-.074-.148-.074-.103.03-.103.089-.015.177-.059.015-.103.03-.133.074 0 .03.015.045.045.06.074-.074.163-.074.237 0 .014-.045.044-.074.074-.06.074.015.118.03.118.03 0-.03-.015-.06-.059-.104-.015-.044.119-.118.163-.118l.074.074.074.104c.045.044-.015.074-.148.074 0 .103.326.074.37.118l.06.119c.014.03.044.03.059-.015.074-.104.118-.133.148-.074-.089.044-.089.118 0 .237l.089.133c0 .015-.015.06-.03.104zM3.53 8.224c-.015.118 0 .192.03.237 0 .015.03.03.089.03h.31v-.03c-.103.015-.162-.015-.177-.09s.104-.147.148-.103c.074.06.119.104.148.148v.045c.134.015.222.03.282.03.074-.015.133-.06.178-.164.014-.044-.341-.103-.4-.148.044-.163-.06-.296-.238-.237-.014 0-.03.09-.044.09s-.03-.016-.044-.03v-.208c0-.044.044-.06.133-.044.133.074.118.118.474.118 0-.118-.089-.178-.252-.178l-.06.045h-.014c.074 0 0-.015-.193-.045h-.133c-.044.015-.074.03-.074.045s.03.089.03.104-.104.088-.104.103.015.03.03.045c.088.074.133.118.133.133-.045.074-.089.104-.119.089l-.089-.045c0-.014-.03.015-.044.06zm.015-1.319c-.015.045.044.074.192.074.149-.015.223-.06.223-.133h-.015v-.03c.089-.044.133-.074.133-.118-.015-.074-.074-.09-.148-.045-.015.015-.133.148-.178.134l-.089-.045c-.014.045 0 .03-.118.163zm1.17.593c-.044.015-.03.03.03.074.06.015.089-.134.148-.119l.06.06c.014 0 .073-.134.088-.134s.119.208.223.208c0-.267-.297-.312-.37-.312.044 0 .058-.014.058-.059 0-.03-.014-.06-.03-.074-.029-.03-.059-.03-.088.015-.045.044-.06.044-.074 0-.015-.045 0-.074.044-.089.074-.015.074-.044-.03-.074-.059-.015-.088-.044-.088-.074 0 0 .03-.03.089-.104 0-.015-.015-.03-.06-.044-.266-.074-.4-.119-.4-.119 0 .104.134.104.178.148 0 0-.089.193-.089.252 0 0 .015.03.06.074.059.06 0 .119-.238.119-.014-.015-.014-.03 0-.06.03-.044.045-.059.045-.074 0-.044-.045-.074-.119-.103a.299.299 0 0 0-.163 0c-.03.015-.044.059-.044.133-.045 0-.267-.06-.326-.044-.045.014-.074.044-.074.118 0 .015.06.119.044.134-.044.03-.059.059-.044.074l.03.059c.207.015.355.03.459.06.044-.016.059-.03.074-.06 0-.03-.015-.06-.045-.074.015.015-.044.015-.207.015 0-.193.193-.223.252-.208a.46.46 0 0 0 .296.237c.193.045.267.074.193.074 0-.103.044-.163.133-.163.074 0 .09.015.074.06zm-1.155.178c.014 0 .014 0 .014-.015s-.014-.015-.03-.015c-.029 0-.029.015.016.03zm.014-1.26c-.044.133.015.208.178.208 0-.104-.133-.326-.178-.208zm.119-3.245c-.03-.014-.044-.03-.044-.044h.34c.015 0 .03.015.045.044s.015.045 0 .06c-.015.044-.045.059-.09.059s-.132-.045-.251-.119zm.178-1.244c-.134.015-.222-.045-.208-.09l.074-.044c.075 0 .134.015.149.03.044.044.044.089-.015.104zm-.163 2.77c-.045-.044-.03-.059.03-.059.014 0 .103.045.103.163a.814.814 0 0 1-.133-.104zm.015-3.318c.044-.06.089-.09.148-.09.089.015.133.06.133.149-.163 0-.267-.015-.281-.06zm.03 2.874c-.016 0-.03-.015-.03-.045-.015-.03 0-.044.03-.044.073-.015.133-.015.147 0 .074.044.06.074-.014.089zm.073-.489c-.014-.015-.014-.03-.014-.06 0-.029 0-.044.014-.044.045-.03.074-.03.119 0 .015 0 .015.015.015.045s0 .044-.015.059a.164.164 0 0 1-.119 0zM3.871.919C3.84.904 3.826.89 3.81.845s0-.06.03-.074c.06-.015.119-.015.178.03.074.059.074.103 0 .118a.252.252 0 0 1-.148 0zm.015 4.638c-.03-.015-.03-.045-.015-.06.03-.044.059-.059.089-.059.059-.015.118.015.163.104s.014.133-.09.133c-.044 0-.088-.044-.147-.118zm.044-2.875c.074-.103.133-.103.207-.03.03.03.045.075.03.12s-.044.073-.089.059zm.03 2.356a.134.134 0 0 1 .089-.089c.03.015.014.045-.06.119zm.074-2.83c-.074-.074-.045-.104.059-.104.074 0 .119.03.133.075-.014.044-.03.088-.059.103-.044-.015-.089-.044-.133-.074zM4.019 4.49c.015-.044.044-.06.074-.06.06-.014.089 0 .104.03s-.015.074-.09.119zm.074-2.786c-.03-.03-.03-.074 0-.118s.06-.045.104 0l.118.118c.015.045.015.06-.03.06a.233.233 0 0 1-.192-.06zm.044 2.297c.03-.03.06-.044.104-.044.045.044.06.074.015.089h-.03zm.045-2.756c-.03-.015-.045-.044-.045-.089 0-.074.045-.118.119-.118.015 0 .044.015.074.044.074.074.089.119.045.163-.045.03-.104.03-.193 0zm0 4.623c-.03-.03-.03-.06 0-.089s.06-.044.089-.044c.044 0 .104.044.178.133.014.015 0 .06-.074.104-.045.015-.119-.015-.193-.104zM4.256.697c-.03-.015-.06-.03-.074-.06-.015-.014.06-.162.163-.088.074.044.118.089.104.133-.015.045-.09.045-.193.015zm-.06 1.793h.03v.03h-.03zm.06 5.052c0-.015-.015-.015-.03-.03-.014 0-.014.015-.014.03s0 .03.014.03.03-.015.03-.03zm.015-4.519c-.045-.03-.045-.06-.015-.089.03-.015.06-.03.104-.015.074.015.103.075.103.193-.044 0-.103-.03-.192-.089zm.192 2.4c-.177-.059-.251-.088-.207-.148.015-.03.044-.044.06-.059.059-.015.118 0 .162.06.015.014.015.059.03.103zM4.33 2.52c-.044-.059-.015-.103.06-.118.088-.015.148 0 .162.06.045.103.03.162-.044.162s-.133-.03-.178-.104zm.03 3.779c-.045-.119-.045.074 0 0zm.03-1.452c-.045-.015-.06-.045-.03-.09.015-.029.059-.029.103-.014.045.015.06.044.03.089-.015.015-.044.03-.104.015zm.014-2.86c-.044-.044-.044-.074 0-.089.015-.015.045-.015.09 0 .103.015.147.06.147.148-.103 0-.178-.015-.237-.059zm.03 2.341c-.074-.044-.06-.089.06-.104.073-.015.132 0 .147.074.03.074.015.104-.044.104-.045 0-.104-.03-.163-.074zm-.03 3.645c0 .03.03.044.09.06.073.014.103 0 .118-.016.014-.014-.03-.044-.104-.074-.045-.015-.074 0-.104.03zm.015.148h-.015c.045.044.074.074.104.074 0-.06-.03-.089-.089-.074zm.044-6.638c-.059-.074-.044-.104.06-.104.133-.014.192.03.192.134 0 .044-.03.059-.103.044a.276.276 0 0 1-.149-.074zm.03 4.741c-.015.015-.03.015-.044.015 0 .074.014.104.059.119.015.015.06 0 .118-.03.015-.015.03-.03.03-.044 0-.045-.06-.074-.163-.06zm0-5.26c-.044-.03-.015-.088.074-.162.015 0 .045.03.104.074l.104.103c-.015.045-.06.06-.134.045s-.118-.045-.148-.06zm.045 4.697c-.03-.03-.03-.059 0-.088l.074-.045c.044-.015.074 0 .088.015l.134.133c-.045.104-.148.104-.296-.015zm0 2l.03.03.029-.03-.03-.029zm0 .193c.014.045.044.045.074.015s.03-.06-.015-.074zM4.612.504c-.045-.03-.06-.06-.06-.089 0-.074.045-.103.134-.103.03 0 .059.014.089.03.088.073.103.133.044.177-.044.044-.104.03-.207-.015zm-.03 2.8c-.044-.014-.044-.044-.015-.059.045-.03.074-.03.104-.015s.03.045 0 .06c-.03.03-.06.03-.089.015zm-.015 3.883c.015-.03.03-.045.06-.045 0 .03-.015.06-.03.074zM4.7 2.86c-.074-.044-.088-.089-.059-.118.06-.045.119-.045.178 0 .089.074.089.133 0 .148a.115.115 0 0 1-.119-.03zm-.044 2.267c-.074 0-.06-.03.015-.074.03-.015.06-.03.104-.015.014.015.03.03.014.045 0 .014-.014.03-.03.044zm0 1.452c-.015.06 0 .089.074.089.119 0 .178-.015.193-.06s-.015-.059-.06-.059h-.177c-.015.015-.03.015-.03.03zm0-2.756h.03v.03h-.03zm.015-1.556c0-.059.06-.089.163-.074l.089.09c.015.029 0 .044-.015.058a.875.875 0 0 1-.208-.03zm.015 6.075c-.015.06.015.09.059.09 0-.03-.015-.06-.06-.105v.015zm.044-3.704c-.015-.015-.03-.03-.03-.044 0-.03.015-.06.06-.075.044-.014.074 0 .089.015.044.045.044.074 0 .09-.045.029-.074.029-.119.014zm-.015-2.904c.045-.074.104-.104.148-.089.09.015.134.074.134.148h-.222zm.015 4.578c.06 0 .074-.059.074-.103-.044 0-.074.03-.074.103zm.148 1.838s-.103.044-.103.088c.133-.044.163-.074.103-.088zm.104-6.83c-.074 0-.119-.03-.163-.075s.06-.119.119-.119c.044 0 .088.045.133.134.015.044-.015.06-.089.06zm-.074 6.993c-.03-.015-.06-.015-.089-.015 0 .148.104.222.296.222 0-.089-.074-.163-.207-.207zm-.074-4.208c.015-.045.044-.06.089-.074a.473.473 0 0 1 .089.103c-.03.045-.06.06-.09.06zM4.878.77c-.044-.06-.03-.104.06-.148.074-.03.133 0 .177.089.06.103.03.148-.074.148a.205.205 0 0 1-.163-.09zm.163 7.067c-.192-.074-.192.045-.178.119 0 .03.03.044.075.03l.177-.045c.03-.015.03-.03 0-.06-.03-.029-.059-.044-.074-.044zm-.133-4.267c-.03-.015-.03-.03 0-.06.03-.014.06-.029.089-.014.03.015.03.045 0 .074a.094.094 0 0 1-.09 0zm.015 1.823s.044-.015.118-.06c.045-.044.074-.074.06-.103l-.06-.075c.015-.03.045-.044.06-.044.103.074.133.133.118.193-.089.074-.163.133-.237.148zm.118.696c-.044-.015-.059.015-.074.074 0 .044.015.06.03.06.06 0 .089-.016.104-.045s-.015-.06-.06-.09zm-.059-2.978c0-.03.015-.06.03-.074l.03.03c-.016.029-.03.044-.06.044zm.06-.445c-.045-.015-.06-.044-.06-.089 0-.074.044-.103.119-.103.03 0 .059.014.088.044.075.074.09.119.045.163-.06.045-.119.045-.193-.015zm.088 4.49c.148.177.4.089.445.31.015 0 .044-.014.059-.044.044 0 .104.045.104.045 0-.134-.267-.222-.267-.297 0-.014.015-.014.044-.014.03.014.06.014.075.03.044-.045-.03-.164-.252-.12.014-.133-.045-.31-.178-.31a.207.207 0 0 0-.119.059c0 .015.178.192.237.267l-.059.044c-.015 0-.104-.03-.118-.03l-.104.03zm-.118.444v.03h.03V7.6zm.059.578a.032.032 0 0 0-.03-.03c-.015 0-.015.015-.03.03 0 .015.015.03.03.03s.03-.015.03-.03zm.015-6.06c-.045-.044-.03-.104.044-.148.045-.03.09-.015.148.044.06.09.06.134-.014.148-.075.015-.134 0-.178-.044zm.044 2.519c-.015 0 0-.03.015-.104.044-.06-.104-.148-.044-.207.014-.03.044-.06.059-.104.03-.104.044-.148.06-.148.147.044.207.118.177.192a.262.262 0 0 1-.119.074.49.49 0 0 1 0 .208c-.03.074-.074.104-.148.089zm.148-2.964c-.133-.074-.177-.133-.163-.177.015-.015.045-.03.09-.03.088-.015.147.015.162.089.015.06-.015.133-.089.118zM5.101 6.46l.03.148c.044-.014.058-.044.058-.074 0-.044-.014-.089-.059-.103zm.03 1.719c-.03.03-.03.074 0 .119.014.014.044.014.088 0 .074-.015.104-.09.104-.193a.256.256 0 0 0-.193.074zm.073-7.127c-.03-.03-.03-.044-.015-.06.03-.044.06-.058.09-.073.059-.015.118.015.162.089.03.03.03.059.015.103-.015.045-.06.06-.104.06-.03 0-.074-.045-.148-.119zm.223 4.015l-.208.03h-.03c-.03-.015-.014-.044.03-.089.133-.103.222-.133.282-.089.089.074.133.134.118.178-.015.03-.06.015-.163-.03zM5.16 6.282v.03h.06v-.03zM5.175.104c0-.015 0-.015.014-.03.015 0 .03.015.03.03s-.015.03-.03.03c-.014 0-.014-.015-.014-.03zm.281.504C5.352.667 5.234.563 5.19.504c.015-.03.045-.045.06-.06.089-.029.178.015.281.12zm-.222 7.141c-.045-.118-.045.074 0 0zm.015-4.43c.074 0 .118.015.118.03-.015.015-.044.03-.118.03zm.074-.415c-.015-.03-.015-.06.015-.089.014-.03.044-.03.089 0 .03.03.03.06-.015.104-.03.044-.06.03-.09-.015zm.015 1.141c0-.06.044-.074.103-.074 0 .044-.03.074-.103.074zm.03-1.63c-.075-.074-.06-.118.073-.133a.19.19 0 0 1 .178.06c.074.073.06.118-.06.133-.073 0-.147-.015-.192-.06zm0 4.016v.03h.059v-.03zm.044.251c-.06.045-.045.06.059.075.074.014.119 0 .119-.045 0-.015-.03-.03-.075-.044-.044 0-.088 0-.103.014zm.266-4.726c-.163.015-.207-.044-.281-.119.015-.03.044-.044.074-.059.163-.06.34.163.207.178zm-.237 2.726c-.044.119-.044-.074 0 0zm.045 3.808a.032.032 0 0 0-.03-.03c-.015 0-.015.015-.015.03s0 .03.015.03.03-.015.03-.03zm-.03-.133c0 .06.015.074.045.06.074-.03.089-.045.014-.06zm0-4.164c.015-.03.045-.044.09-.059.103-.044.103.03.103.133-.015.045-.015.06-.03.045zm.163.37c-.06 0-.118-.059-.163-.103.015-.015.03-.03.074-.03.06 0 .09.045.09.134zM5.515 6.89c-.059-.104-.059.104 0 0zm-.03-5.571c-.014-.045.016-.06.075-.06.104-.014.193.03.207.104 0 .045-.03.09-.074.104-.03.015-.103-.044-.207-.148zm.03 6.638c-.044.015-.044.059-.014.103s.059.045.089.015c.044-.044.059-.074.044-.089-.03-.03-.044-.044-.06-.044-.029 0-.044 0-.059.015zm-.03-.193v.03h.075v-.03zm.105-1.407c-.03 0-.045.014-.06.044h.06zM5.575.86c-.015-.015-.015-.045 0-.09s.044-.059.074-.059c.118 0 .178.045.178.149 0 .014 0 .044-.015.059-.06.074-.134.06-.237-.06zm.059-.504c-.044-.06-.03-.104.06-.119.088-.015.147 0 .192.074.044.09.015.134-.089.134-.044 0-.104-.03-.163-.09zm-.015 8.03c-.015.015-.015.045 0 .104h.09c0-.089-.03-.118-.09-.104zm.03-4.919c0-.015.015-.03.03-.03.014 0 .014.015.014.03s0 .03-.015.03-.03-.015-.03-.03zm.03 3.512v.06h.059v-.06zm.044-.504c-.045-.118-.045.074 0 0zm.03-4.282c-.045-.044-.03-.074.044-.104.044-.03.104-.014.148.045.045.044.045.074-.03.089s-.118 0-.162-.03zm.074-.518c-.015-.015-.03-.03-.03-.045 0-.074.044-.089.133-.074.074.015.104.089.104.193a.354.354 0 0 1-.207-.074zm.044-.52c-.074-.058-.044-.103.074-.118.074-.014.119.015.163.09.045.088.03.133-.06.133-.044 0-.103-.03-.177-.104zm.296-.444C6.02.756 5.915.637 5.915.608c0-.074.045-.119.119-.119.015 0 .03 0 .044.015l.134.148c.015.045 0 .06-.045.06zm-.044 1.245c-.015-.044.03-.074.133-.074 0 .074-.03.104-.103.104zm.06-.489c-.016-.015-.03-.03-.03-.044 0-.06.044-.09.148-.074.133.088.163.148.103.177-.059.03-.133.015-.222-.059zM6.24.92A.23.23 0 0 1 6.36.83c.06.044.104.089.119.118a.252.252 0 0 1-.09.09.43.43 0 0 1-.148-.12zm.119-.43C6.256.46 6.227.415 6.286.341c.06-.06.133-.06.222 0 .133.089.163.148.06.163-.06.015-.134 0-.208-.015zm.133 1.808c-.03-.03-.03-.06.015-.09.03-.044.06-.029.089.03.03.06.03.09-.015.104-.015.015-.044 0-.089-.044zm.045-.534c-.03-.03-.015-.044.044-.059s.09 0 .104.045c.03.074.015.118-.03.118-.015 0-.044-.03-.118-.104zm.059 6.638c.104-.044-.104-.044 0 0zm.03-7.186c-.045.104-.045-.104 0 0zm.074 6c.074.06 0 .164.059.208h-.03c.074-.03.149-.044.193-.03.074-.044.104-.088.104-.118h-.178c0-.044 0-.074.015-.089.015-.03 0-.059-.045-.074a.78.78 0 0 0-.222-.089c0 .074.03.148.104.193zm-.03.268c0-.03-.015-.045-.03-.045-.03 0-.044.015-.044.045zM6.686.8a.152.152 0 0 1-.074-.089c.06-.074.118-.103.178-.059.074.045.103.104.089.148-.03.074-.09.074-.193 0zm-.06 6.934c-.059.015.03.178.134.178 0-.148-.044-.207-.133-.178zm.06-1.91c0-.016 0-.03-.015-.03s-.03.014-.03.03c0 .014.015.029.03.029s.015-.015.015-.03zm.193 2.473c-.06 0-.163.045-.178.09 0 .014 0 .014.015.029l.074.074c0-.044.089-.133.089-.193zm-.075-4c-.074-.074-.088-.119-.03-.148.06-.045.12-.045.164 0 .074.074.089.133.03.178s-.12.03-.164-.03zm-.03-.682c.149 0 .238.015.253.06a.35.35 0 0 1-.134.089c-.044 0-.089-.03-.118-.104zm.03 3.082c-.014-.015-.03-.044-.03-.089.016-.044.03-.088.045-.103.104-.104.311.133.178.192-.06.03-.118.03-.193 0zM6.82 8.06c-.015.045.015.074.09.09s.103.014.118-.03A.648.648 0 0 1 6.923 8c-.03-.015-.06 0-.104.06zm.045-1.94c-.045-.104-.015-.149.059-.149.089-.015.148.03.193.104.044.104.014.163-.09.178-.073.015-.133-.03-.162-.134zm.015.859a.45.45 0 0 0 .118.118c.148-.03.222-.059.208-.074-.06-.059-.104-.089-.119-.089-.133 0-.193.015-.207.045zm0 1.511v.03h.088v-.03zm.059-2.904a.112.112 0 0 1-.03-.06c0-.029.015-.044.06-.059s.074-.014.103.015l.134.134c-.03.074-.119.074-.267-.03zm.06-.548c-.016-.06.014-.09.103-.09l.044.03.119.119c-.03.044-.074.06-.119.044a.54.54 0 0 1-.148-.103zM7.19.578c-.074.03-.163-.074-.163-.089 0-.03.03-.044.074-.044.06 0 .089.014.104.059s0 .074-.015.074zM7.07 2.845c-.104-.044.074-.044 0 0zm.03 1.734c-.06-.075-.045-.134.06-.149.073-.014.118.03.147.134.015.044.015.059-.015.074-.044.015-.148-.015-.192-.06zm.015 3.704c-.015 0-.03.015-.03.059 0 .03 0 .044.015.06.074.044.118.073.118.088.045 0 .074-.015.09-.06.029-.044.029-.088 0-.118-.045-.059-.104-.074-.193-.03zm.044-4.238c-.015-.044-.015-.074.015-.089s.074-.015.118 0 .075.045.09.074c.014.045-.015.09-.09.104-.059.015-.103-.015-.133-.089zm.045 2.43c-.045-.06-.06-.118-.015-.178.074-.163.252.074.192.208-.044.074-.103.059-.177-.03zm.03-2.948a.045.045 0 0 1 0-.06c.029-.015.058-.03.103-.03s.104.03.148.104c.045.074-.06.119-.104.104-.074-.044-.118-.089-.148-.118zm.029 2.37c-.045-.03-.045-.059 0-.103s.074-.06.104-.015l.133.133c.015.045.015.06-.03.06-.059 0-.192-.03-.207-.075zm-.03 2.045v.06h.178v-.03c-.015 0-.119-.03-.163-.03zm.06-2.534c-.015-.014-.03-.03-.03-.044 0-.074.044-.119.133-.119.03 0 .074.03.119.074.015.015.015.06.015.104-.104-.015-.178-.03-.238-.015zm.251-2.311c-.059.044-.326-.06-.222-.133.045-.03.089-.03.163 0 .104.059.119.103.06.133zM7.368.786c-.045.118-.045-.075 0 0zm.03 4.089c-.045-.074-.03-.104.073-.119.104-.014.163.03.163.134 0 .044-.03.059-.103.044-.06-.015-.104-.03-.134-.059zm.088 1.734c.045-.045.074-.045.119-.015s.044.074 0 .118c-.074.074-.149.119-.223.119 0-.104.03-.178.104-.222zm-.03 1.733c-.044.06-.03.09.075.09.103 0 .222-.179.237-.105.044.074.074.104.088.104 0-.207-.088-.311-.251-.311-.223 0-.074.148-.149.222zm-.014-4.03c.074-.104.133-.104.207-.03.03.03.044.075.03.119s-.03.074-.074.06zM7.53 6.21c-.06-.06-.045-.104.044-.134.074-.03.133-.015.178.06.074.103.074.148-.015.148-.104 0-.163-.03-.207-.074zm.222-2.282c-.104.074-.297-.09-.193-.163.045-.045.104-.045.178 0 .06.059.06.118.015.163zm-.134-.578c-.074-.06-.044-.104.06-.119.074-.014.118.015.163.09s.044.118-.03.118a.359.359 0 0 1-.193-.09zm0 2.34c-.044-.044-.044-.073 0-.118.045-.03.09-.03.119 0l.133.134c-.059.074-.103.089-.148.074-.044-.03-.089-.06-.104-.09zm.074-.518c-.044-.044-.03-.089.045-.103.06-.015.104 0 .133.044.045.06.03.089-.015.104-.074.015-.118 0-.163-.045zm.03 2.356c-.015-.015-.015-.03-.015-.044 0-.03.03-.045.09-.06s.103 0 .118.03c.059.06.059.104-.015.119-.074.014-.133 0-.178-.045zm.015-2.904c0-.03.03-.06.074-.074.044-.015.074 0 .104.015l.133.133c-.03.045-.074.074-.118.074a.353.353 0 0 1-.163-.089zm.118-.46c-.074-.088-.044-.133.075-.133.059 0 .118.03.163.09.059.088.03.133-.075.133-.074 0-.118-.03-.163-.09zm.015 2.297c-.015-.03 0-.059.03-.074a.094.094 0 0 1 .089 0c.044.06.074.09.074.09.015.014 0 .029-.015.044-.104-.015-.163-.03-.178-.06zm.045-2.8c-.074-.074-.045-.119.089-.133.059-.015.118.014.177.088.045.06.015.09-.088.09-.09.014-.149 0-.178-.045zM7.96 6c-.074-.014-.074-.044 0-.103.015-.015.045-.015.06-.015s.044 0 .059.015c.074.06.074.09 0 .104a.164.164 0 0 1-.119 0zm.03-2.873c-.015-.045.015-.06.06-.075.103-.044.236.03.236.104 0 .045-.015.074-.06.089s-.073.015-.103 0c-.06-.044-.104-.074-.133-.118zm.015 2.37c-.06-.089-.03-.148.089-.163.074 0 .192.119.192.193 0 .044-.044.06-.118.044s-.134-.03-.163-.074zm.03 2.312c-.075-.045-.045-.09.059-.119.044-.015.074.015.118.06.045.059.045.088 0 .103a.316.316 0 0 1-.178-.044zm.044-2.83c-.015-.015-.03-.03-.03-.045 0-.044.045-.074.133-.074.104 0 .163.06.163.178a.507.507 0 0 1-.266-.06zm.118-.475c-.015 0-.03-.014-.044-.044-.015-.015 0-.044.03-.089.044-.044.088-.044.133 0 .089.074.104.119.044.148a.215.215 0 0 1-.163-.015zm-.03 2.253c.075-.104.134-.119.178-.06.015.015.015.045.03.074.015.045.015.09 0 .104-.015.03-.03.045-.06.03zm.045-.46c-.044-.03-.044-.059.015-.089a.319.319 0 0 1 .148-.03c.03.016.045.03.03.045 0 .03-.015.045-.03.06-.06.044-.118.044-.163.014zm.252-2.267c-.104.074-.34-.089-.207-.192.103-.06.266.133.207.192zm-.178-.622c-.015-.06.03-.089.104-.104.074 0 .118.03.118.104s-.044.104-.118.089c-.045-.03-.089-.06-.104-.089zm.178 2.474c-.119-.103-.193-.103-.178-.163.015-.03.03-.044.06-.044a.19.19 0 0 1 .177.06c.03.058.015.103-.059.147zM8.316 8.15c-.06-.015-.06-.044-.015-.089.044-.03.089-.044.148-.03.045.016.045.045 0 .09-.03.03-.074.044-.133.03zm.237-2.785c-.104-.015-.208-.119-.163-.178a.113.113 0 0 1 .074-.03c.074 0 .133.03.148.104.015.03.015.06 0 .074-.015.03-.03.045-.06.03zM8.375 6.37l.03-.03v.06zm.089 1.29c-.044-.075-.044-.12 0-.134.044-.045.207.148.133.163-.059.015-.103.015-.133-.03zm0-.593c0-.03.015-.045.03-.06.03-.015.044 0 .059.03s0 .044-.03.044c-.015.015-.044 0-.059-.014zm.281 1.422v.03h.03zm.03-2.119v.03h.03v-.03zm.06-2.963c0-.03-.015-.045-.03-.06v.06zm-.03.474v.03h.03v-.03zm0 .37v.09h.03v-.09zM9.623 7.927c-.015.03-.015.06-.015.104l.03.459.03.03h1.17c.252 0 .548-.015.889-.03.074 0 .118-.015.133-.03V8.21s-.03.014-.074.03c-.03.014-.044 0-.06-.03-.014-.015.016-.045.09-.119.015-.015.015-.044.015-.074V6.949h-.356c-.074 0-.118-.044-.148-.118-.015-.045.015-.09.104-.119a.333.333 0 0 1 .207.015c.104.044.178.074.193.074v-.237c-.09 0-.134 0-.149-.015-.044-.015.06-.178.119-.222 0-.045-.015-.074-.03-.104a.803.803 0 0 0 .03-.252V5.72c-.074 0-.133-.014-.148-.044a.428.428 0 0 0 .178-.222c.014-.045.044-.06.089-.06h.31c.09-.089.178-.133.253-.133 0 .074 0 .104.014.119.03.014.074 0 .134-.015.163-.03.252-.045.296-.03.074.03.148.045.208.045.133-.015.251-.015.325-.015l.386-.015c.34 0 .326-.03.43-.148.014-.03.044-.045.059-.045v.104c-.015.015-.015.044-.015.089h.489l.03-.03V4.267l-.015-.637V3.35c-.015-.134-.03-.223-.045-.237h-1.022c-.03.014-.06.03-.104.03s-.104-.016-.207-.03c-.178-.015-.237 0-.312 0-.059.088-.118.133-.192.118-.045-.015-.045-.118-.09-.118h-.177c-.504.014-.77.03-.785.03-.074-.045-.119-.075-.119-.09v-.4c-.059-.015-.059-.103 0-.237.06-.118.104-.148.163-.148l.194-.103c.104-.074.163-.06.178.074 0 .015.015.03.06.03h.429v-.045l-.148-.148.06-.06c.014.105.236.03.236.09 0 0-.015.044-.06.118v.045c.416 0 .742 0 .979-.015l.548-.015h.237c.089 0 .148-.015.163-.044V1.098L14.796.49V.223a.906.906 0 0 0-.044-.208h-2.075c-.014.045-.059.075-.133.119-.015.015-.044.015-.089 0-.03-.044-.044-.074-.03-.104 0-.015-.044-.015-.148 0-.103 0-.281 0-.563.015-.237.015-.43.015-.563.015-.074 0-.4.148-.46.163-.014-.015-.044-.015-.058-.015l.059-.118c0-.045-.06-.045-.193-.03-.489.193-.652.34-.652.356.03.044.03.074 0 .088-.044.015-.074.045-.089.06-.014.059-.03.103-.03.148-.044.044-.088.06-.118.074-.044.133-.059.237-.059.326.015.148.015.267.03.34a.572.572 0 0 1-.03.149v.118c.015.045.193.045.193.104s-.134.133-.193.178v.296c0 .223 0 .4.015.563l.015.356c0 .163 0 .252.015.252.074 0 .222-.148.237-.163.044-.03.088-.03.118 0 .045.03.045.06 0 .104a.74.74 0 0 1-.267.133c-.074.163-.103.222-.103.296v.43c.103 0 .133.03.118.089s-.074.133-.118.178v.637s.03-.015.089-.03c.03-.015.044 0 .044.045 0 .103-.089.148-.104.162v.697c.015 0 .045-.015.09-.06.014-.029.029-.014.029.03 0 .03-.03.09-.089.178-.074.089-.074.133 0 .148l.252.06c.044.014.133-.015.237-.09.074-.044.133-.03.178.015.089.104.133.163.133.163.089-.014.148-.03.178-.03.133.045.252.075.34.12.164.073.253.118.253.162-.03.074-.06.119-.075.119h-.387a3.672 3.672 0 0 0-.577-.193 2.907 2.907 0 0 0-.563-.06v.194c.103.03.133.059.118.103-.074.104-.118.148-.118.134v.637c0 .044.118.015.118.074 0 0-.03.06-.104.178zm.015-5.497c-.074-.015-.06-.044.015-.119.089-.074.148-.103.192-.074.015.045-.074.237-.207.193zm.06 1.674c-.045 0-.06-.03-.06-.074.03-.03.06-.044.089-.044.103-.074.207-.193.222-.208.03 0 .06.015.089.06 0 .014-.015.044-.06.089-.103.118-.192.177-.28.177zm.029-1.14c-.074 0-.09-.03-.06-.075a.303.303 0 0 1 .134-.074c.133-.044.222-.074.281-.074 0 .104-.237.222-.355.222zm0-1.423c-.015-.015-.03-.044-.015-.074 0-.015.015-.03.044-.03l.06.06c.014.014.059-.015.133-.06.06-.015.089.015.089.09 0 .029-.03.058-.074.088s-.134 0-.237-.074zm0 1.69c-.015 0-.015-.016-.015-.03 0-.075.044-.12.133-.12.03 0 .045.016.045.045-.015.074-.06.119-.163.104zm.044 1.688c-.074-.015-.06-.06.015-.133a.181.181 0 0 1 .133-.06c0 .134-.044.208-.148.193zm0 .697c.015-.03.03-.045.045-.045.044 0 .074 0 .103.015.045.03.045.074 0 .118-.044.06-.089.075-.118.06a.319.319 0 0 1-.03-.148zm.045-4.49c-.045-.044-.045-.074 0-.118.044-.03.074-.015.118.044s.045.089 0 .089-.089 0-.118-.015zm.03 7.157h.044v.03h-.045zm.073-6.179c-.03-.104-.03-.163.015-.178.06-.015.193.015.193.09 0 .088-.045.133-.148.133-.03 0-.045-.015-.06-.045zm.03 1.585c-.119-.014.06-.192.43-.192 0 .104-.104.207-.208.148-.044-.015-.06-.03-.06-.015a.276.276 0 0 1-.162.06zm0-1.096c-.015-.044.222-.252.281-.207.015.014.015.044.015.118v.119c0 .044-.059.059-.192.059-.03 0-.06-.03-.104-.089zm.03 1.941c-.074-.015.074-.163.133-.163.044.015.03.045-.015.119-.015.03-.06.044-.118.044zm.118.845c-.118.014-.133-.03-.133-.045 0-.089.059-.118.163-.104.015.015.03.03.03.045 0 .06-.015.089-.06.104zm-.118.785c.074 0 .103.015.118.03-.015.03-.044.044-.118.044zm.059-3.052l.133-.178c.074-.178.09-.252.163-.252.119 0 .178.044.178.133 0 .104-.148.178-.252.282-.015.015.104.06.06.133-.045.104-.09.119-.164.045-.059-.074-.103-.119-.118-.163zm0 3.911c0-.044.015-.089.06-.103l.058.044c0 .03-.014.06-.044.089s-.06.03-.074-.015zm.015.904c0-.074.03-.148.103-.148 0 .104-.03.148-.103.148zM10.083.8c-.016-.014-.03-.014-.03-.03 0-.073.059-.118.192-.118 0 .074-.089.193-.163.148zm.044.83c-.045-.015-.045-.03-.03-.044s.045-.03.089-.03v.074zm.044 2.534c-.015-.015-.015-.015-.015-.03 0-.074.163-.193.223-.148.133.074-.134.222-.208.178zm.015-2.904l.03-.03.03.03-.03.03zm.03 3.748c-.045-.015-.03-.044.03-.118.014-.03.044-.045.088-.045 0 .134-.044.193-.118.163zm.014-3.2c-.014-.015-.014-.015-.014-.03 0-.06.148-.163.192-.148.045.044.06.089.015.133a.225.225 0 0 1-.193.045zm-.014 4.03c-.015-.06.03-.163.089-.163.014 0 .03 0 .044.015.03.015.03.044 0 .103-.03.045-.06.074-.089.074-.015 0-.03-.014-.044-.03zm.074 2.46c.03-.015.059 0 .074.03-.015.044-.045.073-.104.073 0-.044.015-.089.03-.104zM10.275 1.2c-.015-.044.044-.059.148-.059 0 .06-.015.104-.06.119-.029.014-.058-.015-.088-.06zm.015 6.342c-.119-.045.074-.045 0 0zm.044-7.127c-.06-.044-.06-.089 0-.133.045-.045.074-.03.09.014.014.104 0 .149-.045.149-.015 0-.03-.015-.045-.03zm0 1.896c-.133-.014.09-.177.163-.133s-.044.178-.163.133zm0-.296c.03 0 .045.015.045.03.014.03 0 .044-.045.044zm.06 1.763c-.015-.014-.03-.03-.03-.044 0-.074.06-.119.178-.119 0 .163.163 0 .177.104s-.014.148-.118.148a.446.446 0 0 1-.208-.089zm0 .845c-.045-.015-.03-.045.014-.119.03-.03.074-.044.134-.044 0 .118-.045.178-.149.163zm.014.83c-.015 0-.015-.015-.015-.03 0-.044.119-.119.163-.104.015.015.015.03.015.045 0 .059-.103.133-.163.089zm.015 1.704c-.074-.015-.074-.045 0-.06h.06c.073.015.073.045 0 .06a.045.045 0 0 1-.06 0zm.015-3.838c-.045-.044-.045-.074 0-.089s.089-.03.118-.03c.134.015.193.045.193.09a.171.171 0 0 1-.074.103c-.074.045-.148.03-.237-.074zm0 2.978c-.015 0-.015-.015-.03-.03 0-.014.045-.044.134-.074 0 .104-.03.149-.104.104zm.03-5.319c-.06-.015.059-.207.118-.163.03.03.03.074 0 .119-.03.059-.074.074-.118.044zm-.015 6.964c-.015-.03 0-.06.044-.074.045-.03.06-.015.074.03.015.044 0 .073-.03.088s-.059 0-.088-.044zm.074-6.46c-.015-.015-.015-.015-.015-.03 0-.044.06-.074.163-.074 0 .089-.015.133-.044.148-.045.015-.075 0-.104-.044zm.015 1.022a.322.322 0 0 1 .252-.163c.044 0 .074.015.088.06 0 .133 0 .133-.177.133h-.134zm.014 1.734c0-.074.06-.163.163-.163.015.015.03.03.03.044 0 .074-.06.119-.193.119zm.015-2.578c.045 0 .06.014.06.03 0 .014-.015.029-.06.029zm.074.34c-.014-.014-.03-.03-.03-.044 0-.074.075-.104.223-.104 0 .119-.089.208-.193.148zm-.014 3.912c-.045-.015-.03-.044.014-.119.015-.03.06-.044.119-.03.074.016-.06.193-.133.149zm0-.83c0-.133.059-.178.133-.163.015.015.015.03 0 .074-.045.06-.089.09-.133.09zm.03 2.504h.058v.03h-.059zm.029.845c0-.03.015-.06.044-.074.03-.015.045-.015.06.03 0 .029-.015.059-.03.073-.03.015-.06 0-.074-.03zm.044-5.438a.265.265 0 0 1 .148-.133c.104.015.119.044.074.118-.044.045-.088.074-.133.074-.03 0-.06-.014-.089-.059zm.03-2.919c-.045-.118-.045.074 0 0zm-.015.385c0-.044.03-.088.074-.088 0 .044-.03.074-.074.103zm0 .83h.06v.03h-.06zm.06 2.563c-.045-.014-.03-.059.044-.118a.158.158 0 0 0 .074-.045l.044.03c0 .104-.103.178-.163.133zm0-3.2c-.03-.03-.03-.044.014-.06.03-.014.06 0 .074.016.03.03.015.059-.03.074-.014.015-.029 0-.059-.03zm.029.533c-.015-.014-.03-.03-.03-.044 0-.044.03-.074.09-.104.073-.03.103-.03.118 0 .015.015.015.03.015.045 0 .044-.015.074-.06.103a.206.206 0 0 1-.133 0zm0 2.356c-.015-.015-.03-.03-.03-.059 0-.044.06-.074.178-.104.074-.015.133-.03.148-.044s.03 0 .045.015c.03.03-.03.074-.163.148-.074.044-.134.06-.178.044zm0 1.17c-.03-.014-.015-.044.044-.103l.09-.074.029.03c-.045.103-.104.163-.163.148zm0 .786l.03.03h-.06zm-.015.889c.015-.015.03-.03.074-.03-.015.015-.03.03-.074.03zm.119.711c.014 0 .03.015.059.03a.193.193 0 0 1-.178.104c0-.06.045-.104.119-.134zm-.074.963c-.015 0-.015 0-.015-.014 0-.06.044-.09.118-.09.015 0 .015 0 .015.015.015.045.015.075-.015.09-.015.014-.059.014-.103 0zm.03-2.681c.014-.03.029-.045.058-.03.03 0 .045.015.045.044s-.03.045-.104.045zm.044-1.364c-.045-.014-.045-.03 0-.059a.168.168 0 0 1 .118-.044c0 .074-.044.118-.118.103zm0-2.326c-.015-.044.074-.148.133-.148.015 0 .03.015.044.03.015.044-.014.089-.074.133-.014.015-.059 0-.103-.015zm0-.755l.03-.03.029.03-.03.03zm.074 1.289c-.045-.03-.06-.06-.045-.075.06-.088.134-.118.208-.103.015.015.015.103.059.089.03-.015.044-.015.06-.015l.029.03c0 .162-.104.177-.311.074zm0 .459a.111.111 0 0 1 0-.133c.015-.045.044-.075.089-.075.103 0 .177.045.192.119.03.104-.015.163-.118.178-.074.015-.119-.015-.163-.09zm0 1.63c-.015-.015-.03-.015-.03-.03 0-.06.06-.089.163-.089 0 .134-.044.163-.133.119zM11.046 6c-.045-.015-.045-.045 0-.074s.073-.045.103-.045c.045.03.045.06.015.09-.045.044-.074.044-.119.029zm-.015-.83c0-.074.074-.133.148-.133 0 .089-.045.133-.148.133zm.044 2.519c-.044-.015-.044-.03-.015-.06.045-.014.074-.029.104-.014.03.015.03.044 0 .074a.094.094 0 0 1-.089 0zM11.09.356c.03-.045.06-.06.104-.045.014.015.014.045-.03.06-.045.03-.06.03-.074-.015zm.044 2.889c0-.193.104-.237.178-.193.045.03.06.06.045.104-.015.06-.09.089-.223.089zM11.15.533c-.015-.03 0-.044.03-.059.015-.015.044 0 .059.03s0 .044-.03.06-.044 0-.059-.03zm.089 3.393c-.015-.059-.015-.103.015-.148-.045-.059-.045-.103-.03-.118.119-.119.311-.311.385-.311.104 0 .119.03.045.103-.104.074-.163.134-.208.178a.455.455 0 0 0-.074.193c-.014.089-.059.118-.133.103zm.03-2.518c0-.03.03-.06.074-.074.015.03.015.059 0 .074-.015.014-.045.014-.074 0zm0 3.363c-.03-.015-.03-.03 0-.074.03-.03.059-.044.074-.044.044 0 .059.014.03.059-.03.044-.06.074-.104.06zm0 1.69c-.045-.016-.045-.045 0-.09.044-.059.074-.074.103-.059.045.03.045.06 0 .104-.03.044-.059.059-.103.044zm.014-.86c-.044-.045.06-.163.119-.119.06.045-.06.178-.119.119zm.09-3.675c-.045 0-.075-.03-.09-.074 0-.06.134-.118.208-.104l.03.06c0 .074-.045.118-.149.118zm-.075 5.394c-.03-.104 0-.163.074-.163.015 0 .03.014.045.03 0 .014-.015.044-.045.088-.044.074-.059.089-.074.045zm.015.83c.015-.03.03-.045.06-.045-.015.03-.03.044-.06.044zm0-5.794c0-.044.06-.074.163-.089a.41.41 0 0 1 .193 0c.014 0 .014 0 .014.015 0 .03-.059.074-.162.133-.075.045-.134.03-.178-.015zm.178.207c.015-.014.03-.014.06-.014 0 .118-.045.177-.149.177 0-.074.03-.118.089-.163zm-.045 2.623v.045h-.03zm.03-2.267c-.133-.044.089-.193.163-.133.104.044-.044.178-.163.133zm-.015 3.17c-.015-.014 0-.058.074-.132.045-.015.074 0 .09.014 0 .09-.045.134-.149.134l-.015-.015zm0-1.659c0-.074.03-.133.104-.177l.03.03c.014.014 0 .058-.06.118a.113.113 0 0 1-.074.03zm.104-3.348c-.06-.015-.06-.045.015-.074a.28.28 0 0 1 .118-.03c0 .089-.044.119-.133.104zm0-.534c0-.059.015-.103.074-.103 0 .074-.03.103-.074.103zm.06 1.038c-.134-.015.088-.178.162-.134.045.015.045.06 0 .104s-.104.044-.163.03zm.014 2.207c-.06-.074-.015-.103.119-.103 0 .059-.06.148-.119.103zm0 .208c-.104-.045.104-.045 0 0zm.03.844c-.03-.015-.045-.044-.03-.059.015-.03.044-.044.074-.06.045 0 .074.016.089.03 0 .104-.044.134-.133.09zm0-2.756c-.015-.014.014-.074.118-.148.074-.044.104-.044.119 0 .015.134-.045.193-.148.193-.03 0-.06-.015-.09-.045zm.059 5.32c-.045-.015-.045-.03-.03-.06.015-.015.03-.015.074-.015v.075zM11.712.222c.015 0 .163-.163.208-.103.044.103-.03.163-.208.163zm.045 3.69c-.104-.045.103-.045 0 0zm.044-2.8c-.03-.015-.03-.03 0-.06.03-.044.06-.044.089-.015-.015.045-.045.06-.089.074zm.06-.341c-.016-.015-.03-.03-.03-.045l.044-.044h.119c.089.015.089.044.014.074a.18.18 0 0 1-.148.015zm-.016 2.874c-.044-.044.149-.222.223-.163.103.104-.119.222-.223.163zm0 1.69c0-.075.104-.208.119-.164.044.045.06.074.06.09-.016.044-.075.073-.179.073zm.015-.86c-.015-.104.03-.148.163-.148 0 .118-.044.177-.118.177-.015 0-.03-.014-.045-.03zm.074-3.23c.015-.015.03-.03.074-.03-.014.015-.03.03-.074.03zm.06.474l.177-.148c.03 0 .045.03.03.074 0 .044-.015.074-.03.089a.316.316 0 0 1-.177.044zm.044 1.54c0-.044.03-.058.074-.073v.074zm.074.712c.045 0 .074.015.09.044-.045.075-.105.104-.15.104 0-.074.016-.118.06-.148zm-.03.948c-.014-.03.015-.074.075-.133.03 0 .059.015.074.03 0 .088-.045.133-.119.133-.015 0-.015-.015-.03-.03zm.06-4.474c-.015-.03 0-.06.03-.074.044-.03.074-.03.088.014.015.03 0 .06-.044.075-.045.03-.06.03-.074-.015zm.06.755c.029-.044.058-.089.103-.103.044.044-.06.177-.104.103zm.029 2.12c-.074 0-.074-.03 0-.075.03-.015.089-.015.163-.015 0 .074-.06.104-.163.09zm0-2.401c.03-.06.059-.06.089.015-.015.014-.045.03-.104.03 0-.016 0-.03.015-.045zm.059 1.14c-.03 0-.044-.014-.06-.044l.03-.03c.015.015.03.045.03.075zm.044 2.357a.094.094 0 0 1 .09 0c.014.014.029.044.014.074-.03.059-.089.089-.163.089 0-.075.015-.119.06-.163zm-.044-3.008c.044 0 .074.015.089.03-.015.029-.045.044-.089.044zm0 2.267h.06v.03h-.06zm.148-1.66c-.044 0-.06-.015-.06-.059s.03-.06.105-.06c.03.016.044.045.059.06-.03.044-.06.06-.104.06zM12.423.83c-.014-.015 0-.074.074-.163.074-.104.119-.119.149-.074.014.015-.03.074-.104.178-.06.059-.104.074-.119.059zm.06 2.504c-.045.118-.045-.104 0 0zm.014-3.275v.03h.03V.06zm0 4.075h.03v.03h-.03zm.03.845c-.015-.09.03-.134.133-.134 0 .06-.014.104-.044.148s-.06.045-.089-.014zm.089-1.452c-.06-.015-.06-.045-.015-.09.03-.029.074-.044.133-.029s.06.045.015.089c-.03.044-.074.044-.133.03zm.06 1.126c-.045 0-.03-.03.029-.104l.089-.074c.044-.015.059 0 .059.044 0 .104-.06.149-.178.134zm.029-2.964c-.03-.014-.03-.03 0-.074.03-.03.06-.03.074 0 0 .045-.03.06-.074.074zm-.015 2.104c.015-.044.044-.059.089-.074-.015.045-.045.06-.089.074zm.163-2.044c0-.03.015-.045.03-.06.014.015.03.015.03.03-.016.015-.03.03-.06.03zm.06 2.504c-.016 0-.016 0-.016-.015 0-.074.045-.119.149-.119 0 .119-.045.163-.134.134zm0 .815c-.016-.06.044-.09.147-.09 0 .09-.03.134-.103.134-.015 0-.03-.015-.045-.044zm.103-3.186c-.015-.015-.015-.015-.015-.03 0-.044.045-.074.119-.103.074-.015.118-.015.133.03.015.073-.015.118-.104.147-.044.015-.089 0-.133-.044zm.074 2.015a.134.134 0 0 1 .089-.089c.015.03.015.06 0 .074-.015.015-.044.03-.089.015zm.03-.267c-.119-.044.074-.044 0 0zm.015-2.37c.014-.015.03-.03.059-.03-.015.03-.045.045-.06.03zm0 3.422h.03v.03h-.03zm.207-1.244c-.074 0-.089-.03-.06-.104a.156.156 0 0 1 .134-.074c.03 0 .044.015.06.044s.014.06 0 .074a.181.181 0 0 1-.134.06zm-.044.918c0-.103.088-.177.162-.177 0 .118-.059.177-.162.177zm.03.77h.132c0 .105-.03.12-.103.06zm.118-3.022c-.045-.03-.045-.06 0-.074a.319.319 0 0 1 .148-.03c0 .119-.045.149-.148.104zm.089 2.712c0-.06.03-.134.088-.134.03 0 .045.015.045.045 0 .059-.045.089-.133.089zm.177-1.245c-.014-.015-.014-.044.015-.089.045-.03.074-.03.09.015a.171.171 0 0 1-.105.074zm.09 1.674c-.03-.015-.045-.03-.03-.044.03-.074.074-.119.148-.119 0 .134-.045.178-.119.163zm.177-1.911c-.03-.015-.044-.045-.03-.074.06-.074.134-.104.208-.09s-.104.208-.178.164zm.03 1.422c.044 0 .074.015.089.03 0 .06-.045.089-.149.089 0-.045.015-.09.06-.119zM15.584 7.69c0 .193.104.37.311.548.222.163.415.252.608.252h.281a.96.96 0 0 1 .148.03h1.319c.044-.06.074-.074.119-.03.03.015.103.03.222.03h1.096c.06 0 .104-.09.148-.09 0 0 .03.016.074.03h.075c.148-.074.251-.148.31-.207.178-.163.267-.237.267-.252.104-.163.149-.267.149-.281 0-.045-.03-.149-.03-.193.015-.133.03-.178.03-.133-.015-.045-.03-.06-.03-.06a.624.624 0 0 1 .03-.074v-.207c0-.104 0-.163.014-.178.015-.06.015-.089.015-.104 0-.103-.015-.148-.03-.103.03-.045.045-.074.03-.119 0-.074-.044-.252-.044-.326h.015c.014-.104.044-.252.059-.444.015-.415-.074-.623-.06-.726l.06-.208c.015-.03 0-.074-.045-.133-.014-.015 0-.074.045-.178a.54.54 0 0 0 0-.222 1.185 1.185 0 0 1-.06-.222c0 .014.015-.045.06-.208.015-.044 0-.118-.015-.237a1.074 1.074 0 0 1 .03-.43c.014-.103.03-.177.014-.222a.628.628 0 0 0-.03-.163l.03-.03c.015-.014.015-.014.015-.03h-.103v-.147c.044 0 .074-.03.088-.074s.015-.09 0-.134c-.044-.103-.059-.178-.044-.252.015-.089.03-.222.015-.414-.015-.178-.015-.267-.015-.282 0-.089 0-.148.015-.178-.045-.104-.074-.133-.119-.089-.015.06-.015.104 0 .134 0 .074-.103.118-.163.103a.27.27 0 0 1-.148-.163c-.06-.118.148-.207.163-.222l-.03-.03a.564.564 0 0 0-.281.06c-.06-.015-.163-.148-.104-.208.09 0 .148.015.163.06.163-.03.237-.06.222-.104 0-.119 0-.163-.014-.119.014-.044.014-.074 0-.103-.015-.03-.03-.045-.045-.045-.015.015-.044.015-.074.015-.06 0-.104-.015-.133-.044-.06-.06-.06-.104-.015-.134.074-.044.104-.059.104-.074-.015-.044-.208-.074-.267-.133s-.133-.163-.207-.119h-.43a.113.113 0 0 0-.074-.03c-.06.045-.104.075-.119.104a.566.566 0 0 1-.133.134c-.015.015-.045 0-.074-.03a1.484 1.484 0 0 1-.163-.178c-.045-.044-.163-.03-.326.045-.089.03-.148.03-.178.015-.074-.06-.104-.09-.118-.09-.075 0-.119.015-.134.06-.015.015 0 .06.03.104.03.03.015.059-.03.089s-.104.03-.148 0c-.074-.045-.104-.075-.104-.119.015-.06.03-.089.045-.089h.148V.015h-.37c-.045.06-.149-.03-.193.074-.015.074-.133.119-.148.104-.015-.015-.03-.045-.015-.074 0-.015.074-.06.074-.104-.044 0-.148.104-.207.06-.045-.045-.075-.06-.09-.06C16.978 0 16.933 0 16.918 0c0 .119.193.297.134.341-.104.06-.178.044-.252-.06-.015-.014-.015-.044 0-.088.03-.074.015-.134-.044-.163-.03-.015-.09-.015-.178.015-.06.014-.237.192-.341.192-.074-.044-.104-.059-.104-.059-.37.37-.37.356-.43.46-.03.073-.03.103 0 .103.134.015.208.03.208.074 0 .06-.06.089-.163.089-.074-.044-.119-.044-.133-.03-.015.045-.015.104-.015.208 0 .178.192.222.192.237-.014.074-.192.118-.192.193v.207c.074.015.104.06.089.118-.06.119-.09.163-.09.119v.519c0 .074.253.103.253.177 0 .06-.045.09-.134.09-.044 0-.103-.06-.148-.06v.37c0 .045.193.045.148.149-.133.059-.148 0-.148.385v.163c0 .015.03.074.03.089.015.044-.03.103-.03.148v.385c0 .06.222.06.222.119 0 .044-.074.074-.222.074v.326c0 .015.03.044.104.074.104.015-.133.089-.133.281.014.134.044.223.059.297 0 .059-.06.237-.06.34 0 .074.015.149.03.208 0 .03-.015.06-.03.074.015.03.045.03.09 0 .014 0 .162.089.162.133s-.059.074-.192.074c-.045-.044-.074-.074-.06-.074v.341c.09.104.134.148.12.163l-.12.119v.548c0-.015.06.03.164.103.03.03.03.06.014.075-.014.03-.044.044-.089.044zm-.03-.06c.015 0 .015 0 .015-.014s0-.015-.015-.015c-.044 0-.044.015 0 .03zm.119-3.674c-.015-.015-.015-.03-.015-.044.133 0 .193.044.193.118 0 .03-.015.045-.03.045-.06 0-.104-.045-.148-.119zm.015-1.896c0-.03.015-.045.044-.045.015.015.03.03.03.045 0 .044-.03.059-.074.059zm.074 3.23c-.015-.045-.015-.074 0-.104.163.015.252.074.252.207a.4.4 0 0 1-.252-.103zm-.015.592c-.074-.03-.06-.074.015-.133.015-.015.06-.015.104.03s.044.074 0 .103c-.03.03-.075.03-.119 0zm.178-2.326c-.104.015-.237-.118-.163-.192.015-.015.06 0 .163.059.044.015.059.044.059.06 0 .044-.015.058-.06.073zm-.074 3.556c-.045 0-.09 0-.09-.044 0-.015.016-.03.03-.03.045 0 .06.03.06.074zm-.03-4.904c-.03-.045-.015-.089.045-.104.044-.015.088-.015.103.03.015.03-.015.06-.059.089-.044.015-.074.015-.089-.015zm.045 4.445c-.045-.03-.06-.074-.045-.119s.045-.074.089-.074c.015 0 .015 0 .03.015l.148.133c-.03.104-.104.119-.222.045zm0-5.082c-.06.118-.06-.074 0 0zm-.03 3.17c.03-.044.06-.059.104-.059s.089.03.103.074c.015.03.015.06 0 .09s-.03.044-.074.044zm.06-3.037c-.03 0-.03-.015-.016-.044l.045-.06a.251.251 0 0 1 .148 0c.06.03.044.06-.044.104a.206.206 0 0 1-.134 0zM15.88 2.92c-.014-.03 0-.044.045-.06.074 0 .192.045.192.105 0 .074-.044.103-.133.074-.044-.045-.089-.074-.104-.119zm.06 1.334c0-.03.044-.045.118-.03s.119.03.133.045a.236.236 0 0 1-.103.133zm.044-3.067c-.044-.074-.03-.119.015-.134.104-.03.148 0 .148.104 0 .03-.03.06-.074.074-.044.015-.074 0-.089-.044zm0 1.155c.045 0 .089.03.163.074.044.03.044.06.03.09-.045.044-.09.059-.119.044-.044-.015-.06-.074-.074-.148zm.119 3.853c-.104 0-.104-.074-.104-.178.015-.045.044-.03.118.03.045.03.06.059.06.088 0 .045-.03.06-.074.06zM16.058.623c-.015-.03.015-.045.06-.06.073-.014.192.03.177.09-.015.044-.074.073-.148.059a.252.252 0 0 1-.089-.09zm0 4.978a.094.094 0 0 1 0-.089c.015-.044.045-.06.06-.044.073.074.133.118.177.148.015.03-.015.074-.089.118-.044.015-.103-.03-.148-.133zm.015-1.882c-.119-.044.074-.044 0 0zm.163-1.674c-.015.015-.193-.074-.148-.178.015-.044.044-.074.089-.074.014 0 .014 0 .03.015l.147.148c-.044.045-.074.074-.118.089zm0 4.934c-.119-.015-.133-.06-.133-.178.118 0 .266.119.251.163-.014.015-.059.03-.118.015zm-.104-1.852c.015-.06.045-.089.09-.089.103.015.147.03.162.074a.198.198 0 0 1-.118.104.35.35 0 0 1-.134-.09zm.03-1.852c-.015-.015-.03-.045-.015-.074 0-.03.015-.045.044-.03.075.015.134.06.178.104-.015.044-.03.089-.074.104a.274.274 0 0 1-.133-.104zm.074.563c-.03-.015-.045-.03-.03-.06 0-.03.015-.044.045-.044.044 0 .059.03.059.104zm.03-2.341c-.075-.074-.075-.134.014-.148.015 0 .074.014.149.059.059.044.059.074 0 .104-.06.044-.119.03-.163-.015zM16.25 4.49c.074 0 .266.104.222.178-.044.059-.089.074-.148.03-.045-.016-.06-.06-.074-.134zm.163-1.63c-.119.015-.163-.06-.148-.118 0-.045.014-.06.059-.06.118 0 .178.03.178.104 0 .044-.03.06-.09.074zm-.134 3.63c-.03-.015-.014-.044.045-.074.044-.03.089-.03.118 0 .03.045.015.06-.044.074-.06.015-.104.015-.119 0zm.045-.548c-.045-.045-.045-.074-.03-.104.015-.044.06-.044.104-.03.118.045.178.134.178.238-.104 0-.193-.03-.252-.104zm-.03-1.867c.06-.074.134-.074.222-.015.045.03.045.074.03.119s-.06.059-.104.044zm0 2.237h.03l-.03.03zm.09-4.06c-.03-.014-.03-.044-.016-.059.015-.03.03-.03.06-.015.118.045.177.104.177.149a.364.364 0 0 1-.222-.074zm0-.474c-.016-.044.014-.074.088-.118.03.015.044.03.06.06-.075.088-.12.103-.149.058zm0 3.63c-.016-.074.014-.103.073-.103.134 0 .208.059.208.163 0 .03-.015.044-.045.059-.044.044-.118 0-.237-.119zm.073-4.904c-.015-.015-.03-.03-.044-.074s0-.06.015-.074c.074-.044.31.104.207.163-.044.044-.104.03-.178-.015zm-.015.519c0-.045.03-.074.09-.09.044.016.044.045 0 .06a.21.21 0 0 1-.09.03zm.149 2.667c-.104 0-.119-.09-.119-.163.163 0 .222.03.207.104-.014.03-.044.044-.088.059zm-.104 3.615c-.03-.015-.03-.044 0-.06.03-.029.06-.029.089-.014.044.015.044.044 0 .06-.03.014-.06.029-.09.014zm.03-.563c-.015-.03-.015-.06 0-.074a.113.113 0 0 1 .074-.03.486.486 0 0 0 .118.09c.03.029.03.058-.015.088-.074.074-.133.06-.178-.074zm.03-1.763c-.075-.06-.06-.104.029-.119.074-.015.118 0 .163.045s.03.089-.045.133c-.044.015-.089-.015-.148-.06zm-.016-1.926l.03-.045c.044.045.252.06.252.119 0 .03-.03.044-.104.044-.06 0-.104-.015-.118-.03zm.045-1.2c-.045-.045.089-.12.148-.12 0 .09-.045.134-.133.134l-.015-.015zm.03-.593c-.015-.03-.015-.06 0-.074.014-.03.044-.045.059-.045s.03.015.059.03l.104.118c-.06.104-.134.09-.223-.03zm-.015 3.14c.044-.044.074-.073.118-.088.104.104.163.163.148.163-.089.104-.178.074-.266-.074zm.059 1.883c-.09-.045-.104-.09-.045-.149.03-.014.09 0 .178.06.104.059.119.103.045.118-.06.015-.119.015-.178-.03zm0-3.749c-.015-.015-.015-.044-.015-.06.178 0 .267.045.267.134 0 .06-.045.074-.134.044-.044-.014-.089-.059-.118-.118zM16.725.8a.081.081 0 0 1-.045-.074c-.014-.044 0-.059.045-.074.03 0 .074.03.148.074.074.045.074.09 0 .134-.03.014-.074-.015-.148-.06zm-.015 4.934c-.03-.03-.03-.059-.015-.074s.045-.03.09-.015c.073.015.132.045.162.119.045.074 0 .104-.104.104-.03 0-.074-.045-.133-.134zm.015-1.822c-.015-.03-.015-.06-.015-.089.015-.015.03-.015.06.015.073.044.133.06.177.074.045.06-.03.133-.104.133-.044 0-.074-.044-.118-.133zm0-1.882c.015-.015.03-.03.074-.03-.015.015-.03.03-.074.03zm.104 3.275c-.104-.074-.104-.119-.03-.134.104-.044.385.104.222.163-.074.03-.133.015-.192-.03zm-.03-3.141c-.015-.074.06-.104.193-.104 0 .104-.06.148-.163.133-.015 0-.015-.015-.03-.03zm.06 1.304c-.09-.06-.09-.104-.016-.149.03-.014.06-.03.074-.014.045.014.06.03.075.044.074.074.088.119.03.148a.173.173 0 0 1-.164-.03zm-.06 3.644c0-.044.06-.059.163-.044.074.015.074.03.015.074a.144.144 0 0 1-.134.015zm.06-4.193c-.016-.044.014-.089.088-.163 0-.014.015 0 .06.03 0 .015.177.089.162.163-.014.044-.044.074-.118.06l-.09-.06c-.044 0-.073-.015-.103-.03zm.251 1.897c-.133.06-.34-.104-.222-.163.104-.06.192-.015.281.118zm-.207 1.793c-.074-.074-.074-.134 0-.149.089-.014.163.015.237.119-.015.03-.045.044-.06.06-.074.014-.133.014-.177-.03zm.266-5.438c-.133.015-.252-.104-.237-.148a.112.112 0 0 1 .06-.03.388.388 0 0 1 .222.03c.104.06.089.104-.045.148zm-.207.489c-.015-.074-.015-.119.03-.133.059 0 .177.044.118.088-.015.03-.03.045-.044.045-.06.044-.09.044-.104 0zm.074 2.637c-.089-.074-.089-.133-.015-.163.045-.014.311.149.178.193-.074.03-.119.015-.163-.03zm-.044 1.778c-.015-.03 0-.059.014-.089.015-.014.03-.014.074 0a.31.31 0 0 1 .149.119.2.2 0 0 1-.104.089c-.045-.015-.089-.045-.133-.119zm.251-3.6c-.133 0-.207-.03-.207-.163.044 0 .119.03.222.089.015.03 0 .06-.015.074zm-.177 3.097c-.015-.015-.015-.045-.015-.06 0-.044.044-.059.118-.044.09.015.149.06.163.104.045.074.015.103-.103.103-.074 0-.119-.03-.163-.103zm.014 1.807c-.044-.044-.044-.06 0-.074.03-.015.06 0 .075.015.03.03.03.06-.015.074-.015.015-.045 0-.06-.015zm.015-6.815c-.015-.03-.015-.06 0-.075.03-.044.06-.044.09-.03.073.075.133.105.147.12.06.059-.044.103-.103.103-.045 0-.09-.044-.134-.118zm.015 3.17c-.015-.03-.015-.059 0-.089s.03-.03.06-.014a.601.601 0 0 1 .162.088c.045.06.015.104-.089.119-.059 0-.103-.03-.133-.104zm.267 3.23c-.104.074-.341-.103-.222-.163.074-.044.281.104.222.163zm-.222-1.985c.222 0 .326.044.281.118-.015.06-.074.075-.148.06a.177.177 0 0 1-.133-.119zm.148-2.993c-.119.015-.148-.06-.148-.163.177 0 .266.03.251.104-.014.044-.044.059-.103.059zM17.199 3.2c.015-.03.03-.045.06-.03a.112.112 0 0 1-.06.03zm.089-1.763a.135.135 0 0 1-.045-.104c.134 0 .223.03.252.074-.044.104-.103.104-.207.03zm-.03 3.096c-.03-.074.045-.074.208 0l.089.045c0 .015-.03.044-.09.089-.029.015-.073 0-.118-.045zm.193 1.927c-.193 0-.237-.074-.193-.134.015-.015.045-.03.09-.015.133.015.221.075.177.134-.015.015-.044.03-.074.015zm-.148-3.72c.015-.059.03-.103.074-.118.104.045.163.089.178.119.014.044-.015.059-.104.059-.074 0-.119-.015-.148-.06zm.089.475c.044 0 .059.015.074.059-.015.044-.06.06-.119.06 0-.045.015-.09.045-.12zm-.03-2.312c-.044-.074-.03-.103.074-.103.074 0 .119.03.163.074 0 .044-.03.074-.074.089-.104-.015-.148-.03-.163-.06zm0 4.979c-.015-.045-.015-.074 0-.09.015-.029.03-.044.074-.029.06.015.119.06.193.134.044.044-.06.118-.134.118-.059 0-.103-.044-.133-.133zm.03-1.838c-.015-.014-.015-.044-.015-.059.015-.015.03-.03.06-.03.132 0 .207.045.207.149-.015.044-.075.059-.149.059-.03-.015-.059-.044-.103-.119zm.014-1.881l.06-.06c.074.06.133.104.178.119.014.044 0 .074-.045.089s-.074 0-.104-.03zM17.481.46c-.015-.015-.03-.06-.045-.104s0-.06.045-.06c.014 0 .074.016.177.06l.09.045c0 .03-.016.059-.06.074-.089.044-.163.03-.207-.015zm-.045 6.727c-.015-.045 0-.06.045-.06.074 0 .192.06.192.104 0 .074-.044.104-.118.074a.45.45 0 0 1-.119-.118zm.726-.904c-.118-.015-.356.044-.4.03l-.148-.149.089-.074v-.563c0-.03-.03-.03-.09 0-.014 0-.029-.015-.044-.03l-.133-.118v-.074c.045 0 .089.015.133.06.015.014.045 0 .074-.045.045-.104.075-.193.06-.267-.045-.074-.104-.118-.148-.163 0-.104.207-.356.163-.43s-.075-.118-.075-.133.09-.089.09-.133v-.519c0-.015-.015-.03-.06-.03h-.089a.648.648 0 0 1-.103-.118c.014-.045.044-.06.074-.06.044.03.074.045.103.03.045-.015.074-.03.074-.044V3.2c-.103-.074-.148-.148-.148-.222a.112.112 0 0 1 .06-.03l.059.03c.03.015.044-.03.03-.163v-.193c-.045-.044-.045-.118 0-.222.029-.089.059-.133.073-.133h.697c0 .014-.015-.03-.045-.104-.014-.045 0-.074.045-.09.104-.014.178 0 .222.075s-.118.133-.118.193c0 .014.03.059.03.103 0 .015-.03.074-.03.09v.251c0 .03.014.06.044.074.089.045.133.06.148.06.134.074.148.118.074.162a.144.144 0 0 1-.133.015 3.261 3.261 0 0 1-.119-.074c0 .03 0 .074.015.119v.103c0 .015-.03.075-.03.119s.193.133.193.178-.06.074-.178.103c-.014 0-.014.03-.014.104 0 .06.133.252.074.326-.045.074-.074.119-.074.134v.533c0 .03.03.044.088.03.045-.015.06-.03.075-.03l.074.06c.074.044.089.088.044.118a.396.396 0 0 1-.163.03c-.044 0-.074-.045-.118-.045v.252c.133.03.192.089.192.192 0 .074-.06.119-.192.149.03.03.044.074.03.133-.016.089-.016.118-.03.089 0 .044.133.118.118.178-.044.03-.089.044-.133.059-.015.044-.03.074-.03.104-.015.103-.015.192-.015.251l.03.06v.015c0 .059-.045.088-.133.074-.03-.015-.045-.015-.045-.03l-.148-.148zm-.593.326c.163 0 .237.044.237.133 0 .074-.059.089-.177.045-.045-.045-.09-.074-.104-.119zm.045-5.423c-.015-.015-.015-.045-.015-.06.193 0 .296.03.296.09l-.03.044c-.118.104-.207.089-.251-.074zm.015.607c.015-.044.059-.059.103-.074.045.015.045.03 0 .06a.21.21 0 0 1-.088.03l-.015-.016zm.074-1.11c-.015-.03 0-.045.03-.06.059 0 .133.015.177.03.074.03.104.059.104.074 0 .03-.03.059-.089.103-.03.015-.074 0-.119-.044zm0 4.059v.06h.03v-.06zm.03 2.756c.014-.045.044-.06.059-.06l.118.06c.045.015.03.044-.015.074-.059.015-.118 0-.163-.074zm.088-.49c0-.029.015-.044.03-.058.089.044.163.059.222.059.09.03.074.06-.044.104-.03.014-.06.014-.09.014-.058-.044-.103-.074-.118-.118zm.09-4.874c-.016-.015-.03-.015-.03-.03 0-.029.014-.059.059-.073.044-.015.089-.015.118 0 .015 0 .015.014.015.03 0 .044-.118.088-.163.073zm.192 4.49c-.193-.015-.222-.104-.222-.163a.21.21 0 0 1 .088-.03c.178 0 .297.119.238.163a.214.214 0 0 1-.104.03zm-.178-5.157l.03-.03.03.03-.03.03zm.163.178c-.06.045-.148-.03-.133-.074l.059-.03c.074-.03.118-.03.133 0 .015.015-.015.06-.059.104zm-.03-.548c-.089-.074-.103-.133-.03-.163.075-.015.253.044.253.119 0 .059-.045.088-.119.088a.135.135 0 0 1-.104-.044zm.06-.578c-.045-.044-.03-.074.044-.074.104 0 .311.06.208.163-.045.03-.075.045-.104.045a.444.444 0 0 1-.148-.134zm-.015 6.816c-.015-.06.015-.089.118-.089.03 0 .074.044.149.118.014.075-.015.104-.119.104-.044 0-.089-.044-.148-.133zm.104-.49c-.06-.058-.03-.103.088-.118.045 0 .09.03.149.104.044.074.014.104-.09.119-.029 0-.073-.03-.147-.104zm.014-5.022c-.014-.015-.014-.044-.014-.06.148 0 .222.03.222.105 0 .014 0 .03-.015.044-.089.104-.148.074-.193-.089zm.074-.474c-.03-.044-.03-.074.015-.089.015 0 .03.015.074.03.104.044.163.059.163.074.015.06-.015.089-.118.089-.045 0-.09-.03-.134-.104zm.075-.548c.044-.104.148-.104.31 0l.03.059c0 .06-.148.148-.192.104zm.133 6.312c.06.014.089.014.089 0 .044-.045.074-.045.089-.03.044.015.059.044.074.089.03.074-.03.118-.163.133-.09.015-.134-.03-.134-.148zm.044-6.697c-.03-.015-.044-.045-.059-.09s0-.059.044-.059c.119-.014.267.074.267.119 0 .03-.015.044-.044.06a.26.26 0 0 1-.208-.03zm.104 1.303c-.074-.074-.074-.118-.03-.148.074-.059.297.119.178.163-.06.03-.104.03-.148-.015zm-.044 4.934c-.015-.03-.015-.059 0-.074.014-.014.074-.03.148-.03.044.045.089.075.103.104.045.045-.133.178-.177.134-.045-.06-.06-.104-.074-.134zm-.03.993c.044 0 .06.015.06.03s-.016.03-.06.03zm.06-6.504c-.016-.03 0-.045.044-.06.03-.014.074-.014.118 0s.09.015.104.03c.06.015.074.044.06.089-.016.044-.045.074-.105.089-.044.015-.118-.045-.222-.148zm.029 4.993a.156.156 0 0 1 .133-.074c.119.015.208.133.193.148-.06.06-.119.089-.178.074zm.044 1.319c.045 0 .074 0 .09.014.014.045.044.06.058.06.06 0 .163-.045.223-.045.044 0 .044.015.03.045l-.075.059c-.103.044-.178.074-.222.06-.044-.016-.089-.06-.104-.134zm.045-6.801c-.015-.074.118-.104.192-.09.119.045.163.09.149.149-.015.044-.09.074-.193.074-.015 0-.06-.044-.148-.133zm.192 1.94c-.118.016-.192-.044-.192-.118 0-.044.015-.074.044-.089.045-.03.104-.014.178.045.044.03.06.06.06.089 0 .044-.03.059-.09.074zm-.133 1.216c0-.045.015-.06.06-.074.103 0 .222.044.222.118s-.045.09-.149.074zm.015 1.896c-.03-.059.133-.163.178-.133.074.06.118.089.103.133a.35.35 0 0 1-.133.09c-.074.014-.119-.016-.148-.09zm.178 1.423c-.134.014-.193-.06-.178-.163 0-.06.03-.074.074-.045.118.074.118.119.237.119 0 .044-.044.074-.133.089zm-.134-2.8c.015-.03.03-.045.045-.03.015 0 .03.015.03.03 0 .044-.03.059-.075.059zm.223-2.268c-.104.074-.282-.074-.208-.148 0 0 .119.03.163.045.089.014.104.059.045.103zm.03 3.216c-.179.059-.238-.06-.253-.134 0-.044.015-.074.06-.074.074 0 .148.015.222.06.104.044.104.103-.03.148zm-.164 1.318c-.044-.074-.06-.118-.015-.133.03 0 .06.015.104.03a.54.54 0 0 0 .222 0c.104.014.104.03.015.074-.074.03-.118.044-.133.059-.03.044.015.118.148.207-.015.015-.03.03-.044.03-.09 0-.193-.089-.297-.267zm.208-3.2c-.104.074-.341-.089-.208-.163.074-.045.311.089.208.163zM18.947.075c.015.03.03.044.06.044 0-.03-.015-.059-.03-.074zm0 1.363c.015-.03.06-.044.134-.03.163.015.163.06.163.104 0 .06-.045.09-.148.09zm.09 4.564c-.016-.015-.016-.045-.016-.06.045 0 .134.074.193.074.045 0 .148-.044.208-.044v.074s-.075.03-.208.089c-.074 0-.133-.045-.178-.133zm.029-5.038C19.05.89 19.08.86 19.184.86c.134 0 .208.045.208.148 0 .074-.074.119-.208.104l-.03-.03a.486.486 0 0 1-.088-.118zm0 1.852c-.03-.074-.015-.104.06-.104.044 0 .088.03.147.09a.045.045 0 0 1 0 .058l-.074.06c-.059.015-.103-.015-.133-.104zm.015 4.534c-.015-.015-.015-.045-.015-.06 0-.044.044-.059.118-.073.075-.015.119 0 .119.03v.221c0 .045-.03.06-.104.015-.044-.03-.074-.074-.118-.133zm0-2.578c0-.06.059-.148.163-.148.074.03.059.074-.03.118a.433.433 0 0 1-.133.03zm.03-4.727c-.015.015-.03.015-.015.03h.088c-.014-.015-.03-.03-.074-.03zm.014 2.238c-.015-.06.03-.09.134-.09.133 0 .192.045.192.149 0 .03-.06.06-.178.104L19.2 2.37zm0 3.215c.015-.045.045-.06.09-.06.073.045.118.06.132.06.104-.015.149-.03.163-.015.015.03 0 .06-.059.089-.104.06-.178.074-.207.044zm.015-1.349c-.044-.059 0-.088.104-.088v.177c-.045 0-.074-.03-.104-.089zM19.2.564c-.09-.074-.09-.133 0-.178.059-.03.133-.015.236.045.09.059.09.103-.014.148a.238.238 0 0 1-.223-.015zm.088 3.126c-.015-.015-.044-.03-.06-.074l.045-.06c.06.075.104.09.119.075a.624.624 0 0 0 .074-.03c.03.015.03.045.015.09-.03.058-.09.058-.193 0zm-.03-1.882c-.03-.044-.03-.074.015-.088.074-.015.223.03.267.088-.044.075-.104.119-.148.119s-.089-.044-.133-.119zm-.014 3.171c.015-.03.044-.044.059-.059l.089.06c.015.014.06 0 .118-.016.045-.014.09-.014.119 0 0 .015 0 .015.015.03 0 .045-.074.089-.208.133-.089.015-.148-.03-.192-.148zm.059 1.334l.03-.03.03.03-.03.03zm.015.652c.015-.015.03-.03.06-.03-.016.015-.03.03-.06.03zm.06-3.779a.081.081 0 0 1-.045-.074c-.015-.044 0-.074.044-.074-.015 0 .03.03.163.074.045.015.06.03.045.045-.015.03-.045.044-.06.06-.059.029-.103.014-.148-.03zm-.045-1.926c.044-.074.118-.059.252.015.044.03.059.06.03.104-.045.06-.09.074-.134.03zm.059 4.564a.081.081 0 0 1 .074-.045l.044.074c.06.03.104.045.134.045.074.044.06.074-.045.089-.03 0-.103-.06-.207-.163zm0 .607c-.015-.044.015-.059.074-.074.044 0 .06.015.06.045 0 .044-.016.074-.045.089s-.06-.015-.09-.06zm.03-3.837l.03-.03.029.03-.03.03zm.03-1.823a.35.35 0 0 1 .133-.089c.074.03.148.075.192.119.045.06-.133.133-.207.133l-.03-.03zm0 3.186c-.016-.03 0-.044.029-.06s.044 0 .06.03 0 .045-.03.06-.045 0-.06-.03zm.058 1.363c-.014-.015-.014-.044-.014-.074.059 0 .296.119.296.178 0 .044-.045.06-.119.044s-.133-.059-.163-.148zm.015-3.17c-.015-.045 0-.075.045-.075s.044.06.059.06c.044.014.074-.03.074-.164.015 0 .045.03.119.104.088.09.03.148-.178.193-.045 0-.09-.045-.119-.119zm0 .592c0-.06.045-.148.148-.148l.045.059c-.015.06-.074.089-.193.089zm.06-2.445c-.045-.089-.015-.133.088-.133.09 0 .149.044.163.133.03.074 0 .119-.103.119-.045 0-.104-.045-.148-.119zm.059 3.23c-.03-.015-.045-.06-.045-.118.045.044.09.074.149.059.014 0 .103-.03.118-.03.089 0 .074.03-.044.104-.06.044-.119.03-.178-.015zm.104-1.926c-.015.015-.045.03-.09.03-.073-.045-.044-.075.06-.104.044-.015.074-.03.118-.03.104.074.119.134.074.178-.03.03-.088.044-.192.044V1.66zm-.09 1.348c-.014-.03 0-.044.03-.059.045-.015.06 0 .06.044.014.045 0 .06-.03.075-.015-.015-.045-.03-.06-.06zm.045 2.712c-.044.118-.044-.074 0 0zm.045-4.534c-.06-.06-.03-.104.103-.134a.247.247 0 0 1 .237.074c.06.075.015.119-.148.163-.06.015-.118-.03-.192-.103zm0 3.719c.103 0 .148.015.118.059-.074.074-.104.074-.118.015zm.014-2.341c-.044-.045.03-.163.09-.119l.073.06h.015c.015 0 .06-.015.104-.03a.094.094 0 0 1 .089 0c.044.03.03.06-.03.104-.133.074-.252.074-.34-.015zm.074.548c-.059-.015-.044-.044.06-.089a.258.258 0 0 1 .103-.044c.074.044.06.074-.03.103a.433.433 0 0 1-.133.03zm.015-2.415c-.03-.074.03-.119.178-.133.074-.015.119.014.163.074.044.074 0 .118-.133.163-.09.014-.163-.015-.208-.104zm.03 3.111c-.045.119-.045-.074 0 0zm.03-1.763c.014-.044.03-.074.059-.089l.089.03h.03l.118-.03h.03c.014.015.03.03.03.045 0 .044-.045.089-.15.118s-.162 0-.207-.074zm.03 1.29c-.105-.045.103-.045 0 0zm.058-1.808c-.014-.045-.014-.06.03-.075.015-.014.06-.014.104 0 .118.015.207.03.266.03 0 .074-.059.119-.192.133-.104.015-.163-.014-.208-.088zm.045 1.303c0-.03.015-.044.044-.044.015 0 .03.015.03.044zm.044.623c-.015-.015-.015-.045-.015-.06.06 0 .09.015.104.045-.044.06-.074.06-.089.015zm.134-.726c0-.045.014-.09.044-.119 0-.015-.133-.237-.133-.296 0-.03.015-.045.044-.06.015 0 .297.12.297.134a.626.626 0 0 0-.119.252c-.03.133-.074.163-.133.089zm-.074.222c-.015-.03 0-.044.03-.06.044 0 .058.016.058.045s-.014.045-.044.045c-.015 0-.03-.015-.044-.03zm.31-.963c-.118 0-.207-.104-.207-.222.06 0 .311.118.311.133 0 .06-.03.089-.103.089zM20.282.253c.104-.045-.104-.045 0 0zm.193 1.407c0-.044.03-.074.088-.104.045.03.06.06.03.09-.015.014-.06.014-.118.014zm.044-.415c-.044-.118-.044.104 0 0zm.104-.533v.044c.044 0 .074-.014.089-.044zm.03.252v.03h.029v-.03zm.088-.03l.03.03v-.03zm.06.119v.03h.03v-.03z"/></g></svg>