<svg xmlns="http://www.w3.org/2000/svg" width="78.625" height="32.214" viewBox="0 0 20.803 8.523"><g style="line-height:125%" aria-label="Live" font-weight="400" font-size="14.817" font-family="3 The Hard Way Overrun" letter-spacing="0" word-spacing="0" stroke-width=".265" fill="#a41c31"><path style="-inkscape-font-specification:'3 The Hard Way Overrun, Normal';font-variant-ligatures:normal;font-variant-caps:normal;font-variant-numeric:normal;font-feature-settings:normal;text-align:start" d="M0 7.334c0 .77.46 1.17 1.348 1.17l.119-.029h.015c.103 0 .31.03.385.03.03-.074.104-.119.207-.119l.119.09c.015 0 .03 0 .044.014 0-.06-.044-.178-.044-.222l.03-.134V8.12c0-.045-.09-.09-.09-.134-.044.045-.088.045-.133.03-.044-.015-.03-.045.015-.074l.178-.134c0-.044-.03-.148-.03-.192v-.09c-.015-.014-.044-.014-.103-.014 0-.074.088-.296.133-.37.281-.193.444-.223.43-.297l-.134-.044-.192-.074c-.015-.03-.015-.06 0-.074.044 0 .088.03.103.03.045 0 .119-.03.163-.03.074 0 .134.059.163.192.015.06.015.09.03.09.06 0 .089-.016.104-.03 0-.015-.015-.045-.045-.09-.03-.029-.03-.059 0-.088a.486.486 0 0 1 .119-.09c.015 0-.134-.162-.09-.266-.014-.015-.029-.06-.073-.104h-.4c-.074 0-.119-.059-.163-.177-.03-.134-.045-.178-.045-.149 0 0 .015-.03.06-.088.044-.045.03-.104-.015-.163-.015-.045.044-.074.044-.09v-.088c-.015-.104-.015-.148-.03-.104.015-.074.015-.104.015-.104-.074-.03-.148-.044-.192-.03-.119-.103-.148-.162-.074-.177a.374.374 0 0 1 .192.015c.06 0 .09-.104.09-.297 0-.074-.075-.103-.223-.103 0-.104.03-.148.104-.148l.089.044h.03v-.34c0-.06-.149-.09-.164-.105-.06-.059-.015-.103.148-.118.045-.015.074-.03.074-.044 0-.045 0-.09-.014-.134-.015-.104-.06-.163-.104-.178-.015 0-.06.015-.119.03-.118.015-.133-.089-.148-.089a.135.135 0 0 0-.104.045c-.103.103-.177.148-.192.133 0-.015-.015-.148-.03-.148l-.089.192c-.044.104-.074.09-.074-.014 0 .044-.03-.075-.089-.341-.074-.015-.133-.03-.192-.015-.045-.015.015-.163-.045-.178-.103-.015-.133-.03-.103-.044.014-.015.074-.03.148-.03 0-.03-.06-.118-.193-.252a.113.113 0 0 1-.03-.074c0-.03.015-.044.06-.03l.059.03c.044.015.089-.118.089-.133.089-.074.133-.104.133-.119-.089 0-.133-.015-.133-.06 0-.044.015-.058.06-.044l.058.03c.045.015.075-.06.09-.193-.03.015-.06.015-.075 0-.015-.014-.015-.044 0-.074.223-.237.163-.074.415-.192.03-.015.089-.015.178 0 .03.015.074 0 .118-.045.03-.014.075 0 .149.045h.014c0-.074.134-.222.134-.297v-.459c-.045-.015-.06-.06-.015-.118.015-.03.015-.045.015-.06v-.089l.044-.681c0-.074 0-.104-.015-.119l-.059-.03c.045-.029.06-.073.03-.147v-.03c.03-.06.03-.089 0-.089h-.297c.015 0-.03.015-.118.06 0 0-.045-.06-.119-.06-.044 0-.133.03-.177.03-.06 0-.149-.03-.193-.03-.044 0-.074 0-.119.015C1.215.03 1.185.03 1.141 0H.252C.163.015.119.03.119.044L.089.12C.074.533.059.726.059.696c0 .06.03.208.03.267 0 .06-.03.163-.03.222.015.756 0 1.778-.015 3.082C.014 5.75 0 6.771 0 7.334zm.385.09c.06 0 .09.014.09.029 0 .015-.03.03-.09.03zm.06-.52c.044 0 .059.015.059.03s-.015.03-.06.03zm.059-.459l.044-.03.03.03-.03.03zm.044-.504h.03v.03zm.045 1.615c-.045.104-.045-.103 0 0zm.192-.325c.045.03.074.059.09.088a.433.433 0 0 1-.134.03H.578a.608.608 0 0 1 .207-.118zm-.059.518c.03-.015.074.015.119.089H.622c0-.03.03-.06.104-.089zm-.06-3.26c-.014-.044 0-.074.03-.088.045-.015.074-.015.09.014.014.045 0 .074-.045.09-.045.014-.06.014-.074-.016zm0 2.356c.016-.03.03-.044.06-.044 0 .03-.015.06-.03.074zm.09-2.933h.03v.03h-.03zm.103-.49c0-.029.015-.044.045-.044.015 0 .03.015.03.045zm.104 3.453C.92 6.875.89 6.845.89 6.8c.044 0 .074.03.074.074zm.222.815c-.103.015-.163-.045-.237-.045 0-.044.03-.074.104-.103.074-.015.178.133.133.148zM1.008 4.34c-.03-.015-.045-.03-.045-.044 0-.015.015-.03.045-.03s.044.03.044.074zM.963 5.72l.03.03h-.03zm.074-.948c.015-.03.03-.044.074-.044.06 0 .119.088.104.103l-.044.045c-.09-.074-.134-.104-.134-.104zm-.015.474c.015-.044.045-.06.074-.015.03.03.03.06-.014.074zm.03 1.897a.23.23 0 0 1 .119-.09c.014 0 .103.09.059.09l-.148.03zm0-1.334h.03v.03zm.06.86c-.016-.045 0-.075.029-.09.03-.014.06-.014.104 0 .044.015.059.045.059.075-.133 0-.193 0-.193.015zm.029-2.4c0-.045.015-.06.06-.06l.088.089c-.015.044-.03.06-.06.06zm.074-.475c-.074-.044-.089-.074-.044-.089.074-.044.177.09.133.134-.015.014-.045 0-.089-.045zM1.141 6.12l.03-.03.03.03-.03.03zm.06-.459a.16.16 0 0 1 .118-.148c0 .104-.045.148-.119.148zm.014-2.519c.118-.044-.074-.044 0 0zm.03 2.03c-.06-.06.148-.178.163-.178.044.045.074.09.103.134.015.014.015.03-.015.044 0 .015-.014.015-.03 0-.044-.015-.058-.03-.058-.03-.015.074-.045.104-.06.09-.044-.016-.074-.045-.103-.06zm.074-.533c-.015-.015-.015-.045 0-.074l.059-.045c.104-.044.193.119.178.119-.015.014-.015.03-.03.03-.044-.016-.074-.03-.089-.03l-.06.03c-.014 0-.029-.016-.058-.03zm.044-.504c-.06-.104.148-.193.163-.148.06.103-.148.192-.163.148zm0 2.03c-.104-.045.104-.045 0 0zm0 1.274c-.03-.03-.015-.06.045-.104.014-.015.044 0 .059.015a.2.2 0 0 1-.104.089zm.06-1.793c-.045.119-.045-.074 0 0zm.014 1.29c-.074-.045-.06-.09.06-.12.103.045.148.09.148.149a.614.614 0 0 1-.208-.03zm.208-.46c-.119-.045-.208-.104-.163-.119a.113.113 0 0 1 .074-.03c.103 0 .163.12.148.134-.015.015-.045.03-.06.015zm-.074-.563c-.015-.045.014-.09.059-.104.06.074.089.119.089.133a.319.319 0 0 1-.148-.03zm.03-1.763c-.03-.015-.045-.03-.045-.06.03 0 .059.015.074.03zm-.03 1.274c-.045-.074-.03-.119.074-.133.118-.015.192.133.177.148l-.074.044c-.074.015-.133 0-.177-.06zm.044-.49c-.06-.058-.03-.103.089-.147.044-.015.104.03.178.103.059.075.03.104-.104.104-.074 0-.119-.015-.163-.06zm.089-.518c-.015-.014-.03-.03-.03-.044 0-.03.03-.045.09-.06.044-.014.088-.014.118.015.059.06.074.104.044.119-.03.03-.06.044-.089.044-.044-.014-.089-.03-.133-.074zm0 3.853c-.06-.045-.06-.09 0-.119.044-.015.089 0 .133.045.03.044.03.074-.015.118-.014.015-.059 0-.118-.044zm.015-1.037a.16.16 0 0 1 .118-.119c.074.074.119.119.119.104-.015.015-.03.015-.045.015a.417.417 0 0 1-.192 0zm.015.518c-.045-.044-.045-.074 0-.104.044-.03.074-.03.118.015.03.045.03.074-.015.104-.03.03-.059.03-.103-.015zm.03-3.852c-.03-.015-.03-.045 0-.09.029-.029.058-.044.088-.044.015 0 .03 0 .045.015.074.074.074.134.014.163-.044.015-.089 0-.148-.044zm.014 2.8c-.015-.015-.015-.015-.015-.03 0-.014.03-.03.09-.03.044-.014.088 0 .103.016.06.03.06.059.015.074s-.074.03-.09.03c-.044 0-.073-.015-.103-.06zm.06-.518c.044-.104.103-.119.207-.03.044.044.044.074.015.104-.015.014-.045 0-.119-.045zm.088-.49c-.074-.044-.06-.073.045-.088.074-.015.118 0 .148.044.015.06-.03.119-.074.104zm.193 1.29c-.045-.03-.045-.06.03-.09.044-.014.088-.014.148-.014.03 0 .03.015.014.044l-.044.06a.251.251 0 0 1-.148 0zm.015-4.594c.014 0 .03 0 .03-.014 0-.015-.016-.015-.03-.015-.015 0-.03 0-.03.015 0 .014.015.014.03.014zm.03 4.09c0-.074.029-.104.088-.089.06.015.089.044.089.119-.015.03-.03.044-.06.03zm.073-4.178c-.014.014-.014.044-.014.103.044 0 .059-.015.059-.059s-.015-.06-.045-.044zm.03.874c-.044-.119-.044.074 0 0zm-.015-.623v.09c.03-.015.045-.045.045-.09zm0 .238v.088c.03-.014.045-.044.045-.088zm.237 4.637c.015-.015.015-.044.015-.06-.133 0-.207.06-.207.179.059 0 .118-.045.192-.119zm-.06.608c.016-.015.016-.03.016-.06-.06 0-.09.015-.104.06.03.014.06.014.089 0zm.075-.919c.06 0 .089-.015.089-.074-.045 0-.074.03-.104.074zm.06.696c-.045.06-.06.09-.03.09.177.014.266-.09.266-.297h-.03c-.014 0-.073.074-.207.207zm.444.297c.044-.015.118.044.222.178l.06.103h.118c.118-.015.178-.044.178-.074 0-.044-.297-.178-.312-.192-.133-.223-.103-.297-.207-.238-.074.045-.118.06-.118.06-.015.044-.03.074-.03.118-.045.104-.163.148-.37.148 0 .104.044.149.118.149.104 0 .193-.06.282-.178.044-.045.059-.074.059-.074zm-.37 0c0-.015 0-.015-.015-.03-.015.015-.03.015-.03.03s.015.03.03.03c.014 0 .014-.015.014-.03zm.459-.474c.074.088.148.163.237.237.237.177.237.222.46.296.132.089.236.133.31.133 0-.044-.074-.074-.074-.118 0-.104-.015-.148-.044-.163l-.237-.045c-.104-.118-.149-.192-.208-.207-.044-.06-.074-.089-.118-.104a.69.69 0 0 0-.237-.074c-.015-.015-.015-.044 0-.104v-.059c-.09-.044-.134-.074-.149-.074-.044.06-.103.074-.163.045-.103-.06-.133-.104-.088-.149.074-.074.103-.133.088-.148-.059-.06-.133-.044-.207.06-.044.059-.044.118 0 .162l.37.312zm-.326.237c.015.03.03.044.059.044v-.044zm.163.622c0-.015 0-.015-.015-.015s-.015 0-.015.015c0 .044.015.044.03 0zm1.244-.474c.074.178.148 0 .311.118l.134.09a.933.933 0 0 0 .163-.12c.192 0 .281-.029.222-.147-.03-.06-.06-.075-.104-.045l-.163.104c-.014.015-.044 0-.074-.045-.015-.014-.03-.014-.074 0a.919.919 0 0 1-.163.045c-.03-.045-.044-.074-.03-.119.06-.044.104-.059.149-.059.178-.03.237-.104.163-.237-.045-.06-.223-.089-.237-.193 0-.192.34-.103.34-.296 0-.03-.03-.06-.103-.074-.163-.045-.237-.089-.237-.133 0-.06.103-.163.163-.119l.133.074c.044.015.074.015.104 0s.03-.044 0-.074l-.03-.089c-.044-.133-.118-.207-.222-.192-.06 0-.09-.015-.104-.045-.015-.06-.015-.104.015-.133.104-.104.37.207.548.207 0-.104-.074-.06-.074-.104 0-.059.045-.133.045-.177-.104 0-.178 0-.193.014-.045.03-.074.03-.074 0V6.06c-.134-.074-.193-.133-.208-.178.03-.044.06-.089.104-.103l.06.059c.029.044.044.074.044.074.118.03.178.06.192.074.075.104.149.178.193.222.074.06.119.045.119-.044.014-.119-.015-.208-.075-.252a.194.194 0 0 0-.162.03.555.555 0 0 1-.09-.149c-.044-.015-.088-.03-.118-.015v-.133c0-.015-.015-.044-.03-.074a.045.045 0 0 1 0-.06c-.474-.088-.177-.325-.459-.31-.163-.045-.252-.074-.237-.119.03-.044.074-.06.148-.03h.015c-.015 0 .03-.014.133-.03.193-.088.134.253.252.282a.938.938 0 0 0 .297-.133c.059-.178-.341-.237-.504-.282-.045-.044-.045-.088.015-.103.044-.015.089 0 .148.015.133.044.281 0 .46-.163a.045.045 0 0 0 0-.06c-.179.104-.268.104-.268.015 0-.044.03-.089.075-.133.03-.015 0-.03-.09-.045-.044 0-.073-.03-.073-.074-.015-.044.03-.059.103-.074.134 0 .178.134.223.134v-.193h-.46c-.06 0-.074.03-.044.104a.39.39 0 0 1 .015.103c-.015.03-.03.045-.045.045-.074 0-.326-.074-.43-.074-.074.015-.118.044-.118.118 0 0 .015.03.03.074a.2.2 0 0 1-.104.09c-.03-.016-.045-.045-.045-.06s-.014-.015-.059 0c-.06 0-.148-.015-.089-.074l.06-.045c0-.044-.09-.088-.267-.163-.134-.059-.208-.148-.222-.148l-.06.03c-.015.015-.03.015-.044.015 0 .044.015.089.06.133.073.119.118.178.118.163 0 .045-.074.06-.208.06-.044.148.134.325.134.473-.015.045-.119.075-.119.119v.133l.178.178c-.104.06-.163.074-.208.193a.756.756 0 0 0 0 .266c.03.06.06.045.09-.059.029-.103.044-.163.059-.178.014-.014.088-.03.222-.044.103-.015.148-.044.133-.119 0-.03 0-.059.015-.074.015-.014.03-.014.06 0l.133.104c.044.045.014.089-.09.133-.296.119-.251.178-.444.178 0 .015.015.045.03.09v.014c0 .044-.148.06-.163.074-.045.06-.09.119-.104.163-.074.104-.104.163-.089.193.045.163.06.207.06.163-.015.03-.015.059-.03.074s0 .044.015.089c.044.074-.09.192-.074.237.088.133.163.207.237.237.089.059.148.103.177.148.163.133.297.222.386.281l.133.163a.45.45 0 0 0 .163.045c.074.074.119.118.133.163zm-.8-.934c-.192-.014-.311-.014-.267-.089l.075-.088c.014-.015-.015-.045-.06-.09-.015-.044.015-.073.06-.088.044-.015.074-.015.103 0 .06.089.104.163.119.207.074.045.133.06.178.074.074.06.133.119.192.193.045.044.03.089-.074.118-.074.03-.133.015-.178-.044-.014-.015-.074-.193-.148-.193zm-.237-1.674c.104-.044-.074-.044 0 0zm.03 1.111c-.06-.059.059-.296.133-.31l.119.118c0 .015-.03.015-.104.015 0 .044.06.118.044.163-.014.044-.044.074-.103.059-.045 0-.074-.015-.09-.045zm.015 1.956v.03l.03-.03zm.088-3.2c-.014-.074.134-.163.252-.163.06 0 .09.015.074.059 0 .133-.03.193-.088.193-.119 0-.193-.03-.238-.09zm.104-.445c-.044-.015-.03-.059.045-.118l.089-.104h.014c.09 0 .134.015.149.06.014.044 0 .103-.03.162-.03.074-.119.074-.267 0zm.104 1.408c0-.06.104-.282.178-.282.015 0 .015.015.03.03.044.074-.09.281-.164.281-.014 0-.03-.014-.044-.03zm.015.518c-.03-.044-.03-.103 0-.207.03-.089.074-.089.148 0 .074.118.104.193.074.222-.06.09-.133.09-.222-.015zm.178-1.674c-.075-.044-.045-.104.074-.178.118-.044.207-.059.266-.074.06-.059.119-.089.163-.074.03.015.06.03.09.074.014.03.014.06 0 .074H4.03c-.06 0-.089.252-.104.267-.03.03-.118 0-.251-.089zm0-.844c.088.133.163.177.222.148.074-.045.266-.163.266-.178-.014 0-.059.015-.133.03-.104.014-.104-.03-.326-.03zm.044 4.06c0-.015 0-.03-.015-.03a.032.032 0 0 0-.03.03c0 .014.015.014.03.029.015 0 .015-.015.015-.03zm.089-.86c-.03-.044-.03-.074-.015-.104s.045-.044.089-.044c.178.015.281.163.222.237a.168.168 0 0 1-.118.044.264.264 0 0 1-.178-.133zm.06-.415c-.06-.044-.075-.104-.03-.193a.179.179 0 0 1 .074-.074c.089.06.133.134.118.208-.015.089-.074.104-.163.06zm-.016-1.067c0-.103.06-.178.178-.207.06 0 .133.104.119.178C4.134 6 4.075 6 4 5.957c-.015-.016-.045-.016-.075 0-.044.029-.059.029-.074.014zm.015.49c-.06-.03-.044-.09.06-.164.074-.059.118-.044.133.06.015.074-.015.103-.06.103-.059.015-.103.015-.133 0zm.119-1.216a.112.112 0 0 1 .059-.03c.074 0 .163.12.118.193-.014.06-.103.09-.266.09 0-.105.03-.179.089-.253zm.607-.533s.015-.03-.267-.03H4.09c-.014 0-.03-.015-.03-.044 0-.045.016-.06.06-.074.074 0 .133.015.178.03l.178-.06h.014c.075 0 .119.045.163.119a.116.116 0 0 1-.059.059zM4.104 7.69c-.044-.045-.044-.09 0-.119.045-.015.074-.015.104 0 .133-.015.207.015.252.074.044.074 0 .119-.134.134a.222.222 0 0 1-.222-.09zm.045-.519c0-.103.044-.133.148-.103.104.044.148.074.148.118 0 .015 0 .03-.015.045h-.252c-.015 0-.03-.015-.03-.06zm.014-.46c-.074-.073-.044-.118.06-.162.044-.03.103-.015.148.044.06.074.06.134-.015.149-.074.03-.148.014-.193-.03zm.03-.532c-.06-.045-.03-.104.089-.149.044-.014.089 0 .148.074.015.015.03.045.015.09 0 .029-.015.044-.06.044-.073 0-.147-.015-.192-.06zm.326-.46c-.281 0-.311-.044-.311-.089 0-.074.044-.118.148-.118s.163.074.163.207zm-.237-1.467c.119-.044-.074-.044 0 0zm.519 3.067c0-.014 0-.03-.015-.03a.032.032 0 0 0-.03.03c0 .015.015.03.03.03s.015-.015.015-.03zm.251.134a.37.37 0 0 0-.207.06c.045.058.104.058.178 0a.112.112 0 0 0 .03-.06zm-.148-2.09c0 .015.045.045.119.104.044.03.06.045.074.03.015-.015.015-.03.015-.044l-.03-.06v-.03l.03-.059c-.045-.044-.074-.059-.119-.059-.044.045-.074.074-.089.119zm0 1.6a.22.22 0 0 0 .193.06c.044 0 .06-.015.044-.06-.014-.029-.044-.044-.089-.029-.103 0-.148.015-.148.03zm.119-2.177c-.045.044-.03.103.015.178.089.103.133.133.133.074.015-.178-.015-.282-.089-.311-.015.014-.044.03-.06.059zm.104 1.896c.014.045.059.074.103.074.045-.014.06-.03.06-.074.014-.074-.015-.118-.06-.118-.044 0-.089.044-.103.118zm-.015.563c0 .015.059.03.163.03 0-.089-.045-.104-.134-.06zm.074-.83c0-.014 0-.029-.015-.029s-.015.015-.015.03c0 .014 0 .03.015.03s.015-.016.015-.03zm-.015-.814v.133c.104 0 .104-.03.03-.104zm.06 1.481v.03l.029-.03zM6.05 8.401c-.015-.015-.045-.015-.06-.015 0 .074.015.104.06.104.059 0 .059-.03 0-.089zm.014-.4c.119.37.163.282.312.4.118.104.177.119.192.044.015-.03-.044-.103-.148-.207v-.03c.03-.074.074-.118.133-.118.09.015.149.044.178.089.074.118-.133.163-.133.326.104 0 .281-.193.385-.193 0 .134.06.193.163.193 0 0-.015-.045-.03-.119-.014-.059-.014-.103.03-.118.104-.045.193-.074.267-.09-.03-.103-.015-.147.044-.147.015 0 .03.014.06.044l.133.133c-.015.134 0 .208.06.238.029.014.103.014.221.014l.208-.089V8.15c0-.06 0-.089.015-.074-.015-.015-.03-.044-.015-.06.044-.029.059-.058.059-.073v-.49c-.06-.073-.074-.147-.06-.221 0-.015.075-.09.06-.134l-.06-.118c-.014-.06.09-.178.09-.282V5.32h-.06c-.044-.06-.089-.118-.118-.192h.03l.118.03c.015 0 .015 0 .03.014 0-.104-.015-.415-.06-.46-.044-.073-.059-.103-.044-.118 0 0 .015 0 .06.015l.044-.03c0-.133-.045-.207-.119-.207-.015 0-.03.015-.044.044-.03.074-.06.09-.104.074-.045-.044-.074-.074-.089-.118-.015-.015.044-.045.148-.06.104-.029.163-.118.148-.266.06-.03.09-.06.09-.089H8.02c-.044 0-.133-.148-.133-.163 0-.074.178-.06.178-.074.089-.044.118-.104.089-.178-.015-.074-.075-.118-.163-.118a.336.336 0 0 1-.045.192c-.06.045-.118.06-.178.03-.044-.03-.074-.089-.089-.163 0-.06.267-.074.208-.208-.015-.044-.06-.074-.163-.074.015 0-.074.119-.133.134-.06.03-.104.015-.149-.045l-.059.06v.207c.163.044.237.119.237.193 0 .044-.03.074-.104.089h-.103l-.208-.223c.015-.015-.059-.074-.192-.192-.045-.045-.06-.09-.045-.134 0-.015.03-.089.03-.103 0 0-.03.014-.104.059-.06.03-.089.03-.104 0-.03-.045-.088-.074-.192-.074 0-.015.015.03.03.148.014.06 0 .089-.06.089-.118.015-.296-.133-.37-.133 0 .059.044.118.044.133l-.03.178v.03c.12.029.238.118.356.251-.015.045-.074.06-.163.06-.133-.075-.237-.164-.281-.252l-.06.148c-.014.103.06.148.06.222l-.06.06v.488s.237.119.237.222c0 .075-.03.09-.103.075-.015 0-.09-.06-.134-.06v.326c0 .045.149.104.149.163 0 .074-.06.104-.163.104 0 .044.03.074.074.104-.074.059-.09.133-.03.237.015.089.015.148 0 .178.104-.045.207-.015.296.088.03.045.045.074.03.119-.015.044-.06.06-.119.044-.014 0-.118-.133-.163-.133-.03 0-.059.044-.103.148 0 .015 0 .045.015.09-.015-.045-.015 0-.015.132v.46l.03.03c.073.073.133.118.177.148 0 0 .148.059.148.118l-.03.06v.014c0 .06.149.09.149.163 0 .104-.06.134-.163.09-.133-.223-.104-.357-.163-.312-.119.015-.163.015-.163.06.044.162.089.28.118.34.015.015 0 .06-.03.104-.044.089-.058.192-.044.296zm.208-6.134c.074-.015.148.03.222.148.074.119.133.193.148.207l.178.09c.06.073.119.103.178.103.118-.044.163-.089.133-.133-.015-.06-.207-.06-.222-.134-.015-.044 0-.088.044-.118a.111.111 0 0 1 .134 0c.044.044.059.089.074.118.178.163.296.252.34.267.104-.06.164-.34.208-.34.104 0 .163.34.282.34.163-.118.237-.207.237-.267-.104 0-.178-.014-.223-.044-.044-.044-.03-.089.03-.133.133-.104.193-.178.193-.237 0-.03 0-.045-.015-.06-.104-.074-.267-.163-.208-.237.06-.06.104-.104.149-.133.059-.119-.119-.237-.045-.34 0-.016.089-.045.089-.09A2.192 2.192 0 0 0 8.094.49C8.064.4 8.05.356 8.035.356c-.044 0-.044.088-.104.044a.265.265 0 0 1-.148-.133c-.015-.015-.015-.03-.03-.03H7.71l-.148.148a1.112 1.112 0 0 0-.208-.118C7.235.193 7.19.148 7.22.133l-.222.09a.58.58 0 0 1-.193.044l-.148-.06h-.015c.06 0 0 .03-.178.075-.044 0-.088 0-.103-.015l-.03.03c-.074.133-.118.192-.118.207.014.044.014.074 0 .089-.045.014-.075.074-.075.177l.045.075v.281c.06 0 .148-.074.163-.06.104.09-.282.193-.282.327.045 0 .074-.015.09-.045v.474c-.045 0-.06.015-.06.03-.015.045 0 .06.03.074.044.015.103-.015.148-.06zm-.06.163c-.059 0-.162-.015-.118.148.015.074.03.133.06.148.103.104.192.104.296.015.044-.03.059-.074.03-.133a.23.23 0 0 0-.12-.09h-.147zM6.14 6.653c-.075-.074-.09-.119-.03-.148a.251.251 0 0 1 .148 0c.044.03.074.059.074.103 0 .06-.03.09-.104.09-.044 0-.074-.016-.088-.045zm-.015-2.4c-.015-.045.015-.06.089-.06.118-.015.192 0 .177.104 0 .044-.014.089-.059.104-.03.014-.104-.045-.207-.149zm.015-.89c.103-.044-.104-.044 0 0zm.044 4.52c-.03-.104-.015-.149.06-.149.088 0 .147.045.177.134.03.089 0 .133-.074.133-.074.015-.133-.03-.163-.119zm.118-6.387c-.014-.044-.014-.074 0-.103.015-.015.045-.03.09-.015a.674.674 0 0 1 .133.104c.059.059.03.103-.09.118-.058.015-.103-.03-.133-.104zm.015 4.164c-.015-.015-.015-.044-.015-.074 0-.06.03-.089.09-.089.044 0 .073.015.103.06.045.073.045.118-.015.133-.074.03-.133.014-.163-.03zm.178 1.348c-.074 0-.089-.074-.133-.148.015-.03.044-.044.089-.044.133 0 .192.03.192.089 0 .074-.044.103-.148.103zM6.42 5.156c-.074-.074-.074-.133 0-.148.133-.03.193 0 .193.104 0 .044-.03.059-.074.074-.045.015-.09.015-.119-.03zm.015 1.23c0-.044.015-.089.03-.104.192 0 .281.06.251.163-.014.074-.059.104-.133.06-.06-.015-.104-.06-.148-.119zm.03-3.2c-.045-.119-.045.074 0 0zm0 1.422c-.045-.044-.045-.089 0-.133.014-.015.059-.015.133 0 .074.03.104.103.104.222-.104 0-.193-.03-.238-.089zm.059-.548c-.119-.045.103-.045 0 0zm.03 1.837c-.015-.044-.015-.089.029-.104.074-.015.237.015.252.09.03.088-.015.133-.133.133-.06 0-.104-.045-.149-.119zM6.582 2.4c-.044-.118-.044.074 0 0zM6.568.326c.015-.044.03-.06.074-.03.015.015.03.045.03.09h-.104zm.045 7.482c-.045-.074-.045-.118 0-.163a.356.356 0 0 1 .177 0c.075.03.075.074 0 .149-.074.074-.133.074-.177.014zm.03-3.63c-.045-.015-.06-.044-.045-.089.015-.059.03-.088.06-.103.073-.015.147.089.147.163 0 .059-.059.074-.163.03zm-.03-2.37c-.015-.015-.015-.045-.015-.06.044-.059.074-.074.118-.044l.134.089c0 .06-.03.089-.104.104-.06.014-.104-.015-.133-.09zM6.598 3.57c0-.06.015-.09.044-.104.104-.015.282.03.267.148-.015.09-.089.134-.207.148-.06.015-.09-.059-.104-.192zm.178 1.926c-.104-.015-.149-.089-.149-.193.193 0 .267.045.238.134-.015.044-.045.074-.09.059zM6.73 7.275c-.044-.06-.074-.104-.06-.119l.045-.088c.074-.045.208.044.208.118s-.045.119-.119.119a.113.113 0 0 1-.074-.03zm0-5.927c-.074-.074-.089-.133-.015-.148.149-.044.223-.015.223.09 0 .044-.03.073-.09.088a.115.115 0 0 1-.118-.03zm-.015 5.275v-.015c.163 0 .341.06.237.178-.044.044-.088.044-.133 0-.044-.044-.089-.089-.104-.163zm.015-1.734c-.015-.03-.015-.059-.015-.103.015-.015.045-.015.09 0 .103.015.162.06.177.104.044.074 0 .118-.104.118-.059 0-.103-.044-.148-.118zm.06-4.77c-.045-.104-.045.103 0 0zm0 4.237c-.045-.104.014-.104.118-.104s.163.06.178.163c.015.104-.03.149-.163.149-.03 0-.074-.075-.134-.208zm.177 3.793c-.074-.06-.133-.074-.133-.148.015-.044.03-.06.06-.06.103-.014.177 0 .207.045.103.163-.134.163-.134.163zM6.88 6.267c-.074-.074-.089-.133-.014-.163.118-.059.31.149.192.193-.074.03-.133.015-.178-.03zm.015-2.385c-.06-.104.06-.148.104-.148l.163.133c.089.09.06.134-.074.148-.074 0-.148-.044-.193-.133zm.045 3.704l.03-.03v.06zm.03-1.867a.158.158 0 0 1 .044-.074c.133 0 .177.03.163.104-.015.044-.06.06-.104.044-.044-.015-.089-.03-.104-.074zm.088-4.03c-.044-.03-.044-.074 0-.118.045-.045.074-.045.119-.03.044.015.059.044.059.074 0 .06-.045.089-.119.089-.03 0-.044 0-.059-.015zM7.027.385h.03v.03zm.045 4.86c-.089-.074-.089-.133-.015-.148.045-.015.104 0 .163.044.104.074.104.119.015.134-.06.015-.119.015-.163-.03zm-.015 2.341h.03v.03h-.03zm.089-.652c.03-.044.074-.044.119 0 .044.03.044.074.014.119-.014.044-.074.059-.177.059 0-.089.014-.148.044-.178zm0-2.207a.158.158 0 0 1-.044-.075c0-.044.014-.059.044-.059.089-.015.148-.015.178.03.044.074.044.118-.015.148-.044.03-.089.015-.163-.044zm.03-.549c-.06-.118.044-.148.118-.133.163.104.237.193.193.237-.015.03-.06.044-.119.06-.074.014-.133-.045-.192-.164zm.014 3.364c-.118-.06.075-.06 0 0zm.178-1.082c.045.03.045.06 0 .104a.135.135 0 0 1-.103.044l-.03-.03zM7.265.326c0 .03-.015.044-.03.06zm.014 7.571a.135.135 0 0 1-.044-.103c.074-.015.148-.03.222-.03.045 0 .06.03.045.074 0 .044-.015.074-.045.089-.074.044-.133.03-.178-.03zm0-4.37c0-.015 0-.03-.014-.03-.015 0-.015.015-.03.03 0 .014.015.029.03.029.014 0 .014-.015.014-.03zm.015-1.571c-.06-.06-.06-.119 0-.163.074-.045.208.044.208.118 0 .045-.03.06-.074.074-.06.015-.104 0-.134-.03zM7.28 3.245c.104-.045-.074-.045 0 0zm.06 4.149c-.104-.104-.104-.149-.015-.149h.237c.03 0 .044.03.044.074l-.044.09c-.089.044-.163.044-.222-.015zm-.045-1.32a.275.275 0 0 1 .178-.103c.074.045.06.089-.044.148-.045.015-.09 0-.134-.044zm.03-4.696c-.015-.045.015-.074.06-.089.103-.015.251.044.207.148-.015.09-.06.104-.134.045-.089-.06-.133-.09-.133-.104zm.06 5.527c-.06-.075-.06-.134-.016-.163.06-.03.119-.015.178.03l.045.088c.014.045 0 .074-.03.089-.104.015-.163 0-.178-.044zm0 1.54v.045c.029 0 .044-.015.058-.045zm.044-.207c0 .06.014.089.059.089.044 0 .06-.03.06-.089zm.014-2.637c0-.134.045-.237.104-.178.03.03.045.06.045.104s-.045.074-.149.074zm.015-1.082c-.015-.015-.015-.044 0-.089.015-.044.03-.044.06-.015l.103.074c.015.015.045-.014.09-.059.044.03.058.06.058.104s-.03.06-.074.074c-.103.03-.178 0-.237-.089zm.015 1.808c0-.015 0-.045-.015-.06.06 0 .178.045.222.045l.06-.03h.015c.074 0 .088.03.044.104a.284.284 0 0 1-.119.06c-.088.029-.163-.016-.207-.12zm.044-1.23c-.059-.045-.044-.089.03-.148a.094.094 0 0 1 .089 0c.03.03.044.059.044.089s-.014.044-.059.059c-.044.015-.074.015-.104 0zm.075-4.83a.032.032 0 0 0-.03-.03c-.015 0-.015.015-.015.03s0 .03.015.03.03-.015.03-.03zm.014 3.748c-.03 0-.044-.015-.03-.03 0-.029.016-.044.03-.044.045 0 .06.03.06.074zm-.014 1.749c.148 0 .237.03.266.089l-.044.059c-.104.089-.178.06-.222-.089zm.192 1.511c-.118.074-.207-.163-.148-.222.104-.104.222.163.148.222zm-.133-.489h.074c0 .044-.015.074-.03.089s-.03.015-.044-.03zm.222-5.023c-.133.06-.222-.015-.222-.118 0-.045.044-.03.148.044.03-.03.06-.044.089-.03.074.045.074.075-.015.104zM7.68 5.334c-.014-.015-.014-.044-.014-.074.118 0 .177.06.177.193-.074 0-.133-.045-.163-.119zm0 2.341c.045 0 .075.015.09.06.014.044-.015.059-.09.059zm.045-3.586c0-.044.015-.088.044-.118.015-.015.045-.015.074 0 .015.015.03.044.03.06 0 .044-.044.058-.148.058zm.03 2.52c0-.016 0-.016.014-.03.015 0 .03.014.03.03 0 .014-.015.029-.03.029-.014 0-.014-.015-.014-.03zm.044-1.705c-.074-.103-.074-.163 0-.163a.52.52 0 0 1 .237.045c.06.03.044.074-.06.133-.088.045-.147.045-.177-.015zm0 1.72c.104 0 .148.044.133.132-.014.045-.03.045-.074.03-.03-.015-.044-.044-.059-.119zm.03-.49l.03-.03.029.03-.03.03zm.103-.785c-.014-.045-.014-.074 0-.09.015-.014.045 0 .074.045.015.015.015.045-.014.06-.03.014-.045.014-.06-.015zm.03.844c.015 0 .044.015.074.045s0 .044-.074.044zm.074-.474c.015-.044.03-.044.06-.03.014.015.014.03.014.075h-.074zM11.465 7.882c.06.09.119.149.163.193.326.282.934.43 1.838.43.192 0 .355-.03.459-.074a1.44 1.44 0 0 0 .43-.282c.148-.163.222-.311.237-.46 0-.073-.09-.118-.09-.132 0-.075.03-.09.09-.015h.03c0-.06-.03-.267-.09-.608l-.059-.06c.119-.044.148-.088.104-.162-.074-.133 0-.193-.074-.311-.015-.03-.015-.104.015-.208.014-.059.03-.089.044-.103v-.074a.714.714 0 0 1 0-.252c0-.163.015-.267.06-.311V5.14a.359.359 0 0 1-.06-.192c0-.015.015-.03.044-.074.015-.015.015-.03.015-.074 0-.06-.03-.223-.03-.267 0-.119.03-.119.03-.119v-.414a.21.21 0 0 1-.03-.09c0-.014.015-.044.045-.059.015-.014.015-.074 0-.177-.015-.208-.03-.356-.015-.46.015-.089.03-.163.03-.222 0-.015-.015-.06-.03-.148-.015-.119-.015-.193.03-.237-.015-.134-.015-.252.015-.326.015-.03.015-.06.015-.074v-.845c-.03-.015-.045-.044-.03-.089.06-.059.074-.133.044-.222-.014-.089-.03-.148-.014-.163a.603.603 0 0 0 .03-.104c-.075-.059-.09-.118-.045-.178.03-.03.044-.044.044-.059s-.06-.044-.06-.06c0 .016.016-.014.06-.118 0 0-.074-.163-.074-.237 0-.044-.074-.074-.237-.074a1.67 1.67 0 0 1-.267.045l-.281-.06c-.119-.014-.193.045-.193.06-.104-.015-.192-.015-.252-.03-.044.015-.103.015-.192-.03C13.169.03 13.095.03 12.99.03a.94.94 0 0 0-.177.148c-.074.044-.119 0-.119-.134-.074 0-.133.119-.163.37-.015.149-.015.208-.015.193v.43c.015.045.045.119.06.208-.015-.015-.03.03-.045.163-.015.044-.015.103-.015.148v1.26l-.03.058v2.238c.015.044.03.074.03.118-.059.252-.059.4-.103.4-.223 0-.46-.148-.712-.459l-.044-.178c-.03-.089-.045-.118-.045-.089v-.459-.237c0-.045 0-.178-.014-.37-.015-.163-.03-.282-.015-.356.015-.193.03-.311.03-.356a.823.823 0 0 0-.075-.34c-.014-.075.074-.075.074-.312a.266.266 0 0 0-.044-.163c-.06-.059-.074-.088-.03-.103.074-.015.074-.06.015-.119-.015-.044.015-.104.09-.148-.06 0-.075-.015-.06-.06a.158.158 0 0 1 .044-.073c.015-.015.015-.06-.03-.119-.014-.03-.014-.074.03-.133.015-.015.015-.045 0-.09-.015-.029-.015-.058.015-.073-.015-.015-.03-.03-.03-.06s.015-.044.03-.059a.52.52 0 0 1-.089-.207c-.015-.104.03-.385.03-.46l-.06-.118c-.014-.044.015-.06.075-.06.014 0 .014-.014.014-.029 0-.015 0-.03-.014-.044-.03-.074-.06-.149-.074-.223l-.045.06c-.06-.06-.074-.193-.133-.149-.03.03-.045.06-.06.09-.03.059-.059.088-.074.088-.014 0-.03-.015-.03-.044V.059a.495.495 0 0 0-.177.074h-.015c-.044 0-.207-.044-.267-.044-.074.015-.4.074-.503.074-.045 0-.06.03-.074.089V.4c.296 0 .355.119.31.178-.044.044-.058.089-.058.104.059 0 .088-.015.103-.045a.44.44 0 0 0 .222.074c.045.045.09.045.104.015.03-.03.06-.044.104-.044 0-.045-.089-.09-.104-.104-.015-.045 0-.074.06-.089.103-.015.162.044.192.148 0 .045-.074.133-.074.252 0 .06.03.267.03.34-.193-.073-.37-.162-.415-.236-.015-.104-.267-.03-.282-.252 0-.104-.059-.163-.163-.163-.044.03-.059.118-.059.281.015 0-.015.015-.104.03-.044 0-.148-.104-.163-.104C9.806.77 9.776.77 9.776.755L9.658.52l-.06-.03c-.014 0-.014.015-.03.06-.014.088-.044.118-.088.088l-.03.148.03.045h.237c.044.015.06.074.044.163-.118.178-.192.207-.192.34.044.075.074.119.089.119.015.015.059 0 .118-.015.03-.015.045 0 .06.03v.104c0 .044 0 .059.014.074.119.118.178.177.163.192-.044.045-.089.045-.163.03-.103-.015-.163-.03-.163-.03 0-.059.045-.163.045-.222-.134 0-.193.03-.208.074a.262.262 0 0 1-.103.163h.089c.044 0 .133.148.118.193-.06.074-.104.133-.148.163-.015.074.104.222.118.237.03.103-.03.148-.163.148 0-.045.015-.015.045.104 0 0-.015.03-.03.089-.015.044 0 .103.03.177s.03.134 0 .163c-.015 0-.015.045-.015.148-.03 0-.044.015-.044.06v.178c0 .133-.015.34-.03.622-.015.267-.015.46-.015.578 0 .015.015.03.045.03.163.014.252.118.207.162a.303.303 0 0 1-.133.074c-.015 0-.045 0-.074-.014a.874.874 0 0 0-.03.207c.133.133.207.207.222.267.104.089.193.148.282.163.044.03.044.074.015.133-.045.044-.09.074-.134.074-.074 0-.192-.193-.266-.193v.075c0 .014.014.044.044.103a.895.895 0 0 0 .252.311c.089.03.163.045.207.03-.089.104-.133.163-.133.163.044 0 .148-.044.296-.148.134-.089.208-.089.208 0a.738.738 0 0 1-.06.281c-.044.074-.163.074-.163.149.104 0 .134-.015.119-.03l.089.06c.118.073.178.118.163.133-.06.074-.089.103-.089.103l.385.386c.104 0 .119.088.134.088.074 0 .118 0 .148-.014.074.074.118.118.103.133-.014.074-.03.118-.014.133l-.104-.103h-.03c0 .044.252.266.311.31v-.014c0-.045-.03-.089-.03-.133.105 0 .164.03.179.103a.181.181 0 0 1-.06.134v.014zM9.48 2.09c0-.015-.015-.015-.03-.03-.015 0-.015.015-.03.03 0 .015.015.03.03.03s.03-.015.03-.03zM9.45.46c0 .03.015.045.03.06v-.06zm.06.578c-.015-.03-.03-.044-.06-.044 0 .03.015.059.03.074zm.266-.474c.015.044.045.06.06.074.074 0 .133-.015.162-.06.09-.103.06-.192-.074-.28-.133-.09-.207-.149-.207-.178-.178 0-.267.088-.267.251.045 0 .237-.103.297-.088.03.03.044.118.03.281zm-.178 3.838c-.103 0-.148-.06-.163-.075 0-.03.03-.044.075-.059.059 0 .103.015.118.045.045.044.03.074-.03.089zm-.103-.563c-.045-.045-.03-.09.074-.104.044-.015.104.015.163.104.03.014.03.044 0 .074-.015.03-.045.044-.09.03a.387.387 0 0 1-.147-.104zm.059-.49c-.015-.014-.015-.03-.015-.044 0-.06.045-.089.119-.089.059 0 .103.03.118.074.03.074.015.119-.059.134-.06.014-.119-.015-.163-.074zm.133-.474a.252.252 0 0 1-.089-.088c.015-.03.045-.045.06-.06.044-.044.089-.044.148 0 .104.074.118.134.044.178-.044.03-.103.015-.163-.03zm-.03-2.8a.032.032 0 0 0-.029-.03c-.015 0-.015.015-.015.03s0 .03.015.03.03-.015.03-.03zm-.014.608c.015 0 .015 0 .015.014 0 .015 0 .015-.015.015-.045-.015-.045-.03 0-.03zm.015 4.311c.118 0 .31.104.266.222-.044.075-.103.09-.177.03-.045-.03-.074-.089-.09-.163zm0-3.63a.113.113 0 0 1 .074-.03c0 .03-.015.045-.045.06zM9.865 2.4c-.118 0-.252-.103-.192-.178.03-.03.059-.044.103-.044.074 0 .134.03.163.074.06.104.03.148-.074.148zm-.118-1.14c-.015-.015-.03-.03-.03-.045 0-.06.06-.089.178-.089.059 0 .237.148.178.222-.075.09-.193.06-.326-.089zm-.03 3.318h.06v.06h-.06zm.207-1.452c-.059-.059-.044-.103.06-.118.074-.015.133 0 .177.074.045.089.03.133-.074.133a.205.205 0 0 1-.163-.089zm-.03 2.756c0-.089.06-.104.164-.06a.432.432 0 0 1 .118.208c-.015.015-.03.03-.059.03-.044 0-.119-.044-.193-.119zm.03-2.356c.119 0 .178.045.178.149-.06 0-.163-.09-.178-.104zm.06 1.927c-.06-.06-.06-.104 0-.119.103-.03.192.015.281.119.045.044-.03.088-.044.088a.313.313 0 0 1-.237-.088zm0-2.875c-.015-.03.03-.06.103-.104.045-.014.163.104.178.149 0 .014-.015.03-.06.074-.029.03-.073.03-.118-.015zm.03-.533c0-.06.103-.178.162-.134.074.074.119.134.148.178.015.03.015.045 0 .06-.03.029-.059.044-.088.044a.613.613 0 0 1-.178-.104zm.236-.874c-.03-.03-.059-.045-.089-.03-.014.015-.059.03-.118.03 0-.178.148-.297.311-.252.104.03.148.074.119.133a.447.447 0 0 0-.06.193c.252 0 .37.044.386.118.014.03-.015.06-.074.104-.045.015-.075.015-.104 0-.163-.134-.297-.222-.37-.296zm-.207.37c0-.074.074-.119.222-.119.074.074.178.193.104.237-.104.075-.193.045-.296-.059zm.06 4.786c0 .044.014.059.058.059.03 0 .045-.015.045-.06zm.192-2.964c-.03 0-.045-.014-.06-.03h.06zm-.03 2.534c.045-.015.06-.044.06-.119a.134.134 0 0 0-.09-.088c.12-.06.134-.326.193-.326.03-.015.06 0 .09.014.029.015.029.045 0 .06-.045.044-.075.059-.075.074.03.118.044.192.06.207v.015c0 .06-.075.133-.208.207zm.045-2.993c-.015-.03-.03-.06-.015-.104s.044-.059.089-.044l.178.148c.059.074.03.104-.075.104a.193.193 0 0 1-.177-.104zm.074-.519c-.015-.03-.015-.059 0-.103.015-.045.044-.06.089-.045a.47.47 0 0 1 .163.148c.059.06-.074.134-.134.134-.059 0-.103-.045-.118-.134zm.015-.503c-.06-.074-.015-.134.118-.148.074-.015.133.014.208.103.059.074.014.119-.119.134-.089.014-.163-.015-.207-.09zm.03 1.23c-.12-.045.073-.045 0 0zm.014 2.03l.03-.03v.059zm.03 1.125c-.045 0-.045-.014 0-.059.03-.044.059-.044.103-.03.045.015.045.045 0 .075-.014.014-.044.03-.103.014zM10.59.311c-.044-.044-.06-.074-.06-.074 0-.03.03-.06.075-.074.074-.015.148.015.207.089.074.104.074.163 0 .178-.074.015-.148-.03-.222-.119zm.03 3.29l.03.03h-.06zm.06-.475h.029l-.03.03zm.014 3.467c.015-.03.03-.044.06-.044-.016.03-.03.044-.06.044zm0-3.911c0-.119.015-.148.118-.148 0 .103-.044.148-.118.148zm.163-1.2c.015-.015.03-.015.044-.015.045 0 .074.074.09.207 0 .09-.09.134-.253.134v-.223c0-.014.045-.059.119-.103zm-.089.607h.03v.03h-.03zm.03-1.14v.029h.059v-.03zm.177-.697h.03v.03zm.074 5.72c-.03-.045-.014-.134.03-.297a.277.277 0 0 1 .06-.134c.014-.014.029-.014.059 0v.267c.074-.015.103 0 .118.06a.318.318 0 0 1-.06.103c-.044-.015-.073-.015-.103.015-.044.044-.074.03-.104-.015zm.06.429c-.03-.03-.015-.06.044-.09.06-.029.09-.014.104.03.015.06 0 .09-.045.104-.03.015-.059 0-.103-.044zm.089-1.156c0-.015.014-.03.03-.03.014 0 .014.015.014.03s0 .015-.015.03c-.015-.015-.03-.015-.03-.03zm.059.089c.03 0 .044.015.044.03 0 .014-.014.03-.044.03zm.044-4.149c0-.03.015-.044.045-.044.015 0 .03.015.03.044zm.09 6.03c0-.044 0-.103.059-.103.03 0 .044.015.044.044 0 .045-.03.06-.104.06zm.044-.473c-.015-.015-.03-.03-.03-.06 0-.059.03-.089.089-.089.03 0 .044.015.06.03.059.074.073.104.044.119a.299.299 0 0 1-.163 0zm.237-.149c0-.074.03-.296.03-.37-.134 0-.208-.015-.208-.06 0-.044.03-.059.074-.059.045.015.089.03.104.045.015-.104.103-.148.237-.119a.113.113 0 0 1-.03-.074c0-.044.03-.074.09-.059.058.015.073.044.058.089-.03.089-.103.148-.207.193.015.014.03.03.03.044 0 .015-.03.089-.03.104 0 .044.163.03.207.074.045.074-.059.178-.133.133-.06-.015-.089-.03-.104-.015-.059.074-.089.104-.103.104-.015 0-.015-.015-.015-.03zm-.074-.903c-.03-.015-.03-.045 0-.074a.094.094 0 0 1 .089 0c.03.014.03.03 0 .059-.03.015-.06.03-.09.015zm-.015 1.422l.06-.06c.044.016.044.06.029.164-.015.103-.045.148-.09.148zm.06-.296l.029-.03v.06zm.073.71c-.03-.014-.03-.029 0-.073.045-.045.074-.045.09-.03.044.03.044.06.014.09-.03.029-.06.029-.104.014zm.119-.592c.059 0 .089.03.074.074-.015.074-.03.104-.074.06-.045-.03-.06-.06-.074-.075zm.03.222c-.104-.044.103-.044 0 0zm.266-.4c-.015-.059 0-.089.06-.089.073-.014.103.015.118.075.015.044 0 .074-.03.088-.044.015-.133-.014-.148-.074zm.045.519c-.119-.044.074-.044 0 0zm.03-.978c-.03-.015-.03-.044 0-.089.029-.044.058-.044.088-.015.045.045.045.074.03.09-.015.014-.06.029-.119.014zm.133 1.363l.03-.03.029.03-.03.03zm.148-.06l.03-.029.029.03-.03.03zm.207-1.51c-.03 0-.044-.015-.044-.03 0-.03.014-.044.044-.044zm.104 1.526c-.045.103-.045-.104 0 0zm.163-.474h.06v.03h-.06zm.089-.845l.03-.03.029.03-.03.03zm.103.86c-.014-.03-.014-.06.015-.09.015-.03.045-.03.06 0 .014.03.014.06-.015.09-.015.044-.045.044-.06 0zm.03-3.394l.03.03h-.06zm-.03 2.934c.03 0 .045.015.06.03h-.06zM15.484 6.934c-.045.015-.06.06-.06.119l.03.059c.03.015.044 0 .06-.03.014-.074 0-.118-.03-.148zm.074-2.74c.059.058-.119.192-.119.236.045 0 .06-.06.104-.06.015-.014.074 0 .178.045a.356.356 0 0 0 .178 0c.074-.014.118-.059.103-.118-.133-.119-.207-.297-.444-.297-.074 0-.074.06 0 .193zm-.104 2.414c.074.074.133.148.207.208a2.02 2.02 0 0 0 .341-.208l.178-.103c.044-.03.044-.075.015-.119-.104-.074-.148-.044-.34-.237-.105-.104-.179-.133-.253-.119-.104.015-.148.045-.148.104 0 .045.03.06.104.074a.417.417 0 0 0 .192 0 .523.523 0 0 0 .134.163c.059.074.074.119.044.163-.03.045-.06.06-.089.06a.285.285 0 0 1-.178-.06c-.014-.015-.03-.015-.044 0l-.104.089-.059-.03zm0-1.126l.03.03v-.03zm.044.978c-.044-.104-.044.104 0 0zm.297-1.526c.074.015.104.015.104.015l.251.192h.06c.044 0 .059-.059.014-.163-.014-.059-.059-.103-.133-.148-.178-.074-.267-.148-.267-.192 0-.015 0-.045.015-.06a.877.877 0 0 1-.355-.089c-.045.134.014.223.148.297v.044c.015.06.06.09.163.104zm-.163 3.052c-.015.045 0 .06.044.06.045.014.074 0 .09-.03.044-.074.073-.119.103-.119.118.015.148.015.104.03.103-.06.222-.104.163-.163-.045-.06-.237-.03-.282-.089l-.074-.133c-.044-.045-.074-.045-.119-.015-.059.044-.103.06-.118.06v-.075c-.104.03-.119.074-.06.148l.208.208c.015.014-.015.044-.06.118zm2.86.49l.059.029h.785c.104 0 .178-.015.222-.045a.945.945 0 0 0 .134-.415v-.504a.141.141 0 0 0 .03-.147c-.016-.045-.105-.06-.105-.119.03.015.045.015.045.015.044-.03.06-.09.06-.178 0-.074-.03-.267-.03-.326.044-.074.044-.118.044-.163a.359.359 0 0 0-.06-.193c-.059-.118-.133-.177-.207-.177-.03 0-.044.014-.059.044-.03.074-.06.104-.104.089l-.133-.119h-.859l-.119.03c.015.089-.015.282-.06.578-.014.133-.029.296-.029.504l.148.163c0 .044-.177.192-.222.192h-.118c-.075.015-.104.03-.075.06.134.118.223.207.297.251l-.09.03a.517.517 0 0 0-.355-.178c-.118 0-.34.06-.415.06 0-.075.075-.149.223-.193.044-.015.089-.045.103-.089.03-.044.03-.089 0-.119-.044-.044-.074-.03-.088.045-.015.06-.075.06-.075.06-.044-.045-.074-.06-.088-.06a.624.624 0 0 0-.075.03c-.03 0-.059-.015-.074-.06-.014-.03-.014-.059 0-.074.104-.074.208-.133.297-.163.015-.015.03-.03.03-.044v-.134c-.015 0-.06.045-.134.045-.074 0-.119-.03-.163-.089-.06-.074-.06-.133 0-.178.044-.015.104-.015.178.03v-.015c0-.044-.045-.119-.03-.163 0-.074.282-.178.282-.296 0-.06-.104-.208-.104-.282 0-.06.104-.163.104-.222 0-.133-.09-.178-.104-.252-.015-.104.119-.118.119-.133.014-.104.014-.208.074-.223.103-.014.163-.014.192-.014.09.014.134.03.119.03h1.185c0-.045.03-.075.074-.104.045-.045.074-.03.09.014.044.104.118.134.221.074l.119-.074c.015-.014.074-.014.148 0 .044 0 .104.015.148.03l.045-.03v-.252c0-.044.03-.059.074-.059.059 0 .178.03.237.03.074 0 .104-.03.104-.104 0-.06-.075-.104-.06-.148a.893.893 0 0 1 .208-.163l.03.03c.044-.045.059-.06.073-.06-.044 0-.089-.059-.133-.163-.133-.103-.237-.074-.193-.177.03-.045.06-.06.09-.06.059 0 .147.074.207.074 0-.252-.06-.37-.163-.37-.045 0-.163.074-.222.06-.045-.016-.045-.075 0-.179a.75.75 0 0 1 .133-.118.78.78 0 0 0 .148-.222c-.015-.03-.044-.045-.089-.045v.09c-.163 0-.252 0-.267.014-.014.015.015.044.06.089 0 .03-.045.074-.134.133a.157.157 0 0 1-.118-.015l-.163.134c-.074.074-.134.103-.163.089-.074-.03-.06-.09.015-.163.177-.104.415-.193.415-.37 0-.105.133-.164.177-.164l.06.03h.014c.015 0 .104-.03.119-.03.044 0 .104.06.193.178.03-.015.044-.044.03-.104-.134-.178-.282-.178-.267-.281.014-.119.03-.163.03-.148-.075 0-.105-.015-.12-.03-.044-.074.075-.193.134-.148l.193.163c.03-.03.03-.104.014-.222-.014-.104-.03-.178-.03-.238-.118 0-.088.163-.162.163l-.06-.03h-.03l-.177.09h-.015c-.015 0-.044 0-.089-.015h-.074c0-.119.208-.104.282-.237.015-.045.015-.06.015-.074.118-.104.207-.178.281-.223a.33.33 0 0 0 .089-.192c-.015-.03-.03-.045-.074-.045l-.207.03c-.015 0-.015.045 0 .119.014.059 0 .088-.045.088h-.222c-.015 0-.045-.03-.06-.074 0 .015.015 0 .06-.044l.192-.089c.015 0 0-.015-.014-.06 0-.058 0-.088.014-.103.075-.133.119-.207.119-.222a.372.372 0 0 0-.326.178c-.104.163-.178.252-.222.266-.119.015-.297-.014-.282-.133.03-.104.134-.133.297-.104 0-.074.118-.089.133-.089 0-.03-.074-.059-.237-.074-.148-.015-.222-.044-.222-.074.03-.104.059-.192.088-.237.015-.03.045-.03.104 0 .045.015.119.208.237.208.134-.015.223-.03.267-.075a.62.62 0 0 0-.178-.118c-.03-.03-.015-.06.045-.089.044 0 .059.015.074.03.148-.074.237-.163.266-.237.015-.03-.014-.06-.074-.104-.089-.045-.133-.074-.133-.089.044-.044.074-.119.074-.222a.504.504 0 0 0-.148.118c-.015.015-.045.015-.074 0l-.06-.059c-.088-.03-.133-.074-.118-.133 0-.06.03-.193.03-.267-.104 0-.09.193-.134.207-.059.015-.266-.059-.266-.118 0-.045.059-.119.059-.133 0-.015-.03-.015-.104 0-.015.014-.03.074-.074.074l-.06-.03a2.547 2.547 0 0 0-.651-.074c.044 0 0 0-.133.015h-.06c-.044.044-.133.059-.296.059-.133-.074-.311-.104-.548-.089-.178 0-.311 0-.4.015-.045.015-.074.015-.09.015-.044.03-.029.103.045.207.045.06.104.133.193.208.252.207.37.34.37.414.015.104.015.193-.03.267-.014.015-.029 0-.073-.044l-.638-.874C17.1.237 17.054.178 17.07.133c.015-.044-.044-.074-.148-.074a.239.239 0 0 0-.193.09c-.103.088-.148.133-.163.133-.044 0-.133-.193-.237-.178-.163.03-.355.148-.563.37-.104.104-.178.208-.192.282-.015.103.059.133.059.148-.015.015-.03.015-.06 0-.014-.015-.03.015-.044.089-.03.133-.044.207-.044.207v1.141c.03.015.044.089.03.222-.016.09.029.148.118.193-.015.044-.06.06-.148.06l.148.147c0 .015-.148.09-.148.134l.044.044.133.133c.015.015 0 .045-.03.09 0 .014.016.044.045.088.03.03.03.06 0 .074l-.163.074c-.015.06.148.149.104.208-.015.06.104.133.119.133l.088-.03c.045-.014.06 0 .075.03l.088.178h.104a.845.845 0 0 0 .06-.326c-.09-.015-.208-.06-.356-.104-.03-.014-.045-.03-.045-.059l.03-.104c.015-.074.044-.103.089-.103.089.03.133.059.133.089 0 .118-.015.148-.03.103.03.03.06.045.075.045.118.015.192.015.207 0 .045-.06.015-.119-.089-.163-.044-.03-.074-.074-.074-.148 0-.075-.281-.149-.34-.252-.045-.09-.03-.148.044-.178.03-.015.06-.015.074-.015.03.015.044.03.03.06l-.03.073v.03c.074.074.148.119.207.119.148-.015.252-.045.297-.119.089-.133.133-.193.133-.193.119 0 .148.074.104.208l-.074.178c-.015.074.118.192.118.252 0 .118-.148.192-.133.266.074.163.118.297.163.37.015.075.044.06.074-.044.015-.044.03-.118.015-.192l-.045-.445c-.015-.104.015-.326.06-.696.014-.119.03-.178.03-.178.014-.015.044-.015.088 0 .045.03.074.044.089.044h.133c.045 0 .148.193.193.237.104.134.178.134.193.03.044-.533 0-.8.163-.815.222-.015.237.03.237.03h.815v1.155l-.06.06h-.696c0 .103 0 .133.015.118a.206.206 0 0 0 0 .134l.074.177a.215.215 0 0 1-.015.163c-.133.104-.237.149-.311.149a.334.334 0 0 0 .03.237c-.015.03-.075.03-.164.014C17.5 4.282 17.306 4 17.143 4c-.044 0-.06.045-.06.134v.163c0 .03-.088.089-.28.178a.866.866 0 0 0-.149.281c.104.074.148.208.148.37 0 .12-.207.134-.207.238a.949.949 0 0 1 .207.222c.015.03.03.044.015.06-.074.058-.118.103-.163.118-.074.059-.06.133.03.222.06.074.089.148.089.193-.045.192-.178.207-.178.251 0 .015.015.045.044.06.104.074.149.103.149.089 0 .014-.193-.015-.312.177-.014.015.015.045.06.09v.014c0 .045-.03.089-.074.133-.015.015-.06 0-.134-.014-.192-.045-.281-.119-.281-.208-.06 0-.09.045-.09.134 0 .103.016.148.06.148.252 0 .311.192.356.266.074.015.118.03.148.015.104.074-.03.148-.163.148l-.06-.03c-.074-.029-.118-.014-.118.045 0 .074.193.237.252.341.06 0 .104-.015.133-.03.045.015.09.03.134.074.014.03.014.075 0 .119-.06.119-.104.178-.134.178-.044-.045-.089-.208-.163-.208-.133-.014-.163-.03-.222-.103.044.37.06.118.267.474.044.089.103.133.163.133h.503c0-.03.015-.06.03-.089.015-.015.06-.015.104 0l.281.074c.223.015.4 0 .519-.015l.06.03zm-3.008-5.142l.03.03v-.03zm.014.533c.104-.044-.074-.044 0 0zm.149 1.704c-.06-.015-.09-.03-.104-.03 0 .075.163.163.178.208.074.104.163.192.266.267.074.059.163.103.237.148.119.074.193.103.223.103.118 0 .163-.03.118-.103l-.222-.178c-.252-.163-.474-.311-.696-.415zm-.074-.711c-.015-.03-.015-.015-.03.044.03-.015.044-.03.03-.044zm.148.474c.059-.015.133.015.207.089.104.104.163.163.193.178.074.03.103 0 .118-.09 0-.103-.015-.177-.03-.192-.044-.015-.073-.015-.088 0-.104-.015-.326-.281-.46-.222-.103.044-.118.03-.118.044zm.133-3.63c-.074.015-.281-.074-.207-.119a.206.206 0 0 1 .133 0c.119.06.148.104.074.119zm-.104.533c-.133-.089-.163-.133-.089-.148.104 0 .178.015.223.03.089.03.103.074.059.133-.044.045-.119.03-.193-.015zm.208 4.875c-.134-.015-.237 0-.252.074 0 0 0 .015.015.06.074.177.163.103.237.236.044.104.089.149.104.149 0-.06.014-.134.03-.208 0-.015.058-.044.058-.089l-.148-.148zm-.178-4.475c0-.03.015-.044.044-.059.045.015.09.06.134.104-.015.03-.045.044-.09.044zm.015 5.497c-.015.015-.015.03-.015.045h.06c-.016-.03-.03-.045-.045-.045zm.133.119h-.03v.044c0 .045.06.074.178.09.045 0 .148-.075.148-.134a.258.258 0 0 0-.103.044h-.03a.45.45 0 0 0-.163-.044zm.178-5.379c.015 0 .015-.03.015-.088 0-.015-.03-.06-.03-.075 0-.044.015-.059.06-.059l.059.045-.03.059v.03c.015.044.03.074.015.088-.015.015-.045.015-.089 0zm.118 3.971c0-.015 0-.03-.014-.03a.032.032 0 0 0-.03.03c0 .015.015.03.03.03.014 0 .014-.015.014-.03zm.03-3.096c-.044-.119-.044.074 0 0zm.045 2.844v.03l.03-.03zm.014.134c0 .015.015.044.045.059v-.06zm.015-4.623c-.015-.03-.015-.06.03-.074.044 0 .104.074.104.089l-.03.03a.135.135 0 0 1-.104-.045zm.06.533c-.03-.014-.045-.03-.03-.059 0-.044.015-.06.03-.074.059-.044.118-.03.162.015.104.074-.044.163-.163.118zm0 .578v.03h.03v-.03zm.059 5.2a.032.032 0 0 0-.03-.029c-.015 0-.015.015-.03.03 0 .015.015.03.03.03s.015-.015.03-.03zm-.045-1.866c.06 0 .104-.015.104-.074-.074 0-.104.03-.104.074zm.09-1.378c0 .06.014.089.044.104V5.17zm.029 2.46c-.045-.06-.03-.119.044-.163.06-.045.09-.03.104.044 0 .074-.015.119-.03.133-.044.045-.089.045-.118-.014zm.03-2.92l-.015-.014a.28.28 0 0 0-.03.118c.06-.044.074-.074.044-.103zm.014.623a.032.032 0 0 0-.03-.03c-.014 0-.014.015-.029.03 0 .015.015.03.03.03.014 0 .03-.015.03-.03zm.178 1.837c-.133.045-.252-.03-.207-.148.014-.044.059-.074.103-.06.045 0 .09.06.134.06l.059-.03.03.045c0 .06-.045.104-.119.133zm-.178-2.874l.148.163h.045c0-.074-.119-.222-.193-.222zm.119-3.808c-.015-.045 0-.089.044-.133.03-.03.045-.015.06.059.074.104.133.192.192.237.119.118.208.207.267.281.015.045.074.119.074.178l-.045.045a.535.535 0 0 1-.192-.163c-.163-.163-.311-.326-.311-.386.015-.059.015-.088 0-.088-.045-.015-.074-.015-.09-.03zm.074 7.142c-.045-.104-.045-.163 0-.193.074-.06.118-.104.118-.163.015-.119.06-.133.163-.044a.282.282 0 0 1 .074.192c-.059.089-.103.163-.118.208v.03l.03.029c0 .118-.045.237-.149.163-.044-.045-.074-.119-.118-.222zm.104-.756c-.045.015-.06.015-.074 0 .014-.03.03-.06.059-.089.074-.119.133-.133.192-.06.015.016.03.06.045.12.015.073 0 .103-.03.118s-.089-.015-.163-.09zm-.06-5.482a.112.112 0 0 1 .06-.03l.089.089c-.015.03-.03.044-.045.044zm.09 6.786c-.045 0-.06-.03-.06-.074 0-.045.015-.06.06-.06.044 0 .073.015.073.06 0 .044-.03.074-.074.074zm-.03-2.83c0-.045.014-.074.03-.09.029.016.044.045.044.12a.113.113 0 0 1-.074-.03zm-.015.933c-.015-.044-.015-.074.03-.089.029-.014.059-.014.103 0a.134.134 0 0 1 .089.09c.044.073-.03.147-.104.133-.044-.015-.074-.06-.118-.134zm.06 1.97c.014 0 .029.016.044.03 0 .06-.015.09-.06.09 0-.045 0-.09.015-.12zm-.016-3.244c0-.03.015-.044.045-.03.015 0 .03.015.03.03 0 .044-.03.06-.075.06zm.104.86c-.074 0-.104-.045-.104-.149l.03-.03c.044 0 .074.06.074.178zm.133-2.668c.03.03.06.045.074.03.015-.015.03-.015.03-.015l.178.178.148-.089c-.119-.089-.178-.163-.178-.237-.281-.104-.385-.193-.43-.193 0 .119.06.223.178.326zm-.074 3.927c-.044-.015-.103-.03-.059-.074.015-.015.03-.03.06-.03zm.03-1.734c-.06-.044-.074-.089-.074-.133.044 0 .074.044.074.133zm-.015-1.881c0 .044.044.118.133.222.134.163.208.237.223.237.044 0 .059-.045.044-.148-.015-.134-.03-.208-.03-.223-.03.03-.059.045-.088.03l-.238-.118zm.133.948c-.03-.015-.044-.03-.044-.074.089 0 .133.03.133.074zm-.014.578c-.03-.03-.03-.06 0-.104.014-.03.044-.045.088-.03.104.03.149.104.149.223a.313.313 0 0 1-.237-.09zm.014 1.022c-.074-.044-.074-.089-.014-.119.044-.014.088-.014.148.03.089.074.089.104.015.119-.075.014-.119 0-.149-.03zm0 .563a.303.303 0 0 1 0-.163c.015-.074.045-.089.09-.044l.059.059c.044.089.059.148.014.163-.059.015-.103.03-.118.015-.03 0-.045-.015-.045-.03zm.015-1.052c-.044-.074-.044-.133 0-.148.074-.015.252.133.148.178-.074.015-.118.015-.148-.03zm.06 2.682c.059 0 .088.03.074.074-.03.06-.06.06-.075-.015zm.207-6.86c-.015-.045 0-.074.015-.09.074-.014.133.03.148.164a.152.152 0 0 1-.074.089.604.604 0 0 1-.09-.163zm.06 3.897c-.045-.075-.03-.119.014-.163.074-.06.178.148.133.192-.059.045-.103.03-.148-.03zm.296-.238c-.163-.118-.297-.266-.282-.37.015-.06.044-.074.104-.03.044.045.089.09.118.104.03.045.06.03.074-.044.045-.134.09.148.09.222.014.074.147.193.147.267-.044 0-.133-.045-.251-.149zm-.223-1.615c-.015.06.015.09.09.09 0-.045-.03-.134-.03-.178-.015 0-.045.03-.06.088zm.178 3.038c0 .074.015.133.03.148v-.148zm.06-.148l-.03.03h.03zm0-2.149c.103 0 .118.045.059.134-.03.059-.045.03-.06-.074zm.029-2.46c.044 0 .074.016.089.03-.045.06-.089.09-.119.09 0-.06.015-.104.03-.12zm-.03 4.98v.058h.03v-.059zm.03.473v.03h.03v-.03zm.089-5.26c-.015-.044.03-.074.104-.074 0 .03-.015.06-.03.09-.03.014-.06.014-.074-.016zm.06 4.83c-.06-.118-.06.075 0 0zm.162-2.859c0-.015.015-.03.03-.03s.015.015.015.03 0 .015-.015.03a.032.032 0 0 1-.03-.03zm.208 3.6l.03-.03.029.03-.03.03zm.548-1.022c-.104-.044.103-.044 0 0zm.044-4.875a.081.081 0 0 1 .074-.044c0 .03-.015.06-.044.074zm.09-.089c0-.03.014-.059.044-.074l.03.03a.081.081 0 0 1-.075.044zm.073 1.26c-.015-.03 0-.045.03-.06.015-.014.044 0 .06.03 0 .03-.016.045-.03.06-.03.014-.045 0-.06-.03zm.09 2.045c-.016 0-.105 0-.09-.06 0-.03.015-.044.045-.044s.044.03.044.104zm.073-1.186c.06-.015.104.015.148.119.015.015 0 .03-.014.06-.09.132-.163.192-.208.177-.044-.03-.06-.119-.06-.282 0-.044.045-.059.134-.074zm-.074 4.564c-.015-.03 0-.045.03-.06.015-.014.044 0 .059.03 0 .015-.015.03-.03.045-.03.014-.044 0-.059-.015zm.104-3.793c-.06.044-.06-.045-.06-.09h.075c0 .045 0 .075-.015.09zM19.32.563c0-.06.03-.119.09-.133.044-.015.058 0 .073.03.015.073-.03.103-.163.103zm.074 7.008c-.015-.074.03-.103.163-.103 0 .044-.03.074-.074.103-.044.045-.074.045-.089 0zm.09-2.652c.014-.015.029-.015.044-.015.03 0 .074.06.133.178h-.252c0-.06.03-.118.074-.163zm.029-3.348c.015-.03.044-.03.089 0 .044.03.044.059.03.088-.045.06-.104.09-.193.09 0-.075.03-.134.074-.178zm-.03 4.845c.015-.015.03-.03.045-.03.059 0 .089.06.103.178.015.074-.059.104-.192.104 0-.104.015-.178.044-.252zm-.03-2.356c-.014-.03.015-.074.075-.134.014-.014.044-.014.074 0l.118.134a.134.134 0 0 1-.089.089c-.089 0-.148-.03-.177-.09zm0 .518c-.014-.059.06-.192.104-.192.015 0 .03.015.045.03.044.073.074.103.089.088.044-.118.03-.222.163-.207.059.015.103.03.133.074.104.104-.193.237-.148.237h-.356c-.015 0-.015-.015-.03-.03zm.06-1.644c.044-.045.074-.015.089.089.015.03-.03.044-.134.044 0-.06.015-.104.045-.133zm-.015.681c-.06-.059-.03-.148.104-.252l.148-.133.074-.119c.044-.044.074-.044.074.03.015.119-.089.222-.074.282.015.044.015.074.015.074 0 .044-.045.074-.148.118-.104.03-.163.03-.193 0zm.015-1.126l.03-.03.03.03-.03.03zm.06-.281c0-.015.014-.03.029-.045.015 0 .03.015.03.045zm0-1.72l.029-.029.03.03-.03.03zm0 4.209c.014-.045.044-.045.073-.015.03.03.03.06-.015.074zm.118-2c0-.015.03-.06.074-.104.015-.015.03-.015.044-.015.015.015.03.015.03.03l-.119.118zm0 3.57v.03h.03zm.03-1.392c-.016-.074 0-.119.014-.134.015-.044.045-.044.074.03.015.044.015.089-.015.118-.044.06-.059.06-.074-.014zm0-4.075c-.016-.044.014-.074.073-.074.074-.015.104 0 .104.03a.282.282 0 0 1-.148.074zm.044 1.334c.015-.015.03-.03.059-.03-.015.03-.03.044-.06.03zm.074.622c0-.045.03-.06.03-.06 0 .03-.015.045-.03.06zm.103 1.274c-.059 0-.074-.044-.074-.104.045 0 .074.03.074.104zM19.93.133l-.06.03h.06zm.03 2.208c-.016-.074.029-.104.103-.104a.25.25 0 0 1 .148.045c.045.015.045.044 0 .074 0 .015-.044.015-.118.015h-.104l-.03-.03zm.073 1.926a.081.081 0 0 1-.044-.074c0-.03.06-.089.163-.192.104-.015.163.014.163.103 0 .104-.178.267-.282.163zm.074-3.363c.09-.045.134 0 .134.133h-.237c0-.044.03-.089.103-.133zm-.03 3.556c.134 0 .312.104.208.148-.074.015-.118.03-.148.015-.044-.015-.074-.045-.06-.104zm.016-2.415c-.104-.045.103-.045 0 0zm.044.83c-.06-.075-.044-.12.03-.149.044-.015.103 0 .148.045.015.015.015.03.015.044 0 .074-.045.104-.134.104-.03 0-.044-.015-.059-.045zm0 .192c0-.06.045-.074.104-.074 0 .044-.03.074-.104.074zm.045 2.06c.014.03.03.044.074.044-.015-.03-.03-.044-.074-.044zM20.21.34c-.016.074.029.103.147.103a.168.168 0 0 0-.044-.118c-.045-.03-.074-.03-.104.015zm.296.963c-.015.015-.03.015-.03.03 0 .014.015.03.03.03a.045.045 0 0 0 .059 0c.015 0 .03-.016.03-.03 0-.015-.015-.015-.03-.03zm.059 2.385c.015.045.03.06.059.06.074-.06.148-.163.148-.119v-.06c-.044 0-.118.045-.207.12zm0-3.111v.03h.03v-.03zm.059.46a.417.417 0 0 0 .074.162l.104-.074v-.03a.393.393 0 0 0-.09-.074c-.044-.03-.073-.03-.088.015zm.03-.342V.77h.03V.696zm.044 2.193c-.044-.103-.044.104 0 0zm.015-1.333v.03h.06v-.03zm.044 1.393c-.044-.104-.044.103 0 0zm-.014-.697v.03l.03-.03zm.059-1.007c0-.015-.015-.015-.03-.03-.015 0-.015.015-.015.03 0 .014 0 .03.015.03s.03-.016.03-.03z"/></g></svg>