<svg xmlns="http://www.w3.org/2000/svg" width="120.297" height="32.032" viewBox="0 0 31.829 8.475"><g style="line-height:125%" aria-label="Relive" font-weight="400" font-size="14.817" font-family="3 The Hard Way Overrun" letter-spacing="0" word-spacing="0" stroke-width=".265" fill="#a41c31"><path style="-inkscape-font-specification:'3 The Hard Way Overrun, Normal';font-variant-ligatures:normal;font-variant-caps:normal;font-variant-numeric:normal;font-feature-settings:normal;text-align:start" d="M.207 8.416c.015 0 .03.015.03.06h.207c0-.03 0-.06.015-.075.015-.03.045-.03.06 0 .014.045.03.074.044.074h1.274c.045 0 .119 0 .223-.015l.133-.044c-.015-.534 0-1.126.015-1.793.015-.296.03-.267.192-.267l.563.267c.045 0 .311.03.356.074a.134.134 0 0 1-.089.089.303.303 0 0 1-.148-.104l-.03.03v.37c0 .015.074.045.222.119.03.015.03.044.015.074a.081.081 0 0 1-.074.044c-.059.015-.118-.074-.163-.074 0 .06.03.178.03.223V7.6l.163.118c.015.015.03.045.03.06 0 .059-.223.074-.223.074v.607H5.29l-.045-.4c0-.059-.193-.074-.133-.192 0-.045.133-.06.133-.074v-.282c-.044-.06-.06-.118-.03-.178a.21.21 0 0 0 .03-.089v-.252c0-.014-.193-.074-.193-.177h.208v-.297c-.015-.148-.015-.207-.03-.192.045-.104.045-.178.015-.208a.388.388 0 0 0-.193.09c-.133 0-.207-.06-.207-.164 0-.06.06-.074.193-.044a.555.555 0 0 1 .148.089c0-.163-.015-.237-.03-.252-.015 0-.074.044-.089.044-.03 0-.059-.03-.074-.074-.074-.281-.059-.385-.118-.385h-.148c-.119 0-.119-.296-.193-.311-.074-.015-.119-.015-.119-.03L4.15 4.89C4 4.8 3.926 4.756 3.926 4.74c0-.014.045-.089.149-.207.089-.089.103-.163.059-.208-.06-.059-.089-.088-.089-.103 0-.045.03-.074.089-.074.015 0 .06.014.118.059.03.015.074.015.119-.015.089-.06.104-.118.06-.178-.045-.059.014-.103.177-.118.178-.134.237-.311.4-.445-.104-.089-.163-.163-.178-.237a.968.968 0 0 0-.296-.133.135.135 0 0 1-.06-.119c0-.044.03-.074.075-.089.103-.014.163.03.207.134.134.133.237.222.311.252.03.014.06 0 .09-.045a1.16 1.16 0 0 0 .118-.578c-.06-.074-.09-.118-.074-.133 0-.015.014-.044.044-.074l.03-.03v-.148c-.015-.163-.015-.296-.03-.37-.03-.015-.06-.015-.104 0-.133 0-.192-.045-.192-.148 0-.075.06-.104.178-.09.133.015.163.015.118.03.015-.074.03-.163.03-.252a.288.288 0 0 1-.237-.118c.03.118-.03.222-.193.296-.104.06-.178.045-.222-.044-.03-.09.044-.163.222-.222.119-.03.178-.09.163-.178-.163-.015-.281-.074-.326-.148-.06-.134.148-.163.163-.149.06.045.133.104.208.193.03.03.044.074.044.148.104 0 .148-.015.148-.06.015-.103.015-.162 0-.177-.207-.178-.163-.34-.207-.4 0 0-.03 0-.09.015-.103.015-.207-.045-.207-.119L4.831.4c.059.015.103.015.118.03 0-.074-.104-.104-.326-.119C4.445.296 4.326.074 4.208.06h-.296c0 .06.133.074.133.09.03.088 0 .133-.104.133-.103 0-.207-.149-.192-.223-.134-.015-.252-.03-.356-.03l-.222.045H2.71c-.044-.015-.074 0-.103.015-.09 0-.148 0-.178-.015l-.148.03h-.045c-.014 0-.074-.03-.089-.03h-.74c-.06.045-.104.06-.134.045L1.156.074c-.548 0-1.097.4-1.112.934 0 .014.015.044.03.103.015.015.015.06 0 .148 0 .104 0 .341-.015.697-.015.281-.015.518-.015.696v.222l.178.09c.134.029.163.073.06.133-.045.044-.09.059-.119.059-.044 0-.089-.03-.148-.03.03.06.044.119.03.178-.03.045-.045.074-.045.074l.089.045c.089.014.118.059.104.133 0 .074-.149.252-.149.326 0 .06.104.148.104.163 0 .015-.015.06-.044.104a.356.356 0 0 0-.09.222c.016.222.03.296.03.252-.014.104-.014.192-.03.252v.207c.134.074.016.178.09.237.044.015.059.03.074.045-.09.089-.134.163-.134.207 0 .119.43.385.326.489-.014.015-.059.03-.163.03-.074 0-.118 0-.118-.015-.03.03-.045.06-.03.089 0 .163.267.237.267.296 0 .03-.03.074-.104.119-.044.044-.103.014-.178-.074-.014.074-.014.148-.03.192 0 .074.03.133.09.163.133.06.178.104.148.148l-.178.163c-.06.074-.074.134-.044.193 0 .015.089.104.089.148-.015.074-.015.119 0 .119.014 0 .014-.015.03-.03a.045.045 0 0 1 .058 0c.015.015.03.015.03.03 0 .044-.193.133-.193.177v.519a.28.28 0 0 0-.03.119c.045 0 .149-.03.193-.03zM.074 6.03C.06 6 .044 5.986.014 5.986c0 .03.016.06.03.074.015-.015.03-.015.03-.03zm.267-1.644c-.06 0-.148-.015-.163-.09.015-.014.03-.029.074-.029.06.015.089.045.089.119zm-.119 1.17c-.059-.044-.044-.103.03-.148a.336.336 0 0 1 .192-.044c0 .148-.044.222-.148.222-.014 0-.044-.015-.074-.03zm.06-1.66c-.06-.044-.075-.073-.045-.118.045-.044.074-.059.089-.044.163.03.222.074.207.118-.044.134-.133.149-.251.045zm.074-.503c-.074-.074-.074-.119 0-.133.118-.06.296.074.251.118l-.059.045c-.089.014-.148 0-.192-.03zM.326 8.06c-.015-.03-.015-.059.03-.103.03-.03.044-.03.059 0 .015.059 0 .103-.015.118-.03.03-.06.03-.074-.015zm.015-1.289c-.015-.015 0-.03.015-.044h.237c.044 0 .044.015.03.059-.016.03-.03.06-.075.074-.059.015-.133-.015-.207-.089zm.015 1.437h.03v.03zm.03-.518c0-.015.014-.03.029-.03.015 0 .015.015.015.03s0 .03-.015.03a.032.032 0 0 1-.03-.03zm.029-4.816c-.015-.014.03-.059.104-.133.044-.044.103-.015.148.06.015.014.015.044.015.059 0 .059-.075.089-.208.074a.116.116 0 0 1-.06-.06zm.03 3.423c-.015-.074.014-.104.103-.118.09-.015.134.014.134.088 0 .06-.045.104-.119.119s-.104-.015-.119-.089zm.118-.415c-.074 0-.119-.044-.119-.133 0-.045.06-.074.178-.089.104 0 .163.06.148.133-.014.06-.074.09-.207.09zm.148 2.504c-.163 0-.222-.103-.207-.163.015-.044.03-.059.059-.059.06 0 .119.03.193.104.074.074.059.118-.045.118zM.622 5.32c-.074-.015-.074-.044.015-.089.045-.03.089-.03.119-.015.044.015.044.045 0 .09-.03.029-.074.029-.134.014zm.03-1.6C.578 3.6.607 3.526.726 3.512c.06 0 .193.074.193.133 0 .044-.045.074-.119.104-.074.014-.133.014-.148-.03zm0 .489c-.045-.015-.03-.045.044-.089.06-.015.09-.03.104-.03.015.015.03.015.03.03 0 .044-.134.104-.178.089zm.267 2.726c-.074-.074-.045-.133.074-.192.118-.06.178-.104.178-.149-.015-.014-.045-.014-.075 0-.163.09-.281.134-.326.134-.014 0-.118-.134-.118-.178 0-.03.074-.089.207-.193.09-.059.134-.103.134-.118S.77 6.223.77 6.06c.163 0 .252-.03.193-.148-.03-.074 0-.119.074-.163l.06-.045-.045-.044c-.015 0-.03.015-.074.03-.03.014-.06.014-.074 0C.83 5.63.77 5.556.77 5.512c.015-.045.045-.045.075-.015.133.074.237-.03.43.104a.373.373 0 0 1 .162.266c0 .06-.089.163-.089.282v.148c0 .074-.118.267-.118.282.015.088.015.148.03.192l-.045.193c-.074.133-.163.118-.296-.03zM.682 3.126c-.015-.059.044-.089.163-.089.044 0 .088.03.148.104.03.015 0 .045-.09.089-.073.03-.147 0-.221-.104zM.83 6.58c.044 0 .074-.03.074-.074-.045 0-.074.03-.074.074zM.889 3.97c.015-.045.03-.06.074-.045.03.045.074.03.148-.03.06-.073.015-.266.09-.325-.12.015-.193.015-.208-.015-.104-.133.148-.207.266-.193a.206.206 0 0 0 0-.133c.119-.118.237-.193.237-.207.03 0 .06.014.09.059.059.104.073.178.059.237-.06.163-.09.237-.09.193l.03.059v.015c0 .163-.044.281-.148.326-.118.044-.266.059-.266.177.044 0 .177-.088.222-.088.044 0 .059.03.074.074.015.074-.09.281-.134.296-.088 0-.148-.015-.162-.03-.045-.074-.06-.133-.045-.178a.486.486 0 0 0-.118-.088zm.119-1.022c-.015-.045 0-.06.03-.075 0 0 .044.015.147.06.015.015.119-.06.134-.06.015 0 .03 0 .059.015h.074c0-.074.015-.103.03-.118a.164.164 0 0 1 .118 0c.045.03.06.074.045.118-.015.015-.045.03-.104.03h-.06c-.014-.015-.044.074-.148.118-.103.045-.207.045-.281 0zm.014 4.563c-.03-.089-.03-.148.015-.163.045-.015.06.015.074.089 0 .06 0 .104-.015.119-.014.044-.044.03-.074-.045zm.149-2.178l.03-.03.029.03-.03.03zm.03.756v.03h.029v-.03zm.029-1.215c.015-.074.044-.104.06-.104 0 .163-.016.207-.06.133zm.089.637c-.045 0-.06-.015-.074-.06 0-.044.014-.059.059-.059.03 0 .06.015.074.06.015.044-.015.059-.06.059zm.118-2.03c-.044 0-.074.015-.089.03h.09zm-.044 4.075c-.119-.045.074-.045 0 0zM3.037 2.31c0 .475-.044.786-.118.949-.104.207-.326.31-.667.31-.044-.014-.06-.088-.06-.207V2.4c.016-.059.03-.089.06-.089zm-.251 3.956c.014-.044.059-.074.133-.074 0 .06-.03.104-.074.134zm.133.267c-.03-.015-.03-.044 0-.089.044-.03.074-.03.089-.015.044.015.044.045.015.09-.03.029-.06.029-.104.014zm.03-.548c-.06-.045-.06-.089 0-.133.03-.015.074-.015.118 0 .044.014.06.044.06.074s-.016.059-.06.074a.157.157 0 0 1-.118-.015zm.133.237c-.06-.015-.089-.03-.089-.044.015-.015.044-.045.089-.06a.209.209 0 0 1 .207.015c.119.074.134.119.045.163-.03.015-.119-.015-.252-.074zm.03-2.163c-.06-.045-.075-.119-.045-.208.015-.074.044-.118.119-.103.074.014.148.059.192.103 0 .06 0 .104-.015.134.045.059.09.044.134.103.059.074.089.134.089.163a.699.699 0 0 1-.475-.192zm.192 1.185c-.178-.178-.267-.222-.252-.326a.318.318 0 0 1 .06-.104c.044-.014.074.015.103.104a.668.668 0 0 0 .297.237c.014.015.03.045.03.06 0 .044-.03.059-.105.059a.296.296 0 0 1-.133-.03zm-.252.208l.03-.03.03.03-.03.03zm.03-1.156l.03-.03.162.163c.015.045-.014.074-.088.104-.075.03-.104.03-.104-.015zm.074-.963c-.015-.104 0-.163.044-.178.074-.015.119.03.149.163.03.104.014.148-.06.163-.074.015-.118-.045-.133-.148zm.06 2.4c-.075-.074-.075-.118 0-.163.103-.104.28.163.177.208-.074.014-.133 0-.178-.045zm.014-.993c-.089-.089-.074-.148.06-.192.103-.03.192 0 .266.074.044.044.06.074.044.118-.014.03-.059.045-.103.045-.148 0-.237-.015-.267-.045zm.03-3.23c-.015 0-.03 0-.03-.015 0-.044.044-.088.133-.133.134-.06.208-.044.208.06 0 .044-.045.073-.134.088a.356.356 0 0 1-.177 0zm.103 1.526c-.059 0-.103-.059-.089-.133.015-.044.03-.06.06-.06.044 0 .103.06.089.134-.015.045-.03.06-.06.06zm0 4.95c.03-.045.06-.06.09-.045a.263.263 0 0 1 .147.118c-.03.045-.074.06-.133.045-.044-.045-.089-.074-.104-.119zm.282-.905c-.133.06-.237-.089-.282-.148.015-.03.045-.044.074-.06.104-.014.312.15.208.208zM3.423 3.63c-.015-.03 0-.044.044-.06.06 0 .178.045.163.149l-.044.044c-.03 0-.09-.044-.163-.133zm.192 3.956c-.118.06-.281-.089-.178-.163.06-.044.297.119.178.163zm-.163-5.675l.03-.03.03.03-.03.03zm.03 1.186l.03.03h-.06zm0 3.348a.135.135 0 0 1 .118-.059.486.486 0 0 1 .09.119c-.045.059-.075.074-.104.059a.34.34 0 0 1-.104-.119zm.015-4.756c-.015-.015.118-.193.133-.193.045-.044.089-.014.163.119.03.06.045.089.03.104l-.119.103c-.044.03-.089.03-.118 0zm.015-.74c-.015-.045.014-.075.059-.075.06 0 .089.015.089.06 0 .044-.045.059-.119.044zm.014 5.037c-.014-.03-.014-.06 0-.104.015-.03.03-.044.074-.044.134.103.223.133.178.192-.015.015-.044.03-.089.03-.074 0-.133-.03-.163-.074zm.06-3.778a.135.135 0 0 1-.045-.104c0-.06.03-.089.074-.089.03 0 .06.015.09.045.073.074.088.133.073.162-.044.06-.103.06-.192-.014zM3.57.459c-.045 0-.045-.015 0-.059.03-.044.06-.044.104-.015.03.015.03.03 0 .06-.015.014-.045.03-.104.014zm-.015 2.756c0-.03.015-.044.044-.06.015.016.03.03.03.06zm.06 2.312c-.075-.074-.09-.134-.016-.193.03-.015.09.015.178.089.045.044.06.06.045.074l-.045.06c-.059.044-.118.029-.163-.03zM3.57.667c.03 0 .044.015.044.044 0 .015-.015.03-.044.03zm.06.548h.029v.03h-.03zm.014 3.749c-.015-.03-.015-.045-.015-.06.074 0 .282.06.222.104-.044.06-.089.089-.118.074-.03-.015-.06-.044-.09-.118zm.06-2.253c-.045.119-.045-.074 0 0zm-.016 1.704c-.014-.014-.014-.044-.014-.059h.074l.148.163c-.015.015-.03.03-.045.03-.059 0-.118-.045-.163-.134zm.178-3.17c-.118.044-.237-.134-.163-.193.015-.015.074 0 .163.074.045.045.074.06.06.074-.015.03-.045.045-.06.045zM3.704.637c-.015-.044-.015-.06 0-.074.015-.015.045-.015.09-.015.118.015.177.06.192.104.015.074-.03.118-.163.118-.06 0-.104-.044-.119-.133zm.03 3.334c-.015-.03-.015-.06 0-.104s.03-.06.074-.044a.343.343 0 0 1 .163.118c.074.074.044.119-.074.119-.074 0-.119-.03-.163-.09zm.178 3.897c-.104.014-.178-.015-.193-.074-.015-.045 0-.06.03-.075.074-.014.133 0 .177.045.074.06.06.089-.014.104zm-.104-.549a.179.179 0 0 1-.074-.074c-.015-.014-.015-.03.03-.059.074-.044.118-.03.148.015.059.074.088.133.074.148-.045.045-.104.03-.178-.03zm-.015-.533c0-.044.015-.074.045-.089.103.015.31.074.192.148-.074.045-.163.015-.237-.059zm.06-3.29c-.075-.073-.09-.118-.045-.133.044-.014.104 0 .163.015.104.045.104.09.03.134-.06.014-.104.014-.149-.015zm-.015-.607c0-.044.044-.059.118-.044.074.03.104.074.089.133-.015.06-.06.074-.119.06-.044-.015-.074-.06-.088-.134zm.03 2.83A.35.35 0 0 1 4 5.63c.075.03.119.074.134.134-.045.059-.09.089-.148.089-.06-.045-.104-.09-.119-.134zm.029.578c-.074-.074-.06-.118.015-.148.03-.015.074.015.133.074.044.06.044.089 0 .104-.06.015-.104.015-.148-.03zm-.015-3.852a.045.045 0 0 1 0-.06c.015-.014.03-.03.06-.014l.147.074c.03.015.03.044 0 .074a.113.113 0 0 1-.074.03c-.044 0-.089-.03-.133-.104zm.03-.504a.045.045 0 0 1 0-.06c.014-.029.03-.044.059-.029.074.03.148.06.192.089-.014.044-.044.074-.103.089a.395.395 0 0 1-.148-.089zm.059 3.29c-.015-.045-.015-.06.015-.075.044-.015.148.015.148.09.015.058 0 .088-.06.088-.044 0-.074-.03-.103-.104zM4.03.947c-.016-.03-.016-.059 0-.074.029-.044.044-.06.058-.044.074.015.149.059.193.103-.015.045-.044.09-.089.104A.293.293 0 0 1 4.03.948zm-.016.09h.03v.029zm.03.488c0-.06.06-.104.133-.089.045 0 .06.015.045.06-.015.014-.074.03-.178.03zm0-1.126C4.03.34 4.06.311 4.119.311c.015 0 .163.104.222.089.074.015.074.044.015.104-.074.059-.133.059-.193.015zm.044 7.705c-.074-.015-.074-.06-.03-.104.045-.03.09-.03.149 0 .06.044.074.089.03.104-.03.015-.075.015-.149 0zm.178-.46c-.118.045-.178-.044-.178-.089 0-.088.06-.103.163-.03l.045.06c0 .045-.015.06-.03.06zM4.134 3.72c-.015-.06 0-.089.044-.089.074 0 .119.03.134.074.03.06.014.104-.06.119-.059.015-.103-.03-.118-.104zm0 3.334a.134.134 0 0 1 .089-.09c.103 0 .163.03.163.105l-.03.044c-.06.044-.133.03-.222-.06zm.06-4.327c-.06-.059-.045-.089.058-.089.074 0 .134.015.178.045.015.015.015.044 0 .089-.015.044-.044.059-.074.059-.06 0-.118-.03-.163-.104zm.147 3.897c-.074.044-.118-.06-.178-.118l.06-.06c.03 0 .074.015.133.045.03.015.045.044.045.074s-.015.044-.06.059zm-.103-.519c-.075-.074-.075-.133 0-.163a.257.257 0 0 1 .207.045c.044.044.03.089-.044.148-.045.045-.104.03-.163-.03zm0-.563c-.045-.074-.015-.118.059-.118.133-.015.237.118.222.133-.015.015-.03.015-.03.03l-.074.044h-.014a.205.205 0 0 1-.163-.089zm.014-3.333c-.059-.06-.03-.09.09-.09.073 0 .133.03.162.09.015.074-.03.103-.133.103-.015 0-.045-.03-.119-.103zm-.03.8h.045v.06h-.044zm.075-1.29c-.045-.044-.045-.059-.015-.073.015-.015.044-.015.074 0 .119.014.193.044.208.089.014.059-.015.088-.119.088-.03 0-.074-.03-.148-.103zm.03 1.527c0-.015.014-.03.03-.03.014 0 .014.015.014.03s0 .03-.015.03a.032.032 0 0 1-.03-.03zm.059-1.97c-.015-.016-.03-.045-.03-.09l.045-.059c.148 0 .207.045.192.133-.03.104-.104.119-.207.015zm0-.608c-.015-.045 0-.06.074-.06.044 0 .074 0 .118.015.134.045.149.104.045.178-.045.03-.104.015-.148-.03zm.03 2.4l.029-.03.03.03-.03.03zm.192 4.86c-.074.044-.267-.074-.163-.133.074-.06.267.074.163.133zm-.163-.608c-.015-.03 0-.044.044-.059.06 0 .178.045.193.09-.03.044-.06.088-.089.103-.074-.015-.118-.06-.148-.134zm.074-3.763c-.074-.044-.089-.089-.03-.119.119-.074.312.075.193.119-.06.03-.118.03-.163 0zm.03 3.319c-.03-.015-.045-.03-.045-.074l.045-.045c.163 0 .222.03.177.104-.044.074-.103.074-.177.015zm.207-.474c-.118.074-.267-.09-.252-.104l.074-.074c.06-.06.311.119.178.178zM4.55 2.519c-.06-.074-.03-.104.074-.119a.22.22 0 0 1 .192.06c.074.074.045.133-.089.148-.044.015-.103-.015-.177-.09zm.207 3.393c-.118 0-.178-.074-.222-.133l.03-.03c.162 0 .266.015.281.044.06.06.03.104-.089.119zm-.148-3.897c-.044-.074-.03-.104.074-.104.104-.014.178.015.207.074.045.075 0 .119-.118.119-.074 0-.133-.03-.163-.089zm.178 6.164c-.045-.015-.06-.03-.045-.06l.045-.059c.044-.015.089-.015.118.03.045.044.045.074 0 .089zm.044-.49c-.074-.088-.074-.133.015-.147.06-.015.267.103.148.163-.06.03-.118.03-.163-.015zM4.845 2.8c-.074-.074-.044-.118.074-.133.119-.015.296.089.237.193-.015.014-.044.03-.104.03a.293.293 0 0 1-.207-.09zm.015 4.371c-.06-.074-.06-.118 0-.148.044-.015.089-.015.163.03.03.015.044.044.044.074s-.03.06-.074.074c-.044.015-.089 0-.133-.03zm.015-.548c-.045-.074-.03-.118.044-.118.133 0 .222.088.178.148-.015.03-.045.044-.089.044a.156.156 0 0 1-.133-.074zm.014-4.37a.116.116 0 0 1 .06-.06c.089-.03.163-.015.207.03.074.059.074.118-.015.162-.044.03-.103.015-.163-.044zm.149 4.074l.03-.03.029.03-.03.03zM6.05 6.905c-.045.014-.06.059-.06.118l.03.06c.03.014.044 0 .06-.03.014-.074 0-.119-.03-.148zm.074-2.742c.059.06-.119.193-.119.238.045 0 .06-.06.104-.06.015-.015.074 0 .178.045a.356.356 0 0 0 .177 0c.075-.015.119-.06.104-.119-.133-.118-.207-.296-.444-.296-.074 0-.074.06 0 .192zM6.02 6.58c.074.074.133.148.207.207a2.02 2.02 0 0 0 .341-.207l.178-.104c.044-.03.044-.074.015-.119-.104-.074-.148-.044-.341-.237-.104-.103-.178-.133-.252-.118-.104.015-.148.044-.148.103 0 .045.03.06.104.075a.417.417 0 0 0 .192 0 .523.523 0 0 0 .134.163c.059.074.074.118.044.163-.03.044-.06.059-.089.059a.285.285 0 0 1-.178-.06c-.014-.014-.03-.014-.044 0l-.104.09-.059-.03zm0-1.126l.03.03v-.03zm.044.977c-.044-.103-.044.104 0 0zm.297-1.526c.074.015.103.015.103.015l.252.193h.06c.044 0 .059-.06.014-.163-.014-.06-.059-.104-.133-.148-.178-.074-.267-.149-.267-.193 0-.015 0-.044.015-.06a.877.877 0 0 1-.355-.088c-.045.133.014.222.148.296v.045c.015.059.059.088.163.103zm-.163 3.053c-.015.044 0 .059.044.059.045.015.074 0 .09-.03.044-.074.073-.118.103-.118.118.014.148.014.104.03.103-.06.222-.104.163-.164-.045-.059-.238-.03-.282-.089l-.074-.133c-.045-.044-.074-.044-.119-.015-.059.045-.103.06-.118.06v-.075c-.104.03-.119.075-.06.149l.208.207c.015.015-.015.044-.06.119zm2.86.488l.059.03h.785c.104 0 .178-.015.222-.044a.945.945 0 0 0 .134-.415v-.504a.141.141 0 0 0 .03-.148c-.016-.045-.105-.06-.105-.119.03.015.045.015.045.015.044-.03.06-.089.06-.178 0-.074-.03-.266-.03-.326.044-.074.044-.118.044-.163a.359.359 0 0 0-.06-.192c-.059-.119-.133-.178-.207-.178-.03 0-.044.015-.059.044-.03.075-.06.104-.104.09l-.133-.12H8.88l-.119.03c.015.09-.015.282-.06.578-.014.134-.029.297-.029.504l.148.163c0 .044-.177.193-.222.193H8.48c-.075.014-.104.03-.075.059.134.118.223.207.297.252l-.09.03a.517.517 0 0 0-.355-.178c-.118 0-.34.059-.415.059 0-.074.074-.148.223-.193.044-.015.089-.044.103-.089.03-.044.03-.088 0-.118-.044-.045-.074-.03-.089.044-.014.06-.074.06-.074.06-.044-.045-.074-.06-.088-.06a.624.624 0 0 0-.075.03c-.03 0-.059-.015-.074-.06-.014-.029-.014-.059 0-.073.104-.074.208-.134.297-.163.014-.015.03-.03.03-.045v-.133c-.016 0-.06.044-.134.044-.074 0-.119-.03-.163-.089-.06-.074-.06-.133 0-.177.044-.015.104-.015.178.03v-.016c0-.044-.045-.118-.03-.163 0-.074.282-.177.282-.296 0-.06-.104-.207-.104-.281 0-.06.104-.163.104-.223 0-.133-.09-.178-.104-.252-.015-.103.118-.118.118-.133.015-.104.015-.207.075-.222.103-.015.163-.015.192-.015.09.015.134.03.119.03h1.185c0-.045.03-.074.074-.104.045-.045.074-.03.089.015.044.103.119.133.222.074l.119-.074c.015-.015.074-.015.148 0 .044 0 .104.015.148.03l.045-.03v-.252c0-.045.03-.06.074-.06.059 0 .177.03.237.03.074 0 .103-.03.103-.104 0-.059-.074-.103-.059-.148a.893.893 0 0 1 .208-.163l.03.03c.044-.044.059-.06.073-.06-.044 0-.089-.059-.133-.162-.133-.104-.237-.074-.193-.178.03-.045.06-.06.09-.06.059 0 .147.075.207.075 0-.252-.06-.37-.163-.37-.045 0-.163.073-.223.059-.044-.015-.044-.075 0-.178.06-.06.104-.104.134-.119a.78.78 0 0 0 .148-.222c-.015-.03-.044-.044-.089-.044v.088c-.163 0-.252 0-.267.015-.014.015.015.045.06.09 0 .029-.045.073-.134.133a.157.157 0 0 1-.118-.015l-.163.133c-.074.074-.134.104-.163.089-.074-.03-.06-.089.015-.163.177-.104.414-.193.414-.37 0-.104.134-.163.178-.163l.06.03h.014c.015 0 .104-.03.119-.03.044 0 .104.059.193.177.03-.014.044-.044.03-.103-.134-.178-.282-.178-.268-.282.015-.118.03-.163.03-.148-.074 0-.104-.015-.118-.03-.045-.074.074-.192.133-.148l.193.163c.03-.03.03-.104.014-.222-.014-.104-.03-.178-.03-.237-.118 0-.088.163-.162.163l-.06-.03h-.03l-.177.09h-.015c-.015 0-.044 0-.089-.016h-.074c0-.118.208-.103.282-.237.015-.044.015-.06.015-.074.118-.104.207-.178.281-.222a.33.33 0 0 0 .089-.193c-.015-.03-.03-.044-.074-.044l-.208.03c-.014 0-.014.044 0 .118.015.06 0 .089-.044.089h-.222c-.015 0-.045-.03-.06-.074 0 .015.015 0 .06-.045l.192-.089c.015 0 0-.014-.014-.059 0-.06 0-.089.014-.104.074-.133.119-.207.119-.222a.372.372 0 0 0-.326.178c-.104.163-.178.252-.222.267-.119.015-.297-.015-.282-.134.03-.103.134-.133.297-.103 0-.074.118-.09.133-.09 0-.029-.074-.059-.237-.073-.148-.015-.222-.045-.222-.074.03-.104.059-.193.088-.238.015-.03.045-.03.104 0 .045.015.119.208.237.208.134-.015.222-.03.267-.074a.62.62 0 0 0-.178-.119c-.03-.03-.015-.059.045-.089.044 0 .059.015.074.03.148-.074.237-.163.266-.237.015-.03-.014-.06-.074-.104-.089-.044-.133-.074-.133-.089.044-.044.074-.118.074-.222a.504.504 0 0 0-.148.119c-.015.014-.045.014-.074 0l-.06-.06c-.088-.03-.133-.074-.118-.133 0-.06.03-.193.03-.267-.104 0-.09.193-.134.208-.059.015-.266-.06-.266-.119 0-.044.059-.118.059-.133 0-.015-.03-.015-.104 0-.015.015-.03.074-.074.074l-.06-.03A2.547 2.547 0 0 0 9.429.06c.044 0 0 0-.134.015h-.059c-.044.045-.133.06-.296.06C8.806.058 8.628.03 8.39.043c-.178 0-.312 0-.4.015-.045.015-.074.015-.09.015-.044.03-.029.104.045.208.045.059.104.133.193.207.252.207.37.34.37.415.015.104.015.192-.03.267-.014.014-.03 0-.074-.045L7.768.252C7.665.207 7.62.148 7.635.104 7.65.059 7.591.03 7.487.03a.239.239 0 0 0-.193.089c-.104.088-.148.133-.163.133-.044 0-.133-.193-.237-.178-.163.03-.355.148-.563.37-.104.104-.178.208-.192.282-.015.104.059.133.059.148-.015.015-.03.015-.06 0-.014-.015-.03.015-.044.09-.03.132-.044.207-.044.207v1.14c.03.015.044.09.03.223-.016.089.029.148.118.192-.015.045-.06.06-.148.06l.148.148c0 .015-.148.089-.148.133l.044.045.133.133c.015.015 0 .044-.03.089 0 .015.016.044.045.089.03.03.03.059 0 .074l-.163.074c-.015.06.148.148.104.207-.015.06.104.134.118.134l.09-.03c.044-.015.059 0 .073.03l.09.177h.103a.845.845 0 0 0 .06-.326c-.09-.014-.208-.059-.356-.103-.03-.015-.045-.03-.045-.06l.03-.103c.015-.074.044-.104.089-.104.089.03.133.06.133.089 0 .118-.015.148-.03.104.03.03.06.044.075.044.118.015.192.015.207 0 .045-.06.015-.118-.089-.163-.044-.03-.074-.074-.074-.148s-.281-.148-.34-.252c-.045-.089-.03-.148.044-.178.03-.015.059-.015.074-.015.03.015.044.03.03.06l-.03.074v.03c.074.073.148.118.207.118.148-.015.252-.045.297-.119.089-.133.133-.192.133-.192.118 0 .148.074.104.207l-.074.178c-.015.074.118.193.118.252 0 .118-.148.193-.133.267.074.163.118.296.163.37.015.074.044.06.074-.044.015-.045.03-.119.015-.193l-.045-.445c-.015-.103.015-.326.06-.696.014-.118.03-.178.03-.178.014-.015.044-.015.088 0 .044.03.074.045.089.045h.133c.045 0 .148.192.193.237.104.133.178.133.192.03.045-.534 0-.8.163-.816.223-.014.238.03.238.03h.814v1.156l-.059.06H8.54c0 .103 0 .132.015.118a.206.206 0 0 0 0 .133l.074.178a.215.215 0 0 1-.015.163c-.133.103-.237.148-.311.148a.334.334 0 0 0 .03.237c-.015.03-.075.03-.164.015-.103-.045-.296-.326-.459-.326-.044 0-.06.044-.06.133v.163c0 .03-.088.09-.28.178a.866.866 0 0 0-.149.282c.104.074.148.207.148.37 0 .118-.207.133-.207.237a.949.949 0 0 1 .207.222c.015.03.03.045.015.06-.074.059-.118.103-.163.118-.074.06-.06.133.03.222.059.074.089.148.089.193-.045.193-.178.207-.178.252 0 .015.015.044.044.06.104.073.148.103.148.088 0 .015-.192-.015-.31.178-.016.015.014.044.059.089v.014c0 .045-.03.09-.074.134-.015.015-.06 0-.134-.015-.192-.044-.281-.119-.281-.207-.06 0-.09.044-.09.133 0 .104.016.148.06.148.252 0 .311.193.356.267.074.015.118.03.148.015.103.074-.03.148-.163.148l-.06-.03c-.074-.03-.118-.015-.118.045 0 .074.193.237.252.34.06 0 .104-.014.133-.03.045.016.09.03.134.075.014.03.014.074 0 .118-.06.119-.104.178-.134.178-.044-.044-.089-.207-.163-.207-.133-.015-.163-.03-.222-.104.044.37.06.119.267.474.044.089.103.133.163.133h.503c0-.03.015-.059.03-.088.015-.015.06-.015.104 0l.281.074c.223.014.4 0 .519-.015l.06.03zM6.05 3.305l.03.029v-.03zm.014.533c.104-.045-.074-.045 0 0zm.149 1.703c-.06-.014-.09-.03-.104-.03 0 .075.163.164.178.208.074.104.163.193.266.267.074.06.163.104.237.148.119.074.193.104.223.104.118 0 .163-.03.118-.104l-.222-.178c-.252-.163-.474-.31-.696-.415zm-.074-.71c-.015-.03-.015-.016-.03.044.03-.015.044-.03.03-.045zm.148.473c.059-.014.133.015.207.09.104.103.163.162.193.177.074.03.103 0 .118-.089 0-.104-.015-.178-.03-.192-.044-.015-.073-.015-.088 0-.104-.015-.326-.282-.46-.223-.103.045-.118.03-.118.045zm.133-3.63c-.074.015-.281-.074-.207-.118a.206.206 0 0 1 .133 0c.118.059.148.103.074.118zm-.104.534c-.133-.09-.163-.134-.089-.148.104 0 .178.014.223.03.089.029.103.073.059.132-.045.045-.119.03-.193-.014zm.208 4.874c-.134-.014-.237 0-.252.074 0 0 0 .015.015.06.074.178.163.103.237.237.044.103.089.148.103.148 0-.06.015-.133.03-.207 0-.015.06-.045.06-.09l-.149-.148zm-.178-4.474c0-.03.015-.045.044-.06.045.015.09.06.134.104-.015.03-.045.045-.09.045zm.015 5.497c-.015.015-.015.03-.015.044h.06c-.016-.03-.03-.044-.045-.044zm.133.118h-.03v.045c0 .044.06.074.178.089.045 0 .148-.074.148-.134a.258.258 0 0 0-.103.045h-.03a.45.45 0 0 0-.163-.045zm.178-5.378c.015 0 .015-.03.015-.09 0-.014-.03-.058-.03-.073 0-.045.015-.06.06-.06l.059.045-.03.06v.029c.015.044.03.074.015.089s-.045.015-.09 0zm.118 3.97c0-.014 0-.029-.014-.029a.032.032 0 0 0-.03.03c0 .014.015.03.03.03.014 0 .014-.016.014-.03zm.03-3.096c-.044-.119-.044.074 0 0zm.045 2.845v.03l.03-.03zm.014.133c0 .015.015.045.045.06v-.06zm.015-4.623c-.015-.03-.015-.059.03-.074.044 0 .104.074.104.09l-.03.029a.135.135 0 0 1-.104-.045zm.06.534c-.03-.015-.045-.03-.03-.06 0-.044.015-.059.03-.074.059-.044.118-.03.162.015.104.074-.044.163-.163.119zm0 .578v.03h.03v-.03zm.059 5.2a.032.032 0 0 0-.03-.03c-.015 0-.015.015-.03.03 0 .015.015.03.03.03s.015-.015.03-.03zM6.968 6.52c.06 0 .104-.014.104-.074-.074 0-.104.03-.104.074zm.09-1.378c0 .06.014.09.044.104v-.104zm.029 2.46c-.045-.06-.03-.119.044-.163.06-.044.09-.03.104.044 0 .074-.015.119-.03.134-.044.044-.089.044-.118-.015zm.03-2.919l-.015-.015a.28.28 0 0 0-.03.119c.06-.045.074-.074.044-.104zm.014.622a.032.032 0 0 0-.03-.03c-.014 0-.014.016-.029.03 0 .015.015.03.03.03.014 0 .03-.015.03-.03zm.178 1.838c-.133.044-.252-.03-.207-.149.014-.044.059-.074.103-.059.045 0 .09.06.134.06l.059-.03.03.044c0 .06-.045.104-.119.134zm-.178-2.875l.148.163h.045c0-.074-.119-.222-.193-.222zM7.25.46c-.015-.044 0-.089.044-.133.03-.03.045-.015.06.06.074.103.133.192.192.236.119.119.208.208.267.282.015.044.074.118.074.178l-.045.044A.535.535 0 0 1 7.65.963C7.487.8 7.339.637 7.339.578c.014-.06.014-.089 0-.089-.045-.015-.074-.015-.09-.03zm.074 7.142c-.045-.104-.045-.163 0-.193.074-.059.118-.103.118-.163.015-.118.06-.133.163-.044a.282.282 0 0 1 .074.193c-.059.088-.103.162-.118.207v.03l.03.03c0 .118-.045.236-.149.162-.044-.044-.074-.118-.118-.222zm.104-.756c-.045.015-.06.015-.075 0 .015-.03.03-.059.06-.089.074-.118.133-.133.192-.059.015.015.03.06.045.119.015.074 0 .103-.03.118s-.089-.015-.163-.089zm-.06-5.482a.112.112 0 0 1 .06-.03l.088.09c-.014.029-.03.044-.044.044zm.09 6.786c-.045 0-.06-.03-.06-.074s.015-.06.06-.06c.044 0 .073.016.073.06 0 .045-.03.074-.074.074zm-.03-2.83c0-.044.014-.074.03-.089.029.015.044.045.044.119a.113.113 0 0 1-.074-.03zm-.015.934c-.015-.045-.015-.074.03-.09.029-.014.059-.014.103 0a.134.134 0 0 1 .089.09c.044.074-.03.148-.104.133-.044-.015-.074-.06-.118-.133zm.059 1.97c.015 0 .03.015.044.03 0 .06-.014.089-.059.089 0-.045 0-.09.015-.119zm-.015-3.245c0-.03.015-.044.045-.03.014 0 .03.016.03.03 0 .045-.03.06-.075.06zm.104.86c-.074 0-.104-.045-.104-.148l.03-.03c.044 0 .074.06.074.178zm.133-2.667c.03.03.06.044.074.03.015-.015.03-.015.03-.015l.178.177.148-.089c-.119-.088-.178-.163-.178-.237-.281-.103-.385-.192-.43-.192 0 .118.06.222.178.326zM7.62 7.097c-.044-.015-.104-.03-.06-.074.016-.015.03-.03.06-.03zm.03-1.733c-.06-.045-.074-.09-.074-.134.044 0 .074.045.074.134zm-.015-1.882c0 .044.044.118.133.222.134.163.208.237.223.237.044 0 .059-.044.044-.148-.015-.133-.03-.207-.03-.222-.03.03-.059.044-.088.03l-.238-.12zm.133.948c-.03-.015-.044-.03-.044-.074.089 0 .133.03.133.074zm-.014.578c-.03-.03-.03-.06 0-.104.014-.03.044-.044.088-.03.104.03.149.104.149.223a.313.313 0 0 1-.237-.089zm.014 1.022c-.074-.044-.074-.089-.014-.118.044-.015.088-.015.148.03.089.074.089.103.015.118-.075.015-.119 0-.149-.03zm0 .563a.303.303 0 0 1 0-.163c.015-.074.045-.088.09-.044l.059.06c.044.088.059.147.014.162-.059.015-.103.03-.118.015-.03 0-.045-.015-.045-.03zm.015-1.052c-.044-.074-.044-.133 0-.148.074-.015.252.134.148.178-.074.015-.118.015-.148-.03zm.06 2.682c.059 0 .088.03.074.074-.03.06-.06.06-.075-.014zm.207-6.86c-.015-.044 0-.074.015-.089.074-.015.133.03.148.163a.152.152 0 0 1-.074.09.604.604 0 0 1-.09-.164zm.06 3.897c-.045-.074-.03-.119.014-.163.074-.06.178.148.133.193-.059.044-.103.03-.148-.03zm.295-.237c-.163-.119-.296-.267-.281-.37.015-.06.044-.075.104-.03.044.044.089.089.118.104.03.044.06.03.074-.045.045-.133.09.148.09.222.014.074.147.193.147.267-.044 0-.133-.044-.252-.148zm-.222-1.615c-.015.06.015.089.09.089 0-.045-.03-.134-.03-.178-.015 0-.045.03-.06.089zm.178 3.037c0 .074.015.134.03.148v-.148zm.06-.148l-.03.03h.03zm0-2.148c.103 0 .118.044.059.133-.03.06-.045.03-.06-.074zm.029-2.46c.044 0 .074.015.089.03-.045.059-.09.089-.119.089 0-.06.015-.104.03-.119zm-.03 4.978v.06h.03v-.06zm.03.475v.03h.03v-.03zm.089-5.26c-.015-.045.03-.074.104-.074 0 .03-.015.059-.03.089-.03.014-.06.014-.074-.015zm.06 4.83c-.06-.119-.06.074 0 0zm.162-2.86c0-.014.015-.03.03-.03s.015.016.015.03c0 .015 0 .015-.015.03a.032.032 0 0 1-.03-.03zm.207 3.6l.03-.029.03.03-.03.03zm.549-1.022c-.104-.044.103-.044 0 0zm.044-4.874a.081.081 0 0 1 .074-.045c0 .03-.015.06-.044.074zm.09-.09c0-.029.014-.058.044-.073l.03.03a.081.081 0 0 1-.075.044zm.073 1.26c-.015-.03 0-.044.03-.059.015-.015.044 0 .059.03 0 .03-.015.044-.03.059-.03.015-.044 0-.059-.03zm.089 2.045c-.015 0-.104 0-.089-.06 0-.029.015-.044.045-.044s.044.03.044.104zm.074-1.185c.06-.015.104.014.148.118.015.015 0 .03-.015.06-.088.133-.163.192-.207.177-.044-.03-.06-.118-.06-.281 0-.045.045-.06.134-.074zm-.074 4.563c-.015-.03 0-.044.03-.06.014-.014.044 0 .059.03 0 .015-.015.03-.03.045-.03.015-.044 0-.059-.015zm.104-3.793c-.06.045-.06-.044-.06-.089h.075c0 .045 0 .074-.015.09zM9.887.533c0-.059.03-.118.089-.133.044-.015.06 0 .074.03.015.074-.03.103-.163.103zm.074 7.009c-.015-.074.03-.104.163-.104 0 .044-.03.074-.074.104-.044.044-.074.044-.089 0zm.09-2.653c.014-.014.029-.014.044-.014.03 0 .074.059.133.177h-.252c0-.059.03-.118.074-.163zm.029-3.348c.015-.03.044-.03.089 0 .044.03.044.06.03.089-.045.06-.104.089-.193.089 0-.074.03-.134.074-.178zm-.03 4.845c.015-.015.03-.03.045-.03.059 0 .088.06.103.178.015.074-.059.104-.192.104 0-.104.014-.178.044-.252zm-.03-2.356c-.014-.03.015-.074.075-.133.014-.015.044-.015.074 0l.118.133a.134.134 0 0 1-.089.089c-.089 0-.148-.03-.178-.089zm0 .519c-.014-.06.06-.193.104-.193.015 0 .03.015.045.03.044.074.074.103.089.089.044-.119.03-.223.163-.208.059.015.103.03.133.074.104.104-.193.237-.148.237h-.356c-.015 0-.015-.014-.03-.03zm.06-1.645c.044-.044.074-.015.089.089.014.03-.03.044-.134.044 0-.059.015-.103.045-.133zm-.015.682c-.06-.06-.03-.149.104-.252l.148-.134.074-.118c.044-.045.074-.045.074.03.015.118-.089.222-.074.281.015.044.015.074.015.074 0 .045-.045.074-.148.119-.104.03-.163.03-.193 0zm.015-1.126l.03-.03.029.03-.03.03zm.059-.282c0-.015.015-.03.03-.044.014 0 .03.014.03.044zm0-1.719l.03-.03.03.03-.03.03zm0 4.208c.015-.044.044-.044.074-.015.03.03.03.06-.015.075zm.119-2c0-.015.03-.06.074-.104.014-.015.03-.015.044-.015.015.015.03.015.03.03l-.119.119zm0 3.57v.03h.03zm.03-1.392c-.016-.074 0-.118.014-.133.015-.045.044-.045.074.03.015.044.015.088-.015.118-.044.06-.059.06-.074-.015zm0-4.075c-.016-.044.014-.074.073-.074.074-.014.104 0 .104.03a.282.282 0 0 1-.148.074zm.044 1.334c.014-.015.03-.03.059-.03-.015.03-.03.045-.06.03zm.074.622c0-.044.03-.059.03-.059 0 .03-.015.044-.03.06zM10.509 4c-.059 0-.074-.044-.074-.103.045 0 .074.03.074.103zM10.495.104l-.06.03h.06zm.03 2.207c-.016-.074.029-.103.103-.103a.25.25 0 0 1 .148.044c.045.015.045.045 0 .074 0 .015-.044.015-.118.015h-.104l-.03-.03zm.073 1.927a.081.081 0 0 1-.044-.075c0-.03.06-.088.163-.192.104-.015.163.015.163.104 0 .103-.178.266-.282.163zm.074-3.364c.09-.044.134 0 .134.134h-.237c0-.045.03-.09.103-.134zm-.03 3.556c.134 0 .312.104.208.148-.074.015-.118.03-.148.015-.044-.015-.074-.044-.06-.104zm.016-2.415c-.104-.044.103-.044 0 0zm.044.83c-.06-.074-.044-.119.03-.148.044-.015.103 0 .148.044.015.015.015.03.015.045 0 .074-.045.103-.134.103-.03 0-.044-.015-.059-.044zm0 .192c0-.059.044-.074.104-.074 0 .045-.03.074-.104.074zm.044 2.06c.015.03.03.044.075.044-.015-.03-.03-.044-.075-.044zm.03-4.786c-.015.074.03.104.148.104a.168.168 0 0 0-.044-.119c-.045-.03-.074-.03-.104.015zm.296.963c-.014.015-.03.015-.03.03s.016.03.03.03a.045.045 0 0 0 .06 0c.015 0 .03-.015.03-.03s-.015-.015-.03-.03zm.06 2.386c.015.044.03.059.059.059.074-.06.148-.163.148-.119v-.059c-.044 0-.118.045-.207.119zm0-3.112v.03h.03v-.03zm.059.46a.417.417 0 0 0 .074.163l.104-.075v-.03a.393.393 0 0 0-.09-.073c-.044-.03-.073-.03-.088.015zm.03-.341V.74h.03V.667zm.044 2.193c-.044-.104-.044.103 0 0zm.015-1.334v.03h.06v-.03zm.044 1.393c-.044-.104-.044.104 0 0zm-.014-.697v.03l.03-.03zm.059-1.007c0-.015-.015-.015-.03-.03-.015 0-.015.015-.015.03s0 .03.015.03.03-.015.03-.03zM13.016 8.386c-.015.045.044.06.192.06h2.92c0-.119.029-.149.103-.09.044.075.044.12.118.12V7.6 6.327c-.03-.045-.059-.074-.074-.119h-.859c-.074.074-.148.09-.222.045-.074-.015-.134-.03-.178-.03-.163-.015-.311-.015-.474-.015a.458.458 0 0 1-.193-.03v-.666c-.074-.045-.103-.074-.118-.104 0-.03.03-.06.074-.074.015-.015.03-.044.03-.104v-.296s-.03.015-.104.03c-.045.014-.09.014-.104-.015-.044-.06 0-.104.119-.134.059-.014.088-.074.088-.163v-.474l-.088-.089.088-.088c0-.341-.014-.92-.044-1.764-.015-.74-.03-1.318-.03-1.748 0-.089 0-.178.015-.267 0-.074-.015-.133-.03-.148h-2.163v1.141c.015.044.03.074.03.119a1.16 1.16 0 0 0-.03.31v.297c0 .044.104.074.119.089.015.044-.015.104-.06.178-.118.192-.118.326 0 .4.045-.09.104-.119.164-.09.074.045.044.105-.09.179-.073.044-.103.059-.103.044v.578c.104 0 .148.03.148.089 0 .015-.015.03-.03.06l-.118.132v.549c.044.044.06.074.06.103 0 .074-.075.267-.06.4 0 .075.015.104.06.104.088.015.118.03.073.074-.103.119-.148.119-.133.311 0 .074 0 .149.015.223.015.118.015.177.03.192.044.045.044.09.014.134-.015.044-.03.059-.03.044v.533c.075.015.104.06.075.119a1.37 1.37 0 0 1-.074.133v.593c.014.015.03.044.03.074 0 .06-.045.148-.03.208a1.3 1.3 0 0 0 .237.651c.059.045.103.09.148.104.06.045.104.09.118.134.03.014.074.014.119 0 .06-.03.089-.045.104-.045.044 0 .059.03.074.089l.103-.06c.015.016.015.03.015.06zM12.2 1.852c0-.044.03-.074.089-.118.044.014.059.044.015.103-.015.015-.045.03-.104.015zm.089 4.964c.044-.015.074-.015.089 0 .014.074-.03.133-.193.133 0-.044.03-.089.104-.133zM12.23 4c-.03-.03-.03-.044-.014-.059.03 0 .059.015.074.03 0 .03-.015.044-.06.03zm0 3.171c.045 0 .06.015.06.06zm.06-3.985c-.074-.015-.074-.06 0-.134.044-.044.103-.059.178-.044.074.015.074.06 0 .133-.045.045-.104.06-.178.045zm0 2.948c-.015 0-.03-.015-.045-.03 0-.088.06-.133.163-.133.015 0 .03.015.03.045 0 .118-.045.163-.148.118zm.015-1.54c.014-.016.03-.03.059-.03-.015.014-.03.03-.06.03zm.014.68l.03-.029.03.03-.03.03zm0 2.386l.03-.03.03.03-.03.03zm.03-5.349h.03v.03zm.044 2.178c-.03-.044-.03-.074.015-.088.045-.015.074-.015.104 0 .044.03.03.059-.015.103-.044.03-.089.03-.104-.015zm.015.623c-.074-.015-.074-.03 0-.045a.045.045 0 0 1 .06 0c.014 0 .03.015.03.03s-.016.015-.03.015a.045.045 0 0 1-.06 0zm-.03 2.282c0-.104.045-.163.149-.163.015.014.03.03.03.044 0 .104-.045.163-.149.148zm.12-3.72c-.03 0-.045-.014-.06-.03.015-.014.015-.029.03-.029.014.015.03.03.03.06zm-.06 2.86h.163c0 .045-.06.074-.163.074zm.089-.74c-.03 0-.045-.016-.045-.045 0-.015.015-.03.045-.03zm-.015-2.95c-.03-.014-.03-.044 0-.088.015-.045.044-.06.074-.06.045 0 .074.03.06.104 0 .074-.045.09-.134.045zm.06 1.542c-.12-.045.103-.045 0 0zm.014.578c-.015 0 .015-.045.089-.119.015-.015 0-.044-.03-.089v-.044c.06 0 .09.03.09.103 0 .134-.045.178-.149.149zm0 2.933c-.074-.015-.074-.044 0-.059h.074c.074.015.074.044 0 .06-.03.014-.06.014-.074 0zm.045-3.615c0-.074-.045-.133-.045-.178 0-.104.089-.148.267-.148 0 .222-.074.326-.222.326zm-.03-.74c.015-.03.03-.045.06-.045-.016.03-.03.044-.06.044zm0 2.933c0-.015 0-.015.015-.03l.03.03c0 .015-.015.03-.03.03s-.015-.015-.015-.03zm.044.607c-.074-.014.06-.163.163-.163 0 .134-.059.193-.163.163zm.03-.844c-.015-.045-.015-.09 0-.119-.03-.059-.03-.089.015-.089.074-.014.133.015.163.074a.464.464 0 0 1-.119.163c-.015 0-.03-.014-.059-.03zm.03-2.934c-.015 0-.015-.015-.03-.03 0-.014.015-.014.03-.03.014-.014.044-.014.074 0 .015 0 .015.016.015.03 0 .015 0 .03-.015.03-.03.015-.06.015-.074 0zm.03 4.504a.045.045 0 0 1 0-.059l.118.089c.03.015.044.03.03.044-.015.015-.045.03-.06.015zm.044-2.4c-.045.104-.045-.074 0 0zm.074-.77c-.015 0-.06-.015-.06-.06h.06zm-.06 2.874h.06l-.03.03zm.134-2.208c-.074 0-.104-.03-.104-.103.074 0 .104.03.104.103zm-.074-1.481c-.015-.015-.015-.015-.015-.03s0-.03.015-.03c.015-.014.044-.014.074 0 .015 0 .015.015.015.03s0 .015-.015.03zm.044 2.904c-.074-.015-.06-.045.015-.09.044-.029.089-.044.104-.029.044.015.044.045 0 .09-.015.014-.06.029-.119.029zm0-.963c-.015-.074.015-.119.09-.104.103.015.132.074.103.148-.03.089-.074.133-.119.133-.044 0-.059-.059-.074-.177zm.045-1.304c-.03-.03-.03-.06.014-.074.03-.015.06 0 .075.03.03.029.03.059-.015.073-.015 0-.045-.014-.074-.03zm-.03 2.934c.044 0 .06.014.06.044.014.03-.016.044-.06.044zm.34.651c-.073.045-.133-.03-.147-.088-.015.044-.045.074-.09.074-.059 0-.073-.03-.059-.074.03-.06.09-.09.178-.09.119.015.178.045.178.075 0 .044-.015.089-.06.103zm-.251-2.963c-.015 0 0-.03.015-.074.044-.133.089-.163.163-.118.059.044-.074.237-.178.192zm.03-.77c-.045-.045-.045-.09 0-.149.044-.059.088-.088.133-.088 0 .177-.03.266-.074.266zm.03 2.874c-.016-.015-.03-.03-.03-.044h.103c0 .074-.03.089-.074.044zm0 .37c0-.014.014-.03.058-.03-.014.016-.03.03-.059.03zm0-1.303c0-.06.029-.134.103-.134.044-.015.06 0 .06.045 0 .059-.06.089-.164.089zm.058.133c-.014 0-.014-.015-.014-.03l.118-.059.03.03c-.03.059-.074.074-.134.059zm.015.696c0-.014.015-.014.03-.03.015 0 .015.016.015.03 0 .015 0 .03-.015.03a.032.032 0 0 1-.03-.03zm.223-1.615c-.163 0-.163-.014-.178-.059 0-.015.015-.044.059-.06.044-.014.074-.014.089 0 .015.016.03.06.03.12zm-.134-.71c-.06-.016-.06-.03-.015-.06.015-.015.045-.015.104 0 .06.015.06.03.015.06-.015.014-.06.014-.104 0zm.119 2.088c-.104.015-.178-.133-.119-.148.045-.015.178.133.119.148zm-.06.845c-.044 0-.088-.03-.088-.045 0-.074.059-.118.177-.118 0 .104-.03.163-.089.163zm.06-3.082c-.03-.03 0-.06.074-.104.044-.03.074-.015.074.03 0 .015-.03.044-.074.089-.015.015-.045.015-.074-.015zm0 1.319c-.015-.015-.03-.03-.03-.045 0-.044.06-.074.193-.074 0 .074-.09.178-.163.119zm.015.089c-.045.103-.045-.104 0 0zm.044-.77c-.015-.016-.03-.03-.03-.045.015-.015.03-.03.045-.03s.044.03.074.074H13.4zm-.015 1.97c-.03-.015-.03-.03.015-.074.044-.045.074-.045.089 0-.045.074-.074.103-.104.074zm.03-.474c-.104-.045.074-.045 0 0zm.148-.282c-.06 0-.133-.015-.133-.074-.015-.03 0-.044.03-.06.073-.014.103.03.103.134zm-.044-1.333c-.03 0-.045-.015-.045-.03 0-.03.015-.045.045-.045zm.044 2.489c-.044.118-.044-.104 0 0zm-.015-2c.015-.223.06-.312.133-.252.045.044.06.074.075.118.014.045-.03.104-.134.178-.044.03-.059.03-.074.015zm.06 2.622c-.03 0-.045-.015-.045-.03 0-.03.015-.044.044-.044zm-.03-1.067c.03-.059.06-.059.089 0-.015.03-.045.045-.09.045zm.074-.207c-.06-.045-.089-.09-.074-.104a.045.045 0 0 1 .06 0c.029.015.088.03.192.03 0 .074-.015.103-.06.103a.115.115 0 0 1-.118-.03zm-.03-2.667c-.074-.06.03-.134.148-.134 0 .134-.044.178-.148.134zm0 .711c-.103-.044.074-.044 0 0zm.015 2.8c-.074-.014-.074-.044 0-.059h.074c.015.015.015.015.015.03s0 .03-.015.03c-.03.014-.06.014-.074 0zm.074-3.037c-.044-.044.074-.163.148-.163.06 0 .09.03.09.074 0 .045-.03.089-.105.104-.059.015-.103.015-.133-.015zm0 1.304c-.044-.015-.044-.045 0-.09a.186.186 0 0 1 .133-.014c.06 0 .06.03.015.089a.114.114 0 0 1-.148.015zm.045 1.333c-.015-.014-.03-.03-.03-.074.015-.015.044-.015.089-.03.163-.044.252.06.207.12-.015.044-.03.058-.074.058-.06 0-.118-.03-.192-.074zm0-2.311c.044 0 .059.015.059.03 0 .014-.015.03-.06.03zm.103.193c-.03-.03-.044-.045-.03-.06l.075-.044c.089-.045.133-.045.133.015 0 .014-.03.044-.074.089-.03.014-.06.014-.104 0zm.074 1.303c-.089-.014-.103-.044-.044-.088a.19.19 0 0 1 .148-.06v.163c-.03 0-.06 0-.104-.015zm-.089 1.275c0-.03.015-.045.03-.06.03-.014.045 0 .06.03.014.03 0 .044-.03.06-.015.014-.045 0-.06-.03zm.163-2.09c-.014-.014-.03-.03-.03-.059 0-.074.06-.103.164-.103.03 0 .044.014.044.03 0 .073-.103.177-.178.132zm-.014 2.608c-.074-.015-.074-.044 0-.059.03-.015.059-.015.074 0 .015 0 .015.015.015.03 0 .014 0 .014-.015.03-.015.014-.045.014-.074 0zm.03-3.926c-.03-.03 0-.074.073-.134.074-.044.119-.044.119.03 0 .015-.03.045-.104.104-.015.03-.044.03-.089 0zm.073 3.482c-.03 0-.044-.015-.059-.045 0-.015.015-.03.06-.03zm.045-1.719c-.045.104-.045-.074 0 0zm.03.711c.044 0 .074.03.074.074-.015.104-.03.119-.075.06l-.044-.075zm-.03.622c.015-.014.03-.03.06-.03-.016.016-.03.03-.06.03zm.044.193c.045 0 .074.015.09.03-.016.03-.045.044-.09.044zm.104-1.007c-.044-.015-.044-.045 0-.06.03-.015.06-.03.089-.015.03.015.03.045 0 .06-.03.03-.06.03-.089.015zm.044.8h.03v.03h-.03zm.237.177c-.03-.014-.03-.03 0-.059l.06.06h-.06zm.06-1.363a.112.112 0 0 1 .059-.03c-.015.03-.03.045-.06.03zm.059.504c.03-.06.06-.06.089.015-.015.03-.045.044-.089.044zm.296-.326h.03v.045h-.03zm.163.548c-.044 0-.059-.014-.074-.059 0-.044.015-.06.06-.06.03 0 .044.016.059.06.015.045 0 .06-.045.06zm.015 1.29c-.044.103-.044-.075 0 0zm.222-.327c-.074-.014-.074-.03 0-.044a.045.045 0 0 1 .06 0c.074.015.074.03 0 .044a.045.045 0 0 1-.06 0zm.03-1.289c-.044-.014-.044-.03 0-.074s.074-.059.104-.059c0 .104-.03.148-.104.133zm.089.445h.03v.03h-.03zm.118-.815h.03v.03h-.03zm.178.519c-.044-.015-.044-.045 0-.09.045-.044.074-.073.104-.059.044.015.044.06.015.119-.015.03-.06.044-.119.03zm0 1.274h.074c0 .044-.03.06-.074.06zm.119-.785c.044-.045.074-.09.118-.119.045.044-.074.178-.118.119zM17.075 8.371c-.015-.014-.044-.014-.059-.014 0 .074.015.103.06.103.059 0 .059-.03 0-.089zm.015-.4c.119.37.163.282.311.4.119.104.178.119.193.045.015-.03-.045-.104-.148-.208v-.03c.03-.073.074-.118.133-.118.089.015.148.045.178.09.074.118-.133.162-.133.325.103 0 .281-.192.385-.192 0 .133.059.192.163.192 0 0-.015-.044-.03-.118-.015-.06-.015-.104.03-.119.103-.044.192-.074.266-.089-.03-.104-.014-.148.045-.148.015 0 .03.015.06.044l.132.134c-.014.133 0 .207.06.237.03.015.103.015.222.015l.207-.09V8.12c0-.06 0-.09.015-.075-.015-.014-.03-.044-.015-.059.045-.03.06-.06.06-.074v-.489c-.06-.074-.074-.148-.06-.222 0-.015.075-.089.06-.133l-.06-.119c-.014-.06.09-.178.09-.281V5.29h-.06c-.044-.06-.089-.119-.118-.193h.03l.118.03c.015 0 .015 0 .03.014 0-.103-.015-.414-.06-.459-.044-.074-.06-.104-.044-.118 0 0 .014 0 .059.014l.044-.03c0-.133-.044-.207-.118-.207-.015 0-.03.015-.045.045-.03.074-.059.089-.103.074-.045-.045-.074-.074-.09-.119-.014-.015.045-.044.149-.059.104-.03.163-.119.148-.267.06-.03.089-.059.089-.089h-.237c-.045 0-.133-.148-.133-.163 0-.074.177-.059.177-.074.09-.044.119-.103.09-.177-.016-.075-.075-.119-.164-.119a.336.336 0 0 1-.044.193c-.06.044-.119.059-.178.03-.044-.03-.074-.09-.089-.164 0-.059.267-.074.208-.207-.015-.045-.06-.074-.163-.074.014 0-.075.118-.134.133-.06.03-.103.015-.148-.044l-.06.059v.207c.164.045.238.119.238.193 0 .044-.03.074-.104.089h-.104l-.207-.222c.015-.015-.06-.074-.193-.193-.044-.044-.059-.089-.044-.133 0-.015.03-.09.03-.104 0 0-.03.015-.104.06-.06.029-.09.029-.104 0-.03-.045-.089-.075-.193-.075 0-.015.015.03.03.148.015.06 0 .09-.06.09-.118.014-.295-.134-.37-.134 0 .06.045.118.045.133l-.03.178v.03c.119.03.237.118.356.252-.015.044-.074.059-.163.059-.133-.074-.237-.163-.282-.252l-.059.148c-.015.104.06.148.06.222l-.06.06v.489s.237.118.237.222c0 .074-.03.089-.104.074-.014 0-.088-.06-.133-.06v.327c0 .044.148.103.148.163 0 .074-.059.103-.163.103 0 .045.03.074.074.104-.074.06-.089.133-.03.237.016.089.016.148 0 .178.104-.045.208-.015.297.089.03.044.045.074.03.118-.015.045-.06.06-.119.045-.015 0-.118-.134-.163-.134-.03 0-.06.045-.104.149 0 .014 0 .044.015.088-.015-.044-.015 0-.015.134v.46l.03.029c.074.074.133.118.178.148 0 0 .148.06.148.118l-.03.06v.015c0 .059.149.088.149.163 0 .103-.06.133-.163.088-.134-.222-.104-.355-.163-.31-.119.014-.163.014-.163.059.044.163.089.281.118.34.015.015 0 .06-.03.104-.044.089-.059.193-.044.296zm.208-6.134c.074-.015.148.03.222.148.074.119.133.193.148.208l.178.089c.059.074.118.103.178.103.118-.044.163-.088.133-.133-.015-.06-.208-.06-.222-.133-.015-.045 0-.09.044-.119a.111.111 0 0 1 .133 0c.045.045.06.09.075.119.177.163.296.252.34.266.104-.059.163-.34.208-.34.103 0 .163.34.281.34.163-.118.237-.207.237-.266-.103 0-.177-.015-.222-.045-.044-.044-.03-.089.03-.133.133-.104.192-.178.192-.237 0-.03 0-.045-.014-.06-.104-.073-.267-.162-.208-.236.06-.06.104-.104.148-.134.06-.118-.118-.237-.044-.34 0-.015.089-.045.089-.09A2.192 2.192 0 0 0 19.12.46c-.03-.089-.044-.133-.06-.133-.044 0-.044.089-.103.044a.265.265 0 0 1-.148-.133c-.015-.015-.015-.03-.03-.03h-.044l-.148.149a1.112 1.112 0 0 0-.208-.119c-.118-.074-.163-.118-.133-.133l-.222.089a.58.58 0 0 1-.193.044l-.148-.06h-.015c.06 0 0 .03-.178.075-.044 0-.089 0-.104-.015l-.03.03c-.073.133-.118.192-.118.207.015.045.015.074 0 .089-.044.015-.074.074-.074.178l.045.074v.281c.059 0 .148-.074.163-.059.103.089-.282.193-.282.326.045 0 .074-.015.089-.044v.474c-.044 0-.06.015-.06.03-.014.044 0 .059.03.074.045.014.104-.015.149-.06zm-.06.163c-.059 0-.163-.015-.118.148.015.074.03.134.059.149.104.103.193.103.296.014.045-.03.06-.074.03-.133a.23.23 0 0 0-.119-.089h-.148zm-.074 4.623c-.074-.074-.089-.118-.03-.148a.251.251 0 0 1 .149 0c.044.03.074.06.074.104 0 .059-.03.089-.104.089-.044 0-.074-.015-.089-.045zm-.015-2.4c-.014-.045.015-.06.09-.06.118-.014.192 0 .177.104 0 .045-.015.09-.06.104-.029.015-.103-.045-.207-.148zm.015-.89c.104-.044-.104-.044 0 0zm.045 4.52c-.03-.104-.015-.148.059-.148.089 0 .148.044.178.133.03.089 0 .133-.074.133-.074.015-.134-.03-.163-.118zm.118-6.386c-.015-.045-.015-.074 0-.104.015-.015.045-.03.09-.015a.674.674 0 0 1 .132.104c.06.06.03.104-.088.119-.06.014-.104-.03-.134-.104zm.015 4.163c-.015-.014-.015-.044-.015-.074 0-.059.03-.089.09-.089.044 0 .073.015.103.06.044.074.044.118-.015.133-.074.03-.133.015-.163-.03zm.178 1.349c-.074 0-.09-.074-.134-.149.015-.03.045-.044.09-.044.133 0 .192.03.192.089 0 .074-.044.104-.148.104zm-.074-1.852c-.074-.075-.074-.134 0-.149.133-.03.192 0 .192.104 0 .045-.03.06-.074.074-.044.015-.089.015-.118-.03zm.015 1.23c0-.045.014-.09.03-.104.192 0 .28.059.251.163-.015.074-.06.103-.133.059-.06-.015-.104-.06-.148-.119zm.03-3.201c-.045-.119-.045.074 0 0zm0 1.422c-.045-.044-.045-.089 0-.133.014-.015.058-.015.133 0 .074.03.103.104.103.222-.103 0-.192-.03-.237-.089zm.058-.548c-.118-.044.104-.044 0 0zm.03 1.837c-.015-.044-.015-.088.03-.103.074-.015.237.015.252.089.03.088-.015.133-.134.133-.059 0-.103-.045-.148-.119zm.03-3.496c-.045-.119-.045.074 0 0zM17.594.296c.015-.044.03-.059.074-.03.015.016.03.045.03.09h-.104zm.044 7.483c-.044-.074-.044-.119 0-.163a.356.356 0 0 1 .178 0c.074.03.074.074 0 .148s-.133.074-.178.015zm.03-3.63c-.045-.015-.06-.045-.045-.09.015-.059.03-.088.06-.103.074-.015.148.089.148.163 0 .06-.06.074-.163.03zm-.03-2.371c-.015-.015-.015-.044-.015-.06.045-.059.075-.073.119-.044l.133.09c0 .058-.03.088-.103.103-.06.015-.104-.015-.134-.089zm-.015 1.763c0-.06.015-.089.045-.104.104-.014.281.03.267.149-.015.089-.09.133-.208.148-.06.015-.089-.06-.104-.193zm.178 1.926c-.103-.014-.148-.089-.148-.192.193 0 .267.044.237.133-.015.045-.044.074-.089.06zm-.044 1.778c-.045-.059-.074-.103-.06-.118l.045-.09c.074-.044.207.045.207.12 0 .074-.044.118-.118.118a.113.113 0 0 1-.074-.03zm0-5.926c-.074-.074-.09-.134-.015-.148.148-.045.222-.015.222.088 0 .045-.03.074-.089.09a.115.115 0 0 1-.118-.03zm-.015 5.274V6.58c.163 0 .34.059.237.177-.044.045-.089.045-.133 0-.045-.044-.09-.089-.104-.163zm.015-1.733c-.015-.03-.015-.06-.015-.104.015-.015.044-.015.089 0 .104.015.163.06.178.104.044.074 0 .118-.104.118-.06 0-.104-.044-.148-.118zm.06-4.771c-.045-.104-.045.104 0 0zm0 4.237c-.045-.103.014-.103.118-.103.103 0 .163.059.177.163.015.103-.03.148-.163.148-.03 0-.074-.074-.133-.208zm.177 3.794c-.074-.06-.133-.075-.133-.149.014-.044.03-.059.059-.059.104-.015.178 0 .207.045.104.163-.133.163-.133.163zm-.089-1.882c-.074-.074-.089-.134-.015-.163.119-.06.311.148.193.192-.074.03-.134.015-.178-.03zm.015-2.386c-.06-.103.06-.148.104-.148l.163.134c.088.088.059.133-.075.148-.074 0-.148-.045-.192-.134zm.044 3.705l.03-.03v.06zm.03-1.867a.158.158 0 0 1 .044-.074c.134 0 .178.03.163.103-.014.045-.059.06-.103.045-.045-.015-.09-.03-.104-.074zm.089-4.03c-.045-.03-.045-.075 0-.12.044-.044.074-.044.118-.029.045.015.06.045.06.074 0 .06-.045.09-.119.09-.03 0-.044 0-.06-.016zm-.03-1.304h.03v.03zm.045 4.86c-.09-.075-.09-.134-.015-.149.044-.015.104 0 .163.045.104.074.104.118.015.133-.06.015-.119.015-.163-.03zm-.015 2.34h.03v.03h-.03zm.089-.651c.03-.045.074-.045.118 0 .045.03.045.074.015.118-.015.045-.074.06-.178.06 0-.09.015-.149.045-.178zm0-2.208a.158.158 0 0 1-.045-.074c0-.045.015-.06.045-.06.089-.014.148-.014.178.03.044.074.044.119-.015.148-.045.03-.09.015-.163-.044zm.03-.548c-.06-.119.044-.148.118-.134.163.104.237.193.192.237-.014.03-.059.045-.118.06-.074.014-.133-.045-.193-.163zm.014 3.363c-.118-.06.074-.06 0 0zm.178-1.082c.044.03.044.06 0 .104a.135.135 0 0 1-.104.045l-.03-.03zM18.29.296c0 .03-.015.045-.03.06zm.015 7.572a.135.135 0 0 1-.044-.104c.074-.015.148-.03.222-.03.044 0 .06.03.044.074 0 .045-.014.074-.044.09-.074.044-.133.029-.178-.03zm0-4.371c0-.015 0-.03-.015-.03s-.015.015-.03.03c0 .015.015.03.03.03s.015-.015.015-.03zm.015-1.57c-.06-.06-.06-.12 0-.164.074-.044.207.045.207.119 0 .044-.03.059-.074.074-.059.015-.103 0-.133-.03zm-.015 1.288c.104-.044-.074-.044 0 0zm.06 4.149c-.104-.104-.104-.148-.015-.148h.237c.03 0 .044.03.044.074l-.044.089c-.09.044-.163.044-.223-.015zm-.045-1.319a.275.275 0 0 1 .178-.104c.074.045.059.09-.045.149-.044.014-.089 0-.133-.045zm.03-4.697c-.015-.044.014-.074.059-.089.104-.014.252.045.207.149-.015.088-.059.103-.133.044-.089-.06-.133-.089-.133-.104zm.059 5.527c-.06-.074-.06-.133-.015-.163.06-.03.119-.015.178.03l.044.088c.015.045 0 .075-.03.09-.103.014-.162 0-.177-.045zm0 1.54v.045c.03 0 .044-.015.06-.044zm.044-.207c0 .06.015.09.06.09.044 0 .059-.03.059-.09zm.015-2.637c0-.133.045-.237.104-.178.03.03.044.06.044.104s-.044.074-.148.074zm.015-1.082c-.015-.014-.015-.044 0-.088.015-.045.03-.045.06-.015l.103.074c.015.015.044-.015.089-.06.044.03.059.06.059.104 0 .045-.03.06-.074.074-.104.03-.178 0-.237-.089zm.015 1.808c0-.015 0-.044-.015-.06.06 0 .178.045.222.045l.06-.03h.014c.074 0 .09.03.045.104a.284.284 0 0 1-.119.06c-.089.03-.163-.015-.207-.119zm.044-1.23c-.06-.044-.044-.089.03-.148a.094.094 0 0 1 .089 0c.03.03.044.06.044.089 0 .03-.015.044-.06.06-.044.014-.073.014-.103 0zm.074-4.83a.032.032 0 0 0-.03-.03c-.014 0-.014.015-.014.03s0 .03.015.03c.014 0 .03-.015.03-.03zm.015 3.749c-.03 0-.044-.015-.03-.03 0-.03.015-.044.03-.044.045 0 .06.03.06.074zm-.015 1.748c.148 0 .237.03.267.089l-.045.06c-.103.088-.177.058-.222-.09zm.193 1.511c-.119.074-.208-.163-.148-.222.103-.104.222.163.148.222zm-.133-.489h.074c0 .045-.015.074-.03.09-.015.014-.03.014-.044-.03zm.222-5.022c-.134.059-.222-.015-.222-.119 0-.044.044-.03.148.044.03-.03.059-.044.089-.03.074.045.074.075-.015.105zm-.193 3.57c-.015-.014-.015-.044-.015-.074.119 0 .178.06.178.193-.074 0-.133-.045-.163-.119zm0 2.341c.045 0 .074.015.089.06.015.044-.015.059-.089.059zm.045-3.585c0-.045.014-.09.044-.119.015-.015.044-.015.074 0 .015.015.03.045.03.06 0 .044-.045.059-.148.059zm.03 2.519c0-.015 0-.015.014-.03.015 0 .03.015.03.03 0 .014-.015.03-.03.03s-.015-.016-.015-.03zm.044-1.704c-.074-.104-.074-.163 0-.163a.52.52 0 0 1 .237.044c.059.03.044.074-.06.134-.088.044-.148.044-.177-.015zm0 1.718c.103 0 .148.045.133.134-.015.044-.03.044-.074.03-.03-.015-.045-.045-.06-.12zm.03-.489l.029-.03.03.03-.03.03zm.103-.785c-.015-.044-.015-.074 0-.089s.044 0 .074.045c.015.015.015.044-.015.059s-.044.015-.059-.015zm.03.845c.014 0 .044.015.074.044.03.03 0 .045-.074.045zm.074-.474c.015-.045.03-.045.059-.03.015.015.015.03.015.074h-.074zM22.491 7.853c.06.089.119.148.163.192.326.282.933.43 1.837.43.193 0 .356-.03.46-.074a1.44 1.44 0 0 0 .43-.281c.147-.163.222-.312.236-.46 0-.074-.089-.118-.089-.133 0-.074.03-.089.09-.015h.029c0-.06-.03-.267-.089-.607l-.06-.06c.12-.044.149-.089.104-.163-.074-.133 0-.192-.074-.31-.014-.03-.014-.105.015-.208.015-.06.03-.09.045-.104v-.074a.714.714 0 0 1 0-.252c0-.163.015-.267.059-.311v-.311a.359.359 0 0 1-.06-.193c0-.015.016-.03.045-.074.015-.015.015-.03.015-.074 0-.06-.03-.222-.03-.267 0-.118.03-.118.03-.118V3.97a.21.21 0 0 1-.03-.089c0-.015.015-.044.045-.06.015-.014.015-.073 0-.177-.015-.208-.03-.356-.015-.46.015-.088.03-.162.03-.222 0-.014-.015-.059-.03-.148-.015-.118-.015-.192.03-.237-.015-.133-.015-.252.014-.326.015-.03.015-.06.015-.074v-.844c-.03-.015-.044-.045-.03-.09.06-.059.075-.133.045-.222-.015-.089-.03-.148-.015-.163a.603.603 0 0 0 .03-.103c-.074-.06-.089-.119-.045-.178.03-.03.045-.045.045-.06 0-.014-.06-.044-.06-.059 0 .015.015-.015.06-.118 0 0-.074-.163-.074-.237 0-.045-.074-.074-.237-.074a1.67 1.67 0 0 1-.267.044l-.282-.06c-.118-.014-.192.045-.192.06-.104-.015-.193-.015-.252-.03-.044.015-.104.015-.193-.03C24.195 0 24.121 0 24.017 0a.94.94 0 0 0-.178.148c-.074.045-.118 0-.118-.133-.074 0-.134.118-.163.37-.015.148-.015.208-.015.193v.43c.015.044.044.118.06.207-.016-.015-.03.03-.045.163-.015.044-.015.104-.015.148v1.26l-.03.059v2.237c.015.045.03.074.03.119-.06.252-.06.4-.104.4-.222 0-.459-.148-.71-.46l-.045-.177c-.03-.09-.045-.119-.045-.09v-.459-.237c0-.044 0-.177-.015-.37-.014-.163-.03-.282-.014-.356.014-.192.03-.31.03-.355a.823.823 0 0 0-.075-.341c-.015-.074.074-.074.074-.311a.266.266 0 0 0-.044-.163c-.06-.06-.074-.09-.03-.104.074-.015.074-.06.015-.118-.015-.045.015-.104.089-.149-.06 0-.074-.014-.06-.059a.158.158 0 0 1 .045-.074c.015-.015.015-.06-.03-.119-.014-.03-.014-.074.03-.133.015-.015.015-.044 0-.089-.015-.03-.015-.059.015-.074-.015-.015-.03-.03-.03-.06 0-.029.015-.044.03-.058a.52.52 0 0 1-.09-.208c-.014-.104.03-.385.03-.46L22.55.46c-.015-.044.015-.059.074-.059.015 0 .015-.015.015-.03 0-.014 0-.03-.015-.044-.03-.074-.059-.148-.074-.222l-.044.059c-.06-.06-.074-.193-.134-.148-.03.03-.044.06-.059.089-.03.059-.06.089-.074.089-.015 0-.03-.015-.03-.045V.03a.495.495 0 0 0-.177.074h-.015c-.045 0-.208-.045-.267-.045-.074.015-.4.074-.504.074-.044 0-.059.03-.074.09V.37c.297 0 .356.119.311.178-.044.045-.059.09-.059.104.06 0 .09-.015.104-.045a.44.44 0 0 0 .222.075c.045.044.09.044.104.014.03-.03.06-.044.104-.044 0-.045-.09-.089-.104-.104-.015-.044 0-.074.06-.089.103-.015.162.045.192.148 0 .045-.074.134-.074.252 0 .06.03.267.03.341-.193-.074-.371-.163-.416-.237-.014-.104-.266-.03-.281-.252 0-.104-.06-.163-.163-.163-.044.03-.06.119-.06.282.016 0-.014.015-.103.03-.044 0-.148-.104-.163-.104-.044-.015-.074-.015-.074-.03l-.119-.237-.059-.03c-.015 0-.015.015-.03.06-.014.088-.044.118-.088.088l-.03.149.03.044h.237c.044.015.059.074.044.163-.118.178-.193.208-.193.34.045.075.075.12.09.12.014.014.059 0 .118-.015.03-.015.044 0 .06.03v.103c0 .044 0 .06.014.074.119.119.178.178.163.193-.044.044-.089.044-.163.03-.104-.016-.163-.03-.163-.03 0-.06.044-.163.044-.223-.133 0-.192.03-.207.074a.262.262 0 0 1-.104.163h.09c.044 0 .133.149.118.193-.06.074-.104.133-.148.163-.015.074.103.222.118.237.03.104-.03.148-.163.148 0-.044.015-.015.045.104 0 0-.015.03-.03.089-.015.044 0 .104.03.178s.03.133 0 .163c-.015 0-.015.044-.015.148-.03 0-.045.015-.045.06v.177c0 .133-.015.34-.03.622-.014.267-.014.46-.014.578 0 .015.015.03.044.03.163.015.252.118.208.163a.303.303 0 0 1-.134.074c-.014 0-.044 0-.074-.015a.874.874 0 0 0-.03.207c.134.134.208.208.223.267.104.089.193.148.281.163.045.03.045.074.015.133-.044.045-.089.074-.133.074-.074 0-.193-.192-.267-.192v.074c0 .015.015.044.045.104a.895.895 0 0 0 .252.31c.088.03.163.045.207.03-.089.104-.133.163-.133.163.044 0 .148-.044.296-.148.133-.089.207-.089.207 0a.738.738 0 0 1-.059.282c-.044.074-.163.074-.163.148.104 0 .133-.015.119-.03l.089.06c.118.074.177.118.163.133-.06.074-.09.104-.09.104l.386.385c.104 0 .118.089.133.089.074 0 .119 0 .148-.015.074.074.119.118.104.133-.015.074-.03.119-.015.134l-.103-.104h-.03c0 .044.252.267.311.311v-.015c0-.044-.03-.089-.03-.133.104 0 .163.03.178.104a.181.181 0 0 1-.059.133v.015zM20.506 2.06c0-.015-.015-.015-.03-.03-.015 0-.015.015-.03.03 0 .014.015.03.03.03s.03-.016.03-.03zm-.03-1.63c0 .03.015.044.03.059v-.06zm.06.578c-.016-.03-.03-.045-.06-.045 0 .03.015.06.03.074zm.266-.475c.015.045.044.06.06.074.073 0 .133-.014.162-.059.09-.104.06-.192-.074-.281-.133-.09-.207-.148-.207-.178-.178 0-.267.089-.267.252.044 0 .237-.104.296-.09.03.03.045.12.03.282zm-.178 3.838c-.104 0-.148-.06-.163-.074 0-.03.03-.045.074-.06.06 0 .104.015.119.045.044.044.03.074-.03.089zm-.104-.563c-.044-.045-.03-.089.074-.104.045-.015.104.015.163.104.03.015.03.044 0 .074-.014.03-.044.044-.088.03a.387.387 0 0 1-.149-.104zm.06-.49c-.015-.014-.015-.029-.015-.044 0-.059.044-.088.118-.088.06 0 .104.03.119.074.03.074.015.118-.06.133-.059.015-.118-.015-.162-.074zm.133-.473a.252.252 0 0 1-.089-.09c.015-.029.045-.044.06-.058.044-.045.088-.045.148 0 .103.074.118.133.044.177-.044.03-.104.015-.163-.03zm-.03-2.8a.032.032 0 0 0-.03-.03c-.014 0-.014.015-.014.03 0 .014 0 .03.015.03s.03-.016.03-.03zm-.014.607c.014 0 .014 0 .014.015s0 .015-.014.015c-.045-.015-.045-.03 0-.03zm.014 4.312c.119 0 .312.103.267.222-.044.074-.104.089-.178.03-.044-.03-.074-.09-.089-.164zm0-3.63a.113.113 0 0 1 .074-.03c0 .03-.014.044-.044.06zm.208 1.037c-.119 0-.252-.104-.193-.178.03-.03.06-.045.104-.045.074 0 .133.03.163.074.06.104.03.149-.074.149zm-.119-1.141c-.015-.015-.03-.03-.03-.045 0-.059.06-.089.178-.089.06 0 .238.149.178.223-.074.089-.192.059-.326-.09zm-.03 3.319h.06v.059h-.06zm.208-1.452c-.06-.06-.044-.104.06-.119.073-.015.133 0 .177.074.045.09.03.134-.074.134a.205.205 0 0 1-.163-.09zm-.03 2.756c0-.09.06-.104.163-.06a.432.432 0 0 1 .119.208c-.015.015-.03.03-.06.03-.044 0-.118-.045-.192-.12zm.03-2.356c.119 0 .178.044.178.148-.06 0-.163-.089-.178-.104zm.06 1.926c-.06-.06-.06-.104 0-.119.103-.03.192.015.28.119.045.044-.029.089-.044.089a.313.313 0 0 1-.237-.09zm0-2.875c-.015-.03.029-.059.103-.103.045-.015.163.103.178.148 0 .015-.015.03-.06.074-.029.03-.073.03-.118-.015zm.029-.533c0-.06.104-.178.163-.133.074.074.119.133.148.178.015.03.015.044 0 .059-.03.03-.06.044-.089.044a.613.613 0 0 1-.178-.103zm.237-.874c-.03-.03-.06-.045-.089-.03-.015.015-.06.03-.118.03 0-.178.148-.296.31-.252.104.03.149.074.12.133a.447.447 0 0 0-.06.193c.252 0 .37.044.385.118.015.03-.015.06-.074.104-.044.015-.074.015-.104 0-.163-.133-.296-.222-.37-.296zm-.207.37c0-.074.074-.118.222-.118.074.074.178.192.104.237-.104.074-.193.044-.297-.06zm.059 4.786c0 .045.015.06.06.06.029 0 .044-.015.044-.06zm.193-2.963c-.03 0-.045-.015-.06-.03h.06zm-.03 2.533c.044-.014.06-.044.06-.118a.134.134 0 0 0-.09-.089c.119-.06.134-.326.193-.326.03-.015.06 0 .089.015.03.015.03.044 0 .06-.045.044-.074.058-.074.073.03.119.044.193.059.208v.014c0 .06-.074.134-.207.208zm.044-2.993c-.014-.03-.03-.059-.014-.103.014-.045.044-.06.088-.045l.178.148c.06.075.03.104-.074.104a.193.193 0 0 1-.178-.104zm.074-.518c-.014-.03-.014-.06 0-.104.015-.044.045-.06.09-.044a.47.47 0 0 1 .162.148c.06.06-.074.133-.133.133-.06 0-.104-.044-.119-.133zm.015-.504c-.059-.074-.015-.133.119-.148.074-.015.133.015.207.104.06.074.015.118-.118.133-.09.015-.163-.015-.208-.089zm.03 1.23c-.119-.045.074-.045 0 0zm.015 2.03l.03-.03v.06zm.03 1.126c-.045 0-.045-.015 0-.06.029-.044.059-.044.103-.03.044.016.044.045 0 .075-.015.015-.044.03-.104.015zm.118-5.956c-.045-.045-.06-.075-.06-.075 0-.03.03-.059.075-.074.074-.014.148.015.207.09.074.103.074.162 0 .177-.074.015-.148-.03-.222-.118zm.03 3.289l.03.03h-.06zm.059-.474h.03l-.03.03zm.015 3.467c.014-.03.03-.045.059-.045-.015.03-.03.045-.06.045zm0-3.912c0-.118.014-.148.118-.148 0 .104-.044.148-.118.148zm.163-1.2c.014-.015.03-.015.044-.015.044 0 .074.074.089.208 0 .089-.089.133-.252.133v-.222c0-.015.044-.06.119-.104zm-.09.608h.03v.03h-.03zm.03-1.141v.03h.06v-.03zm.178-.697h.03v.03zm.074 5.72c-.03-.045-.015-.134.03-.297a.277.277 0 0 1 .06-.133c.014-.015.029-.015.058 0v.266c.074-.014.104 0 .119.06a.318.318 0 0 1-.06.103c-.044-.014-.073-.014-.103.015-.045.045-.074.03-.104-.015zm.06.43c-.03-.03-.015-.06.044-.09.06-.03.089-.015.104.03.014.06 0 .089-.045.104-.03.014-.06 0-.104-.045zm.088-1.157c0-.014.015-.03.03-.03s.015.016.015.03c0 .015 0 .015-.015.03-.015-.015-.03-.015-.03-.03zm.06.09c.03 0 .044.014.044.029 0 .015-.015.03-.044.03zm.044-4.15c0-.029.015-.044.044-.044.015 0 .03.015.03.045zm.089 6.031c0-.044 0-.104.06-.104.029 0 .044.015.044.045 0 .044-.03.06-.104.06zm.044-.474c-.014-.015-.03-.03-.03-.06 0-.059.03-.088.09-.088.03 0 .044.015.059.03.06.073.074.103.044.118a.299.299 0 0 1-.163 0zm.237-.148c0-.074.03-.297.03-.37-.133 0-.207-.015-.207-.06 0-.044.03-.06.074-.06.044.016.089.03.103.045.015-.103.104-.148.238-.118a.113.113 0 0 1-.03-.074c0-.045.03-.074.089-.06.06.015.074.045.06.09-.03.088-.105.147-.208.192.014.015.03.03.03.044 0 .015-.03.09-.03.104 0 .045.163.03.207.074.045.074-.06.178-.133.134-.06-.015-.09-.03-.104-.015-.06.074-.089.103-.104.103s-.015-.014-.015-.03zm-.074-.904c-.03-.015-.03-.044 0-.074a.094.094 0 0 1 .09 0c.029.015.029.03 0 .06-.03.014-.06.029-.09.014zm-.014 1.422l.059-.059c.044.015.044.06.03.163-.015.104-.045.148-.09.148zm.059-.296l.03-.03v.06zm.074.711c-.03-.015-.03-.03 0-.074.044-.044.074-.044.089-.03.044.03.044.06.015.09-.03.03-.06.03-.104.014zm.118-.592c.06 0 .09.03.075.074-.015.074-.03.103-.075.059-.044-.03-.059-.06-.074-.074zm.03.222c-.104-.045.104-.045 0 0zm.267-.4c-.015-.06 0-.09.059-.09.074-.014.104.016.119.075.014.044 0 .074-.03.089-.045.015-.133-.015-.148-.074zm.044.518c-.118-.044.074-.044 0 0zm.03-.978c-.03-.014-.03-.044 0-.088.03-.045.06-.045.089-.015.044.044.044.074.03.089-.015.014-.06.03-.12.014zm.133 1.364l.03-.03.03.03-.03.03zm.148-.06l.03-.03.03.03-.03.03zm.208-1.511c-.03 0-.045-.015-.045-.03 0-.03.015-.044.045-.044zm.104 1.526c-.045.104-.045-.104 0 0zm.163-.474h.059v.03h-.06zm.088-.845l.03-.03.03.03-.03.03zm.104.86c-.015-.03-.015-.06.015-.09.015-.029.044-.029.06 0 .014.03.014.06-.016.09-.014.044-.044.044-.059 0zm.03-3.393l.03.03h-.06zm-.03 2.933c.03 0 .045.015.06.03h-.06zM26.51 6.905c-.045.014-.06.059-.06.118l.03.06c.03.014.044 0 .059-.03.015-.074 0-.119-.03-.148zm.073-2.742c.06.06-.118.193-.118.238.044 0 .06-.06.104-.06.014-.015.074 0 .177.045a.356.356 0 0 0 .178 0c.074-.015.119-.06.104-.119-.133-.118-.208-.296-.445-.296-.074 0-.074.06 0 .192zM26.48 6.58c.074.074.133.148.207.207a2.02 2.02 0 0 0 .34-.207l.179-.104c.044-.03.044-.074.015-.119-.104-.074-.149-.044-.341-.237-.104-.103-.178-.133-.252-.118-.104.015-.148.044-.148.103 0 .045.03.06.103.075a.417.417 0 0 0 .193 0 .523.523 0 0 0 .133.163c.06.074.074.118.045.163-.03.044-.06.059-.09.059a.285.285 0 0 1-.177-.06c-.015-.014-.03-.014-.044 0l-.104.09-.06-.03zm0-1.126l.03.03v-.03zm.044.977c-.044-.103-.044.104 0 0zm.296-1.526c.075.015.104.015.104.015l.252.193h.06c.044 0 .059-.06.014-.163-.015-.06-.06-.104-.133-.148-.178-.074-.267-.149-.267-.193 0-.015 0-.044.015-.06a.877.877 0 0 1-.356-.088c-.044.133.015.222.149.296v.045c.014.059.059.088.162.103zm-.163 3.053c-.014.044 0 .059.045.059.044.015.074 0 .089-.03.044-.074.074-.118.104-.118.118.014.148.014.103.03.104-.06.223-.104.163-.164-.044-.059-.237-.03-.281-.089l-.074-.133c-.045-.044-.074-.044-.119-.015-.06.045-.104.06-.118.06v-.075c-.104.03-.119.075-.06.149l.208.207c.015.015-.015.044-.06.119zm2.86.488l.06.03h.785c.103 0 .177-.015.222-.044a.945.945 0 0 0 .133-.415v-.504a.141.141 0 0 0 .03-.148c-.015-.045-.104-.06-.104-.119.03.015.045.015.045.015.044-.03.059-.089.059-.178 0-.074-.03-.266-.03-.326.045-.074.045-.118.045-.163a.359.359 0 0 0-.06-.192c-.059-.119-.133-.178-.207-.178-.03 0-.044.015-.06.044-.029.075-.059.104-.103.09l-.133-.12h-.86l-.118.03c.015.09-.015.282-.06.578-.014.134-.03.297-.03.504l.149.163c0 .044-.178.193-.222.193h-.119c-.074.014-.103.03-.074.059.134.118.222.207.297.252l-.09.03a.517.517 0 0 0-.355-.178c-.119 0-.34.059-.415.059 0-.074.074-.148.222-.193.045-.015.09-.044.104-.089.03-.044.03-.088 0-.118-.044-.045-.074-.03-.089.044-.015.06-.074.06-.074.06-.044-.045-.074-.06-.089-.06a.624.624 0 0 0-.074.03c-.03 0-.06-.015-.074-.06-.015-.029-.015-.059 0-.073.104-.074.208-.134.296-.163.015-.015.03-.03.03-.045v-.133c-.015 0-.06.044-.133.044-.074 0-.119-.03-.163-.089-.06-.074-.06-.133 0-.177.044-.015.103-.015.178.03v-.016c0-.044-.045-.118-.03-.163 0-.074.281-.177.281-.296 0-.06-.103-.207-.103-.281 0-.06.103-.163.103-.223 0-.133-.089-.178-.103-.252-.015-.103.118-.118.118-.133.015-.104.015-.207.074-.222.104-.015.163-.015.193-.015.089.015.133.03.118.03h1.186c0-.045.03-.074.074-.104.044-.045.074-.03.089.015.044.103.118.133.222.074l.119-.074c.014-.015.074-.015.148 0 .044 0 .103.015.148.03l.044-.03v-.252c0-.045.03-.06.074-.06.06 0 .178.03.237.03.075 0 .104-.03.104-.104 0-.059-.074-.103-.06-.148a.893.893 0 0 1 .208-.163l.03.03c.044-.044.06-.06.074-.06-.044 0-.089-.059-.133-.162-.134-.104-.237-.074-.193-.178.03-.045.06-.06.089-.06.06 0 .148.075.207.075 0-.252-.059-.37-.163-.37-.044 0-.163.073-.222.059-.044-.015-.044-.075 0-.178a.75.75 0 0 1 .134-.119.78.78 0 0 0 .148-.222c-.015-.03-.045-.044-.09-.044v.088c-.162 0-.251 0-.266.015-.015.015.015.045.06.09 0 .029-.045.073-.134.133a.157.157 0 0 1-.119-.015l-.162.133c-.075.074-.134.104-.163.089-.075-.03-.06-.089.014-.163.178-.104.415-.193.415-.37 0-.104.134-.163.178-.163l.06.03h.014c.015 0 .104-.03.119-.03.044 0 .103.059.192.177.03-.014.045-.044.03-.103-.133-.178-.282-.178-.267-.282.015-.118.03-.163.03-.148-.074 0-.104-.015-.119-.03-.044-.074.074-.192.134-.148l.192.163c.03-.03.03-.104.015-.222-.015-.104-.03-.178-.03-.237-.118 0-.088.163-.163.163l-.059-.03h-.03l-.177.09h-.015c-.015 0-.045 0-.089-.016h-.074c0-.118.207-.103.281-.237.015-.044.015-.06.015-.074.119-.104.208-.178.282-.222a.33.33 0 0 0 .089-.193c-.015-.03-.03-.044-.074-.044l-.208.03c-.015 0-.015.044 0 .118.015.06 0 .089-.044.089h-.223c-.014 0-.044-.03-.059-.074 0 .015.015 0 .06-.045l.192-.089c.015 0 0-.014-.015-.059 0-.06 0-.089.015-.104.074-.133.119-.207.119-.222a.372.372 0 0 0-.326.178c-.104.163-.178.252-.223.267-.118.015-.296-.015-.281-.134.03-.103.133-.133.296-.103 0-.074.119-.09.134-.09 0-.029-.074-.059-.237-.073-.149-.015-.223-.045-.223-.074.03-.104.06-.193.09-.238.014-.03.044-.03.103 0 .044.015.118.208.237.208.133-.015.222-.03.267-.074a.62.62 0 0 0-.178-.119c-.03-.03-.015-.059.044-.089.045 0 .06.015.074.03.149-.074.237-.163.267-.237.015-.03-.015-.06-.074-.104-.089-.044-.133-.074-.133-.089.044-.044.074-.118.074-.222a.504.504 0 0 0-.148.119c-.015.014-.045.014-.075 0l-.059-.06c-.089-.03-.133-.074-.118-.133 0-.06.03-.193.03-.267-.104 0-.09.193-.134.208-.06.015-.267-.06-.267-.119 0-.044.06-.118.06-.133 0-.015-.03-.015-.104 0-.015.015-.03.074-.074.074l-.06-.03a2.547 2.547 0 0 0-.651-.074c.044 0 0 0-.134.015h-.06c-.044.045-.132.06-.295.06-.134-.075-.312-.104-.549-.09-.177 0-.31 0-.4.015-.044.015-.074.015-.089.015-.044.03-.03.104.045.208.044.059.104.133.192.207.252.207.37.34.37.415.016.104.016.192-.029.267-.015.014-.03 0-.074-.045l-.637-.874c-.104-.045-.148-.104-.133-.148.015-.045-.045-.074-.148-.074a.239.239 0 0 0-.193.089c-.104.088-.148.133-.163.133-.044 0-.133-.193-.237-.178-.163.03-.356.148-.563.37-.104.104-.178.208-.193.282-.015.104.06.133.06.148-.015.015-.03.015-.06 0-.015-.015-.03.015-.044.09-.03.132-.045.207-.045.207v1.14c.03.015.045.09.03.223-.015.089.03.148.119.192-.015.045-.06.06-.149.06l.149.148c0 .015-.149.089-.149.133l.045.045.133.133c.015.015 0 .044-.03.089 0 .015.015.044.045.089.03.03.03.059 0 .074l-.163.074c-.015.06.148.148.104.207-.015.06.103.134.118.134l.09-.03c.044-.015.058 0 .073.03l.09.177h.103a.845.845 0 0 0 .06-.326c-.09-.014-.208-.059-.357-.103-.03-.015-.044-.03-.044-.06l.03-.103c.014-.074.044-.104.089-.104.088.03.133.06.133.089 0 .118-.015.148-.03.104.03.03.06.044.074.044.119.015.193.015.208 0 .044-.06.015-.118-.09-.163-.044-.03-.073-.074-.073-.148s-.282-.148-.341-.252c-.044-.089-.03-.148.044-.178.03-.015.06-.015.075-.015.03.015.044.03.03.06l-.03.074v.03c.074.073.148.118.207.118.148-.015.252-.045.296-.119.09-.133.134-.192.134-.192.118 0 .148.074.103.207l-.074.178c-.014.074.119.193.119.252 0 .118-.148.193-.133.267.074.163.118.296.162.37.015.074.045.06.075-.044.014-.045.03-.119.014-.193l-.044-.445c-.015-.103.015-.326.06-.696.014-.118.029-.178.029-.178.015-.015.044-.015.089 0 .044.03.074.045.089.045h.133c.044 0 .148.192.193.237.103.133.177.133.192.03.045-.534 0-.8.163-.816.222-.014.237.03.237.03h.815v1.156l-.06.06H29c0 .103 0 .132.014.118a.206.206 0 0 0 0 .133l.074.178a.215.215 0 0 1-.014.163c-.134.103-.237.148-.312.148a.334.334 0 0 0 .03.237c-.015.03-.074.03-.163.015-.104-.045-.296-.326-.46-.326-.044 0-.058.044-.058.133v.163c0 .03-.09.09-.282.178a.866.866 0 0 0-.148.282c.104.074.148.207.148.37 0 .118-.207.133-.207.237a.949.949 0 0 1 .207.222c.015.03.03.045.015.06-.074.059-.119.103-.163.118-.074.06-.06.133.03.222.059.074.088.148.088.193-.044.193-.177.207-.177.252 0 .015.014.044.044.06.104.073.148.103.148.088 0 .015-.192-.015-.311.178-.015.015.015.044.06.089v.014c0 .045-.03.09-.075.134-.015.015-.059 0-.133-.015-.193-.044-.282-.119-.282-.207-.059 0-.089.044-.089.133 0 .104.015.148.06.148.252 0 .31.193.355.267.074.015.119.03.149.015.103.074-.03.148-.163.148l-.06-.03c-.074-.03-.118-.015-.118.045 0 .074.192.237.252.34.059 0 .103-.014.133-.03.044.016.089.03.133.075.015.03.015.074 0 .118-.059.119-.103.178-.133.178-.044-.044-.089-.207-.163-.207-.133-.015-.163-.03-.222-.104.044.37.059.119.266.474.045.089.104.133.163.133h.504c0-.03.015-.059.03-.088.015-.015.06-.015.104 0l.281.074c.222.014.4 0 .519-.015l.059.03zm-3.008-5.14l.03.029v-.03zm.015.533c.104-.045-.074-.045 0 0zm.148 1.703c-.059-.014-.089-.03-.103-.03 0 .075.163.164.177.208.074.104.163.193.267.267.074.06.163.104.237.148.119.074.193.104.222.104.119 0 .163-.03.119-.104l-.222-.178c-.252-.163-.474-.31-.697-.415zm-.074-.71c-.015-.03-.015-.016-.03.044.03-.015.045-.03.03-.045zm.148.473c.06-.014.134.015.208.09.104.103.163.162.192.177.075.03.104 0 .119-.089 0-.104-.015-.178-.03-.192-.044-.015-.074-.015-.089 0-.103-.015-.326-.282-.459-.223-.104.045-.118.03-.118.045zm.134-3.63c-.074.015-.282-.074-.208-.118a.206.206 0 0 1 .134 0c.118.059.148.103.074.118zm-.104.534c-.133-.09-.163-.134-.089-.148.104 0 .178.014.222.03.09.029.104.073.06.132-.045.045-.119.03-.193-.014zm.207 4.874c-.133-.014-.237 0-.251.074 0 0 0 .015.014.06.074.178.163.103.237.237.045.103.09.148.104.148 0-.06.015-.133.03-.207 0-.015.06-.045.06-.09l-.15-.148zm-.177-4.474c0-.03.014-.045.044-.06.045.015.089.06.133.104-.014.03-.044.045-.088.045zm.014 5.497c-.014.015-.014.03-.014.044h.059c-.015-.03-.03-.044-.045-.044zm.134.118h-.03v.045c0 .044.06.074.178.089.044 0 .148-.074.148-.134a.258.258 0 0 0-.104.045h-.03a.45.45 0 0 0-.162-.045zm.178-5.378c.014 0 .014-.03.014-.09 0-.014-.03-.058-.03-.073 0-.045.016-.06.06-.06l.06.045-.03.06v.029c.015.044.03.074.015.089s-.045.015-.09 0zm.118 3.97c0-.014 0-.029-.015-.029a.032.032 0 0 0-.03.03c0 .014.016.03.03.03.015 0 .015-.016.015-.03zm.03-3.096c-.045-.119-.045.074 0 0zm.044 2.845v.03l.03-.03zm.015.133c0 .015.015.045.045.06v-.06zm.015-4.623c-.015-.03-.015-.059.03-.074.044 0 .103.074.103.09l-.03.029a.135.135 0 0 1-.103-.045zm.06.534c-.03-.015-.045-.03-.03-.06 0-.044.014-.059.03-.074.058-.044.118-.03.162.015.104.074-.044.163-.163.119zm0 .578v.03h.029v-.03zm.058 5.2a.032.032 0 0 0-.03-.03c-.014 0-.014.015-.029.03 0 .015.015.03.03.03s.015-.015.03-.03zm-.044-1.867c.06 0 .104-.014.104-.074-.074 0-.104.03-.104.074zm.089-1.378c0 .06.015.09.044.104v-.104zm.03 2.46c-.045-.06-.03-.119.044-.163.06-.044.089-.03.104.044 0 .074-.015.119-.03.134-.044.044-.089.044-.118-.015zm.03-2.919l-.016-.015a.28.28 0 0 0-.03.119c.06-.045.075-.074.045-.104zm.014.622a.032.032 0 0 0-.03-.03c-.014 0-.014.016-.03.03 0 .015.016.03.03.03.015 0 .03-.015.03-.03zm.178 1.838c-.134.044-.252-.03-.208-.149.015-.044.06-.074.104-.059.044 0 .089.06.133.06l.06-.03.03.044c0 .06-.045.104-.12.134zm-.178-2.875l.148.163h.045c0-.074-.119-.222-.193-.222zM27.709.46c-.014-.044 0-.089.045-.133.03-.03.044-.015.06.06.073.103.133.192.192.236.118.119.207.208.267.282.014.044.074.118.074.178l-.045.044a.535.535 0 0 1-.192-.163c-.163-.163-.312-.326-.312-.385.015-.06.015-.089 0-.089-.044-.015-.074-.015-.089-.03zm.075 7.142c-.045-.104-.045-.163 0-.193.074-.059.118-.103.118-.163.015-.118.06-.133.163-.044a.282.282 0 0 1 .074.193c-.06.088-.104.162-.118.207v.03l.03.03c0 .118-.045.236-.149.162-.044-.044-.074-.118-.118-.222zm.103-.756c-.044.015-.059.015-.074 0 .015-.03.03-.059.06-.089.074-.118.133-.133.192-.059.015.015.03.06.045.119.014.074 0 .103-.03.118s-.089-.015-.163-.089zm-.059-5.482a.112.112 0 0 1 .06-.03l.088.09c-.015.029-.03.044-.044.044zm.089 6.786c-.045 0-.06-.03-.06-.074s.015-.06.06-.06c.044 0 .074.016.074.06 0 .045-.03.074-.074.074zm-.03-2.83c0-.044.015-.074.03-.089.03.015.044.045.044.119a.113.113 0 0 1-.074-.03zm-.015.934c-.014-.045-.014-.074.03-.09.03-.014.06-.014.104 0a.134.134 0 0 1 .089.09c.044.074-.03.148-.104.133-.044-.015-.074-.06-.119-.133zm.06 1.97c.015 0 .03.015.044.03 0 .06-.015.089-.06.089 0-.045 0-.09.016-.119zm-.015-3.245c0-.03.015-.044.044-.03.015 0 .03.016.03.03 0 .045-.03.06-.074.06zm.104.86c-.074 0-.104-.045-.104-.148l.03-.03c.044 0 .074.06.074.178zm.133-2.667c.03.03.06.044.074.03.015-.015.03-.015.03-.015l.178.177.148-.089c-.119-.088-.178-.163-.178-.237-.282-.103-.385-.192-.43-.192 0 .118.06.222.178.326zm-.074 3.926c-.045-.015-.104-.03-.06-.074.015-.015.03-.03.06-.03zm.03-1.733c-.06-.045-.075-.09-.075-.134.045 0 .075.045.075.134zm-.015-1.882c0 .044.044.118.133.222.133.163.208.237.222.237.045 0 .06-.044.045-.148-.015-.133-.03-.207-.03-.222-.03.03-.06.044-.089.03l-.237-.12zm.133.948c-.03-.015-.044-.03-.044-.074.089 0 .133.03.133.074zm-.015.578c-.03-.03-.03-.06 0-.104.015-.03.045-.044.09-.03.103.03.147.104.147.223a.313.313 0 0 1-.237-.089zm.015 1.022c-.074-.044-.074-.089-.015-.118.045-.015.09-.015.148.03.09.074.09.103.015.118-.074.015-.118 0-.148-.03zm0 .563a.303.303 0 0 1 0-.163c.015-.074.045-.088.089-.044l.06.06c.044.088.059.147.014.162-.06.015-.104.03-.118.015-.03 0-.045-.015-.045-.03zm.015-1.052c-.045-.074-.045-.133 0-.148.074-.015.252.134.148.178-.074.015-.118.015-.148-.03zm.06 2.682c.058 0 .088.03.073.074-.03.06-.059.06-.074-.014zm.207-6.86c-.015-.044 0-.074.014-.089.074-.015.134.03.149.163a.152.152 0 0 1-.074.09.604.604 0 0 1-.09-.164zm.059 3.897c-.045-.074-.03-.119.015-.163.074-.06.177.148.133.193-.06.044-.104.03-.148-.03zm.296-.237c-.163-.119-.296-.267-.281-.37.015-.06.044-.075.103-.03.045.044.09.089.119.104.03.044.06.03.074-.045.044-.133.089.148.089.222.015.074.148.193.148.267-.044 0-.133-.044-.252-.148zm-.222-1.615c-.015.06.015.089.089.089 0-.045-.03-.134-.03-.178-.015 0-.044.03-.06.089zm.178 3.037c0 .074.015.134.03.148v-.148zm.059-.148l-.03.03h.03zm0-2.148c.104 0 .119.044.06.133-.03.06-.045.03-.06-.074zm.03-2.46c.044 0 .074.015.089.03-.045.059-.09.089-.119.089 0-.06.015-.104.03-.119zm-.03 4.978v.06h.03v-.06zm.03.475v.03h.03v-.03zm.089-5.26c-.015-.045.03-.074.103-.074 0 .03-.015.059-.03.089-.029.014-.059.014-.073-.015zm.059 4.83c-.06-.119-.06.074 0 0zm.163-2.86c0-.014.015-.03.03-.03.014 0 .014.016.014.03 0 .015 0 .015-.015.03a.032.032 0 0 1-.03-.03zm.207 3.6l.03-.029.03.03-.03.03zm.548-1.022c-.103-.044.104-.044 0 0zm.045-4.874a.081.081 0 0 1 .074-.045c0 .03-.015.06-.044.074zm.089-.09c0-.029.015-.058.044-.073l.03.03a.081.081 0 0 1-.074.044zm.074 1.26c-.015-.03 0-.044.03-.059.014-.015.044 0 .059.03 0 .03-.015.044-.03.059-.03.015-.044 0-.06-.03zm.089 2.045c-.015 0-.104 0-.09-.06 0-.029.016-.044.045-.044.03 0 .045.03.045.104zm.074-1.185c.06-.015.104.014.148.118.015.015 0 .03-.015.06-.089.133-.163.192-.207.177-.045-.03-.06-.118-.06-.281 0-.045.045-.06.134-.074zm-.074 4.563c-.015-.03 0-.044.03-.06.014-.014.044 0 .059.03 0 .015-.015.03-.03.045-.03.015-.044 0-.06-.015zm.104-3.793c-.06.045-.06-.044-.06-.089h.074c0 .045 0 .074-.015.09zm-.03-3.823c0-.059.03-.118.089-.133.044-.015.059 0 .074.03.015.074-.03.103-.163.103zm.074 7.009c-.015-.074.03-.104.163-.104 0 .044-.03.074-.074.104-.045.044-.074.044-.089 0zm.089-2.653c.015-.014.03-.014.044-.014.03 0 .074.059.134.177h-.252c0-.059.03-.118.074-.163zm.03-3.348c.014-.03.044-.03.088 0 .045.03.045.06.03.089-.044.06-.104.089-.193.089 0-.074.03-.134.074-.178zm-.03 4.845c.015-.015.03-.03.044-.03.06 0 .09.06.104.178.015.074-.06.104-.193.104 0-.104.015-.178.045-.252zm-.03-2.356c-.015-.03.015-.074.074-.133.015-.015.045-.015.074 0l.119.133a.134.134 0 0 1-.089.089c-.089 0-.148-.03-.178-.089zm0 .519c-.015-.06.06-.193.104-.193.015 0 .03.015.044.03.045.074.074.103.09.089.044-.119.029-.223.162-.208.06.015.104.03.134.074.103.104-.193.237-.149.237h-.355c-.015 0-.015-.014-.03-.03zm.06-1.645c.044-.044.074-.015.088.089.015.03-.03.044-.133.044 0-.059.015-.103.044-.133zm-.015.682c-.06-.06-.03-.149.103-.252l.149-.134.074-.118c.044-.045.074-.045.074.03.015.118-.09.222-.074.281.014.044.014.074.014.074 0 .045-.044.074-.148.119-.103.03-.163.03-.192 0zm.014-1.126l.03-.03.03.03-.03.03zm.06-.282c0-.015.015-.03.03-.044.014 0 .029.014.029.044zm0-1.719l.03-.03.029.03-.03.03zm0 4.208c.015-.044.044-.044.074-.015.03.03.03.06-.015.075zm.118-2c0-.015.03-.06.074-.104.015-.015.03-.015.045-.015.015.015.03.015.03.03l-.12.119zm0 3.57v.03h.03zm.03-1.392c-.015-.074 0-.118.015-.133.015-.045.044-.045.074.03.015.044.015.088-.015.118-.044.06-.06.06-.074-.015zm0-4.075c-.015-.044.015-.074.074-.074.074-.014.104 0 .104.03a.282.282 0 0 1-.148.074zm.044 1.334c.015-.015.03-.03.06-.03-.015.03-.03.045-.06.03zm.074.622c0-.044.03-.059.03-.059 0 .03-.015.044-.03.06zM30.97 4c-.06 0-.074-.044-.074-.103.045 0 .074.03.074.103zM30.954.104l-.059.03h.06zm.03 2.207c-.015-.074.03-.103.104-.103a.25.25 0 0 1 .148.044c.044.015.044.045 0 .074 0 .015-.045.015-.119.015h-.103l-.03-.03zm.074 1.927a.081.081 0 0 1-.044-.075c0-.03.059-.088.163-.192.103-.015.163.015.163.104 0 .103-.178.266-.282.163zm.074-3.364c.089-.044.133 0 .133.134h-.237c0-.045.03-.09.104-.134zm-.03 3.556c.134 0 .312.104.208.148-.074.015-.119.03-.148.015-.045-.015-.074-.044-.06-.104zm.015-2.415c-.103-.044.104-.044 0 0zm.045.83c-.06-.074-.045-.119.03-.148.044-.015.103 0 .148.044.014.015.014.03.014.045 0 .074-.044.103-.133.103-.03 0-.044-.015-.06-.044zm0 .192c0-.059.044-.074.103-.074 0 .045-.03.074-.103.074zm.044 2.06c.015.03.03.044.074.044-.015-.03-.03-.044-.074-.044zm.03-4.786c-.015.074.03.104.148.104a.168.168 0 0 0-.044-.119c-.045-.03-.075-.03-.104.015zm.296.963c-.015.015-.03.015-.03.03s.015.03.03.03a.045.045 0 0 0 .06 0c.014 0 .03-.015.03-.03s-.016-.015-.03-.03zm.06 2.386c.014.044.03.059.059.059.074-.06.148-.163.148-.119v-.059c-.045 0-.119.045-.208.119zm0-3.112v.03h.03v-.03zm.059.46a.417.417 0 0 0 .074.163l.104-.075v-.03a.393.393 0 0 0-.09-.073c-.044-.03-.073-.03-.088.015zm.03-.341V.74h.029V.667zm.044 2.193c-.045-.104-.045.103 0 0zm.015-1.334v.03h.059v-.03zm.044 1.393c-.044-.104-.044.104 0 0zm-.015-.697v.03l.03-.03zm.06-1.007c0-.015-.015-.015-.03-.03-.015 0-.015.015-.015.03s0 .03.015.03.03-.015.03-.03z"/></g></svg>